<svg xmlns="http://www.w3.org/2000/svg" xml:space="preserve" fill-rule="evenodd" stroke-linejoin="round" stroke-miterlimit="2" clip-rule="evenodd" viewBox="0 0 138 108">
  <path fill="#dddabd" fill-opacity=".2" fill-rule="nonzero" d="M13.66 106.42c-3.27 2-6.22 1.57-8.85-1.32s-2.57-5.7.19-8.47C17.3 84.6 24.32 73.54 26.08 63.51c.75-4.27-.5-6.4-3.77-6.4-6.02 0-11.1-2.51-15.24-7.53C2.93 44.56.86 38.16.86 30.38c0-8.78 2.57-15.93 7.71-21.46C13.72 3.4 20.43.64 28.71.64c8.28 0 15.25 3.08 20.9 9.23 5.64 6.15 8.46 14.36 8.46 24.65 0 28.36-14.8 52.32-44.41 71.9Zm79.42 0c-3.26 2-6.21 1.57-8.85-1.32-2.63-2.89-2.57-5.7.2-8.47 12.29-12.04 19.32-23.09 21.07-33.12.75-4.27-.5-6.4-3.76-6.4-6.02 0-11.1-2.51-15.25-7.53-4.14-5.02-6.2-11.42-6.2-19.2 0-8.78 2.56-15.93 7.7-21.46C93.15 3.4 99.87.64 108.15.64s15.24 3.08 20.89 9.23c5.64 6.15 8.47 14.36 8.47 24.65 0 28.36-14.8 52.32-44.42 71.9Z"/>
</svg>
