<svg xmlns="http://www.w3.org/2000/svg" xml:space="preserve" fill-rule="evenodd" stroke-linejoin="round" stroke-miterlimit="2" clip-rule="evenodd" viewBox="0 0 35 24">
  <path fill="#cbd9e5" d="m16.11 15.72 1.45-1.08a9.6 9.6 0 0 0 2.15 7.04H3.51a3.5 3.5 0 0 1-3.5-3.5V6.8l11.9 8.92a3.5 3.5 0 0 0 4.2 0ZM25.4.68a2.62 2.62 0 0 1 1.57 4.73l-.76.56a9.59 9.59 0 0 0-8 6l-3.15 2.35c-.61.47-1.47.47-2.1 0L1.05 5.4A2.67 2.67 0 0 1 .02 3.3 2.61 2.61 0 0 1 2.63.68H25.4Z"/>
  <path fill="#e5beb8" d="M35.01 15.56a7.88 7.88 0 1 1-15.75 0 7.88 7.88 0 0 1 15.75 0Z"/>
  <path fill="#393939" d="M32.09 14.99c.32.32.32.83 0 1.15L29.23 19a.82.82 0 1 1-1.16-1.15l1.47-1.47h-7.1a.82.82 0 1 1 0-1.63h7.1l-1.47-1.47a.82.82 0 1 1 1.16-1.16L32.09 15Z"/>
</svg>