<svg xmlns="http://www.w3.org/2000/svg" xml:space="preserve" fill-rule="evenodd" stroke-linejoin="round" stroke-miterlimit="2" clip-rule="evenodd" viewBox="0 0 136 252">
  <path fill="#a297b3" fill-rule="nonzero" d="M21.12.16h-.02c-1 0-2 .14-2.97.28L18 .46c-.37.05-3.65.55-4.88 1.89-.76.83-1.42 1.97-1.84 2.79-.99 1.95-2.62 3.79-5.15 5.79-.6.48-1.27.8-2 1.15-.6.29-1.23.59-1.8.99C.53 14.3.43 15.87.6 17.39c.03.3.03.64.04.99.02.77.04 1.57.33 2.3.15.38.37.7.57 1 .1.15.21.3.3.47.26.43.44.9.64 1.38.15.37.31.8.52 1.2l.38.66c.16.28.34.57.46.86.39.93.05 1.87-.3 2.88-.27.78-.54 1.58-.54 2.46.04 2.22 1.15 3.78 2.34 5.42.33.48.74.79 1.14 1.1a5.8 5.8 0 0 1 1.4 1.5c.44.56.85 1.08 1.5 1.59a3.89 3.89 0 0 0 2.91.98h.6c.5.02 1.02.02 1.56-.07.82-.16 1.68-.3 2.5-.42l.1-.01 2.4-.4c.5-.1 1.02-.25 1.55-.41.28-.08.55-.17.83-.24a8.48 8.48 0 0 1 2.18-.21h.7c.15.78.44 1.54.7 2.13.19.46.34.96.48 1.5.4 1.4.82 2.85 2.15 3.7.35.22.72.34 1.09.46l.6.22c.73.33 1.27.92 1.84 1.55a6.16 6.16 0 0 0 2.43 1.9c2.04.73 4.45.58 6.52.35 1.13-.13 2.24-.37 3.36-.61.87-.2 1.75-.38 2.62-.5l.2-.03c.55-.08 1.2-.18 1.88-.21a10.12 10.12 0 0 0 1.82 3 5.97 5.97 0 0 0-2.12.59h-3.55c-1.01.02-2.06.03-3.09 0-.57 0-1.14-.11-1.73-.22l-.77-.14c-.91-.15-1.84-.18-2.73-.2a16.27 16.27 0 0 1-3.18-.31c-4.33-.98-9.68.55-13.02 3.72a9.68 9.68 0 0 1-1.83 1.43c-.47.27-1 .49-1.5.69-.54.22-1.12.44-1.64.76A8.18 8.18 0 0 0 13 62.18c-.28.35-.57.7-.9.84-.48.18-1.07.05-1.63-.08l-.64-.13c-.86-.13-1.62 0-2.57.46-1.24.6-1.64 1.48-1.34 2.83.19.79.75 1.29 1.25 1.74.25.23.53.46.72.7 1.22 1.57 1.43 4.3 1.22 6.36-.04.39-.13.78-.22 1.17-.07.36-.15.76-.2 1.17-.37 3.12.72 5.73 3.35 7.98.71.6 1.47 1.08 2.46 1.55l.16.08c.22.1.3.13.38.26.28.38.45 1.1.6 1.75.09.39.18.76.28 1.06a8.9 8.9 0 0 0 2.56 3.55c.34.32.67.67 1.03 1.05.92.96 1.86 1.94 3.01 2.52 1.18.58 2.59.35 3.86.15l.65-.1c.97-.13 1.79-.34 2.63-.7a9.4 9.4 0 0 0 2.14-1.22l.34-.32c.16-.17.33-.33.48-.38.49-.17.63-.04 1.06.85.2.4.4.84.74 1.14.56.48 1.22.8 1.88 1.14.29.14.57.28.83.43 1.2.69 2.63 1.23 4.37 1.63.77.18 1.58.27 2.46.27 1.96 0 3.95-.45 5.93-.9 1.2-.26 2.32-.51 3.43-.65 1.16-.16 2.28-.44 3.38-.72.04.47.08.94.14 1.4.15 1.37.36 2.79.53 4.08.22 1.47.45 2.98.59 4.48l.13 1.3c.2 2.18.41 4.43.8 6.66.37 2.15.77 4.25 1.59 6.35.52 1.15 1 2.34 1.39 3.53.43 1.7.85 3.45 1.23 5.17.89 3.54 2.1 7.12 3.7 10.96.83 1.8 1.61 3.67 2.3 5.53a74.1 74.1 0 0 0 1.7 5.29c1.45 3.92 3.25 7.76 5 11.47a278.3 278.3 0 0 1 2.87 6.24 72.23 72.23 0 0 1 2.68 7.55c.54 1.75 1.1 3.57 1.78 5.34a29.4 29.4 0 0 1 1.27 5.62c.12.78.27 1.66.45 2.52.1.55.27 1.07.42 1.58.2.63.38 1.23.48 1.89.1.73.15 1.48.22 2.26.04.68.1 1.38.2 2.08.26 2.2.48 4.47.69 6.68.04.58.1 1.15.16 1.73l-.55-2.14c-1.04-3.96-2.1-8.05-3.5-11.97-.45-1.26-.95-2.52-1.44-3.74a96.06 96.06 0 0 1-2.24-6.06l-.02-.06c-.4-1.21-.84-2.47-1.3-3.7a87.2 87.2 0 0 0-1.7-4.08c-.44-1.05-.97-2.25-1.42-3.42a49.27 49.27 0 0 1-2.22-7.36c-.28-1.27-.52-2.6-.76-3.9a53.75 53.75 0 0 0-1.83-7.7l-.89-2.67c-.53-1.6-1.06-3.25-1.66-4.85-.42-1.12-.75-2.3-1.1-3.51l-.4-1.4c-.1-.35-.17-.74-.24-1.11-.1-.47-.17-.95-.34-1.41-.17-.54-.48-1.01-.78-1.5l-.34-.57c-.47-.87-.76-1.87-1.03-2.9-.13-.5-.27-1.03-.46-1.53a23.27 23.27 0 0 0-2.89-5.31 30.11 30.11 0 0 0-2.31-3.11 17.9 17.9 0 0 0-2.92-2.67c-1.14-.82-2.4-1.41-3.63-2-.52-.23-1.05-.48-1.56-.75a14.79 14.79 0 0 1-6.13-5.86c-1.2-1.93-2.53-4.11-4.6-4.41l-.44-.06c-.1-.02-.2.03-.25.1a.26.26 0 0 0 0 .28l.25.38c.44.69.84 1.44 1.22 2.17.38.72.78 1.46 1.23 2.17.7 1.09 1.37 2.27 1.98 3.32.67 1.19 1.38 2.43 2.14 3.59.2.29.48.63.8 1.02.74.89 1.86 2.23 1.67 3.04-.08.3-.35.54-.82.74a3.87 3.87 0 0 1-2.25.12c-.92-.16-2.08-.36-2.57.27-.72.9.3 2.06 1.03 2.9.26.29.55.62.63.78.19.46.08.56-.27.84-.3.24-.78.64-.6 1.37.13.53.65.9 1.14 1.26.24.18.52.38.7.57-.33 0-.86.1-.9.94-.05.82.77 1.29 1.35 1.65.15.08.27.16.37.23l1.12.77c.6.4 1.2.8 1.75 1.25.61.49 1.09 1.05 1.6 1.65.26.33.56.67.86.99.34.35.74.6 1.13.86.41.27.82.53 1.07.86.7.94.07 1.69-1.58 3.04-.55.46-1.09.89-1.37 1.34-.18.28-.26.57-.34.84-.04.18-.08.35-.16.49-.03.08-.13.18-.22.28-.18.22-.42.5-.46.88-.08.76.45 1.27.89 1.69.28.26.55.54.54.75 0 .14-.08.22-.38.4-.24.15-.54.33-.6.7-.05.38.19.69.4.92l.07.06c.6.37 1.2.72 1.81 1.05.45.24.88.5 1.3.82-.3-.02-.61 0-.95.1l-.13.03a.26.26 0 0 0-.17.2l-.02.13c-.13.65.46 1.18 1.17 1.62-.16 0-.33.03-.49.07l-.13.04a.26.26 0 0 0-.18.22l-.02.14c-.08 1.1 1.4 1.77 2.39 2.2l.46.23.52.23c1.24.5 1.84.85 2.15 1.06a8.77 8.77 0 0 1-2.79.1c-.91-.1-1.86-.2-2.24.42-.31.5.03 1.15.3 1.58 1.24 1.9 3.57 3.62 5.7 5.05 1 .67 2.08 1.17 3.13 1.67l.69.32c3.7 1.76 6.76 4.3 10.24 7.56.34.32.66.65 1 .99l-.38-.14-.6-.2c-1.92-.64-3.58-1.2-5.32-2.24-.16-.1-.36-.26-.56-.42a6.83 6.83 0 0 0-1.08-.75c-.25-.21-.6-.28-1-.21a.25.25 0 0 0-.2.28l.05.39c-.8.16-1.78.25-2.5.3l-.25.03c-1.1.1-2.41-.07-3-.61h.22c.32.03.7.04 1.07-.1l.35-.11c.1-.03.15-.1.17-.2a.25.25 0 0 0-.1-.23l-.28-.24a9.02 9.02 0 0 0-3.16-1.42c-.83-.26-1.7-.52-2.42-.95.1-.11.24-.22.4-.3l.11-.06a.24.24 0 0 0 .13-.24v-.13c-.03-.4-1.15-.88-2.1-1.21-.88-.31-1.8-.66-2.62-1.08a8.2 8.2 0 0 1-1.89-1.53c-.41-.41-.84-.83-1.34-1.2-2.48-1.88-5.47-3.01-8.38-4.11-2.4-.91-4.89-1.86-7.02-3.22-2.68-1.71-4.37-4.1-5.66-6.21-.1-.17-.32-.47-.6-.9-.64-.88-2.04-2.86-2.3-3.75a8.63 8.63 0 0 1 2.43-.02c.44.08.83.3 1.24.53.53.29 1.1.6 1.77.64h.13c.1 0 .2-.03.23-.12l.07-.11c.32-.6-.1-1.51-.79-2.85a7.12 7.12 0 0 1-.66-1.63c-.22-.7-.5-1.64-.1-1.94.19-.13.35-.11.68-.06.4.07 1.1.19 1.58-.63.57-.95.16-2.58-.18-3.9-.12-.47-.25-.92-.27-1.21-.09-.68.02-.85.32-1.32.12-.2.26-.42.42-.72a10.72 10.72 0 0 0 .96-4.6c0-.73 0-1.65.53-2.03.25-.18.8-.14 1.29-.1.46.04.99.08 1.42-.05l.26-.08a.22.22 0 0 0 .17-.15.24.24 0 0 0-.02-.22l-.16-.23a3.09 3.09 0 0 0-.54-.6c-.38-.37-.6-.6-.54-.96.18-.12.43-.15.72-.17.57-.06 1.45-.14 1.75-1.33.32-1.15-.77-2.8-1.71-4.25-.47-.7-.9-1.37-1.06-1.8-.26-.73-.13-1.28.05-1.98.1-.44.22-.94.25-1.53.04-.86.02-1.74 0-2.61v-1.34a.25.25 0 0 0-.25-.25h-.42a.25.25 0 0 0-.25.25l.01 1.36c.02.84.04 1.7 0 2.56-.03.5-.14.94-.23 1.36-.19.74-.37 1.5-.02 2.5.2.53.63 1.2 1.15 1.99.76 1.16 1.8 2.76 1.6 3.52-.16.58-.42.6-.96.66-.43.04-.95.09-1.42.55a.53.53 0 0 0-.07.17c-.23.83.16 1.38.54 1.77l-.22-.02c-.67-.06-1.37-.11-1.9.27-.9.65-.9 1.88-.9 2.78v.5a9.85 9.85 0 0 1-.87 3.68c-.13.26-.26.46-.38.64-.32.5-.57.9-.46 1.9.05.36.17.82.3 1.36.29 1.08.67 2.56.3 3.18-.17.29-.26.27-.65.2-.36-.06-.86-.15-1.37.22-.95.69-.51 2.05-.23 2.96.07.19.11.36.15.5.09.32.3.76.58 1.27.2.4.6 1.17.74 1.65-.3-.1-.6-.26-.91-.43-.45-.24-.94-.52-1.52-.62a9.28 9.28 0 0 0-3.18.1l-.12.04a.24.24 0 0 0-.18.18l-.04.12c-.2.8.72 2.3 2.47 4.77l.03.06c.25.35.45.62.55.78 1.34 2.2 3.1 4.7 5.94 6.5 2.23 1.42 4.75 2.38 7.2 3.32 2.83 1.08 5.76 2.19 8.15 3.98.43.33.85.73 1.24 1.12.63.62 1.27 1.25 2.1 1.69a22 22 0 0 0 2.72 1.13c.1.03.64.27 1.1.48-.16.18-.31.4-.37.69l-.03.13c-.01.1.02.2.1.25l.12.08c.89.63 1.97.96 3 1.28.55.17 1.07.33 1.56.53-.16.02-.31.06-.48.12l-.17.07a.26.26 0 0 0-.14.3l.04.18c.56 2.02 3.9 1.79 4.26 1.75l.25-.02c1.06-.1 2.63-.22 3.6-.6l.48.38c.23.18.46.36.66.49a24.96 24.96 0 0 0 5.5 2.33l.6.2c.54.18 1.48.59 2.4 1.1.79.83 1.63 1.7 2.52 2.45l.4.32c.07.07.18.08.28.03a.25.25 0 0 0 .13-.25l-.02-.17.18.55.87 2.5c.45 1.23.94 2.46 1.41 3.66.48 1.2.98 2.45 1.44 3.7 1.38 3.9 2.45 7.98 3.47 11.93.65 2.5 1.31 5.08 2.06 7.58l.07.38c.06.45.12.92.16 1.38.12 1.16.24 2.36.74 3.46.74 1.6.99 3.44 1.23 5.23l.14 1.02c.11.77.33 1.32.58 1.95l.13.32c.29.75.45 1.66.63 2.55l.16.83c.1.5.16 1.05.23 1.53.1.75.18 1.53.41 2.3.25.86.37 1.75.48 2.62.09.69.16 1.4.33 2.1.32 1.48.53 2.97.64 4.83.07 1.27.37 2.6.65 3.9l.15.76c.2.88.47 1.44 1.08 2.19l.14.18c.24.3.51.66.83.8l.15.06.1.02c.07 0 .15-.04.2-.1l.1-.13c.72-.96.73-2.4.69-2.97-.13-1.12-.35-2.06-.55-2.97l-.02-.08c-.12-.53-.25-1.06-.35-1.6A300.7 300.7 0 0 0 94 230.23l-.31-1.42a69.52 69.52 0 0 0-2.94-9.24c-.3-.84-.62-1.68-.91-2.52-.46-1.31-.92-2.7-1.37-4.22-.17-1.16-.29-2.33-.41-3.48l-.05-.38c-.12-1.15-.23-2.31-.33-3.5-.2-2.07-.43-4.43-.7-6.7-.09-.67-.14-1.36-.2-2.03-.05-.71-.12-1.52-.23-2.31-.1-.73-.3-1.4-.5-2.05-.15-.48-.3-.97-.4-1.48-.16-.82-.3-1.67-.43-2.51-.32-1.92-.63-3.91-1.34-5.77-.63-1.72-1.2-3.5-1.74-5.23l-.02-.07a72.7 72.7 0 0 0-2.7-7.65c-.93-2.11-1.92-4.22-2.89-6.27a142.94 142.94 0 0 1-4.95-11.4 71.68 71.68 0 0 1-1.7-5.25c-.7-1.91-1.49-3.8-2.33-5.61a74.75 74.75 0 0 1-3.65-10.8 140.4 140.4 0 0 0-1.24-5.21 33.15 33.15 0 0 0-1.42-3.64 31.42 31.42 0 0 1-1.52-6.15c-.38-2.18-.59-4.31-.8-6.58l-.14-1.31a97.48 97.48 0 0 0-.58-4.55c-.2-1.31-.4-2.67-.55-4.01l-.15-1.53.66-.16.85-.21c.69-.17 1.4-.36 2.1-.45l.7-.07c.54-.05 1.1-.1 1.66-.26 1.42-.41 2.78-1.32 4.03-2.15.47-.31.86-.72 1.25-1.13.4-.43.78-.83 1.2-1.06.39-.22 1.07-.11 1.64-.03 1.4.22 2.71.23 4.1.23h.45c1.58 0 3.8-.15 5.64-.9 1.34-.53 2.07-1.51 2.29-3.1.15-1.1.31-2.33.36-3.52.12-3.05.1-5.8-1.58-8.28-.46-.67-1.01-1.13-1.6-1.62l-.32-.26a9.42 9.42 0 0 1-1.1-1.1c-.7-.81-1.4-1.65-2.08-2.48-1.26-1.52-2.57-3.1-3.98-4.57a78.94 78.94 0 0 0-6.44-6l.33.08c.36.07.72.1 1.1.13.28.03.56.05.83.09.2.03.37.1.6.2l1.04.55c.72.38 1.47.78 2.28 1.09 2.63.99 5.6.89 9.04-.31.65-.22 1.13-.58 1.62-.94.29-.2.58-.41.88-.58.4-.21.78-.43 1.16-.66l.1-.06c.5-.3 1.04-.61 1.57-.88.8-.42 1.7-.72 2.59-1.02.53-.18 1.09-.37 1.63-.58.79-.32 1.49-.7 2.2-1.08a4.86 4.86 0 0 0-.82 2.5c-.05 1.29.63 2.62 1.23 3.79l.29.58a8.42 8.42 0 0 0 4.8 4.33c1.43.57 2.41.52 3.82.23a8.9 8.9 0 0 0 4.1-2.26c.41-.41.75-.87 1.08-1.33.23-.34.5-.7.77-1a12 12 0 0 0 2.18-3.38c1.02-2.47.41-4.96-.15-7.36l-.24.06.23-.12c-.1-.4-.2-.8-.28-1.2a50.8 50.8 0 0 0-1.95-6.24c-.28-.8-.59-1.6-.86-2.4-.33-1.01-.85-1.95-1.33-2.86l-.47-.88c-.19-.35-.35-.7-.52-1.04-.37-.77-.76-1.57-1.25-2.32l-.45-.67a4.24 4.24 0 0 0 1.44-4.95c-.15-.35-.28-.71-.42-1.07-.28-.8-.6-1.63-1.02-2.4l-.46-.8c-.44-.82-.88-1.6-1.49-2.4-.1-.14-.2-.3-.31-.43l-.05-.07c-.67-.91-1.36-1.85-2.31-2.4-.64-.37-1.22-.8-1.81-1.24a4.65 4.65 0 0 0-1.95-.77l-.42-.1c-1.26-.3-2.75-.57-4.34-.31-.66.1-1.39.13-2.04.15-1.03.04-2.07.07-3.08.38a21.41 21.41 0 0 0-4.6 1.87 26.36 26.36 0 0 0-4.95 3.78c.38-1.88.65-3.88.36-5.92a18.54 18.54 0 0 0-.88-3.33l-.23-.72a17.57 17.57 0 0 0-1.29-3.26c-1.03-1.85-3.23-2.6-4.88-2.91a8.26 8.26 0 0 0-3.42.25c-.8.18-1.53.32-2.26.33-1.61 0-2.93-.85-4.33-1.76a25.7 25.7 0 0 0-1.32-.81l-.32-.2a7.53 7.53 0 0 0-2.48-1.07c-.8-.12-1.92.1-2.92.34-.9.2-1.72.66-2.56 1.1-.54.3-1.12.6-1.67.8-.72.27-1.2-.1-1.9-.6l-.6-.41c-.5-.32-1-.65-1.47-.98-1.33-.9-2.58-1.76-4.2-2.33l-.23-.08c-2.2-.78-5.2-1.86-7.44-.43A3.66 3.66 0 0 0 31 4.5c-.13.77-.07 1.65.16 2.5a8.38 8.38 0 0 1-.9-.87l-.8-.91-.05-.05c-1.53-1.75-2.96-3.4-5.24-4.41a7.44 7.44 0 0 0-3.05-.6Zm71 228.94c-.16-.92-.35-1.88-.66-2.71l-.13-.33c-.23-.58-.43-1.07-.52-1.74l-.14-1.02a38.7 38.7 0 0 0-.36-2.33 65.31 65.31 0 0 1 2.49 8.02l.31 1.42c.96 4.38 1.96 8.9 2.75 13.45.1.55.22 1.1.35 1.63.21.9.41 1.83.47 2.74.02.29.03 1.2-.26 1.92l-.33-.41a3.68 3.68 0 0 1-.88-1.8l-.16-.75a24.52 24.52 0 0 1-.63-3.77 30.05 30.05 0 0 0-.67-4.97c-.14-.66-.23-1.34-.31-2.02-.11-.9-.23-1.84-.5-2.76-.21-.71-.31-1.41-.39-2.18-.07-.51-.13-1.04-.24-1.58-.06-.24-.1-.5-.14-.74l-.05-.07Zm43.14-151.71c-.42-.72-1.55-1.24-2.61-1.48.24-.16.45-.31.59-.45l.09-.1c.17-.14.42-.37.45-.8.04-.68-.77-1.58-1.13-1.83a3.8 3.8 0 0 0-2.02-.6 3.66 3.66 0 0 1-1.3-.26l-.09-.04-.15-.07-.03-.07a1.78 1.78 0 0 0-.1-.23c-.04-.1-.06-.18-.08-.28a2.07 2.07 0 0 0-.39-.77c-.6-.66-2.22-1.3-3.12-.84-.31.16-.47.44-.58.67l-.09.15c-.09-.08-.19-.17-.32-.26l-.05-.04a5.23 5.23 0 0 0-.82-.31l-.16-.07c-.21-.1-.45-.21-.8-.16-.38.06-.8.27-.93.7-.1.34-.02.58.1.74-.27.12-.54.3-.76.64a2.3 2.3 0 0 0-.41 1.6c.08.6.41 1.04 1.02 1.34l-.03.08a.23.23 0 0 0-.12.08l-.07.1c-.3.36-.67.66-1.02.98a8.4 8.4 0 0 0-.97.92c-.28.32-.53.69-.75 1.02l-.23.35a6.64 6.64 0 0 0-1.12 3.05c-.04.75.27 1.38.56 1.99.08.18.18.37.25.55.39.97.86 1.3 1.63 1.86.44.3.88.64 1.32.97l.09.07 1.31.98c-.13.88-.12 1.8-.1 2.68.01.89.03 1.8-.13 2.65-.1.64-.28 1.27-.43 1.88-.17.65-.35 1.32-.46 2.02l-.03.2c-.17.98-.35 2-.65 2.94-.33 1-.92 1.8-1.53 2.65-.3.42-.62.85-.91 1.3-.31.53-.5 1.09-.66 1.63-.18.55-.35 1.08-.66 1.54-1.31 1.94-2.48 4-3.6 5.99-.35.6-.68 1.2-1.04 1.8a42.33 42.33 0 0 0-3.1 6.48 151.16 151.16 0 0 1-3.9 9.4l-1.54 3.52a23.55 23.55 0 0 1-1.5 2.92c-.3.49-.63.98-.96 1.47-.58.84-1.16 1.7-1.62 2.66-1.23 2.55-1.91 5.37-2.21 9.13-.06.89-.33 1.84-.59 2.76-.18.65-.37 1.3-.5 1.97a51.3 51.3 0 0 0-.48 3.17c-.42.77-.7 1.48-.86 2.2-.08.35-.07.66-.03.94.02.2.03.38 0 .55-.05.35-.23.67-.43 1-.12.22-.25.45-.37.7-.1.24-.17.48-.26.73-.13.38-.25.75-.47 1.08a16.52 16.52 0 0 0-1.68 4.55c-.21.74-.38 1.44-.6 2.1-2.02 6.02-3.14 13.1-3.43 21.62-.02.12-.02.24-.01.36.01.13.12.23.25.23l.42-.01c.13 0 .24-.11.24-.24l.01-.23c.02-.16.09-.31.16-.5a2.97 2.97 0 0 0 .34-1.46c.02-.32.03-.6.13-.88.19-.57.36-1.15.53-1.75.19-.61.37-1.25.59-1.86l.32-.94a52.67 52.67 0 0 0 2.33-8.3c.33-1.93.86-4 1.62-6.33.34-1 .63-1.9 1.03-2.75.57-1.23.58-2.1.6-3.4l.01-.44c.06-2.48.2-4.67.43-6.7a26.43 26.43 0 0 1 2.42-3.42c.77-1 1.51-1.93 2.09-2.9a33.42 33.42 0 0 0 2.58-5.82c.71-1.86 1.43-3.78 2.44-5.52a17.34 17.34 0 0 0 1.85-4.71c.64-2.68 1.85-5.24 3.01-7.7.31-.7.64-1.37.96-2.06.25-.54.48-1.12.73-1.72.36-.9.75-1.81 1.16-2.63.76-1.48 1.9-2.91 2.97-4.3.42-.52.85-1.06 1.24-1.6l.16.02a2.68 2.68 0 0 1 1.38.34c.19.08.37.16.59.23.76.26 1.35.6 2.01.96.35.2.73.4 1.13.6l.56.35c1.83 1.13 3.53 2.08 4.3 1.35.72-.68 0-1.46-.42-1.92a5.84 5.84 0 0 1-.35-.4l.53-.1c1.14-.2 2.73-.5 2.69-2.24a2.47 2.47 0 0 0-.35-1.23 3.3 3.3 0 0 0-.48-.62c-.23-.27-.44-.52-.49-.78-.02-.1.2-.43.29-.6.24-.37.55-.84.24-1.28-.3-.43-.91-.38-1.43-.33.08-.17.19-.32.36-.36.1-.03.25-.04.43-.06l.21-.02.14-.01a2.18 2.18 0 0 0 .92-.23l.1-.02a.26.26 0 0 0 .19-.16l.03-.1a.73.73 0 0 0-.05-.63c-.26-.38-.9-.44-1.51-.44-.31 0-.64.02-.96.05-.21.02-.36.07-.51.12a1.1 1.1 0 0 1-.31.05c-.54.04-1.12.09-1.67.25-.7.19-1.36.46-2.01.73l-.78.3c-2.28.88-3.52 2.65-4.84 4.52l-.5.7-.09-.01.18-.5c.13-.33.36-.57.63-.85a7.98 7.98 0 0 0 2.28-3.58c.33-1.03.65-2.1 1.19-2.95l.2-.34c.25-.4.52-.9.8-1.17l-.01.4c-.04.89-.07 1.66.46 1.87.47.18.84-.26.97-.4l.17-.24.06-.1c.01.08.02.2.01.43v.1c0 .07.02.13.06.18.05.05.12.08.19.08h.41c.13.02.25-.1.26-.23v-.1c.02-.35.05-1.2-.67-1.4-.54-.13-.84.19-1.02.44l.02-.6c.01-.32.03-.57 0-.75-.02-.15-.1-.6-.49-.75-.41-.15-.77.16-.9.26-.42.35-.8.99-1.1 1.5l-.2.33c-.58.96-.95 2.08-1.28 3.16l-.2.59c-.31.98-1.04 1.77-1.87 2.63-.29.3-.63.64-.84 1.13-.08.19-.13.39-.19.59-.02.05-.03.09-.06.13-.25.56.19.79.42.9l.01.02-.96 1.24c-1.1 1.4-2.26 2.87-3.06 4.43-.44.85-.82 1.79-1.21 2.72a65.24 65.24 0 0 1-1.66 3.74c-1.18 2.5-2.41 5.1-3.07 7.87-.42 1.7-.96 3.12-1.75 4.46a35.17 35.17 0 0 0-2.5 5.67c-.72 1.9-1.46 3.89-2.53 5.67-.54.92-1.27 1.84-2.02 2.8-.48.6-.95 1.22-1.4 1.85.05-.38.13-.76.2-1.14.12-.62.3-1.26.47-1.9.28-.95.56-1.94.63-2.93.29-3.64.94-6.36 2.11-8.8.44-.9 1-1.74 1.57-2.55l.98-1.5a27.1 27.1 0 0 0 1.56-3.04l1.52-3.51c1.36-3.08 2.76-6.26 3.93-9.46.7-1.95 1.67-3.96 3.05-6.34.34-.6.67-1.2 1.03-1.81a86.08 86.08 0 0 1 3.57-5.92c.39-.57.57-1.2.77-1.8.16-.5.3-.97.56-1.4.28-.45.6-.88.88-1.26.61-.87 1.27-1.76 1.64-2.9.35-1 .51-2.04.69-3.06l.03-.2c.12-.66.28-1.31.45-1.96.17-.62.33-1.27.45-1.93.15-.93.14-1.9.12-2.82a18 18 0 0 1 .05-2.08l.29.19c.59.37 1.75.93 2.79.48.19-.08.33-.17.48-.26.14-.1.29-.18.45-.23.52-.16.86-.44 1.22-.74l.2-.16c.39-.3.69-.65.97-1 .21-.22.4-.45.61-.65.43-.41.78-.74 1.14-1.26l.27-.36c.16-.2.31-.41.46-.63.2-.32.31-.66.43-1 .06-.2.12-.38.22-.57.34-.73.86-1.9.63-2.9.32.12.69.17 1.02.09.4-.1.7-.37.86-.73.19-.33.16-.72-.02-1.05Zm-39.81 85.9c-.03.66-.06 1.34-.07 2.04v.44c-.02 1.27-.03 1.98-.51 3.03-.41.9-.73 1.82-1.06 2.85a41.63 41.63 0 0 0-1.66 6.46c-.45 2.75-1.39 5.5-2.29 8.16l-.33.95c-.2.62-.4 1.26-.59 1.92l-.06.17c.49-6.44 1.52-11.96 3.14-16.78.23-.7.44-1.44.62-2.17.41-1.51.82-3.07 1.59-4.3.27-.42.4-.85.54-1.27l.24-.66c.09-.2.2-.4.32-.6a.68.68 0 0 1 .12-.24Zm-20.06 16.65-.46-.5a52.2 52.2 0 0 0-2.2-2.25c-3.52-3.32-6.66-5.9-10.47-7.72l-.67-.32c-1.01-.48-2.07-.97-3-1.6-2.06-1.38-4.3-3.02-5.45-4.78-.27-.42-.27-.6-.28-.6.16-.11 1.02-.02 1.36.02l.68.06c1.02.03 2.15-.1 3.05-.33l.12-.03a.24.24 0 0 0 .18-.2l.02-.11c.2-.91-1.22-1.58-2.97-2.31-.2-.1-.35-.15-.42-.2l-.49-.22-.05-.03c-.45-.2-1.26-.57-1.64-.93h.22c.38.03.8.06 1.21-.1l.36-.14a.24.24 0 0 0 .14-.2.25.25 0 0 0-.1-.23l-.3-.22c-.13-.1-.35-.22-.61-.37a8.4 8.4 0 0 1-1.27-.82c.48 0 .99.12 1.48.25.22.06.45.12.68.16l1.06.2c.11.03.23-.03.28-.14a.24.24 0 0 0-.1-.3l-.88-.6-.59-.34c-.2-.12-.41-.24-.58-.36a10.36 10.36 0 0 0-2.06-1.41c-.56-.31-1.14-.64-1.7-.98l-.06-.07a.91.91 0 0 1 .13-.08c.3-.18.8-.48.84-1.14.02-.63-.44-1.07-.84-1.46-.35-.33-.63-.62-.6-.93 0-.1.13-.24.24-.37a2.11 2.11 0 0 0 .58-1.13c.05-.21.1-.42.2-.57.22-.33.7-.72 1.2-1.14 1.3-1.05 3.05-2.5 1.72-4.3a4.66 4.66 0 0 0-1.33-1.08c-.35-.23-.68-.45-.93-.71-.3-.3-.56-.62-.84-.95-.5-.61-1.02-1.24-1.72-1.78-.58-.47-1.2-.9-1.8-1.3l-1.1-.74c-.12-.08-.26-.18-.42-.27-.37-.22-.94-.55-.93-.82v-.06c.17-.01.43 0 .72-.08l.1-.04c.1-.03.15-.1.17-.2l.02-.11c.18-.81-.57-1.36-1.18-1.8-.34-.24-.74-.54-.8-.75-.03-.13-.03-.17.29-.43.37-.3.99-.81.52-1.9-.12-.3-.42-.64-.76-1.03-.41-.46-1.25-1.42-1.01-1.72.1-.13.67-.11 1.7.06a4.7 4.7 0 0 0 2.76-.19c.76-.31 1.2-.77 1.34-1.36.32-1.26-.89-2.7-1.85-3.84-.28-.33-.56-.68-.72-.93-.76-1.15-1.45-2.37-2.13-3.56-.63-1.11-1.29-2.26-2-3.35-.44-.68-.82-1.4-1.19-2.1l-.56-1.07c1.08.74 1.98 2.2 2.8 3.52.4.65.77 1.27 1.15 1.75A15.83 15.83 0 0 0 49 118.7c.52.27 1.07.53 1.6.78 1.18.56 2.4 1.13 3.49 1.9.95.68 1.86 1.5 2.76 2.53a28 28 0 0 1 2.25 3 22.72 22.72 0 0 1 2.77 5.1c.17.5.31 1.03.46 1.54.28 1.02.55 2.08 1.1 3.04l.37.64c.27.4.53.84.68 1.27.14.4.22.85.3 1.3.07.39.14.8.26 1.2l.42 1.42c.32 1.17.67 2.38 1.1 3.54.6 1.6 1.15 3.26 1.67 4.86.28.88.57 1.77.88 2.65.82 2.43 1.3 5.03 1.78 7.59.24 1.28.48 2.6.77 3.9a51.17 51.17 0 0 0 2.25 7.5c.47 1.19.98 2.39 1.45 3.44a98 98 0 0 1 2.31 5.85 7.36 7.36 0 0 0-2.28-1.81Zm52.16-68.82.01.15c.01.1.08.2.2.22l.14.03c.2.04.43.02.71-.01l.51-.03c-.05.09-.12.2-.16.24-.22.35-.51.79-.4 1.26.09.49.4.86.7 1.2.13.16.27.32.36.47.16.27.23.53.24.78.01.83-.5 1.07-1.98 1.34-.42.08-.81.15-1.17.28l-.15.06c-.12.04-.18.16-.17.28l.03.17c.1.46.45.85.79 1.22.33.34.48.55.47.63-.06.05-.47.22-3.21-1.48-.28-.17-.48-.3-.6-.36-.41-.2-.75-.4-1.12-.6-.68-.38-1.32-.73-2.14-1.02a4.24 4.24 0 0 1-.51-.21 4.65 4.65 0 0 0-1.27-.4l.18-.24c1.23-1.75 2.39-3.41 4.41-4.18.24-.1.48-.2.72-.28l.08-.03c.64-.25 1.29-.51 1.92-.7a7.3 7.3 0 0 1 1.49-.21c.19-.01.34-.03.53-.1h.03a1.8 1.8 0 0 0-.64 1.52Zm-104.7-15c-1-.5-1.9-1.43-2.76-2.34-.36-.38-.71-.74-1.07-1.07a7.9 7.9 0 0 1-2.3-3.2c-.1-.25-.18-.61-.26-.97-.18-.72-.36-1.54-.74-2.06-.24-.33-.51-.45-.75-.56l-.15-.07a9.63 9.63 0 0 1-2.25-1.42c-2.39-2.03-3.39-4.38-3.06-7.17.04-.36.12-.73.2-1.08.1-.41.18-.83.24-1.27.22-2.23-.03-5.23-1.4-7a6.6 6.6 0 0 0-.83-.84c-.47-.4-.85-.75-.97-1.26-.23-.93 0-1.4.85-1.8.77-.38 1.35-.48 2.02-.38l.59.12c.66.15 1.41.3 2.15.04.57-.22.96-.7 1.3-1.14a7.73 7.73 0 0 1 1.97-1.74c.48-.28 1-.5 1.53-.7.55-.22 1.1-.44 1.63-.75.79-.46 1.45-1.04 1.98-1.56 3.14-2.97 8.15-4.41 12.2-3.5 1.12.27 2.25.3 3.39.34.86.03 1.74.06 2.6.19l.77.14c.59.1 1.2.23 1.86.24 1.04.03 2.1.02 3.1 0l1.67-.01h.5c-.2.18-.36.36-.48.55-.59.84-.56 1.47-.34 2.27l.04.12c.03.09.1.16.18.18l.12.03h.07l-.54.2h-.02a18.41 18.41 0 0 0-8.13 7.86c-2.6 4.55-6.65 8.12-10.64 11.3l-.27.22c-.08.05-.1.14-.1.23.01.09.08.16.15.2l.33.13c4.56 1.92 9.76 1.77 14.77 1.64 2.04-.06 3.97-.11 5.84-.03 2.2.09 4.43.34 5.87 1.55.07 1.6.29 3.24 1.55 4.2.23 1.1.38 1.98.5 2.8.32 2.07.49 4.18.64 6.22l.14 1.66a27.7 27.7 0 0 1-3.41.73c-1.15.15-2.36.42-3.54.69-2.66.59-5.4 1.2-7.94.6-1.64-.38-3-.88-4.13-1.53-.27-.16-.57-.31-.88-.46-.6-.3-1.2-.6-1.66-1-.2-.18-.36-.52-.52-.85-.29-.6-.69-1.43-1.58-1.43-.17 0-.38.04-.6.1-.37.13-.62.39-.85.62-.07.09-.17.17-.26.25-.54.44-1.34.87-1.9 1.09-.8.32-1.52.5-2.42.63l-.7.1c-1.14.2-2.4.4-3.3-.05ZM55.5 82.5c-.22-1.26-.35-2.5-.48-3.7l-.12-1.11-.1-1.12a9.61 9.61 0 0 1 1.3-3.66c.63-.95 1.4-1.98 2.63-2.11.37-.05.66.08 1.03.24.25.1.51.2.84.28l.36.07c.08.02.17-.01.23-.08a.25.25 0 0 0 .06-.25l-.12-.34c-1-2.92-3.78-5.45-6.01-7.5l-.36-.31a23.93 23.93 0 0 0-.95-5.34c.67-.2 1.43-.56 1.57-1.34.09-.48-.14-1-.47-1.5.45.03.9.02 1.36-.03 1.13.54 2.2 1.27 3.22 1.99a17.08 17.08 0 0 0 5.79 3l.36.3a81.91 81.91 0 0 1 7.49 6.84 79.1 79.1 0 0 1 3.92 4.53c.69.82 1.38 1.67 2.1 2.5.38.44.77.83 1.2 1.19l.31.26c.53.44 1.05.86 1.43 1.42 1.52 2.27 1.55 4.74 1.42 7.73-.04 1.16-.22 2.38-.36 3.45-.16 1.25-.68 1.95-1.72 2.37-1.33.54-3.14.82-5.22.82h-.52c-1.34-.01-2.63-.01-4-.23-.69-.11-1.53-.24-2.2.14-.52.3-.98.77-1.41 1.23-.35.37-.71.74-1.08.99l-.06.04c-1.14.76-2.43 1.63-3.72 2-.48.14-1 .19-1.5.23l-.73.08c-.75.1-1.48.28-2.22.47l-.81.2-.54.13c-.03-.51-.07-1.01-.12-1.51a87.47 87.47 0 0 0-.65-6.28c-.15-1.1-.37-2.14-.52-2.96.47-.7.26-1.74-.63-3.13Zm76.5-.88c-.11.2-.17.43-.24.65-.11.29-.19.57-.34.79-.12.2-.29.4-.42.6l-.27.35c-.32.45-.62.74-1.05 1.13a7.2 7.2 0 0 0-.66.72c-.27.32-.54.62-.85.86l-.21.17c-.33.27-.57.47-.92.58a2.7 2.7 0 0 0-.66.33l-.35.19c-.67.28-1.51-.14-1.95-.41l-.62-.4.11-.33a5 5 0 0 0 .19-1.47c.01-.4.02-.78.13-1.13.15-.5.26-.58.7-.93.22-.17.39-.36.58-.55.22-.22.43-.42.67-.6a7.68 7.68 0 0 0 2-1.97l.17-.23c.29-.42.6-.85.93-1.22.43.12.76.07 1.25-.41.19-.17.31-.41.42-.63.1-.02.17.03.45.24l.17.14.45.29c.33.2.72.45.85.69.32.69-.21 1.86-.53 2.55Zm-9.34 5-1.02-.76-1.39-1.04c-.73-.52-1.04-.73-1.34-1.46-.07-.2-.18-.4-.27-.6-.25-.54-.5-1.04-.48-1.56.03-.8.52-1.92.97-2.57l.24-.37c.21-.32.43-.65.66-.91.28-.31.6-.6.9-.85l.69-.61c-.05.45.25.7.61.94l.3.2c1.16.85 2.39 1 3.69 1.17l1.03.14.27.04.44.08c-.26.3-.49.65-.73.99l-.15.23a6.69 6.69 0 0 1-1.77 1.75c-.33.22-.56.46-.81.72-.16.16-.32.32-.49.46-.47.37-.78.62-1.01 1.38-.14.47-.16.93-.17 1.38-.01.42-.02.83-.16 1.2l-.01.05ZM53.88 76.48c-.25 1.5-.27 3-.25 4.12-1.62-1-3.81-1.22-5.77-1.3a46.5 46.5 0 0 0-2.11-.04c-1.24 0-2.47.03-3.8.07-4.66.13-9.45.26-13.68-1.28 3.84-3.1 7.7-6.57 10.26-11.06a17.78 17.78 0 0 1 3.87-4.92 15.09 15.09 0 0 1 3.84-2.56c2.49-1.07 4.52.9 6.53 2.84l.84.79.25.22c.14 2.19.06 4.4 0 6.54-.04 2.05-.11 4.37.02 6.58Zm78.88 1.08c-.13-.1-.22-.18-.33-.25l-.28-.23c-.14-.12-.29-.26-.47-.38 1.02.05 2.44.54 2.79 1.15.06.08.06.17.03.25a.36.36 0 0 1-.24.19c-.43.1-1.08-.4-1.5-.73Zm-11.04-5.4c.16-.23.37-.3.69-.43l.37-.15.22-.11a.2.2 0 0 0 .12-.16.26.26 0 0 0-.03-.21l-.15-.2c-.12-.2-.3-.3-.4-.38l.13-.05c.09-.01.13 0 .3.09l.24.1c.23.06.46.15.64.22.14.1.27.22.45.37l.14.06c.7.18 1-.38 1.15-.65.05-.11.12-.25.2-.28.4-.21 1.59.16 2.02.63.1.12.13.23.2.43l.11.35.08.2c.15.39.26.46.64.64l.08.04c.52.26 1.09.3 1.64.36.58.05 1.13.1 1.56.42.32.25.76.87.75 1.05 0 .04-.01.06-.17.19-.04.04-.08.07-.11.12-.29.29-.95.65-1.95 1.08a.26.26 0 0 0-.13.32l.07.2-.19.08c-.19.1-.32.29-.43.46-.44.15-.86.4-1.28.76a6.01 6.01 0 0 0-1.02-.23l-.27-.04c-.34-.06-.7-.11-1.04-.15-1.19-.15-2.3-.3-3.28-1.01-.13-.1-.24-.16-.35-.23l-.19-.14.08-.16c.09-.2.27-.41.46-.64l.05-.07c.21.03.47.06.76 0 .4-.07.75-.18 1.08-.27.46-.13.9-.26 1.36-.3.07.08.17.15.25.23.6.55 1.25.9 1.96 1.1.52.16.86.12 1.08-.11a.6.6 0 0 0 .09-.67c-.14-.4-.55-.62-.84-.8l-.15-.07a4.12 4.12 0 0 0-1.85-.58l-.24-.01a2.47 2.47 0 0 0-1.01-.43 3.19 3.19 0 0 0-2.48.49c-.13.1-.26.24-.38.39-.75-.2-1.22-.36-1.31-.91-.03-.26.09-.62.28-.93Zm8.65 5.45h.06l.01.05-.07-.05ZM54.83 64.24c1.82 1.67 3.94 3.67 5.03 5.87a2.5 2.5 0 0 0-1.23-.2c-1.55.16-2.5 1.3-3.3 2.5-.23.35-.44.73-.61 1.15 0-1.22.03-2.44.06-3.64.07-1.85.12-3.77.05-5.68Zm27.25-43.32a20.76 20.76 0 0 1 4.4-1.8c.9-.27 1.89-.3 2.88-.33.69-.02 1.4-.05 2.12-.16a10.2 10.2 0 0 1 3.99.3l.43.1c.61.13 1.09.23 1.62.63.6.43 1.21.88 1.88 1.28a7.6 7.6 0 0 1 2.05 2.16l.38.52c.56.75.98 1.49 1.42 2.29l.46.82c.39.69.67 1.48.96 2.25.14.37.27.74.42 1.1a3.3 3.3 0 0 1-.21 2.8c-.23.38-.55.74-.95 1.08-1.2-1.44-2.42-2.05-3.68-1.87-1.28.19-1.75 1.08-1.75 1.79-.01.9.68 1.96 1.97 2.17.99.16 2.16-.14 3.28-.83l.43.63c.45.7.82 1.45 1.2 2.23l.52 1.06c.13.26.28.5.42.77l.06.12c.48.87.97 1.77 1.29 2.7.28.84.58 1.67.86 2.48a47.13 47.13 0 0 1 1.91 6.08c.07.38.18.77.27 1.16l.03.12c.54 2.27 1.1 4.6.2 6.8a10.79 10.79 0 0 1-2.02 3.13c-.31.34-.57.7-.83 1.07-.31.42-.62.86-.98 1.2a7.94 7.94 0 0 1-3.64 2.02c-1.3.27-2.09.3-3.32-.2a7.5 7.5 0 0 1-4.3-3.87l-.3-.6c-.55-1.07-1.17-2.28-1.13-3.34.03-.71.29-1.51.67-2.03.05-.1.13-.17.21-.28.29-.37.66-.82.7-1.38l.03-.38c.02-.1-.03-.18-.1-.23a.26.26 0 0 0-.26-.01l-.34.18-.96.52-.13.07c-.82.46-1.61.89-2.49 1.24-.51.2-1.05.39-1.58.57-.91.3-1.84.6-2.71 1.07-.53.27-1.04.57-1.54.86l-.06.04-1.23.7c-.36.2-.67.43-.99.66-.43.32-.86.63-1.37.8-3.27 1.14-5.95 1.24-8.41.3a19.4 19.4 0 0 1-2.23-1.04c-.34-.18-.67-.36-1.03-.53a2.85 2.85 0 0 0-.85-.3l-.92-.1c-.33-.02-.67-.05-.98-.11-.76-.15-1.48-.32-2.13-.51-.56-.46-1.1-.94-1.63-1.42l-.11-.1c-1.38-1.22-2.8-2.48-4.36-3.51 1.23-.5 2.4-1.17 3.31-1.91l.57-.44c.58-.43 1.08-.8 1.48-1.61l.4-.81.05-.1c.18-.32.33-.65.5-.97a9.32 9.32 0 0 0 1.11-4.2c0-1.2-.2-2.22-.4-3.31l-.02-.12c-.04-.24-.1-.48-.13-.72a7.7 7.7 0 0 0-.77-2.34c.32-.31.63-.66.9-1.01a4.3 4.3 0 0 0-.02 2.63l.05.17c.05.12.15.19.28.17l.18-.03c.37-.06.74-.4 1.1-.71l.33-.3.42-.28c.17-.12.33-.23.33-.47l.01-.1a.26.26 0 0 0-.06-.2c0-.03.02-.1.05-.16.44-.2.8-.68 1.12-1.12.12-.16.23-.31.33-.4a13.3 13.3 0 0 0 2.58-3.65c.29-.55.6-1.1.94-1.65a14.28 14.28 0 0 0 1.9-4.15l.13-.57a29.49 29.49 0 0 1 5.79-4.58ZM52.2 57.96l.5-.11.2-.04c.4 1.26.69 2.64.85 4.2l-.3-.28-.08-.07c-1.3-1.26-2.63-2.55-4.14-3.1.98-.12 1.94-.34 2.97-.6Zm6.32-3.71a34.32 34.32 0 0 1 4.75 3.73l-.2-.1C62 57.35 61 56.65 60 55.96c-.74-.5-1.48-1.02-2.26-1.5l.78-.21ZM48.7 55.3c.47 0 .89-.07 1.28-.14l.07-.01c.33-.06.68-.12 1.03-.14.12 0 .21-.1.24-.21.5.2.86 1.07 1.1 1.63.08.16.13.33.2.49l-.64.14c-1.84.46-3.5.82-5.14.54-.1-.43-.07-.75.27-1.23.26-.38.74-.76 1.34-1.07h.25Zm4.13-.16.17.03.59.12c.05.02.13 0 .18-.03a.2.2 0 0 0 .11-.15l.04-.16c.29.39.58.89.55 1.14-.05.25-.37.46-.97.64l-.26-.68c-.1-.27-.24-.6-.41-.91Zm-1.62-3.8.02.02v.04a5.14 5.14 0 0 0 2.17 2.9l-.28-.04c-.67-.12-1.2-.22-1.64-.63a8.4 8.4 0 0 1-1.95-2.83c.72.07 1.26.24 1.68.55Zm2.58 1.79c-.46-.75-.99-1.6-1.71-2.25-.03-.3-.03-.6 0-.96v-.36c0-.06 0-.11.02-.16.03 0 .07 0 .12-.02.41-.18.46-.72.44-1.24.61-.94 1.38-1.85 2.3-2.71.13.22.26.42.4.6.14.23.3.45.42.7.05.09.14.13.24.14a.44.44 0 0 0 .4-.3c.18-.44-.13-1.37-.53-1.94.33-.26.64-.5.97-.73.03.09.09.18.15.27.07.09.16.2.33.29 0 0 .25.1.4.04.08-.03.13-.1.14-.17.12-.4.04-.78-.05-1.08l.56-.35a15 15 0 0 0 1.68-1.2c.52-.41 1.05-.83 1.63-1.16l.26-.15c.53-.3.91-.51 1.37-1.17.37-.54.74-.77 1.35-1.13l.31-.2c.33.65.5 1.39.6 1.92.04.29.1.57.16.86.2 1.09.38 2.03.38 3.15a8.32 8.32 0 0 1-1.02 3.78l-.48.96-.48.93c-.3.62-.64.87-1.22 1.3l-.57.44c-1 .8-2.36 1.53-3.74 2l-.73-.38c-1.44-.74-2.39-.98-2.96-.76a.87.87 0 0 0-.52.5c-.17.47-.08.88.26 1.24l-.05-.01c-.14-.01-.3-.06-.48-.14l-.35-.55Zm3.58.48c-.34.07-.64.13-.97.17l-.08-.04c-.83-.35-1.12-.56-1.05-.8.06-.02.46-.15 2.1.67Zm-23.1-2.66c-.86-.3-1.44-.96-2.07-1.65a6.82 6.82 0 0 0-2.13-1.77c-.23-.1-.47-.18-.7-.26a3.6 3.6 0 0 1-.87-.36c-1.04-.66-1.4-1.94-1.75-3.17a13.6 13.6 0 0 0-.52-1.6 9.58 9.58 0 0 1-.6-1.8 39.7 39.7 0 0 1 1.88 0c.44.02.88.07 1.36.13 1.17.13 2.38.27 3.6-.18 1.07-.4 1.15-1.07 1.08-1.44-.2-1.3-2.62-2.6-3.63-2.65-1.38-.06-4.21.26-5.05 1.97-.17.37-.26.8-.27 1.28h-.46c-.85 0-1.64 0-2.57.24l-.9.25c-.47.14-.96.29-1.42.37l-2.38.4c-.87.14-1.76.28-2.63.44-.46.09-.91.08-1.4.07h-.6a3.06 3.06 0 0 1-2.34-.78c-.55-.44-.92-.92-1.32-1.43l-.68-.83c-.28-.33-.62-.6-.9-.82-.36-.28-.7-.54-.96-.92-1.1-1.53-2.13-2.97-2.16-4.9 0-.71.25-1.44.5-2.14.37-1.07.8-2.28.26-3.53-.14-.36-.35-.7-.51-1-.13-.2-.24-.38-.34-.58l-.5-1.13c-.2-.5-.4-1-.68-1.5-.11-.18-.23-.35-.36-.53-.17-.27-.36-.52-.47-.8-.23-.58-.24-1.3-.26-2 0-.32-.02-.7-.04-1.06-.16-1.51 0-2.56 1.34-3.47a12.6 12.6 0 0 1 1.7-.92c.73-.35 1.48-.71 2.16-1.25 2.64-2.08 4.35-4.02 5.4-6.1a12 12 0 0 1 1.7-2.57c.76-.83 3.01-1.42 4.35-1.6l.12-.02c1.95-.27 3.77-.53 5.54.25 2.1.93 3.47 2.5 4.94 4.17l.03.05.82.92c.75.83 1.6 1.48 2.33 2 .11.18.22.34.34.49.88 1.1 2 1.9 3.07 2.68.53.38 1.06.77 1.57 1.19.22.17.4.36.59.53.59.67 1.24 1.38 1.95 2 .5.42 1 .95 1.56 1.67.88 1.12 1.63 2.37 2.38 3.58l.22.36c.6.98 1.14 1.84 1.64 2.6.31.68.65 1.35 1 2.06l.32.64a17.67 17.67 0 0 0 2.1 3.17c.42.48.85.98 1.07 1.47.07.17.1.29.14.5l.03.2c.08.36.3 1.2.77 1.48.19.1.38.12.58.05a.9.9 0 0 0 .56-.61c.22-.77-.42-2.16-1.92-4.15l-.02-.02a57.27 57.27 0 0 1-3.84-5.21 37.7 37.7 0 0 1-1.28-3.12c-.38-1.1-.77-2.21-1.6-3.11a7.9 7.9 0 0 0-1.65-1.27 10.9 10.9 0 0 1-2.09-1.62c-.23-.22-.43-.45-.65-.67l-.62-.62-.36-.41c-.52-.6-1.06-1.22-1.65-1.8-.87-.85-1.86-1.52-2.8-2.17l-.74-.51a5.5 5.5 0 0 1-.7-3.46c.13-.85.57-1.53 1.22-1.94 1.86-1.18 4.62-.2 6.64.53l.23.08c1.5.54 2.71 1.36 4 2.23.48.33.98.66 1.5.99l.54.38c.74.54 1.58 1.14 2.74.72.63-.23 1.25-.56 1.85-.88a9.5 9.5 0 0 1 2.27-1c.51-.11 1.86-.43 2.6-.32.65.1 1.48.58 2.14.97l.32.19c.44.25.87.53 1.3.8 1.43.93 2.92 1.89 4.81 1.89.87 0 1.68-.18 2.45-.35 1.03-.23 2-.44 3.06-.24 1.46.27 3.38.92 4.25 2.46.53.9.87 2.02 1.22 3.1l.24.73c.35 1.04.7 2.1.85 3.17.31 2.36-.13 4.7-.63 6.93l-1.18 1.15c-.79.78-1.6 1.59-2.42 2.37-.27.25-.53.5-.78.78l.03-.06c.27-.56.65-1.32 1.13-1.45a.26.26 0 0 0 .14-.12.25.25 0 0 0 .02-.2l-.1-.4A.25.25 0 0 0 72 27c-.86.24-1.33 1.17-1.7 1.92l-.24.45c-.56.96-1.05 1.95-1.53 2.9l-.21.45-.68.8c-.37.43-.72.9-1.05 1.36-.45.6-.9 1.23-1.43 1.74l-.2-.21c-.46-.42-1.07-.52-1.6-.61a4.46 4.46 0 0 1-.54-.11l-.21-.06c-.85-.22-1.58-.41-2.49-.44l-.5-.02c-1.81-.07-3.87-.16-5.64.32-.33.09-.67.16-1.03.24-1.26.28-2.69.6-3.66 1.39-1.31 1.08-2.75 3.2-2.77 5-.02 1.14.29 2.19.57 3.2.12.42.25.88.35 1.35a8.74 8.74 0 0 1-2.53-2.52c-1.17-1.58-1.74-3.65-2.28-5.65a20.94 20.94 0 0 0-1.89-5.14c-.4-.7-.91-1.27-1.4-1.83-.47-.52-.9-1.01-1.23-1.56a7.7 7.7 0 0 1-.82-2.23 14.1 14.1 0 0 0-.46-1.58c-.06-.13-.2-.2-.33-.14l-.38.15a.25.25 0 0 0-.14.13.21.21 0 0 0 0 .19c.18.48.3.99.43 1.48.21.83.44 1.69.93 2.48.38.62.86 1.16 1.31 1.69.47.53.96 1.08 1.32 1.69.85 1.45 1.32 3.2 1.8 4.92.57 2.09 1.15 4.24 2.43 5.96.6.82 1.1 1.45 1.79 2.04l-.3-.12c-.98-.41-1.78-.73-2.65-1.65a45.68 45.68 0 0 1-3.94-5 47.55 47.55 0 0 0-3.98-5.02 9.78 9.78 0 0 0-1.36-1.14c-.49-.36-.94-.7-1.32-1.15a28.9 28.9 0 0 0-6.03-5.45 25.85 25.85 0 0 0-5.67-2.95c-2.49-.88-5.27-1.08-7.98-1.28l-.1-.01c-1.05-.08-2.05-.15-3.04-.27a.29.29 0 0 0-.17.05.22.22 0 0 0-.1.17l-.04.4c-.03.15.07.27.21.29 1.05.12 2.13.2 3.19.28 2.64.19 5.37.4 7.74 1.23a27.94 27.94 0 0 1 11.32 8.13c.46.53.97.92 1.5 1.3.42.3.85.63 1.22 1.02a46.42 46.42 0 0 1 3.88 4.94c1.25 1.73 2.54 3.52 4.03 5.09 1.01 1.06 1.93 1.43 3 1.87.3.13.63.26 1 .43.5.23.95.55 1.4.87l.1.06c.1.39.2.77.33 1.15-.6.05-1.2.13-1.67.2l-.2.03c-.94.13-1.9.34-2.74.53-1.05.23-2.14.46-3.22.58-2 .14-4.28.28-6.15-.38Zm15.09-1.3.26.12c.06.03.15.03.23-.01a.26.26 0 0 0 .13-.2l.02-.27c.08-.6-.4-1.27-1.49-2.02l-.02-.2c-.12-.71-.3-1.4-.49-2.07a10 10 0 0 1-.51-2.94c.01-1.52 1.26-3.35 2.42-4.3.8-.65 2.11-.95 3.3-1.21.37-.08.71-.16 1.04-.25 1.64-.44 3.63-.36 5.37-.3l.5.03c.83.03 1.5.2 2.3.42l.2.05.65.13c.45.07.85.14 1.1.38.04.04.1.08.13.13l-.2.13-.07.05c-.65.39-1.16.69-1.64 1.4-.34.48-.58.6-1.07.88l-.27.15c-.63.36-1.2.8-1.75 1.25-.5.39-1.01.79-1.55 1.1l-.58.36c-.13-.13-.3-.32-.58-.33-.22 0-.4.13-.43.33-.03.19.09.3.15.37.03.03.07.08.1.14-.5.34-.98.7-1.46 1.09a.61.61 0 0 0-.3 0 .25.25 0 0 0-.19.27l.01.13a15.8 15.8 0 0 0-2.1 2.24 8.4 8.4 0 0 0-.11-.62.26.26 0 0 0-.17-.18.26.26 0 0 0-.24.03c-.17.13-.3.32-.37.52-.05-.1-.18-.12-.29-.1a.25.25 0 0 0-.16.27c.02.28.1.56.17.83.06.17.1.33.12.5l.03.2c-.26.45-.38.79-.4 1.39l-.02.7a5.07 5.07 0 0 0-1.99-.38 5.94 5.94 0 0 1-.13-.4c.13.09.24.14.35.19Zm5.14-.34c.07 0 .14-.01.24-.05a.23.23 0 0 0 .13-.15c.05-.15.25-1.86-.24-2.3a.44.44 0 0 0-.49-.07.23.23 0 0 0-.14.15c-.03.1-.05.23-.05.35-.21.08-.36.18-.44.34-.09.2 0 .4.12.62l.16.38c.1.25.22.59.51.7.05 0 .11.03.2.03Zm3.9-1.13-.06.06c-.07 0-.11 0-.18.02-.1 0-.23 0-.37.06-.1.04-.36.13-.28.46.07.24.24.3.4.35.19.07.35.08.52.02.11-.03.1-.03.18-.01.1.04.2.05.3.05.19 0 .35-.06.48-.17.12-.11.22-.25.3-.37.03-.05.06-.11.13-.18.06-.08.18-.22.17-.4a.45.45 0 0 0-.13-.22c-.1-.06-.2-.06-.28-.06l-.22-.01a2 2 0 0 0-.7.19.86.86 0 0 0-.27.2Zm-.64-1.02c.08.03.15.05.23.05.1 0 .22-.03.31-.1.23-.12.43-.4.45-.65l.01-.13v-.08l.1-.46c.02-.14.03-.3 0-.46a.4.4 0 0 0-.27-.33c-.17-.04-.33.02-.46.17-.12.14-.17.3-.23.44-.02.08-.05.15-.1.22-.04.08-.08.15-.14.22-.06.1-.13.19-.17.29-.12.23-.1.4-.08.5a.7.7 0 0 0 .35.32Zm-7.63-.7c.32-.04.53-.35.59-.61.03-.14 0-.27-.01-.4a4.26 4.26 0 0 0-.13-1.06c-.01-.03-.03-.07-.03-.11-.02-.1-.04-.22-.08-.32-.1-.21-.29-.21-.34-.21-.3.03-.42.5-.42.5l-.04.2c0 .2.05.35.08.5.05.16 0 .3-.08.52-.05.12-.1.26-.13.42-.03.17.01.32.12.42a.5.5 0 0 0 .36.14c.05.02.09 0 .11 0Zm1.42-2.81.15.14.18-.16-.16.19c.06.09.17.24.35.25h.02c.06 0 .17-.04.23-.08.07-.08.1-.18.11-.27a1.6 1.6 0 0 0 .02-.94.81.81 0 0 0-.15-.28l-.05-.06.02-.17c.02-.11.05-.23.02-.37 0-.1-.04-.37-.39-.37-.26 0-.35.17-.42.3a.77.77 0 0 0-.13.52c0 .1 0 .1-.02.17a.78.78 0 0 0-.06.79c.08.13.19.24.28.34Zm2.3-.21h.07c.07 0 .11-.01.17-.05a.5.5 0 0 0 .15-.2l.05.07c.07.04.13.06.2.04.6-.11.63-1.01.63-1.4l.01-.15c.03-.46.03-.72-.05-.88-.06-.1-.19-.31-.42-.33-.16-.01-.28.06-.41.22a.53.53 0 0 0-.1.24c-.04-.01-.08-.02-.14-.01-.1 0-.17.09-.2.19-.11.42-.1.84-.1 1.26 0 .19 0 .38-.03.59a.46.46 0 0 0 .02.23c.02.1.08.16.16.18Zm-3.94-.76c.13.06.3.14.47.14.07 0 .12-.01.19-.03.2-.07.33-.26.3-.46a.37.37 0 0 0-.25-.28l-.13.2.1-.21a.96.96 0 0 1-.32-.36l-.02-.06a1.62 1.62 0 0 0-.59-.67.79.79 0 0 0-.4-.16s-.27-.02-.4.1a.3.3 0 0 0-.08.22c.05.54.38.97.68 1.28.13.14.26.2.4.27l.05.02Zm-22.38-3.26-.87-.01h-1.15c.01-.33.08-.62.19-.86.56-1.18 2.87-1.52 4.18-1.46.8.04 2.66 1.22 2.76 1.87.02.16-.14.3-.5.44-1.02.38-2.06.26-3.18.13-.46-.04-.95-.1-1.43-.11Zm41.15-5.43c.14-.25.27-.48.37-.71l.04-.08.77-.96c.81-1.03 1.65-2.1 2.64-3.01.86-.8 1.66-1.6 2.47-2.4l.05-.05a17.23 17.23 0 0 1-1.53 2.98c-.34.55-.66 1.1-.98 1.69a12.4 12.4 0 0 1-2.4 3.43c-.13.13-.26.3-.43.5-.19.27-.6.8-.8.84l-.1.02a.24.24 0 0 0-.18.14l-.05.1a2.1 2.1 0 0 0-.23.82l-.3.2c-.12.08-.25.2-.41.35l-.26.22c-.12-1.34.66-2.83 1.33-4.08Zm34.5.48c-.91.54-1.83.77-2.57.66-.79-.13-1.22-.74-1.21-1.26 0-.48.36-.81.98-.9l.3-.02c.82 0 1.64.5 2.5 1.52ZM42.57 17.89a4.05 4.05 0 0 1 .58.9c-.18-.3-.38-.6-.58-.9Z"/>
</svg>
