<svg xmlns="http://www.w3.org/2000/svg" xml:space="preserve" fill-rule="evenodd" stroke-linejoin="round" stroke-miterlimit="2" clip-rule="evenodd" viewBox="0 0 441 215">
  <path fill="#222" fill-rule="nonzero" d="M230.12 184.13c1.29-.44 2.63-.76 3.92-1.06.82-.19 1.65-.38 2.46-.62.63-.17 1.3-.27 1.93-.37.66-.1 1.42-.23 2.15-.43 1.01-.28 1.93-.7 2.84-1.09a13.86 13.86 0 0 1 3.77-1.25c1.02-.14 2.06-.24 3.08-.33 1.76-.17 3.6-.35 5.46-.75.86-.19 1.64-.51 2.41-.83.72-.3 1.4-.6 2.12-.76 1.18-.25 2.31-.64 3.34-1.11.85-.41 1.64-.7 2.63-.97a28.38 28.38 0 0 0 5.1-2.15l.35-.17c1.2-.6 2.1-.7 3.43-.39.2.05.42.11.66.19.48.14.98.3 1.53.32.73.05 1.46-.12 2.2-.27l.72-.14c.3-.06.62-.1.95-.15l.1-.01a8.91 8.91 0 0 0 3.57-1 32.35 32.35 0 0 1 4.68-2.27c.95-.4 1.91-.56 2.93-.73l.7-.12c2.42-.43 4.59-.22 7.3.28.34.06.7.16 1.06.26.51.15 1.05.31 1.62.37 2.26.22 4.45-1.43 5.9-2.52a11.38 11.38 0 0 0 3.27-3.8c.17-.3.42-.6.75-.94a5.46 5.46 0 0 0 1.22-.87c.2-.17.4-.35.62-.5.56-.4 1.01-.87 1.45-1.32a6.66 6.66 0 0 1 1.74-1.43c1.77-.9 3.78-1.34 5.73-1.75 1.99-.43 4.06-.87 5.94-1.81.43-.21.83-.46 1.27-.73.46-.27.89-.54 1.33-.75a10.1 10.1 0 0 1 2.9-.7l.1-.02.64-.1c2.55-.4 4.7-1.1 6.75-2.18l.5-.26a13.73 13.73 0 0 1 3.1-1.37l.67-.15c.61-.13 1.2-.26 1.83-.57l.48-.25.11-.06a15.57 15.57 0 0 0 5.24-2.06 18.5 18.5 0 0 0 3.23-2.73l1.7-.87c1.48-.76 2.67-1.9 3.83-3.02.5-.49 1.1-1.05 1.66-1.53.47-.38.95-.65 1.5-.95.28-.15.58-.31.87-.49.42-.26.79-.59 1.11-.9.3-.27.58-.52.88-.71 1.67-1.03 3.19-1.28 5.1-1.6 1.65-.28 3.1-.63 4.85-1.5 1.96-.96 3.81-2.1 5.61-3.23l1.54-.95.61-.09c2.61-.35 5.3-.72 7.64-1.98 4.34-2.35 6.76-5.8 9.33-9.46.5-.73 1.01-1.45 1.55-2.18l.25-.33.7-1 .1-.12c.16-.21.33-.4.48-.63 1.7-2.34 2.7-4.79 3.12-7.53.33-2.14 1.24-4.5 2.33-6 .1-.17.23-.33.37-.5.67-.86 1.4-1.84 1.48-3.06.04-.55 0-1.1-.03-1.62-.05-.51-.07-1-.04-1.47.07-1.07.17-2.09.27-3.15.06-.5.12-1 .2-1.5.08-.4.15-.82.2-1.3.08-.58.14-.98.28-1.35l.43-.2c.47-.21.9-.4 1.24-.59a84.46 84.46 0 0 0 3.27-1.84c-.03.27-.05.66.2 1.01l.08.13c.06.07.15.12.24.14h.12c.22.33.5.38.7.37.43-.03.62-.4.7-.54l1.67-3.37c.83-.5 1.7-.98 2.58-1.45a80.4 80.4 0 0 0 2.2-1.2 48.1 48.1 0 0 0 6.87-5.1 19 19 0 0 1 1.44-1.1c1.08-.8 2.18-1.6 2.93-2.55.56-.72.63-1.05.63-2-.03-2-.88-4.05-1.52-5.42-.98-2.09-2.26-4-3.54-5.92a74.26 74.26 0 0 1-2.08-3.24 7.97 7.97 0 0 1-.66-2.27c-.38-1.98-.92-4.67-3.75-4.87-.69-.05-1.2-.08-1.5.8-.04.07-.07.17-.12.3-.34.74-.17 1.97 0 3.27.1.75.19 1.45.16 1.88-.03.55-.11 1.08-.17 1.62-.15 1.15-.3 2.33-.15 3.61.18 1.6.47 3.18.76 4.7l.3 1.63c.44 2.48 1.05 5.89.5 8.27-.09.4-.25.77-.45 1.18-.16.36-.33.73-.46 1.16l-.22.98c-.1.5-.2.95-.4 1.36a5.3 5.3 0 0 1-2.22 2.11c.9-1.75 1.65-3.15 2.39-4.43l.38-.62c.57-.92 1.03-1.65.83-3.12a8.25 8.25 0 0 0-.54-1.9c-.31-.8-.54-1.38-.27-2.48a5.2 5.2 0 0 0-.13-3.59c-.5-1.29-.74-2.5-.98-3.81-.08-.4-.15-.82-.25-1.25-.14-.64-.36-1.22-.57-1.8a5.95 5.95 0 0 1-.55-2.58c.01-.23.07-.44.14-.7.08-.35.18-.7.2-1.11.03-1.65-.78-3.14-1.57-4.62-.3-.55-.57-1.06-.79-1.55a12.25 12.25 0 0 0-2.96-4.09c-1.03-1-2.04-2.06-3.06-3.13-.94-1-2-2.13-3.09-3.17l-.18-.18c-.35-.35-.71-.7-1.2-1a8.22 8.22 0 0 0-1.4-.59c-.34-.12-.67-.23-.97-.38-1.57-.76-3.11-1.66-4.62-2.54-.99-.56-2-1.15-3-1.7a33.48 33.48 0 0 1-4.46-3.06 85.12 85.12 0 0 0-2.28-1.71c-.36-.25-.7-.55-1.04-.86-.93-.81-2-1.74-3.53-1.77-.85-.03-3.2.21-3.84 1.6-.16.36-.3 1.12-.02 4.1v.12c.15 1.8.75 3.21 1.38 4.72l.11.29c.7 1.7 1.34 3.5 1.17 5.09-.1.85-.46 1.62-.87 2.45-.58 1.2-1.18 2.44-.94 4.02.34 2.26.35 5.02.02 7.73-.32 2.8.39 4.98 1.14 7.32.35 1.07.71 2.18.99 3.4.09.37.17.73.29 1.09-.35-.2-.67-.35-1-.49l-.74-.35c-1.5-.75-2.7-1.3-3.57-1.11l-.21.05a.36.36 0 0 0-.26.26l-.05.22c-.39 1.86 1.06 4.36 2.17 6.23l.49.87c1.65 3.09 3.68 6.31 7.26 8.83 2.95 2.08 6.18 3.2 9.04 4.18 1.47.51 2.76.68 4.14.87.64.09 1.37.19 2.12.33l.94.2a8.1 8.1 0 0 0 3.52.25l.67-.07-.04.19c-.06.18-.27.38-.5.6-.16.15-.32.29-.44.45-.1.12-.2.25-.27.38-1.08.51-2.27 1.15-2.91 1.97-.96 1.2-1.08 2.73-1.18 4.06-.05.78-.19 1.54-.32 2.3-.11.6-.23 1.29-.31 1.98-.1.95-.14 1.88-.15 2.7-.03 1.38-.08 2.7-.42 4.1-.11.48-.17.95-.23 1.4a5.8 5.8 0 0 1-.69 2.4c-.16.27-.35.5-.53.73-.34.45-.74.95-1 1.66-.28.75-.31 1.51-.34 2.24-.02.53-.04 1.03-.15 1.5-.12.45-.32.89-.62 1.37a36.8 36.8 0 0 1-3.2 3.3c-.5.46-.97.93-1.45 1.4a35.06 35.06 0 0 1-4.17 3.34l-.1.07c-.58.42-1.15.83-1.71 1.26-.96.73-2.02 1.21-3.14 1.72l-.77.35a20.3 20.3 0 0 0-3.13 1.93c-.61.42-1.15.8-1.78 1.18l-.23.04c-.35.05-.72.1-1.06.17l-7.9 1.31c-3.39.56-11.68 2.5-15.55 8.73a35.4 35.4 0 0 1-4.29 5.73 60.25 60.25 0 0 0-3.47 1.89l-1.29.77-.12.07a67.2 67.2 0 0 1-3.19 1.86c-1.02.22-2.07.4-3.02.56l-.65.1c-1.58.27-2.8.6-4.2 1.14-1.9.72-3.44 1.2-4.76 1.45-.88.16-1.81.3-2.64.4-2.18.32-4.42.62-6.4 1.53-.54.25-1.14.42-1.78.58-.5.14-1.1.3-1.64.51a22.56 22.56 0 0 0-5.67 3.28c-1.32 1.03-2.53 2.23-3.59 3.29-.33.33-.73.68-1.11 1-.45.39-.89.78-1.3 1.18l-.25.13c-.4.17-.82.37-1.2.68-1.85 1.48-4.13 1.82-6.63 2.18a39.7 39.7 0 0 1-8.27.64c-1.43 0-2.9.3-4.34.59-.56.12-1.12.23-1.66.32l-1.54.23c-1.19.17-2.42.34-3.6.65-.78.22-1.53.5-2.27.77-1.06.4-2.08.76-3.13.93-1.16.18-2.32.37-3.47.58l-1.77.3-4.58.73c-2.74.43-5.57.87-8.35 1.4-1.31.25-2.53.8-3.74 1.34-.49.2-.95.42-1.42.61-2.07.82-4.18 1.4-5.77 1.78a203.57 203.57 0 0 1-16.16 3.3c-1.57.26-3.17.56-4.75.86a103.37 103.37 0 0 1-10.7 1.62c-.9.1-1.81.2-2.68.2l.85-.34c.51-.2 1-.38 1.42-.61 1.74-.92 3.6-1.2 5.38-1.49 1.78-.27 3.55-.69 5.24-1.08 1.55-.35 3.17-.74 4.77-1 3.2-.54 6.4-1.52 10.04-3.11a30 30 0 0 0 4-2 11.3 11.3 0 0 1 2.89-1.17l.68-.21c.74-.23 1.54-.38 2.3-.54.72-.13 1.54-.3 2.33-.52 1.7-.5 3.15-1.2 5.01-2.37.66-.42 1.35-.78 2.03-1.15.83-.44 1.7-.9 2.52-1.46.65-.44 1.27-.88 1.9-1.33.92-.64 1.85-1.31 2.82-1.93 1.66-1.06 2.86-2.18 3.32-4.18.35-1.5.76-2.27 1.85-3.42.37-.4.74-.83 1.12-1.27.82-.96 1.65-1.95 2.57-2.57.18-.13.34-.19.63-.29l.3-.1c1-.41 1.9-.92 2.87-1.51 1.57.57 3.62.63 6.12.14a89.18 89.18 0 0 0 7.22-1.79c2.2-.6 4.46-1.23 6.7-1.67 1.3-.26 2.59-.47 3.88-.67l1.17-.2c.42-.03.78-.08 1.14-.13 1.44-.26 2.9-.5 4.35-.73l5.03-.84c.84-.13 1.42-.42 1.98-.7l.7-.32c3.44-1.46 7.62-2 11.67-2.54 1.5-.2 2.9-.4 4.32-.63 1.23-.2 2.48-.4 3.78-.59 2.37-.35 4.84-.73 7.22-1.23 3.47-.73 6.86-2.2 10.36-4.52a33.75 33.75 0 0 0 9.6-9.48l.43-.67c1-1.56 2.14-3.3 2.71-5.06.36-1.04.38-2.08.41-3.07.01-.5.02-.96.08-1.43.1-.8.06-1.4-.37-1.83-.48-.47-1.18-.4-1.86-.32-1.16.17-2.34.24-3.49.32-1.11.07-2.27.14-3.44.3a59 59 0 0 1-7.97.6 50.3 50.3 0 0 0 3.06-3.68c2.65-3.57 3.81-7.76 4.95-11.86.35-1.26.7-2.54 1.1-3.79.4-1.23.77-2.46 1.13-3.7.6-2.03 1.23-4.14 1.99-6.2.12-.34.24-.68.4-1.04a21.8 21.8 0 0 0 1.1-3.46c.17-.9.48-3.13-.4-4.15-.25-.3-.86-.63-1.74-1.1a9.08 9.08 0 0 1-.51-.28c-.75-.47-1.48-.69-2.25-.92l-.34-.1a61.66 61.66 0 0 0-19.97-2.37c-1.04.05-2.1.03-3.2.02-1.2-.02-2.44-.04-3.67.04-1.6.09-3.19.38-4.74.67a65.9 65.9 0 0 1-3.5.57 41.3 41.3 0 0 0-5.26 1.03c-.09-.33-.16-.67-.24-1.02a62.75 62.75 0 0 0-4.85-13.6c-2.37-4.56-5.97-8.06-9.47-11.27-.26-.23-.59-.5-.94-.77-.85-.68-1.8-1.47-2.1-2.14-.02-.05-.02-.25-.03-.33-.03-.26-.05-.5-.16-.7-1.07-1.9-2.66-2.08-4.22-2-.84.04-2.93.22-4.08 1.12-1.83 1.42-2.34 4.1-2.76 6.26-.06.32-.11.63-.18.92-.52 2.47-.72 4.5-.63 6.63l-1.43-1.65c-1.96-2.29-3.98-4.66-6.49-6.51-2.74-2.02-6.24-3.3-10.38-3.8-6.6-.77-11.43 2.05-16.2 5.28-4.43 3-7.26 6.96-10.28 11.16l-1.34 1.88c-1.18 1.62-2.1 3.37-3.02 5.07a53.16 53.16 0 0 1-6.62 9.91c-1.02 1.2-1.83 2.52-2.62 3.8a33.35 33.35 0 0 1-2.12 3.17c-.43.54-.91 1.04-1.42 1.52 1.68-4.39 3.6-8.37 5.14-11.42.55-1.1 1.13-2.22 1.72-3.35 1.58-3.04 3.22-6.2 4.48-9.44.56-1.45.99-2.96 1.41-4.45.27-.97.56-1.96.88-2.92.39-1.16.57-1.89.7-3.1.34-3.35.7-6.8.32-10.3-.25-2.2-.66-4.41-1.06-6.57l-.03-.18c-.22-1.18-.46-2.41-.64-3.62-.56-3.5-1.35-7.54-3.54-10.86a21.18 21.18 0 0 0-4.04-4.22c-1.68-1.46-3.26-2.85-4.2-4.66-.22-.44-.42-.96-.62-1.52-.65-1.73-1.46-3.9-3.68-4.47-1.02-.26-2.64.2-3.46.6-1.54.74-3.75 1.89-5.62 3.12-.46.3-.88.64-1.25.94-.43.35-.83.68-1.28.97l-1 .57c-.94.52-1.9 1.04-2.7 1.98a82.07 82.07 0 0 0-6.12 8.46l-.41.63c-1.3 1.97-2.63 4-3.34 6.38-.64 2.21-.96 4.53-1.28 6.84-.64-2.5-2.12-3.8-4.24-5-.5-.27-.96-.66-1.46-1.06s-1.01-.83-1.6-1.17a8.78 8.78 0 0 0-1.93-.76c-.34-.11-.68-.2-1.03-.34a8.3 8.3 0 0 1-1.58-.9c-.43-.27-.86-.56-1.35-.8l-.5-.22c-.3-.13-.6-.26-.83-.45-.1-.19-.16-.4-.24-.65l-.1-.18a7.61 7.61 0 0 0-1.94-1.82c-.55-.35-1.08-.54-1.59-.72-.3-.12-.59-.22-.9-.37-1.2-.57-2.01-1.51-2.86-2.5l-.75-.86a5.72 5.72 0 0 0-3.63-1.45c-.9-.03-1.62.18-2.12.64l-.07.07a.34.34 0 0 0-.1.17l-.02.1c-.13.55-.25 1.11-.33 1.6-.14.57-.4 1.1-.8 1.68-.25.55-.42.96-.57 1.54-.13.54-.2 1.04-.28 1.5-.13.9-.22 1.62-.73 2.34l-.48.67c-1.4 1.97-3.17 4.42-3.7 6.74-.14.6-.13 1.28.01 2.15.08.5.2 1 .33 1.5.23.93.35 1.68.46 2.5.17 1.16.33 2.35.73 3.51.33.99.73 1.91 1.14 2.87a23.34 23.34 0 0 1 1.58 4.41l.1.47c1.6 7.36 3.4 15.69 8.68 21.51.89.98 1.8 2.05 2.66 3.1 2.12 2.52 4.32 5.14 6.94 7.14a39.6 39.6 0 0 0 2.17 1.52l.08.04c.34.23.69.45 1.02.7.97.66 1.72 1.4 2.54 2.18.35.35.71.7 1.1 1.06 1.68 1.53 3.8 1.84 5.85 2.12l.75.12-.12.82c-.4 3.05-.83 6.2-.66 9.37.07 1.49.24 3.02.5 4.57 1 6.05 3.34 12 5.83 18.1l.26.62c.89 2.17 1.8 4.41 2.79 6.56.64 1.43 1.66 2.64 2.65 3.81.61.73 1.25 1.49 1.77 2.28.11.16.31.2.48.1l.59-.39c.16-.11.2-.31.1-.48a24.34 24.34 0 0 0-1.88-2.42 15.73 15.73 0 0 1-2.43-3.48c-.97-2.15-1.9-4.41-2.82-6.65l-.2-.47c-3.18-7.77-5.86-14.81-6.23-22.2-.15-3.06.26-6.15.66-9.12l.1-.76.13.02c2.23.55 4.57 1.6 6.83 2.65.46.21.92.43 1.37.62.76.35 1.53.75 2.3 1.16.89.46 1.8.95 2.76 1.35l.36.13a15.7 15.7 0 0 0 1.6 1.16c.75.94 1.58 1.75 2.62 2.54.4.72.7 1.6.92 2.75l.33 1.66c.71 3.6 1.44 7.3 1.49 10.85.02 1.74.02 3.71-.38 5.4-.19.79-.54 1.53-.92 2.3-.2.41-.4.82-.58 1.24-.62 1.5-1.5 2.74-2.5 4.12-.22.31-.52.67-.84 1.04-.72.85-1.53 1.82-1.88 2.75-.27.74-.27 1.35.01 1.86.47.84 1.56 1.04 2.57 1.2l.66.13 1.6.37c2.13.51 4.35 1.03 6.65 1.1 3.7.08 7.57-.76 10.52-1.5 2.7-.69 5.75-1.64 7.85-3.53a24.1 24.1 0 0 0 3.05-3.57c.43-.58.88-1.18 1.35-1.73 3.35-4.03 7.96-6.31 14.96-7.41l.72-.08c3.74-.39 5.51-.76 5.57-1.9v-.21c.3-.1.6-.25.86-.4.37-.22.69-.44 1.01-.66a6.58 6.58 0 0 1 2.6-1.24l1.56-.3.6-.12c-.72 1.64-.92 3.28-1.15 5.23-.07.52-.15 1.07-.24 1.6-.2 1.3-.4 2.64-.37 4 .04 1.28.4 2.45.4 3.54.01.96-.07 1.97-.13 2.85-.1 1.31-.2 2.65-.1 4.04.1 1.58.38 3.15.65 4.66l.04.25c.18 1 .34 2.03.47 3.1.16 1.29.33 2.62.69 3.86l.08.23a5.25 5.25 0 0 0-2.83 1.4l-.35.29c-1.32 1.02-2.76 1.88-4.2 2.73-2.2 1.31-4.47 2.67-6.35 4.69-.46.5-1 .93-1.52 1.38-.48.4-1.03.84-1.5 1.34-.29.3-.5.58-.7.87-.26.33-.48.65-.82.94-.25.2-.49.36-.75.54-.46.31-.99.67-1.44 1.21a23.3 23.3 0 0 1-3.59 3.58c-.39.33-.78.66-1.15 1-1.17 1.03-2.28 2.01-3.69 2.69-.47.23-.98.44-1.53.66-.48.2-.99.4-1.5.65-.56.28-1.05.6-1.54.91l-.95.6c-1.77.98-3.88 1.3-5.9 1.62l-1.08.16-3.69.6-.26.03c-2.84.45-5.8.9-8.68 1.47-1.2.22-2.36.56-3.5.89l-.89.26-5.65 1.52c-.79.26-1.62.41-2.5.49l-.16.04c-.42.17-.66.33-.93.52-.14.09-.29.19-.5.3-1.58.92-3.39 1.17-5.3 1.42l-.32.04c-2.7.36-5.87.66-8.8.09-2.24-.44-3.9-.15-6 .22l-.14.02c-1.98.35-4.02.53-6 .73-2.03.2-4.14.4-6.2.75l-3.77.64-4.55.78c-.15.02-.36.07-.61.14-1.89.47-2.34.35-2.42.25-.52-.57.08-1.44 1.12-2.6 1.04-1.13 2.23-2.13 3.38-3.12a38.92 38.92 0 0 0 3.87-3.63c.84-.9 1.64-1.77 2.76-2.5 1.2-.8 2.41-1.1 3.8-1.5l.78-.2c.58-.17 1.16-.3 1.76-.44 1.99-.46 3.88-.9 5.53-2.31 1.49-1.27 2.39-2.54 3.42-4.01l.18-.25c1.9-2.7 4.33-5.27 6.68-7.77l.5-.54.86-.9.08-.08c1.7-1.74 3.17-3.24 3.9-5.95.66-2.5 1.35-4.62 2.5-6.89.69-1.33 1.52-1.86 2.66-2.6.43-.26.87-.54 1.34-.89l.51-.36a6.89 6.89 0 0 0 2.46-2.5c.05-.08.04-.17.03-.27a.3.3 0 0 0-.17-.2l-.63-.3a.34.34 0 0 0-.26-.03.3.3 0 0 0-.2.17c-.44.87-1.11 1.34-2.03 2-.17.12-.35.24-.52.38-.43.32-.84.57-1.27.85-1.18.75-2.3 1.45-3.14 3.14a34.62 34.62 0 0 0-2.6 7.15c-.65 2.35-1.99 3.73-3.56 5.34l-.96 1-.53.56c-2.38 2.52-4.84 5.12-6.8 7.9l-.17.24c-1.03 1.45-1.84 2.6-3.19 3.76-1.41 1.2-3.13 1.6-4.95 2.03-.6.14-1.2.28-1.82.45l-.75.21c-1.45.4-2.84.77-4.23 1.68-1.26.82-2.1 1.74-3.05 2.76l-.68.73c-.95.98-2 1.88-3.05 2.76-1.18 1-2.4 2.04-3.52 3.26-.64.7-1.84 2.02-1.62 3.36.07.4.25.75.54 1.06.82.9 2.6.46 3.78.17l.53-.12 4.51-.77c1.26-.2 2.54-.42 3.8-.64 2-.35 4.07-.56 6.08-.74 2-.2 4.08-.39 6.1-.74l.14-.02c2.04-.36 3.53-.62 5.51-.23 3.14.6 6.44.3 9.26-.07l.33-.04c1.96-.25 3.97-.52 5.8-1.58l.59-.37c.21-.14.35-.23.57-.34.9-.08 1.78-.25 2.63-.52a392.1 392.1 0 0 1 5.6-1.5l.92-.27c1.1-.32 2.24-.65 3.37-.87 2.86-.54 5.8-1 8.66-1.46l.26-.04c1.24-.2 2.46-.38 3.69-.59l1.07-.16c1.3-.2 2.63-.4 3.92-.78a39.51 39.51 0 0 1-9.62 2.97c-1.65.27-3.29.66-4.87 1.02-1.67.39-3.39.79-5.13 1.06-1.92.3-3.88.6-5.83 1.63-.36.19-.81.36-1.28.55-.9.34-1.85.71-2.51 1.3l-.17.16a.33.33 0 0 0-.1.36l.08.21c.28.82 1.11.9 1.62.94 1.15.1 2.39-.03 3.59-.18.38-.05.76-.08 1.12-.11 3.25-.3 6.53-.91 9.72-1.53 1.54-.28 3.13-.59 4.69-.85a206.4 206.4 0 0 0 16.26-3.33c1.63-.4 3.8-.98 5.96-1.84.5-.2 1-.42 1.5-.65 1.1-.5 2.24-1 3.39-1.22 2.75-.53 5.57-.97 8.35-1.4l.2-.04 4.35-.7 1.79-.3c1.15-.2 2.3-.4 3.44-.57 1.19-.19 2.3-.6 3.4-1 .7-.26 1.42-.53 2.14-.72 1.1-.3 2.27-.46 3.43-.63l1.57-.23 1.74-.33c1.35-.28 2.75-.56 4.03-.55 2.23.02 4.64-.02 7.12-.44l1.45-.23c2.02-.3 3.97-.57 5.75-1.5a8.8 8.8 0 0 1-1.96 1.93c-1.28.96-3.2 2.43-4.93 2.25-.44-.03-.88-.17-1.37-.3a9.29 9.29 0 0 0-1.2-.31c-2.85-.51-5.15-.74-7.78-.28l-.69.12c-1.1.18-2.13.36-3.23.8a34.97 34.97 0 0 0-4.9 2.36c-.85.52-1.95.68-3.03.82-.37.04-.73.1-1.09.15l-.79.16a8.1 8.1 0 0 1-1.82.25 5.7 5.7 0 0 1-1.26-.28 13.6 13.6 0 0 0-.69-.19 5.87 5.87 0 0 0-4.36.5l-.36.2c-1.6.79-3.11 1.54-4.86 2.04-1.07.3-1.92.61-2.85 1.05-.94.43-1.97.78-3.06 1.02-.84.18-1.6.5-2.36.83-.73.3-1.42.6-2.15.74a45 45 0 0 1-5.4.73c-.98.09-2.01.2-3.05.32-1.52.2-2.84.78-4.14 1.36-.85.38-1.74.76-2.65 1.03-.65.18-1.33.29-2 .39-.67.11-1.37.21-2.06.4-.8.21-1.61.4-2.42.6-1.33.32-2.7.64-4.06 1.09a3.9 3.9 0 0 1-1.78.22c-.5-.07-1-.21-1.54-.36a12.8 12.8 0 0 0-1.6-.38c-2.46-.39-5.24-.27-8.48.35l-.56.1c-1 .22-2.03.43-3 .26-.4-.08-.8-.2-1.24-.32-.52-.16-1.04-.3-1.6-.4-1.8-.25-3.68.14-5.5.52-.58.13-1.15.24-1.7.33l-1.46.27c-1.85.36-3.75.75-5.47.27l-.5-.15c-.57-.17-1.21-.37-1.92-.42a7.62 7.62 0 0 0-1.84.1c-.97.16-1.86.46-2.74.76-.58.2-1.18.4-1.76.55-.9.22-1.82.36-2.73.5l-.88.13c-.94.15-1.9.26-2.77.36l-1.95.24c-.51.08-1.05.2-1.52.31-.58.14-1.2.29-1.76.33-.2.01-.42 0-.65-.02l-.35-.03-.77-.05a12.7 12.7 0 0 0-2.46-.02 28.53 28.53 0 0 1-10.06-.44c-3.9-.84-7.87-.34-11.76.14-1.65.2-3.37.43-5.02.52-3.05.17-6.28.4-9.44.96-3.28.6-6.67.95-9.96 1.29l-4.1.45c-2.14.24-4.29.62-6.37.98l-1.85.32-2.9.46c-2.23.34-4.52.68-6.76 1.2-1 .24-2.02.54-2.95.8-.99.3-2 .59-3.01.81-1.25.3-2.44.72-3.56 1.14l-1.34.52-.37.14c-.57.22-1.1.28-1.77.37-.21.02-.42.04-.65.08-.96.13-1.93.32-2.88.49-.63.12-1.26.24-1.89.34-.71.12-1.44.27-2.17.4-1.7.35-3.46.7-5.18.7h-.99c-.96 0-1.95-.02-2.94.13-1.3.2-2.66.43-3.85.64-.9.17-1.81.32-2.72.47-1.45.23-2.88.57-4.27.9-1.4.33-2.84.66-4.28.89l-1.03.16c-1.41.2-2.86.43-4.28.78-.79.19-1.55.44-2.35.69-.74.23-1.57.5-2.37.68-.87.22-1.69.24-2.57.28l-1.37.07c-1.7.15-3.3.68-4.53 1.14-2.43.89-4.97 1.6-7.48 2.27-1.57.43-3.35.92-5.07 1.46-4.24 1.34-8.42 2.55-12.72 2.7-.54.03-1.1.01-1.69 0-1.38-.04-2.82-.07-4.16.34-.62.2-1.2.44-1.78.66-1.26.52-2.46 1-3.89.96l-.43-.01v-.02l-.12-.37c-.08-.25-.13-.59-.15-.92a7.7 7.7 0 0 0-.3-1.46c-.12-.43-.33-1.2-.27-1.43.05-.2.2-.34 1.55-.07l.27.05c1.14.22 2.3.3 3.33.38 1.24.1 2.54.19 3.76.49l.29.07c.65.17 1.45.39 2.14.18.53-.16 1-.58 1.43-.93l.39-.3c1.09-.78 2.16-1.53 3.33-1.93.8-.27 1.75-.35 2.7-.42l1.04-.1c.5-.05 1.08.04 1.67.13.35.06.7.1 1.05.13 1.67.13 3.34-.28 4.99-.68.73-.17 1.43-.35 2.12-.46 5.41-.93 10.75-2.56 15.91-4.13 2.4-.73 5.12-1.56 7.75-2.27A95.64 95.64 0 0 1 66.08 197l.33-.05c1.03-.16 2.07-.32 3.1-.5 4.73-.78 9.66-1.73 15.08-2.93 2.73-.6 5.54-1.05 8.3-1.5 2.76-.45 5.59-.91 8.38-1.53a326.7 326.7 0 0 1 17.16-3.28l6.94-1.19.2-.03c3.7-.65 7.55-1.32 11.36-1.9 2.07-.3 4.24-.51 6.35-.7 4.36-.39 8.87-.8 13.03-2.21 1.04-.36 1.88-.86 2.87-1.48.93-.59 2-1.01 3.04-1.43 1.55-.62 3.15-1.26 4.5-2.5.53-.5.88-1.05 1.25-1.63.17-.28.36-.57.57-.84.38-.51.89-.9 1.4-1.31.31-.25.65-.5.96-.79.6-.54.9-1.1 1.18-1.65l.27-.5c.34-.56.61-.75 1.3-1.2.18-.11.38-.24.6-.4 1-.66 1.96-1.39 2.9-2.1.97-.75 2-1.53 3.03-2.2a6.45 6.45 0 0 1 1.75-.74c.34-.1.74-.24 1.15-.42l.96-.35c1.01-.34 2.14-.74 2.8-1.51 1.18-1.38 1-2.87.72-4.4a17.38 17.38 0 0 1-.17-5.38c.08-.53.15-1.05.1-1.55-.12-1.19-.92-1.86-1.63-2.45a4.02 4.02 0 0 1-1.05-1.1c-.93-1.73-2.37-3.03-3.75-4.3-1.12-1.03-2.28-2.09-3.12-3.32-1.74-2.6-2.97-5.46-3.32-7.81-.28-1.86.2-3.11.9-4.84l.19-.5a48.2 48.2 0 0 0 3.2-15.6c0-.37-.01-.74-.04-1.09a6.15 6.15 0 0 1-.03-1.08s.16-.05.71.1c.49.16.98.37 1.4.57.92.4 1.88.82 3.08.86.8.02 1.55-.13 2.28-.27.26-.06.53-.1.78-.14 1.62-.27 2.19-.09 3.8.71 1.47.75 1.76 1.05 1.53 2.6-.1.73-.24 1.39-.37 2.05a14.9 14.9 0 0 0-.36 5.5l.22 1.58c.24 1.86.5 3.81 1.09 5.5.32.91.72 1.78 1.11 2.6.44.95.9 1.91 1.21 2.9.55 1.8.88 3.8.9 5.52 0 .33.04.69.06 1.1.08 1.03.15 2.1-.2 2.73a9.88 9.88 0 0 1-1.67 1.95l-.75.75c-.65.71-.96 1.33-1.25 1.95a7.03 7.03 0 0 1-1.4 2.08c-.67.77-1.46 1.65-1.47 3.09 0 .58.04 1.15.1 1.72.04.6.1 1.2.08 1.84-.02.63.05 1.2.11 1.76.08.6.14 1.16.1 1.74l-.02.28c-.07.76-.15 1.54.3 2.45l.1.22c.06.13.2.2.35.2l.25-.03c1.21-.14 1.66-1.05 2-1.7.08-.15.15-.32.24-.47.28-.48.73-.94 1.2-1.44.2-.2.37-.38.52-.56.25-.28.51-.54.76-.8.71-.73 1.45-1.48 1.95-2.57.37-.85.87-1.55 1.4-2.31.24-.35.5-.7.73-1.08.87-1.33 1.22-2.8 1.55-4.25l.05-.26c.26-1.1.64-2.1 1.04-3.14l.4-1.04c.11-.31.16-.6.22-.9.04-.2.07-.39.13-.58.3-1 1.4-1.78 2.35-2.48l.34-.23c1.02-.77 1.65-1.84 2.27-2.87l.19-.31a5.47 5.47 0 0 1 1.86-1.91l.28-.18c.73-.44 2.1-1.26 1.55-2.81a.38.38 0 0 0-.17-.2.34.34 0 0 0-.27-.01l-.66.23a.33.33 0 0 0-.2.44c.13.37-.07.61-.98 1.17l-.3.19a6.6 6.6 0 0 0-2.3 2.36l-.19.3c-.54.92-1.1 1.86-1.9 2.47l-.32.23c-1.07.78-2.4 1.76-2.86 3.2-.07.24-.13.48-.17.74a6.71 6.71 0 0 1-.48 1.53l-.07.18c-.42 1.08-.8 2.1-1.08 3.3l-.06.26c-.31 1.31-.63 2.67-1.36 3.78-.22.35-.45.66-.7 1.04-.57.8-1.1 1.58-1.54 2.54-.39.87-1.02 1.5-1.7 2.2-.26.27-.52.53-.79.83l-.53.56c-.49.51-1 1.04-1.36 1.65l-.3.56c-.15.32-.26.53-.4.68-.03-.33 0-.67.04-1.08l.02-.28c.06-.72-.02-1.39-.09-2.03-.06-.53-.13-1.02-.1-1.53.02-.71-.03-1.4-.09-2-.04-.52-.09-1.06-.08-1.59.01-.92.5-1.47 1.13-2.17a8.48 8.48 0 0 0 1.6-2.41 5.97 5.97 0 0 1 1.73-2.32c.69-.69 1.48-1.46 1.91-2.27.53-1 .45-2.26.35-3.5v-.1c-.03-.32-.05-.64-.05-.93-.02-1.85-.38-4-.96-5.9-.34-1.06-.81-2.07-1.27-3.08-.36-.76-.76-1.61-1.07-2.46-.53-1.56-.77-3.4-1.02-5.23-.08-.55-.14-1.1-.23-1.6-.28-1.88.02-3.33.35-5.03.14-.66.27-1.35.38-2.12.37-2.51-.66-3.23-2.29-4.05-1.71-.85-2.62-1.17-4.63-.84l-.84.16c-.68.14-1.33.26-1.98.24a6.6 6.6 0 0 1-2.55-.74c-.5-.2-1-.43-1.55-.6-.9-.27-1.52-.24-1.96.11-.64.5-.58 1.37-.52 2.3.02.3.04.64.04.96a46.83 46.83 0 0 1-3.12 15.11l-.2.5c-.73 1.86-1.3 3.33-.96 5.55.53 3.52 2.45 6.75 3.54 8.37.93 1.38 2.14 2.48 3.34 3.58 1.36 1.23 2.64 2.41 3.46 3.93.36.65.9 1.1 1.38 1.5.6.5 1.07.91 1.15 1.54.03.33-.03.8-.1 1.22a18.77 18.77 0 0 0 .18 5.83c.25 1.27.37 2.32-.4 3.25-.43.48-1.38.8-2.2 1.09-.39.13-.76.25-1.07.38-.35.16-.7.26-1 .37-.78.24-1.42.44-2.11.89-1.1.71-2.17 1.54-3.12 2.27-.91.7-1.85 1.42-2.81 2.07l-.59.4a4.3 4.3 0 0 0-1.74 1.66l-.3.54c-.26.49-.46.88-.88 1.27-.28.26-.58.49-.87.72-.57.44-1.16.9-1.66 1.55-.24.32-.45.65-.67 1-.31.48-.61.94-1 1.3-1.15 1.05-2.57 1.64-4.09 2.24-1.08.43-2.2.88-3.23 1.54-.92.57-1.7 1.04-2.57 1.35-4 1.36-8.43 1.77-12.71 2.15-2.13.18-4.32.38-6.44.7-3.82.58-7.67 1.26-11.4 1.91l-.18.03c-2.31.4-4.63.81-6.93 1.19-6.05 1-11.69 2.07-17.23 3.29-2.75.6-5.57 1.05-8.35 1.5-2.73.44-5.57.9-8.33 1.52-5.4 1.18-10.3 2.13-15.01 2.92l-3.1.49-.3.05c-3.57.55-7.26 1.11-10.83 2.08-2.6.72-5.24 1.52-7.78 2.29-5.13 1.56-10.42 3.17-15.75 4.09-.73.12-1.48.3-2.23.48-1.53.37-3.1.74-4.56.64-.3-.02-.6-.08-.95-.14-.64-.1-1.32-.2-2-.14-.31.04-.66.07-1 .09-1.03.07-2.09.17-3.05.5a14.95 14.95 0 0 0-4.18 2.53c-.3.24-.66.55-.91.62-.3.1-.96-.07-1.4-.18l-.3-.08c-1.34-.32-2.67-.41-4-.51a26.78 26.78 0 0 1-3.16-.37l-.26-.05c-.9-.18-2.77-.55-3.17 1.1-.07.26-.07.58 0 1 .06.38.17.8.28 1.2.08.27.14.51.17.69l.04.3.03.24c.05.38.08.78.2 1.15l.1.35c.22.75.45 1.02 1.33 1.01h.4c1.72.07 3.1-.5 4.46-1.04.55-.22 1.1-.45 1.67-.63 1.11-.35 2.43-.32 3.7-.28.59.01 1.19.03 1.77 0 4.48-.16 8.74-1.4 13.09-2.76 1.64-.51 3.31-.97 4.94-1.42l.09-.03c2.5-.68 5.07-1.4 7.59-2.31 1.12-.41 2.63-.91 4.16-1.05l1.3-.07c.9-.04 1.84-.07 2.84-.3.84-.2 1.66-.47 2.47-.73.74-.23 1.5-.47 2.25-.67 1.36-.33 2.79-.54 4.16-.76l1.04-.16c1.5-.23 2.96-.58 4.39-.91 1.36-.33 2.77-.66 4.16-.88.91-.15 1.83-.3 2.75-.47 1.18-.21 2.5-.44 3.8-.63.9-.14 1.83-.13 2.75-.12h1a29.5 29.5 0 0 0 5.44-.72c.71-.15 1.41-.28 2.12-.4.63-.1 1.28-.22 1.93-.35.91-.16 1.87-.35 2.81-.48l.68-.09c.67-.07 1.3-.14 2.04-.43l.37-.15 1.33-.51c1.06-.4 2.2-.81 3.37-1.08 1.06-.25 2.1-.55 3.12-.84.83-.24 1.87-.55 2.86-.77 2.18-.52 4.45-.85 6.66-1.2.98-.14 1.95-.3 2.91-.45l1.87-.33c2.05-.35 4.2-.72 6.3-.96 1.36-.16 2.71-.3 4.1-.45 3.29-.34 6.7-.7 10.03-1.3a76.6 76.6 0 0 1 9.28-.94c1.7-.1 3.45-.3 5.15-.52 3.72-.47 7.58-.95 11.25-.15a29.5 29.5 0 0 0 10.51.45c.71-.07 1.47-.02 2.2.04.27.03.54.04.8.05a5.32 5.32 0 0 0 1.16.04c.68-.06 1.35-.21 2-.36.45-.1.93-.22 1.38-.29.61-.08 1.22-.16 1.92-.23.93-.12 1.88-.23 2.82-.38l.88-.13c.92-.14 1.89-.29 2.83-.53.66-.16 1.32-.38 1.9-.58.81-.27 1.66-.55 2.48-.69.56-.1 1.07-.12 1.53-.09.55.04 1.07.2 1.62.36l.53.16c2.04.56 4.1.15 6.18-.25.45-.1.9-.18 1.35-.25.58-.1 1.17-.23 1.77-.36 1.7-.35 3.45-.71 5.01-.5.47.06.94.2 1.44.36.44.12.88.26 1.35.34 1.22.23 2.39-.02 3.52-.25l.55-.1c3.08-.6 5.69-.72 8-.34.47.08.95.2 1.44.35.55.16 1.1.31 1.7.4.7.12 1.45.03 2.33-.27ZM428.63 43.8l.03.01v.02l-.03-.03Zm.54 28.5c.06-.27.1-.54.19-.8.1-.34.24-.66.39-1 .2-.42.4-.9.53-1.43.5-2.22.13-5.12-.25-7.4-.08-.5-.16-.97-.25-1.42l-.31-1.7a63.81 63.81 0 0 1-.73-4.52c-.13-1.1 0-2.16.15-3.28.07-.56.14-1.13.18-1.69.04-.58-.06-1.35-.17-2.18-.13-.9-.29-2.13-.1-2.52.05-.1.08-.2.1-.28.06 0 .13 0 .21.02 1.7.12 2.06 1.88 2.43 3.77.2 1.01.38 1.98.81 2.7a78 78 0 0 0 2.16 3.37c1.2 1.8 2.45 3.68 3.38 5.67.59 1.25 1.37 3.11 1.38 4.85.02.66 0 .7-.32 1.12-.62.79-1.66 1.56-2.68 2.3-.53.4-1.04.77-1.5 1.15a52.42 52.42 0 0 1-5.9 4.5c.14-.43.23-.84.3-1.22Zm-6.24 2.13c0 .1.03.18.1.25l.5.49c.07.07.15.1.24.1l-.68 1.35c-.34.15-.67.32-1 .48-.27.15-.5.25-.69.34-.1-.58-.2-1.17-.28-1.77-.07-.59-.1-1.21-.13-1.82-.04-.7-.06-1.42-.17-2.15-.14-.93-.34-2.31-1.5-2.95-.39-.22-.76-.42-1.1-.68-.92-.7-1.77-1.5-2.57-2.41-.63-.72-1.2-1.53-1.76-2.3-.36-.5-.7-1-1.08-1.49-.34-.43-.69-.86-1.05-1.28-.95-1.14-1.94-2.32-2.44-3.69-.3-.85-.45-1.8-.63-2.8-.13-.77-.26-1.57-.48-2.34l-.06-.21c-.28-1-.54-1.93-.62-2.92-.06-.66-.06-1.32-.06-2v-.1c-.01-.54 0-1.1-.04-1.65l-.02-.25c-.03-.54-.06-1.06-.15-1.59-.08-.46-.2-.91-.4-1.38l-.09-.2a8.2 8.2 0 0 1-.19-.47 3.9 3.9 0 0 1 1.94.2c.73.27 1.39.86 2.03 1.44l.36.33c.81.72 1.1 1.78 1.4 2.91.08.32.17.63.27.95.4 1.27.96 2.9 1.78 4.17.6.91 1.22 1.82 1.85 2.73l.8 1.18c.41.58.85 1.15 1.24 1.64.8 1 1.55 1.93 1.98 3.05.12.27.2.55.3.87.13.41.28.86.48 1.3.18.39.4.74.63 1.1a3.65 3.65 0 0 1 .69 1.87c.04.35.1.73.21 1.1.58 1.98.84 3.5.84 5.1 0 .76 0 1.53-.13 2.25l-.03.19c-.05.29-.14.72-.26.86.01.01-.03.1-.03.2Zm-4.03 2.26-.49-.35-1.38-.95c-1.84-1.25-3.61-2.46-5.34-3.73 2.5.95 6.57 2.63 7.16 4.55l.05.2v.28Zm-26.7-18.33a34.42 34.42 0 0 0-1.02-3.52c-.74-2.28-1.37-4.25-1.08-6.74.34-2.83.32-5.7-.03-8.1-.16-1.16.3-2.1.83-3.2.44-.9.88-1.82 1-2.91.07-.62.04-1.29-.08-2a17.68 17.68 0 0 0-1.2-3.77l-.12-.3c-.6-1.47-1.14-2.74-1.27-4.3l-.01-.13c-.26-2.84-.11-3.35-.1-3.4.23-.48 1.58-.83 2.54-.8 1.04.04 1.79.7 2.65 1.44.33.28.73.65 1.16.95.76.54 1.5 1.1 2.24 1.67 1.45 1.1 2.94 2.27 4.65 3.18 1 .54 2 1.11 2.96 1.67 1.53.88 3.1 1.8 4.72 2.58.36.18.73.31 1.12.44.41.14.81.28 1.16.49.33.18.6.46.93.78l.18.18c1.03 1 2.04 2.06 3.02 3.1l.25-.24-.18.3c.98 1.05 2 2.12 3.05 3.14 1.15 1.12 2 2.12 2.66 3.65.24.56.53 1.1.85 1.68.69 1.3 1.42 2.62 1.39 3.9 0 .25-.07.51-.15.8-.06.28-.14.59-.18.91-.1 1.19.27 2.21.65 3.2.2.52.4 1.05.5 1.6l.24 1.22c.26 1.36.5 2.64 1.06 4.05.4 1.06.35 1.6.07 2.77-.36 1.52-.01 2.43.33 3.33.18.47.37.95.44 1.57.14.96-.1 1.35-.63 2.19a81.28 81.28 0 0 0-2.11 3.77l.03-.15c.15-.85.15-1.73.15-2.58a19.32 19.32 0 0 0-.9-5.43c-.08-.27-.12-.57-.17-.9a4.98 4.98 0 0 0-.53-1.83l-.38-.63c-.2-.32-.38-.6-.53-.92a7.7 7.7 0 0 1-.41-1.14c-.11-.31-.2-.65-.34-.96-.53-1.3-1.37-2.36-2.2-3.4-.39-.48-.8-1-1.18-1.56l-.92-1.36-1.7-2.54a15.87 15.87 0 0 1-1.63-3.82c-.09-.26-.16-.53-.23-.8l-.03-.09c-.35-1.28-.71-2.6-1.82-3.58l-.36-.31c-.73-.66-1.5-1.35-2.48-1.72a4.95 4.95 0 0 0-3.46-.05l-.21.1a.34.34 0 0 0-.21.3l-.02.22c-.04.6.2 1.14.39 1.58l.08.2c.33.79.39 1.61.44 2.5v.24c.05.55.04 1.12.04 1.68 0 .7 0 1.4.06 2.12.09 1.11.37 2.1.67 3.17l.06.2c.2.7.31 1.46.44 2.24.17 1 .34 2.03.69 3.01.57 1.59 1.64 2.87 2.7 4.13.33.4.68.79.98 1.2.34.43.66.89.98 1.34l.07.1a20.3 20.3 0 0 0 4.6 5c.42.34.82.56 1.32.83.5.28.65 1.22.74 1.93.1.65.13 1.33.16 2 0 .28.03.6.04.92-1.61-2.32-6.01-3.91-8.51-4.83l-.1-.04c-.48-.17-.87-.31-1.1-.41-.8-.36-1.6-.75-2.35-1.1a24.74 24.74 0 0 0-4.17-2.66c-2.3-1.05-4.66-2-6.98-2.84-1.06-.48-2.03-1.12-2.98-1.76l-.17-.1a7.8 7.8 0 0 1-1.06-2.65Zm23.5 19.38a.34.34 0 0 0-.06.26c.02.15.04.38.05.65l-.83.08c-.24.02-.46.03-.63.06-.88.1-1.6-.06-2.44-.27-.32-.07-.65-.16-1-.23-.77-.14-1.53-.24-2.2-.34-1.3-.17-2.53-.34-3.86-.8-3.47-1.2-6.11-2.2-8.7-4-3.34-2.37-5.25-5.42-6.83-8.37-.15-.28-.34-.6-.56-.97-.76-1.31-1.87-3.24-2-4.6.64.19 1.55.64 2.14.93l.82.39c.96.4 1.85.97 2.68 1.53 1.68 2.43 4.56 3.58 7.43 4.45 2.19.66 4.3 1.71 6.37 2.72l.74.35 1.17.99c2.71 2.17 5.43 4.03 8.3 5.99l1.35.91.66.48c-.21.14-.57.31-1.2.46l-.05-.63a.43.43 0 0 0-.14-.23.34.34 0 0 0-.26-.07l-.71.12a.4.4 0 0 0-.23.14Zm6.02 1.65-.01-.13a.49.49 0 0 0 .11-.08l-.1.21Zm-4.66.46c1.13-.22 1.92-.57 2.38-1.07l.2.11c-.95.56-1.8 1.05-2.65 1.52l.07-.56Zm-6.15 14.86-.33-.02.34-.04c.03-.83.05-1.67.14-2.54.08-.64.18-1.28.3-1.9.13-.75.28-1.58.34-2.44.1-1.14.18-2.44.87-3.3.24-.3.65-.63 1.25-.98l-.06.44c-.04.4-.1.79-.17 1.19-.09.51-.18 1.04-.23 1.58-.1 1.07-.2 2.1-.27 3.18-.05.57 0 1.15.04 1.7.04.5.07.96.04 1.4-.06.82-.64 1.58-1.21 2.32l-.39.5c-.26.37-.52.79-.77 1.23.07-.77.09-1.55.11-2.32Zm-2.95 10.74c.16-.4.37-.71.6-1.03-.21.75-.5 1.47-.82 2.18.03-.4.09-.78.22-1.15Zm-16.36 17.33.76-.35c1.19-.55 2.31-1.06 3.42-1.88.54-.41 1.1-.83 1.68-1.24l.1-.07a45.66 45.66 0 0 0 3.17-2.42 20.68 20.68 0 0 1-6.54 5.83 15.7 15.7 0 0 1-4.91 1.5c.75-.5 1.5-.98 2.32-1.37Zm-29.06 12.82c2.48-4 7.94-7.02 14.6-8.09 1.75-.27 3.5-.58 5.24-.87l.65-.1a52.7 52.7 0 0 1-4.21 2.36c-1.6.78-2.95 1.12-4.48 1.38-1.99.33-3.7.61-5.6 1.8-.42.26-.77.58-1.09.87-.3.27-.58.53-.9.72-.27.17-.54.31-.8.46a10 10 0 0 0-1.72 1.09c-.6.5-1.18 1.06-1.74 1.58-.63.61-1.28 1.23-1.97 1.78.68-.9 1.35-1.91 2.02-2.98Zm-38.15 17.15c.47-.2 1-.32 1.5-.46.67-.18 1.35-.37 2-.66 1.8-.83 3.96-1.12 6.02-1.4.85-.12 1.8-.25 2.72-.43 1.2-.23 2.56-.62 4.18-1.21a20.68 20.68 0 0 1-5.01 1.42l-.72.1c-1.1.16-2.23.32-3.3.82-.5.24-.99.53-1.45.81-.38.23-.77.46-1.17.67-1.72.87-3.7 1.28-5.62 1.7-1.03.23-2.08.45-3.11.74 1.3-.88 2.62-1.59 3.96-2.1Zm-31.32-8.6c-1.48.4-2.98.77-4.46 1.04-2.15.42-3.9.4-5.23-.03l-.15-.27-.04-.06h.5c3.13-.03 6.16-.26 9.38-.67Zm69.56-34.01c1.1-.16 2.22-.22 3.35-.3 1.17-.07 2.38-.15 3.6-.32a3 3 0 0 1 .68-.05c.02.1.02.28-.02.66-.06.54-.06 1.08-.08 1.56-.03.94-.05 1.82-.33 2.66-.52 1.59-1.62 3.27-2.58 4.75l-.44.66c-2.1 3.3-5.46 6.6-9.18 9.07a28.36 28.36 0 0 1-9.88 4.32c-2.37.5-4.82.88-7.2 1.23l-.12.02c-1.2.2-2.43.37-3.63.57-1.4.23-2.87.42-4.3.62-3.55.47-7.21.95-10.48 2.07.9-.57 1.08-1.03 1.4-1.8l.15-.37c.18-.42.47-.84.77-1.28.65-.94 1.38-2 1.16-3.33a2.9 2.9 0 0 0-.16-.58 6.01 6.01 0 0 0-2.28-2.61c1.08-.02 2.13-.05 3.27-.24.82-.15 1.68-.25 2.61-.37 1.9-.23 3.89-.47 5.68-1.14.94-.35 1.72-.93 2.5-1.5.51-.38 1.1-.81 1.68-1.12.35-.18.7-.34 1.05-.5l.11-.07c1.25-.6 2.44-1.15 3.59-2.11a34.13 34.13 0 0 0 3.85-3.9c.7-.79 1.42-1.6 2.2-2.37l.58-.58c1-1 2.01-2.02 3-3.07 2.83.09 5.74-.09 9.45-.58Zm-11.22.45-2.12 2.13-.65.67c-.81.8-1.57 1.67-2.25 2.43-1.2 1.34-2.32 2.62-3.7 3.75a15.29 15.29 0 0 1-3.31 1.93c-.39.2-.79.38-1.19.57-.7.36-1.32.82-1.88 1.24a9.35 9.35 0 0 1-2.16 1.32 24 24 0 0 1-5.36 1.06c-.89.1-1.8.22-2.68.38-1.16.2-2.26.22-3.5.23-.4.01-.78 0-1.17.03l-.62.02c-1.7-.86-3.25-1.36-3.41-1.42-3.78-1.22-7.86-.89-11.42-.33.07-.13.18-.26.28-.4 1.04-1.29 3.26-2.46 5.05-3.4.59-.3 1.14-.6 1.6-.88a101.3 101.3 0 0 1 8.88-4.52c3.7-1.68 7.2-3.16 10.4-4.39 3.15-1.2 5.85-1.85 8.23-1.94 2.26-.09 4.54.37 6.76.8 1.38.27 2.8.57 4.22.72Zm-53.35-11.76c.45-.69.9-1.36 1.37-2.02 1.67-2.33 3.4-4.73 4.53-7.69 2-5.23 6.27-9.73 9.5-12.59.19-.17.56-.37.93-.57.84-.46 1.7-.94 2.02-1.7.14-.35.13-.73.07-1.09a39.86 39.86 0 0 1 5.14-2.37c.69 3.1 1.24 6.42.8 9.73-.46 3.64-2.33 7.25-4.15 10.77a72.6 72.6 0 0 0-2.17 4.38c-1.13 2.55-2.62 4.96-4.08 7.32a69.88 69.88 0 0 0-3.8 6.7l-.31.66c-.79 1.7-1.47 3.14-2.78 4.51-.94.98-1.74 2.02-2.49 3.02-.48.64-.98 1.3-1.51 1.94A58.71 58.71 0 0 0 298 124l-.05.08c-.5.72-1.04 1.48-1.57 2.2-.22.03-.4.05-.59.05a7.2 7.2 0 0 1-.15-1.07c-.03-.25-.05-.48-.09-.7a91.15 91.15 0 0 1-.73-4.87 70.54 70.54 0 0 1-.2-16.36 31.8 31.8 0 0 0 3.43-4.52Zm-3.08 1.99.19-1.04c1.99-10.07 9.68-20.28 19.13-25.4l.5-.27c-.3.23-.75.49-1.07.66-.45.25-.88.48-1.18.76-3.34 2.96-7.76 7.64-9.86 13.12-1.08 2.8-2.68 5.03-4.38 7.38-.47.67-.93 1.35-1.4 2.06-.59.85-1.23 1.82-1.93 2.73Zm20.27-28.26.03-.02-.03.02Zm-26.07 32.51-.23.08a35 35 0 0 0-3.26 1.38c-.63.28-1.27.58-1.92.85-.62.25-1.25.47-1.97.67 1.32-1.6 2.52-2.5 4.55-2.83.23-.04.47-.1.73-.13.39-.08.83-.18 1.23-.2.6-.03.8.12.87.18Zm1.53.91c.69-.28 1.53-.66 2.36-1.25-.52 5.8-.1 11.4.36 15.17a94.34 94.34 0 0 0 .8 5.4l.01.14c.07.66.14 1.4.46 1.96l.1.15c.05.1.14.15.25.16l.19.01c.03.01.07 0 .1.02-.3.4-.38.38-.55.32-.25-.08-.34-.3-.47-.98-.06-.28-.1-.59-.24-.89-.85-2.05-1.19-4.36-1.52-6.6l-.03-.2-.27-1.7-1.06-6.32c-.06-.4-.15-.81-.25-1.25-.22-1.01-.45-2.04-.35-2.95l.01-.17c.06-.34.1-.7.1-1.02Zm26.78 20.44c-1.55.04-3.16.08-4.73.15l-.25.01c-4.13.2-5.77-.22-6.42-.6 3.46-.53 7.37-.86 10.9.27.16.04.32.1.5.17Zm14.16-57.64a34.5 34.5 0 0 1 4.57-.64c1.17-.07 2.38-.05 3.58-.03 1.06.02 2.17.03 3.26-.01 6.87-.27 13.62.52 19.51 2.3l.34.1c.67.21 1.32.4 1.9.77.12.07.33.19.6.32.98.53 1.27.72 1.33.8.31.35.35 1.63.1 2.97-.21 1.1-.63 2.2-1.05 3.25l-.4 1.04a103 103 0 0 0-2 6.29c-.36 1.21-.71 2.44-1.1 3.66-.42 1.3-.78 2.6-1.15 3.9-1.14 4.1-2.22 7.97-4.71 11.35a49.2 49.2 0 0 1-3.78 4.46c-1.73-.1-3.49-.45-5.19-.79-2.28-.45-4.65-.94-7.08-.84-2.54.1-5.38.78-8.67 2.04a195.71 195.71 0 0 0-10.48 4.42 104.3 104.3 0 0 0-9 4.57c-.46.27-1 .54-1.58.85-1.89 1-4.25 2.24-5.47 3.77a4.28 4.28 0 0 0-.85 1.53l-.13.02c-1.7.3-3.38.6-5.09.88l-.73.15.77-1.1a59.7 59.7 0 0 1 3.03-4.09c.55-.65 1.06-1.32 1.56-1.98.74-.98 1.5-1.98 2.38-2.9 1.47-1.54 2.2-3.1 3.04-4.9l.3-.66c1.09-2.3 2.45-4.47 3.75-6.6 1.47-2.36 2.98-4.8 4.14-7.44.62-1.4 1.35-2.82 2.13-4.32 1.87-3.6 3.8-7.33 4.3-11.21a25 25 0 0 0-.28-7.44c-.15-.88-.33-1.81-.57-2.91 1.67-.49 3.36-.74 5.16-1.01l1.64-.25 1.92-.32Zm-36.7-23 .2-.93c.37-1.93.83-4.33 2.23-5.43.7-.53 2.15-.78 3.3-.83 1.4-.06 2.27.12 2.9 1.22l.03.23c.02.24.04.52.15.74.44 1 1.54 1.88 2.57 2.71l.8.68c3.4 3.1 6.92 6.5 9.2 10.87 1.82 3.51 3.5 8.23 4.73 13.3l.27 1.1a39.2 39.2 0 0 0-5.16 2.35l-.03-.13c-.24-1.57-.4-2.54-1.77-3.87a35.2 35.2 0 0 0-4.26-3.36l-.58-.42a63.71 63.71 0 0 0-6.98-4.51c-2.44-1.3-4.99-2.73-7-4.65l-1.04-1.05c-.32-2.76-.2-5 .44-8.02ZM201.2 84.63c-1.85-.26-3.75-.54-5.11-1.79-.35-.31-.67-.62-.99-.93l-.08-.08c-.85-.82-1.65-1.6-2.72-2.35l-1.13-.77c-.69-.47-1.4-.95-2.08-1.45-2.49-1.9-4.64-4.47-6.72-6.94-.83-1-1.76-2.1-2.7-3.12-5.02-5.54-6.79-13.7-8.35-20.88l-.1-.45c-.37-1.72-1.02-3.21-1.67-4.74-.38-.86-.76-1.76-1.09-2.7a16.7 16.7 0 0 1-.65-3.26c-.06-.44-.12-.88-.2-1.3-.07-.41-.16-.87-.28-1.34-.27-1.07-.53-2.16-.34-3.02.48-2.05 2.15-4.38 3.48-6.25l.47-.67c.7-.99.84-1.97.97-2.94.06-.41.12-.88.24-1.35.12-.48.26-.8.44-1.2.42-.61.74-1.3.94-2.08.08-.44.16-.87.27-1.32.23-.12.56-.2.97-.18 1.07.05 2.25.56 2.66 1 .25.28.5.55.73.83.92 1.04 1.85 2.13 3.32 2.84.34.17.69.3 1.03.41a5.75 5.75 0 0 1 2.82 2c.08.26.18.52.32.85l.13.16c.43.41.92.62 1.34.8l.44.2c.42.2.81.47 1.2.71.56.37 1.15.74 1.83 1.02.38.14.75.26 1.13.38.59.18 1.13.34 1.65.64.5.28.95.65 1.43 1.04.51.42 1.03.85 1.63 1.2 2.06 1.15 3.26 2.25 3.7 4.69.02.1.08.17.15.23.08.05.17.07.26.05l.68-.13c-.15 1.09-.3 2.18-.5 3.25-.25 1.34-.56 2.73-.83 3.96-1.13 5.06-2.3 10.29-.69 15.72.5 1.69 1.18 3.31 1.83 4.9a46.3 46.3 0 0 1 2.43 7.05c-.36.15-.7.32-.92.48-2.1 1.56-1.35 4.77-.72 7.35.2.83.38 1.62.42 2.19.18 2.5-.05 5.02-.34 7.39a9.04 9.04 0 0 1-.7-.1Zm13.17 4.96c-.76-.4-1.54-.82-2.37-1.18l-1.35-.62a41.05 41.05 0 0 0-7.08-2.73l-.28-.07c.3-2.45.55-5.08.37-7.72-.02-.2-.04-.44-.09-.68-.08-.53-.23-1.13-.37-1.75-.52-2.18-1.15-4.89.21-5.9.1-.08.27-.16.46-.25a26.53 26.53 0 0 0 2.67 6.73c.73 1.2 1.63 2.33 2.5 3.43a59.5 59.5 0 0 1 5.18 7.6l.05.22c.24 1.14.47 2.3.9 3.34l-.8-.42Zm-9-20.64.08.1c.42.52.87 1 1.27 1.39a19.2 19.2 0 0 1 3.88 5.66 55.73 55.73 0 0 1 2.17 5.46c-.44-.65-.9-1.28-1.37-1.91-.4-.56-.85-1.11-1.3-1.7a32.54 32.54 0 0 1-2.37-3.25c-1.11-1.8-1.8-3.86-2.35-5.75Zm15.55 23.85-.48-.34a9.45 9.45 0 0 0-1.66-.87c-.65-.97-1.28-2.1-1.97-3.37-.42-.8-.85-1.55-1.28-2.29-.14-.66-.27-1.29-.47-1.88a75.87 75.87 0 0 0-3.2-8.54 20.67 20.67 0 0 0-4.13-6.04c-.39-.4-.8-.82-1.19-1.3-.1-.12-.13-.17-.14-.24-.14-.45-.42-.63-.88-.8-.18-.08-.4-.11-.66-.1-.22-.8-.43-1.6-.66-2.37-.5-1.7-1.18-3.33-1.83-4.9a47.22 47.22 0 0 1-1.79-4.77c-1.51-5.08-.43-9.92.72-15.06.28-1.3.59-2.65.84-3.98a71 71 0 0 0 .6-4.04l.01-.1a45 45 0 0 1 1.27-6.86c.65-2.2 1.87-4.05 3.17-6.02l.4-.64a82.9 82.9 0 0 1 6.03-8.33c.63-.74 1.44-1.18 2.36-1.69.33-.18.68-.37 1.02-.58.53-.33 1-.71 1.43-1.08.38-.31.74-.6 1.14-.85 1.82-1.2 3.97-2.3 5.46-3.03.7-.34 1.97-.63 2.52-.49 1.53.39 2.11 1.96 2.73 3.6.23.6.44 1.17.7 1.67 1.05 2.04 2.8 3.57 4.5 5.07 1.39 1.21 2.82 2.46 3.8 3.94 1.88 2.87 2.65 6.33 3.2 9.65l.11.66c.2 1.26.45 2.54.7 3.83.4 2.11.81 4.3 1.03 6.46.36 3.36.02 6.74-.32 10.01a12.2 12.2 0 0 1-.63 2.8c-.32 1-.61 2-.89 3-.41 1.43-.83 2.92-1.38 4.3-1.23 3.16-2.85 6.28-4.42 9.31l-1.72 3.36a119.9 119.9 0 0 0-6.05 13.91c-.42.35-.82.7-1.22 1.07-2.51 2.35-5.11 4.79-5.28 8.75-.5-.14-.99-.47-1.5-.83Zm7.05-6.33c-.5 1.49-1.11 3-1.94 4.1a18.22 18.22 0 0 1-2.23 2.58c.3-2.62 1.92-4.5 4.17-6.68Zm-5.79 8.65-.07-.06-.05-.09.34.07c.02.08.02.18.03.26l-.25-.18Zm47.68 17.98h-.03l-.02-.1.05.1Zm-1.31.09c0 .04.03.1.05.13a45.83 45.83 0 0 1-2.9.34c-7.34 1.16-12.22 3.59-15.8 7.89-.5.58-.96 1.2-1.43 1.8-.89 1.19-1.8 2.4-2.85 3.35-1.86 1.7-4.7 2.58-7.24 3.22-2.87.72-6.62 1.54-10.15 1.45-2.17-.06-4.2-.54-6.41-1.06l-1.58-.36-.76-.16c-.59-.1-1.4-.25-1.56-.51-.04-.05-.08-.24.08-.69.27-.7 1-1.57 1.65-2.33.34-.4.65-.78.9-1.12a21.5 21.5 0 0 0 2.66-4.4c.17-.39.36-.78.56-1.18.4-.8.8-1.63 1.02-2.57.42-1.86.43-3.93.4-5.74-.02-1.3-.12-2.62-.28-3.95.17.77.34 1.57.49 2.35l.12.62c.3 1.69.64 3.44.7 5.11 0 .03-.06.11-.09.16-.12.17-.37.53-.19.97.2.46.72.57 1.22.64 1.06.14 2.02-.76 2.9-1.56.3-.26.56-.51.74-.64a73.2 73.2 0 0 1 4.94-2.91c2.07-1.15 4.63-1.47 7.16-1.8.89-.1 1.79-.22 2.67-.37a53.2 53.2 0 0 1 9.64-1c1.66.02 3.33.55 4.96 1.06.83.26 1.76.55 2.68.76 1.88.44 3.65 1.07 5.6 1.97l.1.53Zm3.8-1.93c-.66.4-1.43.53-2.3.66l-.66-.3-.37-.18a29.2 29.2 0 0 0-5.88-2.08c-.84-.2-1.7-.46-2.57-.74-1.72-.53-3.49-1.1-5.37-1.12-3.34-.04-6.87.5-9.89 1.02-.85.15-1.72.26-2.65.38-2.61.32-5.31.66-7.6 1.95-1.5.83-3.37 1.88-5.03 2.96-.29.2-.63.5-.95.8-.42.4-1.09 1-1.53 1.16.03-.11.05-.26.04-.4-.08-1.82-.4-3.61-.74-5.35l-.11-.6c-.36-1.87-.8-3.73-1.24-5.52-.72-2.93-1.46-5.96-1.73-9.03v-.02c.16-.07.31-.16.47-.26.87-.59 2.05-2.02 2.88-3.14 1.18-1.58 1.9-3.75 2.54-5.7l.04-.1c.1-.3.2-.63.34-.98l.24-.23c1.13-.94 2.3-1.92 3.26-3.14.82-1.06 1.52-2.19 2.24-3.34.74-1.2 1.52-2.46 2.46-3.58a57.19 57.19 0 0 0 4.9-6.77c.69-1.12 1.3-2.27 1.9-3.38.87-1.65 1.78-3.36 2.92-4.91l1.25-1.74.1-.15c2.92-4.09 5.69-7.94 9.93-10.8 4.55-3.08 9.14-5.77 15.26-5.04 3.9.46 7.17 1.65 9.73 3.54 2.38 1.76 4.35 4.06 6.27 6.3.93 1.08 1.77 2.05 2.67 3.03l.04.31v.02c.03.17.2.3.38.28l.14-.02.85.86c2.14 2.03 4.78 3.53 7.31 4.87 2.5 1.34 4.8 2.97 6.83 4.41l.62.44a33 33 0 0 1 4.07 3.22c.93.89 1.1 1.47 1.3 2.6l.1.64.1.44-1.24.69c-9.8 5.3-17.78 15.9-19.83 26.36-.2 1.02-.36 2.08-.52 3.24l-.04.05a8.56 8.56 0 0 1-2.75 1.77 2 2 0 0 0-.3-.45c-.42-.45-1.07-.64-1.95-.6-.5.02-1.01.12-1.5.23-.21.05-.41.08-.62.11-2.8.46-4.3 1.83-6.06 4.19l-.37.53c-.56.12-1.15.22-1.73.33l-.24.04c-.44.1-.9.17-1.34.25-1.34.27-2.2.84-3.13 1.49-.31.1-.62.3-.94.5Zm11.32 32.17h-1.54c-.47-.01-.96-.03-1.44-.01a1.7 1.7 0 0 1-.27-.56c-.33-1.13-.49-2.4-.65-3.63l-.04-.32c-.07-.48-.12-.96-.2-1.42l-.25-1.44-.04-.24c-.25-1.4-.54-2.98-.64-4.5-.08-1.3.01-2.6.1-3.87.07-.94.14-1.93.14-2.92 0-1.29-.38-2.47-.41-3.57-.04-1.23.16-2.52.36-3.75.09-.56.17-1.1.24-1.72.29-2.3.48-3.97 1.49-5.68a21.9 21.9 0 0 0 3.76-1.14c.66-.28 1.32-.58 1.97-.87.92-.42 1.97-.9 3.01-1.28l-.03.35-.02.17c-.12 1.12.13 2.27.38 3.37l.02.1c.08.37.16.73.22 1.09l1.06 6.32c.1.55.17 1.12.26 1.68l.04.2c.34 2.31.7 4.71 1.61 6.91.07.17.13.41.16.64.14.68.34 1.67 1.4 2.02 1.26.42 1.95-.57 2.36-1.2.08-.1.14-.22.22-.31l.2-.27 1.08-.24c.4-.1.77-.17 1.12-.23 1.7-.28 3.4-.56 5.1-.87h.03c.94 1.8 4.81 1.86 8.1 1.7l.25-.01c1.77-.08 3.55-.12 5.29-.16l2.4-.06c1.95 1.03 3.18 2.09 3.53 3.05.35.91-.2 1.7-.85 2.64a8.3 8.3 0 0 0-.9 1.53l-.16.37c-.32.77-.37.89-1.06 1.28-.68.4-1.53.67-2.39.97-.7.24-1.42.49-2.08.8-2.96 1.4-6.04 2-8.9 2.47-.52.03-1 .04-1.52.04-.86 0-1.75.01-2.7.17l-7.28 1.22c-4.42.76-8.4 1.13-12.53 1.18Zm-1.03 1.41-.05-.02h.09l-.04.02Zm-33.32 23.22c.5-.21 1.04-.43 1.57-.68 1.58-.77 2.81-1.85 4-2.9l1.13-.98a24.36 24.36 0 0 0 3.78-3.77c.31-.39.69-.63 1.12-.93.27-.18.58-.38.87-.63.47-.4.77-.8 1.04-1.19.18-.25.37-.49.58-.72.4-.43.86-.81 1.38-1.23.56-.46 1.14-.94 1.67-1.5 1.74-1.9 3.83-3.13 6.06-4.45a40.65 40.65 0 0 0 4.33-2.83l.37-.28c.79-.62 1.3-1.04 2.28-1.12l.6-.03c.32.31.71.6 1.16.87a12.64 12.64 0 0 1-2.15 1.02c-.26.09-.57.2-.92.43a15.1 15.1 0 0 0-2.84 2.83c-.36.42-.7.84-1.06 1.22a7.7 7.7 0 0 0-2.19 4.07c-.35 1.54-1.3 2.4-2.71 3.3a84.6 84.6 0 0 0-2.94 2c-.6.43-1.2.86-1.82 1.28-.77.52-1.6.97-2.42 1.41-.7.37-1.4.75-2.09 1.18a18.16 18.16 0 0 1-4.68 2.22c-.71.21-1.45.35-2.2.49-.8.15-1.61.31-2.43.57l-.66.21c-.76.22-1.49.44-2.23.77.45-.24.93-.43 1.4-.63Z"/>
</svg>
