<svg xmlns="http://www.w3.org/2000/svg" xml:space="preserve" fill-rule="evenodd" stroke-linejoin="round" stroke-miterlimit="2" clip-rule="evenodd" viewBox="0 0 150 272">
  <path fill="#d19389" fill-rule="nonzero" d="M149.46 53.01a82.86 82.86 0 0 0-.84-4.8 85.42 85.42 0 0 1-.84-4.83c-.09-.7-.23-1.4-.37-2.1a32.5 32.5 0 0 1-.37-2.16 9.83 9.83 0 0 1-.03-1.54l.02-.8c0-.88-.2-1.43-.62-1.72-.4-.29-.95-.3-1.7-.03-2.63.91-5.2 2.03-7.7 3.11-2.64 1.14-5.36 2.32-8.14 3.26-1.52.51-3.1.89-4.66 1.25l-.89.21c-.7.17-1.38.41-1.96.63l.03-.79c.04-.91.1-1.86-.06-2.74a5.82 5.82 0 0 0-.29-1.02c-.1-.3-.2-.59-.26-.88-.1-.61-.27-1.21-.44-1.8-.07-.26-.15-.53-.2-.79-.23-.85-.39-1.73-.56-2.58-.37-1.93-.75-3.92-1.69-5.73-.3-.58-.64-1.14-.99-1.69-.37-.6-.75-1.22-1.07-1.86a23.27 23.27 0 0 0-2.26-3.58 20.17 20.17 0 0 0-2.17-2.52 21.24 21.24 0 0 0-3.7-2.77c-2.45-1.5-3.92-3-4.93-5.01-.56-1.11-1.78-3.85-1.43-5.88l1.52.01.44.01c1.17.04 2.94.09 3.84-.83a2 2 0 0 0 .54-1.52v-.14a.25.25 0 0 0-.16-.22l-.13-.05a6.04 6.04 0 0 0-3.6-.58c-1.47.27-2.49.96-3.02 2.04l-.14.33a106.2 106.2 0 0 1-3.97-.12l-.43-.03a4.23 4.23 0 0 0-2.09.21 15.1 15.1 0 0 0-4.49 2.95c-.42.41-.88.81-1.29 1.16-.43.37-.88.75-1.3 1.16l-.37.36c-.77.76-1.57 1.54-2.48 2.13-1.3.84-2.66 1.66-3.86 2.39-2.82 1.71-5.73 3.47-8.37 5.6l-1.07.83a18.13 18.13 0 0 0-3.45 3.18l-.33.41c-.82 1.03-1.75 2.2-1.97 3.5-.07.4-.05.79-.04 1.18.01.17.02.35.01.52 0 .14.11.25.25.25h.07l-.39.5c-.9 1.22-1.33 2.64-1.75 4.02-.17.57-.35 1.16-.56 1.72a36 36 0 0 1-.86 2.02c-.36.79-.73 1.61-1.02 2.46-.28.8-.6 1.6-.9 2.38-.76 1.87-1.54 3.8-1.77 5.84-.08.7-.15 1.41-.2 2.16a81.54 81.54 0 0 0-3.25-6.55l-.9-1.73c-.78-1.52-1.58-3.09-2.62-4.52-.25-.34-.52-.67-.79-1-.29-.36-.6-.73-.86-1.11-.18-.26-.34-.56-.5-.87-.22-.38-.43-.78-.7-1.15-.69-.89-1.75-1.71-2.59-2.37l-.22-.17-.5-.4a17.8 17.8 0 0 0-2.3-1.62 32.25 32.25 0 0 0-6.7-2.57c-.66-.21-1.55-.5-2.18-.25-.56.21-.73.63-.89 1.03l-.03.07c-.34.81-.78 2.02-1 3.18l-.25 1.05c-.2.86-.43 1.74-.4 2.64.03.8.53 1.19.9 1.48.38.3.55.44.46.91-.73 3.74.2 7.48 1.08 11.1.18.74.37 1.48.53 2.21l.26 1.21c.38 1.77.78 3.61 1.47 5.21a55.55 55.55 0 0 1 1.47 3.71 30.4 30.4 0 0 0 4.47 7.9c.85 1.11 1.73 2.23 2.6 3.32 2.31 2.94 4.71 5.98 6.71 9.2.52.83 1.08 1.64 1.65 2.45 1 1.42 2.02 2.89 2.75 4.47l1.57 3.36.07.14a306.15 306.15 0 0 1 3.26 7.13 86.2 86.2 0 0 0 4.71 9.61l.67 1.14c.86 1.47 1.73 2.97 2.81 4.3-1.12-.46-2.38-.4-3.6-.35h-.08l-1.05.03H62.1c-.65.01-1.05.18-1.5.37l-.3.13c-1.13.45-2.04.88-3.03 1.45-.2.12-.45.18-.7.26-.3.08-.6.17-.89.33-.23.13-.44.31-.66.49-.12.1-.23.2-.35.28-.3.21-.64.39-.98.58-.46.25-.93.5-1.33.84a5.1 5.1 0 0 1-1.13.76 4.5 4.5 0 0 0-.98.71l-.4.34c-.19.15-.29.15-.57.17-.12.01-.26.01-.42.04-.37.05-.69.21-.98.35-.15.08-.3.15-.45.2-.24.09-.49.15-.73.21-.6.16-1.2.32-1.8.81a3.35 3.35 0 0 0-1.2 2.13l-.15.61a22.46 22.46 0 0 0-.66 2.87c-.22 1.38-.67 2.74-1.1 4.05l-.38 1.16c-.09.27-.19.55-.3.81-.73.13-1.54.31-2.26.76-.65.4-1.4 1.37-1.55 2.3-.08.51.03.97.33 1.32l.11.13c.07.09.2.11.3.06l.15-.08a8.29 8.29 0 0 0 3.54-3.65l.06-.01c.35-.06.72-.12 1.06-.2.97-.22 1.6-.32 2.54-.33a5.5 5.5 0 0 0 3.03-.74c.26-.12.54-.25.75-.4.51-.36.63-.75.74-1.1.04-.13.08-.27.16-.42.18-.38.43-.74.71-1.12.3-.41.6-.83.82-1.31.2-.41.36-.84.53-1.28.61-1.59 1.13-2.95 2.81-3.24a22.1 22.1 0 0 1 1.68-.19c1.72-.15 3.5-.31 4.92-1.77l.43-.46c.6-.65 1.22-1.33 2.03-1.42.76-.08 1.56.22 2.34.51.33.13.67.26 1.01.36.9.27 1.75.68 2.63 1.1.46.22.94.45 1.41.65.88.37 1.75.37 2.57.36h.48c.58.01 1.14-.07 1.67-.14 1.21-.16 2.17-.29 3.14.56.05.04.11.07.18.06.07 0 .13-.03.17-.08l.3-.33a.25.25 0 0 0-.03-.35c-1.28-1.13-2.6-.95-3.88-.78-.5.07-1 .12-1.53.13h-.52c-.76 0-1.48.01-2.17-.29-.48-.2-.95-.43-1.42-.65-.86-.41-1.76-.84-2.7-1.13-.32-.09-.63-.21-.97-.34-.87-.33-1.78-.68-2.77-.56-1.16.13-1.9.94-2.62 1.72l-.4.44c-1.19 1.21-2.72 1.35-4.34 1.49-.54.05-1.15.1-1.75.2-2.2.37-2.9 2.21-3.53 3.84-.16.41-.32.83-.5 1.21-.19.4-.46.79-.74 1.17-.28.4-.57.8-.79 1.26-.1.2-.15.38-.2.54-.09.3-.14.43-.39.61-.15.11-.4.22-.6.31-.13.06-.25.11-.35.17-.79.4-1.38.48-2.27.49-1.03 0-1.74.12-2.75.35l-.46.09.12-.34.35-1.06.03-.1c.45-1.35.91-2.75 1.14-4.2.13-.86.32-1.69.63-2.76l.17-.66c.16-.67.26-1.11.88-1.62.43-.36.88-.48 1.46-.63l.78-.23c.2-.07.38-.16.55-.24.24-.12.47-.23.7-.26l.34-.03c.31-.01.66-.03 1.1-.36l.44-.38c.26-.23.47-.41.8-.58.52-.28.81-.47 1.3-.88.32-.28.73-.5 1.18-.74.35-.19.72-.39 1.06-.63l.42-.33c.18-.15.35-.29.52-.39.2-.11.44-.18.67-.25.3-.08.61-.17.91-.35.96-.55 1.83-.96 2.9-1.39l.33-.13c.43-.18.7-.29 1.15-.29h1.91c.37 0 .76-.02 1.17-.04 1.46-.07 2.97-.14 4.03.79.54.47 1 .62 1.53.78l.3.09c.17.13.34.26.53.38l.03.06c.04.05.1.09.17.1l.1.03.3.18c1.25.71 2.64 1.27 4.23 1.72 1.04.29 2 .28 3 .27h.46c1.08 0 2.14-.08 3.21-.17 1.1.48 2.11.46 3.21.45h.11a5.23 5.23 0 0 0-.35 2.26c-.99.93-2.26 2.06-3.43 2.7-.2.12-.45.19-.7.26-.23.06-.45.13-.68.23-.23.1-.45.22-.66.33-.3.16-.59.32-.9.41-.72.21-1.37.48-2.05.76l-.14.06-.47.19c-1.46.58-2.84 1.14-3.65 2.8l-.59 1.15c-.5.96-1.02 1.95-1.35 3.07-.2.66-.33 1.33-.46 2-.13.67-.26 1.37-.47 2.03l-.04.12c-.43 1.39-.84 2.7-1.65 3.92-.68 1.02-1.75 1.8-2.79 2.56-.58.42-1.18.86-1.7 1.34l-.2.18a.22.22 0 0 0-.09.2c0 .07.04.14.1.19l.21.16c.26.2.67.21 1.51.15l.28-.02.77.01h1.45a6.83 6.83 0 0 0 4.3-1.82c1.11-1.22 1.92-3.38 2.3-4.99l.15-.64.31-1.31c.08-.32.12-.67.16-1 .05-.43.1-.85.23-1.17.86-2.18 3.03-3.1 5.14-3.99.82-.35 1.67-.7 2.43-1.13.33-.19.68-.29 1.08-.42.26-.08.53-.16.8-.27l.31-.14c-.04.24-.08.5-.1.78l-.02.11c-.09.9-.18 1.84-.4 2.7-.13.51-.3 1.04-.48 1.52-.19.57-.39 1.15-.53 1.75-.6 2.61-.52 5.3-.43 7.91l.01.17c.1 2.56.14 5.57-.14 8.44-.05.49-.1.98-.18 1.48-.1.79-.2 1.61-.25 2.42-.07 1.45.12 2.91.3 4.32l.06.46c.16 1.23.42 2.43.68 3.58.21.96.44 1.96.6 2.95.22 1.53.64 3.01 1.04 4.45l.25.92c.23.84.41 1.73.58 2.54.17.8.34 1.62.56 2.43.36 1.35.56 2.75.75 4.12.13.9.27 1.93.47 2.91.35 1.76 1.08 3.39 1.78 4.97.44.98.9 1.99 1.23 3a91.58 91.58 0 0 1 2.57 9.89l.32 1.47c.24 1.06.6 2.06.94 3.03.18.51.37 1.03.54 1.56l.5 1.66c.18.69.4 1.41.63 2.12a17.76 17.76 0 0 0 4 6.6 5.46 5.46 0 0 1 1.27 3.22c.56 4.23 1.23 8.34 1.98 12.89.26 1.6.51 3.25.75 5l-.52-1.16c-.26-.59-.46-1.26-.68-1.96-.47-1.53-.96-3.11-2.07-4.2a11.9 11.9 0 0 0-.37-.35l-.05-.05c-.4-.38-.78-.74-1.12-1.22a15.96 15.96 0 0 1-2.36-4.95c-.45-1.63-.8-3.33-1.16-4.97a65.55 65.55 0 0 0-1.64-6.6c-.6-1.87-1.33-3.71-2.04-5.54l-1.04-2.66c-1.59-4.08-3.24-8.29-4.54-12.47l-.65-2.13c-.6-2-1.22-4.06-2-6.05a58.4 58.4 0 0 1-1.3-3.71c-.43-1.27-.86-2.59-1.37-3.87a19.4 19.4 0 0 0-.7-1.53c-.27-.52-.53-1.06-.74-1.6-.25-.65-.44-1.34-.62-2.02-.17-.64-.35-1.3-.58-1.93-.56-1.54-1.35-2.99-2.1-4.39-.42-.76-.85-1.54-1.23-2.32a9.08 9.08 0 0 0-2.1-2.96A42.33 42.33 0 0 0 69.5 157c-.75-.53-1.53-1.07-2.25-1.62a9.43 9.43 0 0 0-3.4-1.7c-1.46-.35-2.96-.5-4.4-.65a28.6 28.6 0 0 1-4.94-.81c-.35-.1-.7-.22-1.1-.36-.58-.2-1.19-.41-1.82-.54-2.84-.58-6.57.08-9.3 1.63-2.8 1.6-5.29 3.42-7.94 5.35l-.2.15a10.77 10.77 0 0 0-3.43 3.12 36.65 36.65 0 0 0-2.46 5.04 81.13 81.13 0 0 1-2.34 4.54c-.6 1.11-1.22 2.26-1.8 3.42l-1.16 2.34c-2.63 5.36-5.12 10.42-8.79 15.01a43.6 43.6 0 0 0-1.8 2.44c-1.1.3-2.17.67-3.15 1.11-1.8.81-7.72 3.76-8.36 7.97-.19 1.28-.2 2.24.4 2.77.45.4 1.14.45 2.11.17 2.1-.59 3.32-2.32 4.51-4l.87-1.19a72.25 72.25 0 0 0 2.98-4.23l1.21-1.79c4.34-1.11 8.96-.97 12.51-.72 4.5.31 9.58.67 14.3-1.39 3.54-1.55 5.93-4.27 8.08-6.93 2.87-3.56 4.72-7.42 6.66-11.51.48-1.01.96-2.02 1.47-3.04l.53-1.09c1.17-2.43 2.38-4.94 4.6-6.55a.24.24 0 0 0 .04-.35l-.26-.35a.24.24 0 0 0-.35-.05c-2.39 1.75-3.65 4.37-4.88 6.9l-.53 1.08c-.5 1-.97 2-1.45 3l-.03.06c-1.92 4.04-3.74 7.86-6.55 11.33-2.08 2.57-4.38 5.2-7.73 6.66-4.5 1.97-9.48 1.62-13.86 1.32-3.3-.23-7.59-.38-11.76.5.4-.55.78-1.05 1.15-1.52 3.73-4.67 6.24-9.77 8.9-15.18l1.15-2.34c.57-1.15 1.2-2.3 1.82-3.45.8-1.47 1.61-2.98 2.34-4.55a35.2 35.2 0 0 1 2.38-4.9 9.96 9.96 0 0 1 3.16-2.85l.25-.19a86.17 86.17 0 0 1 7.84-5.29 13.55 13.55 0 0 1 8.64-1.53c.57.12 1.14.31 1.71.51a19 19 0 0 0 1.14.37c1.67.48 3.41.67 5.11.84 1.41.15 2.88.3 4.27.63.96.23 2.04.77 3.05 1.54a67.5 67.5 0 0 0 2.3 1.65 40.37 40.37 0 0 1 4.26 3.27 8.22 8.22 0 0 1 1.9 2.68c.4.8.82 1.59 1.23 2.36.74 1.37 1.51 2.79 2.05 4.26.22.61.4 1.27.56 1.87a21 21 0 0 0 .64 2.1c.22.58.5 1.14.77 1.68.24.48.48.97.68 1.46.51 1.25.93 2.55 1.34 3.81.4 1.24.82 2.52 1.32 3.76.77 1.93 1.38 3.97 1.98 5.97l.02.06.63 2.08c1.31 4.2 2.96 8.43 4.57 12.53l1.04 2.67c.7 1.78 1.43 3.62 2.02 5.48a66.61 66.61 0 0 1 1.62 6.55c.35 1.64.71 3.34 1.16 4.99.5 1.83 1.34 3.59 2.5 5.24.4.55.8.95 1.25 1.37l.4.38c.94.93 1.4 2.39 1.83 3.82.22.73.44 1.42.71 2.05.5 1.12 1 2.22 1.51 3.31l.26.55c.4 3.36.7 6.54.91 8.95l.13 1.42c.37 4.2.75 8.53 1.71 12.7l-1.29.03h-.08c-1.3.06-2.66.12-3.33 1-.36.47-.45 1.11-.28 1.9a3.73 3.73 0 0 0 1.84 2.42 5.27 5.27 0 0 0 4.05.52 1.6 1.6 0 0 0 1.02-.79c.41-.81.01-1.88-.32-2.74-.08-.22-.16-.42-.2-.58l-.22-.82.6.01 1.1.01c.16 0 .4.03.62.05.7.07 1.5.16 2-.13 1.05-.62.7-2.02.47-2.95l-.05-.22c-.38-1.57-.98-3.1-1.57-4.58l-.04-.09-.6-1.56c-1-2.67-1.92-5.43-2.76-8.01a60.04 60.04 0 0 0-2.8-6.79c-.34-2.89-.7-5.5-1.12-7.97a405.6 405.6 0 0 1-1.98-12.86 6.4 6.4 0 0 0-1.5-3.72 16.84 16.84 0 0 1-3.8-6.27c-.25-.7-.46-1.44-.64-2.09a38.88 38.88 0 0 0-1.04-3.26 24.8 24.8 0 0 1-.9-2.92l-.33-1.47c-.73-3.3-1.48-6.71-2.6-9.99a36.2 36.2 0 0 0-1.27-3.08c-.68-1.53-1.39-3.11-1.72-4.77-.19-.94-.32-1.91-.46-2.86-.2-1.39-.4-2.83-.77-4.23-.2-.79-.38-1.61-.55-2.41-.18-.84-.36-1.71-.59-2.57l-.26-.93c-.39-1.41-.8-2.87-1.02-4.33a48.86 48.86 0 0 0-.6-3.02 39.12 39.12 0 0 1-.66-3.49l-.06-.47c-.17-1.37-.36-2.79-.29-4.16.03-.78.14-1.57.25-2.39.06-.49.13-.97.18-1.46.28-2.92.23-5.97.14-8.56v-.17c-.1-2.54-.19-5.18.4-7.66.12-.56.32-1.13.5-1.68.17-.51.35-1.04.5-1.58.23-.93.32-1.9.42-2.84l.01-.1c.05-.5.13-.95.25-1.45.17-.09.34-.18.52-.25.66-.26 1.15-.58 1.71-.94l.15-.1.52-.31c.51-.29 1.04-.6 1.48-1.11.6-.7 1.12-1.78 1.62-3.3.16-.49.2-.96.22-1.42.02-.34.04-.66.12-.98a7 7 0 0 0 .17-1.57l.61-.08.62-.09c.34-.04.68-.11.98-.17v.13c0 .14.11.25.25.25l.54.02c.47.02.96.04 1.43-.05l.5-.08c.37-.06.75-.11 1.08-.21.34-.1.62-.26.9-.42.22-.13.47-.28.72-.35.28-.08.54-.18.81-.28l.08-.03.44-.16c1.01-.34 2.08-.62 3.47-.89a15.2 15.2 0 0 1 4.76.02l.4.04c1.24.14 2.71.45 4.5.95.91.26 1.9.5 2.95.31.43-.08.84-.21 1.27-.35.34-.11.7-.22 1.04-.29 3.26-.62 7.16.24 10.98 2.44l.55.31c.1.05.21.04.3-.03a.25.25 0 0 0 .06-.28l-.23-.58a28.5 28.5 0 0 0-1.37-3.08 9.24 9.24 0 0 0-3.22-3.38l-.89-.69c-.77-.62-1.5-1.21-2.57-1.47l-1.69-.41-1.62-.39a18 18 0 0 1-1.03-.28c-.54-.16-1.1-.32-1.68-.41-.59-.1-1.17-.08-1.75-.07-.38.01-.75.01-1.15-.01a5.04 5.04 0 0 0-1.64.09c-.28.07-.55.17-.85.27-.29.1-.59.2-.88.28-.99.25-2.04.41-3.05.56l-.86.13c-.47.08-.94.13-1.42.19l.25-.47.03-.06.36-.69.53-.98c.72-1.34 1.47-2.73 2.24-4.07a18.45 18.45 0 0 1 5.4-5.79 17.9 17.9 0 0 1 4.01-2.26c.7-.29 1.33-.66 1.95-1.04.7-.41 1.33-.79 2.06-1.06a16.4 16.4 0 0 0 3.72-2c1.1-.75 2.23-1.28 3.44-1.85l.4-.18c.36-.18.74-.35 1.17-.54a37.41 37.41 0 0 0 4.04-2.05 28.3 28.3 0 0 0 2.4-1.69c.64-.49 1.31-1 2.01-1.45 1.8-1.16 2.93-2.76 4.13-4.46l.25-.35a15.1 15.1 0 0 0 2.42-4.58c.14-.49.21-.99.3-1.48.05-.39.11-.79.2-1.16.1-.39.22-.79.34-1.18.13-.41.27-.87.38-1.33.2-.81.33-1.64.47-2.44l.01-.07c.11-.61.22-1.25.35-1.86.7-2.97.72-6.28.15-10.45ZM106.72 1.84a.94.94 0 0 1-.25.53c-.62.63-2.26.58-3.19.55l-.4-.01h-.1l-1.13-.01c.41-.76 1.18-1.25 2.3-1.46.81-.16 1.7-.03 2.77.4Zm41.63 63.39-.26.03a19.85 19.85 0 0 1-.81 3.61c-.13.4-.26.82-.36 1.24-.1.41-.16.83-.23 1.25-.07.46-.14.93-.26 1.36a14.51 14.51 0 0 1-2.28 4.29l-.25.35c-1.14 1.62-2.22 3.14-3.87 4.21-.73.47-1.42.99-2.08 1.5-.74.56-1.5 1.14-2.3 1.63-1.27.77-2.63 1.39-3.95 2l-1.19.55-.39.18a23.62 23.62 0 0 0-3.57 1.92c-.9.62-2.1 1.39-3.5 1.89-.83.3-1.58.75-2.25 1.15-.58.35-1.18.7-1.8.96a19.3 19.3 0 0 0-4.23 2.37 19.35 19.35 0 0 0-5.65 6.08c-.79 1.37-1.57 2.82-2.26 4.09l-.53.98-.4.76-.56 1.04c-1.3.17-2.8.42-4.16 1.22a86.93 86.93 0 0 0-3.05 1.88l-.2.13-1.02.63c-.4.26-.79.53-1.16.79-.6.42-1.16.82-1.8 1.15-.4.19-.79.35-1.2.46a3.4 3.4 0 0 0-1.92-1.55c-.6-.22-1.72-.62-2.44-.04-.53.42-.53.88-.49 1.12.13.73.98 1.2 1.47 1.36.86.28 1.82.35 2.8.2l.03.19-.47.01h-.19a9.41 9.41 0 0 0-2.64.23c-.42.11-.94.09-1.45.07l-.2-.01a.33.33 0 0 0-.15 0h-.05l-.25-.01h-.53c-.48 0-.97.01-1.45-.03l-.02-.29a.21.21 0 0 0-.08-.17.3.3 0 0 0-.18-.06c.43-.71.34-1.94.26-2.96-.02-.27-.04-.51-.04-.69v-3.09c0-1.2-.07-2.06-.23-2.88.25-.46.55-1.06.84-1.66.67-1.45 1.43-2.89 2.17-4.31 1.35-2.59 2.75-5.27 3.73-8.12a40.02 40.02 0 0 0 1.71-8.44l.07-.59c.22-1.84.45-3.75.97-5.53a20.65 20.65 0 0 1 3.3-6.4c.92-1.26 2-2.24 3.14-3.28l1-.91.63-.65c.34-.26.63-.61.86-1.01a22 22 0 0 0 1.48-2.25c.57-.99.8-2.03 1.01-3.05.12-.57.25-1.16.44-1.72.54-1.63 1.67-3.13 2.75-4.59l.48-.65c2.84-3.86 5.82-6.29 9.11-7.43.68-.24 1.37-.53 2.03-.8l.06-.02c1.05-.44 2.14-.9 3.21-1.16l.88-.21c1.56-.37 3.17-.75 4.74-1.28 2.8-.94 5.54-2.13 8.21-3.29 2.48-1.07 5.04-2.18 7.63-3.08.57-.2.78-.14.86-.09.07.05.22.23.22.96 0 .25 0 .51-.02.77-.02.55-.04 1.12.04 1.68.1.76.25 1.54.4 2.23.11.63.26 1.35.35 2.04.22 1.64.54 3.29.86 4.92.3 1.54.61 3.13.82 4.71.56 4.05.53 7.27-.07 10.11-.14.64-.25 1.3-.36 1.93l.24.07ZM106.4 109.5l.08-.01c.53-.06 1.1-.13 1.62-.21l.85-.13c1.04-.16 2.11-.33 3.14-.58.34-.08.67-.2.96-.3.27-.09.52-.18.8-.25.4-.11.87-.08 1.41-.05l.55.02.55-.01h.08a9.09 9.09 0 0 1 1.57.06c.52.08 1.05.24 1.6.39a32.77 32.77 0 0 0 2.67.68l1.7.41c.85.2 1.5.73 2.2 1.3.3.24.6.48.93.71 1.3.91 2.2 1.7 2.93 3.06.32.58.6 1.2.83 1.77a18.3 18.3 0 0 0-8.15-2.14c-.8 0-1.57.07-2.3.21-.42.08-.8.2-1.19.33-.38.12-.75.24-1.12.31a5.68 5.68 0 0 1-2.53-.29 28.78 28.78 0 0 0-4.66-.98l-.4-.04a15.84 15.84 0 0 0-5.05-.01 27.5 27.5 0 0 0-4.15 1.13c-.25.09-.48.18-.72.25-.36.1-.67.28-.95.44-.24.14-.46.26-.69.33-.24.07-.55.12-.88.17l.75-.2c.58-.15 1.04-.44 1.5-.73l.62-.38c.7-.37 1.2-.75 1.75-1.3.61-.62 1.18-1.28 1.73-1.92l.6-.69c.32-.37.62-.78.93-1.28l.44-.07Zm-14.27 8.91a6.7 6.7 0 0 0-.14 1.13 5.1 5.1 0 0 1-.18 1.19 9.12 9.12 0 0 1-1.45 2.98c-.33.39-.77.64-1.23.91l-.56.33-.16.1c-.5.32-.93.6-1.46.82v-.01c.12-.56.1-1.12.08-1.68v-4.08c.25-.27.37-.49.5-.72.05-.11.11-.22.2-.36.11-.17.23-.32.36-.49.26-.34.52-.67.67-1.1l.43-.08c.77-.21 1.52-.2 2.4-.2h.17c.17 0 .34 0 .51-.02 0 .48-.05.89-.14 1.28Zm-.32-3.28c-.75.08-1.47.01-2.1-.2-.45-.15-.82-.46-.85-.63 0-.07.1-.17.15-.22.08-.06.2-.09.36-.09.4 0 .88.18 1.2.29.55.19.96.47 1.24.85Zm-4.36 2.08v.05-.05Zm.05.25.21.01c-.1.17-.24.34-.36.5l-.2.27c.06-.27.17-.53.35-.78Zm6.9-2.15c.72-.36 1.33-.8 1.94-1.23l1.11-.76 1.11-.7.13-.08c.98-.62 2-1.26 3-1.84a8.62 8.62 0 0 1 3.02-.98 7 7 0 0 1-.39.49l-.62.71c-.54.62-1.09 1.27-1.68 1.85-.48.48-.92.81-1.53 1.14-.24.13-.47.27-.7.42-.4.26-.78.5-1.2.61l-1.2.32c-1.03.28-2.09.57-3.08.7l-.64.09-.52.07c0-.1-.03-.2-.05-.3.46-.13.9-.3 1.3-.51Zm-17.7.68a18.52 18.52 0 0 1-4.28-1.77c-.2-.37-.64-.53-.9-.62-2.06-1.59-3.43-3.93-4.75-6.19l-.68-1.15c-1.82-3.04-3.26-6.33-4.66-9.51l-.04-.08c-.44-1-.88-2.01-1.34-3.01l-1.9-4.1-.06-.1c-.53-1.12-1.06-2.23-1.57-3.36-.76-1.66-1.8-3.16-2.83-4.62a50.64 50.64 0 0 1-1.62-2.41c-2.03-3.26-4.45-6.33-6.79-9.3-.85-1.08-1.73-2.19-2.57-3.29a29.28 29.28 0 0 1-4.33-7.64c-.42-1.19-.9-2.39-1.5-3.77-.66-1.52-1.04-3.31-1.4-5.04l-.02-.06-.25-1.15c-.16-.73-.35-1.46-.54-2.23-.87-3.52-1.77-7.15-1.07-10.69.2-1.04-.4-1.51-.8-1.83-.35-.27-.53-.43-.55-.77-.03-.76.18-1.58.37-2.38.1-.36.18-.73.25-1.1.21-1.07.63-2.22.95-3l.03-.07c.16-.38.2-.45.36-.51a.65.65 0 0 1 .22-.03c.38 0 .93.17 1.32.3l.33.1a31.2 31.2 0 0 1 6.22 2.4c.75.42 1.47.98 2.16 1.53l.73.58c.81.62 1.81 1.4 2.41 2.19.24.31.42.66.62 1.03.17.31.34.64.56.95.3.43.63.84.93 1.2.25.3.51.62.74.94 1 1.37 1.78 2.91 2.54 4.4l.91 1.75c1.37 2.54 2.8 5.3 3.9 8.19l.03.08c-.1 2.14-.12 4.24-.13 6.03a33.3 33.3 0 0 0 .27 3.9l.1.97c.08.81.11 1.64.14 2.45.05 1.22.1 2.49.31 3.73.83 4.76 1.86 10.27 3.51 15.57a74.4 74.4 0 0 0 5.31 12.56c.43.82.85 1.65 1.25 2.46l.22-.11-.19.18a62.48 62.48 0 0 0 2.84 5.25 51.1 51.1 0 0 0 3.87 5.41c1.68 2.02 3.42 4.12 5.7 5.64.08.11.17.22.26.31-.52.03-.98.04-1.43.04h-.47c-.9 0-1.79.01-2.7-.25ZM59.12 47.64c.22-1.92.98-3.79 1.7-5.61.3-.75.64-1.6.93-2.42.28-.81.64-1.61 1-2.38.28-.63.61-1.35.88-2.08.23-.61.42-1.24.58-1.8.4-1.35.8-2.62 1.6-3.71 1.63-2.2 3.81-3.98 5.92-5.71.72-.59 1.46-1.19 2.17-1.81l1.02-.91c.74-.67 1.5-1.35 2.31-1.94.52-.38 1.11-.69 1.68-1 .68-.36 1.37-.73 2.01-1.24.46-.36.96-.7 1.48-1.05.46-.31 1-.66 1.47-1.04 1.13-.88 2.07-1.5 3.05-2 .96-.49 2.56-1.31 3.5-.59.7.55 1.06 1.72 1.38 2.77l.25.77a21.7 21.7 0 0 0 2.82 5.65 23.18 23.18 0 0 0 3.25 3.45l.71.66c1.8 1.7 2.56 4.11 3.23 6.64.16.59.26 1.2.37 1.81.08.47.17.96.28 1.45.27 1.18.7 2.3 1.12 3.38l.04.09.3.78c.17.47.35.93.54 1.39.6 1.47 1.17 2.86 1.3 4.44.12 1.64-.3 3.36-.7 5.04-.07.3-.15.61-.2.91a76.75 76.75 0 0 0-.87 4.68 53.62 53.62 0 0 1-1.22 6.08l-.16.59c-.18.7-.37 1.43-.68 1.99-.22.29-.46.57-.67.8-.14.1-.28.19-.44.25a.3.3 0 0 0-.14.13.21.21 0 0 0 0 .19v.01c-.04.04-.08.07-.1.11l-.99.9a23 23 0 0 0-3.27 3.41 21.54 21.54 0 0 0-3.44 6.69c-.55 1.86-.78 3.8-1 5.68l-.08.59a39.53 39.53 0 0 1-1.67 8.24 59.08 59.08 0 0 1-3.68 7.99c-.73 1.41-1.49 2.86-2.18 4.34-.1.24-.23.49-.35.73-.08-.21-.16-.43-.26-.64-.94-2.1-2.4-3.51-3.94-5.01l-.5-.49a11.65 11.65 0 0 1-3.2-4.94c-.25-.78-.47-1.6-.69-2.43-.39-1.5-.8-3.04-1.47-4.45a97.38 97.38 0 0 0-7.38-12.59c-2.09-3.03-3.06-6.74-4-10.33-.44-1.68-.9-3.41-1.46-5.06-.28-.81-.5-1.66-.7-2.47l-.39-1.41c-.24-.83-.58-1.62-.92-2.38-.16-.36-.32-.73-.47-1.11.07-1.44.18-2.77.33-4.03ZM96.16 3.68l.46.03c1.13.05 2.37.09 3.78.11-.3 2.19.82 4.88 1.54 6.32 1.1 2.18 2.67 3.79 5.27 5.38 1.12.69 2.42 1.54 3.55 2.64.7.67 1.37 1.46 2.07 2.41.72.97 1.54 2.14 2.17 3.44.34.69.73 1.33 1.12 1.96.32.52.66 1.06.95 1.62.88 1.69 1.24 3.61 1.6 5.47.17.86.34 1.76.56 2.63l.22.82a15 15 0 0 1 .41 1.7c.06.37.18.7.3 1.03.1.3.2.58.24.87.13.78.1 1.68.05 2.59l-.04 1.17-.47.2c-.66.28-1.35.57-2.02.8-3.47 1.21-6.6 3.74-9.56 7.76l-.48.65c-1.13 1.51-2.3 3.07-2.89 4.84-.12.36-.2.71-.3 1.07.17-.94.33-1.88.47-2.8a75.49 75.49 0 0 1 1.05-5.5c.42-1.74.85-3.54.71-5.33-.13-1.72-.73-3.17-1.36-4.74a42.2 42.2 0 0 1-.53-1.35l-.33-.88c-.4-1.05-.82-2.13-1.08-3.25-.1-.46-.19-.94-.27-1.41-.1-.61-.22-1.25-.39-1.88-.7-2.67-1.5-5.22-3.5-7.09l-.72-.67c-1.13-1.05-2.2-2.04-3.12-3.31a20.65 20.65 0 0 1-2.7-5.41c-.08-.22-.15-.46-.24-.76-.36-1.16-.77-2.48-1.7-3.21a2.35 2.35 0 0 0-1.49-.49c-1.09 0-2.23.58-3 .98a19.33 19.33 0 0 0-3.2 2.1c-.46.35-.95.68-1.43 1-.5.34-1.04.69-1.54 1.09-.58.46-1.24.81-1.87 1.15-.6.32-1.2.65-1.79 1.07-.84.61-1.6 1.31-2.38 2l-1 .9c-.7.6-1.43 1.19-2.16 1.79-1.75 1.43-3.55 2.9-5.08 4.64v-.08c0-.33-.03-.68.02-.99.18-1.07 1.03-2.14 1.8-3.1l.31-.4c.95-1.23 2.1-2.1 3.28-3.02.36-.28.72-.55 1.08-.85a74.56 74.56 0 0 1 8.28-5.53c1.27-.77 2.6-1.57 3.87-2.39 1-.64 1.83-1.46 2.63-2.25l.37-.36c.4-.39.83-.76 1.27-1.12.44-.38.9-.77 1.33-1.19a14.12 14.12 0 0 1 4.2-2.76c.52-.2 1.08-.16 1.68-.11ZM82.3 110.89l.23-.53c.37-.9.81-1.77 1.26-2.61.03.43.05.9.05 1.46v3.09c0 .21.02.48.04.8.05.71.15 2.04-.17 2.42-.13.15-.5.29-.89.31-.37-.19-.74-.4-1.1-.64-.13-.23-.22-.5-.27-.81-.17-1.1.37-2.36.85-3.49ZM58.71 53.87c.22.51.42 1.04.57 1.57.13.44.24.89.37 1.38.21.79.44 1.68.73 2.54a65.06 65.06 0 0 1 1.44 5c.96 3.67 1.96 7.46 4.14 10.62a96.58 96.58 0 0 1 7.31 12.46c.64 1.32 1.03 2.82 1.41 4.28.2.78.43 1.66.7 2.48a12.69 12.69 0 0 0 3.44 5.32l.51.5c1.48 1.43 2.87 2.79 3.74 4.72.21.47.37.94.5 1.45l-.26.47c-.57 1.07-1.17 2.18-1.65 3.34l-.23.54c-.5 1.16-1.05 2.46-.93 3.75a32.62 32.62 0 0 1-4.43-4.67 48.25 48.25 0 0 1-3.8-5.31c-1.05-1.68-1.94-3.46-2.8-5.18-.42-.83-.84-1.69-1.29-2.53a73.87 73.87 0 0 1-5.25-12.4 121.54 121.54 0 0 1-3.48-15.45c-.2-1.17-.25-2.41-.29-3.6-.03-.82-.06-1.67-.14-2.5l-.09-.87v-.11c-.14-1.24-.28-2.52-.27-3.8 0-1.27.01-2.63.05-4Zm27.13 72.6v.01l-.03-.05c-.3.17-.58.32-.87.44-.24.1-.49.17-.74.25-.4.12-.83.25-1.25.49-.7.4-1.48.73-2.33 1.08-2.29.96-4.65 1.96-5.65 4.51-.17.44-.23.93-.29 1.42-.04.3-.07.61-.14.87l-.28 1.18-.18.77c-.35 1.5-1.09 3.48-2.09 4.56a5.76 5.76 0 0 1-3.63 1.52h-1.4l-.79-.01-.24.01.7-.51c1.1-.8 2.24-1.63 3.01-2.8a15.58 15.58 0 0 0 1.76-4.16l.04-.12c.22-.71.36-1.43.5-2.13.12-.63.25-1.29.43-1.91.31-1.03.78-1.94 1.3-2.93.2-.37.4-.75.58-1.13.65-1.33 1.75-1.78 3.15-2.33l.63-.26c.65-.27 1.27-.52 1.94-.72.41-.12.75-.3 1.1-.49.18-.1.37-.21.57-.29.18-.08.36-.13.57-.19.3-.08.58-.17.88-.33a16.36 16.36 0 0 0 2.98-2.24v2.62l.02.63c.02.49.04 1-.06 1.43l-.16.69v.05l-.05.02.02.05Zm-45.32 6.43a7.42 7.42 0 0 1-2.3 2.33l.01-.2c.1-.61.67-1.37 1.12-1.65.37-.24.78-.38 1.17-.48Zm72.54 132.31c-.22.13-1 .05-1.43 0-.26-.03-.5-.05-.69-.05l-.88-.01-1.06-.01c-.98-4.18-1.37-8.56-1.74-12.79l-.13-1.42a448.4 448.4 0 0 0-.59-6.09 45.75 45.75 0 0 1 1.56 4.05c.84 2.58 1.77 5.34 2.77 8.04.2.55.42 1.09.65 1.68.57 1.44 1.16 2.93 1.52 4.44l.06.23c.2.75.41 1.67-.04 1.93Zm-3.93 4.6c-.05.09-.14.22-.44.31a4.38 4.38 0 0 1-3.32-.42 2.88 2.88 0 0 1-1.4-1.82c-.12-.51-.08-.88.11-1.12.4-.53 1.53-.58 2.63-.63h.08l1.47-.04.3 1.08c.04.19.13.42.22.67.23.6.57 1.53.35 1.97Zm-97.58-74.24-.5.75-.07.11v.02c-.94 1.38-1.89 2.81-2.94 4.15l-.9 1.22c-1.09 1.54-2.23 3.13-4 3.64-.83.24-1.13.12-1.24.02-.34-.3-.17-1.43-.09-1.92.57-3.74 6.13-6.5 7.82-7.25a20.7 20.7 0 0 1 1.92-.74Z"/>
</svg>
