<svg xmlns="http://www.w3.org/2000/svg" xml:space="preserve" fill-rule="evenodd" stroke-linejoin="round" stroke-miterlimit="2" clip-rule="evenodd" viewBox="0 0 123 277">
  <path fill="#d19389" fill-rule="nonzero" d="M121.18 32c-.24-.43-.53-.85-.84-1.3-.8-1.16-1.64-2.37-1.51-3.6.07-.7.07-1.33.06-2.08 0-.24.04-.51.08-.8.06-.4.12-.83.06-1.25-.15-1.15-1.35-1.74-2.42-2.27-.33-.17-.65-.32-.86-.46-1.17-.78-1.75-1.98-2.35-3.26l-.2-.43c-.9-1.86-2.06-3.88-3.81-4.62-1.35-.56-2.78-.17-3.74.18l-.39.15c-.41.17-.83.35-1.13.25a3.8 3.8 0 0 1-1.47-1.28c-.2-.33-.34-.8-.46-1.26a9.36 9.36 0 0 0-.18-.65 7.88 7.88 0 0 0-1.4-2.77c-1.94-2.33-5.58-2.82-6.65-2.92l-1.1-.07a9.82 9.82 0 0 1-3.32-.58c-.56-.23-1.12-.51-1.57-.74-1.24-.62-2.42-1.22-3.9-1.34a6.18 6.18 0 0 0-2.79.5l-.53.18c-.41.14-.8.38-1.18.6-.43.28-.84.53-1.23.57-.2.02-.44-.02-.7-.07-.25-.06-.58-.11-.9-.1-.56.03-1.1.2-1.59.37a15.41 15.41 0 0 0-7.83 6.03c-.4.62-.7 1.33-1 2.02a9.5 9.5 0 0 1-1.5 2.6c-.4.42-1.3 1.02-1.86 1.13 0-.23.06-.56.1-.8.05-.2.08-.38.1-.54.04-.47.14-.91.24-1.44l.1-.44c.14-.71.2-1.75-.07-2.52-.32-.9-.95-1.2-1.64-1.47-1.06-.41-1.9-.5-2.54-.23-.77.32-1.27 1.04-1.73 1.67l-.27.37a32.98 32.98 0 0 0-3.56 5.62c-.55 1.01-1.13 2.07-1.76 3.09-.2.33-.51.65-.82.97-.49.52-1 1.06-1.22 1.75-.3.98-.44 2.14-.41 3.42v.3c.04 1.04.07 2.01-.06 3.02 0 .06-.02.11-.03.17-.5-2.88-2.82-4.92-4.9-6.74-.31-.29-.63-.56-.94-.83-.78-.72-1.8-1.45-3.04-2.18-.29-.16-.57-.34-.85-.51l-.06-.03c-.99-.61-2.01-1.25-3.14-1.63l-.19-.06c-.42-.15-.9-.33-1.48-.19-.27.07-.5.19-.69.3-.2.1-.36.2-.55.21a7.34 7.34 0 0 1-2.72-.4 7.94 7.94 0 0 0-2.31-.34 3.84 3.84 0 0 0-3.17 1.27c-.35.39-.4.48-.44.98v.13c-.07.67-.1.93-.4 1.48l-.41.8c-.44.84-.8 1.58-1.52 2.35l-.27.29c-.36.38-.69.75-1.09 1.07-.52.41-.86.75-.84 1.59.01.43.12.84.22 1.23.1.37.19.73.2 1.06 0 .37-.14.74-.3 1.14-.18.46-.37.94-.35 1.49.03.51.24.97.47 1.42.12.24.23.46.3.68l.1.37.63 2.03.06.22c-.47-.27-1-.21-1.47-.17-.75.08-1.01.3-1.32.56-.1.08-.22.2-.4.3-.23.15-.51.2-.85.26-.31.06-.67.12-1 .3-.74.42-.75 1.26-.76 1.87 0 .24-.01.46-.05.62-.1.42-.28.54-.6.77-.18.12-.38.25-.57.45a5.76 5.76 0 0 0-1.29 2.35c-.1.4-.37 1.4-.37 2.25 0 .44.13.85.26 1.25.16.46.29.88.19 1.26-.24.87-1.62 1.07-2.8 1.07h-.25c-1.68 0-3.45.6-5.13 1.25-1.73.67-1.35 2-1.04 3.05l.04.15c.4 1.37-.25 2.09-1.5 2.88-1.24.79-2.39 1.8-2.43 3.77-.03 1.82 1.07 2.7 2.3 3.49 1.46.93 1.97 1.7 1.63 2.41-.14.3-.51.48-.94.69-.52.25-1.1.54-1.41 1.17-.63 1.25.2 2.02.7 2.49l.34.26c.12.09.45.33.48.4 0 .09-.12.35-.15.44-.06.16-.13.31-.16.43-.22.94-.23 1.6-.02 2.05.82 1.79 2.94 1.88 4.65 1.97.84.05 1.64.08 2.2.3.6.21 1.02.8 1.43 1.34l.23.3a5.4 5.4 0 0 0 2.73 1.85c.54.2 1.07.47 1.6.73.78.38 1.57.77 2.44 1 .3.08.65.2 1 .33.54.18 1.17.4 1.8.51-.23.18-.43.36-.65.55-.43.35-.82.7-1.29.96-.49.29-1.04.5-1.58.72-.5.21-1.04.42-1.55.7l-1.15.6-.93.49c-1.29.68-3.24 1.72-4.1 3.3-.5.91-.68 1.94-.87 2.92-.17.93-.32 1.81-.75 2.59-.18.34-.43.62-.67.9-.5.54-1.06 1.16-1.06 2.24 0 .75.4 1.37.76 1.98.2.31.38.62.5.9.3.84.53 1.5.3 2.4l-.18.99c-.05.34-.1.7-.2 1.05-.05.19-.08.37-.11.55-.11.52-.19.9-.56 1.23-.1.1-.23.18-.35.27l-.5-.14-.13-.04c-.6-.18-1.7-.53-2.42-.07-.31.2-.52.54-.56.97-.08.65.25.97.46 1.1.77.5 2.13-.04 2.53-.29l.16-.08.66-.42c.6.13 1.18.21 1.76.21.57 0 1.16.07 1.75.12.76.08 1.54.14 2.33.1.75-.02 1.5-.03 2.28-.03h.18l1.35-.03c.67-.02 1.34.04 2 .08.91.07 1.85.13 2.83.02a9.95 9.95 0 0 0 3.77-1.19c.72-.39 1.46-.81 2-1.36l.4-.43c.19-.23.38-.45.62-.61.26-.18.52-.35.8-.52.35-.22.7-.45 1.06-.71l.62-.43c.32-.21.67-.43 1-.72.34-.28.64-.58.96-.89.45-.43.88-.85 1.38-1.22 1.13-.83 2.37-1.5 3.58-2.15 1-.55 2.03-1.1 3-1.75a24.77 24.77 0 0 0 4.69-3.93l.04-.05 1.47-1.6.82-.88c.84-.9 1.57-1.81 2.35-2.91l.38-.48a3.3 3.3 0 0 0 1.21 1.61c.5.35 1.1.55 1.69.73.37.12.72.23 1.02.38 1.05.5 2.16.56 3.39.2.35-.1.65-.25.93-.38.3-.16.6-.3.91-.36.49-.11 1-.2 1.55-.3l.41-.06c.97-.17 1.59.27 2.45.9l.26.18c1.53 1.07 2.76 1.6 4.86 1.27.44-.07.9-.16 1.33-.26.45-.1.91-.2 1.36-.26.02.67.04 1.36.23 2.06.28 1.1.37 2.27.44 3.43.05.56.09 1.15.15 1.72.2 1.7.1 3.47-.02 5.17-.06 1.05-.14 2.14-.13 3.23 0 .82.09 1.62.18 2.4.07.77.16 1.55.16 2.34 0 2.27-.22 4.4-.46 6.67-.12 1.17-.06 2.32-.02 3.45.04 1.13.1 2.28-.02 3.4-.27 2.5-.85 5.02-1.4 7.47l-.43 1.87-.4 1.89c-.48 2.32-.97 4.71-1.9 6.85-.35.76-.81 1.4-1.4 2.15a24.34 24.34 0 0 0-2.31 3.93c-.37.73-.8 1.55-1.23 2.3l-.64 1.03c-.29.44-.6.9-.85 1.37-.14.26-.22.49-.3.7l-.06.19c-.2.58-.5 1.1-.82 1.66l-.26.46a34.1 34.1 0 0 0-1.37 2.85c-.67 1.48-1.35 3.01-2.31 4.3-.2.27-.4.53-.61.78-.35.43-.7.86-1.01 1.35a36.12 36.12 0 0 0-3.85 7.78c-.17.5-.31 1.03-.47 1.54-.21.75-.43 1.53-.72 2.26-.22.55-.52 1.1-.8 1.66-.38.73-.77 1.5-1.02 2.29-.25.8-.48 1.66-.7 2.63a59.22 59.22 0 0 0-.88 5.35c-.29 2.16-.64 4.32-1 6.46l-.22 1.28c-.34 2.03-.52 4.1-.7 6.09-.12 1.32-.25 2.8-.42 4.21-.11.87-.37 1.65-.66 2.47l-.2.64c-.65 1.96-.09 3.98.44 5.94.18.64.34 1.25.46 1.84.1.55.12 1.08.14 1.64.01.47.03.96.1 1.46.2 1.48.6 3 .97 4.46.18.7.37 1.43.53 2.13.24 1.05.54 2.1.8 3.1.28.95.59 2.04.83 3.1.5 2.2.89 4.44 1.3 6.66.19 1.1.38 2.21.59 3.31l.13.79c.16.96.33 1.98.8 2.88.45.88.65 1.73.88 2.83.53 2.6 1.04 5.13 1.33 7.7l.12 1.14c.13 1.18.26 2.39.43 3.57.13.89.33 1.75.51 2.6.25 1.1.5 2.23.6 3.4l.01.17c.05.62.11 1.47.7 2.02.6.57 1.47.55 2.17.53h.55c.27.02 1.12.21 1.52.36l-.23.32c-.57.07-1.07.15-1.58.27-.4.1-.96.15-1.57.21-1.54.14-3.27.32-4.12 1.17-.57.56-.74 1.27-.43 1.93.46 1.03 1.84 1.7 2.87 1.7h.12c1.68-.1 2.84-.67 3.66-1.83.38-.53.72-1.1 1.06-1.65l.05-.09.5-.8.3-.03c.56-.04.95-.2 1.2-.46a.76.76 0 0 0 .1-.11c.35-.51.18-1.19 0-1.83-.1-.33-.2-.68-.23-1l-.15-1.42v-.1c-.1-.8-.2-1.72-.25-2.59a25.87 25.87 0 0 0-.55-3.64c-.18-.83-.35-1.7-.46-2.59a24.5 24.5 0 0 0-.83-3.69c-.24-.87-.49-1.76-.65-2.67-.24-1.28-.69-2.52-1.11-3.73l-.38-1.09c-.18-.51-.35-1.02-.54-1.52a59.79 59.79 0 0 1-1.35-4.16 7.75 7.75 0 0 1-.2-3.3l.1-1.17c.04-1.26-.08-2.52-.2-3.74l-.01-.1c-.05-.44-.09-.87-.12-1.32-.05-.6-.07-1.2-.1-1.83-.06-1.18-.1-2.38-.3-3.57-.2-1.14-.5-2.28-.78-3.37l-.49-1.93c-.46-2-.72-4.09-.97-6.12-.18-1.5-.38-3.04-.65-4.57-.4-2.16-.88-4.85-.3-7.1.1-.43.3-.82.5-1.23a8.37 8.37 0 0 0 .8-2.24c.33-1.45.51-3 .7-4.52.32-2.68.65-5.45 1.72-7.8.48-1.06.73-1.82.76-3.06l.02-1.05c.06-2.45.11-4.99.9-7.33.28-.8.7-1.58 1.13-2.35.25-.46.5-.94.74-1.43.13-.28.24-.56.36-.86.17-.46.35-.91.6-1.31l.44-.64.05-.05c.28-.4.57-.8.82-1.28.24-.46.56-.93.86-1.38.48-.7.97-1.42 1.26-2.22l.2-.59c.23-.66.44-1.28.78-1.89.24-.45.44-.9.64-1.36.23-.52.47-1.07.76-1.54.12-.18.27-.37.44-.55.24-.29.49-.57.65-.92.46-.95.8-1.95 1.13-2.91.45-1.31.9-2.66 1.68-3.9.55-.9 1.17-1.77 1.77-2.63 1-1.42 2.05-2.9 2.85-4.52.4-.81.49-1.49.6-2.26l.06-.47c.1-.66.34-1.28.59-1.94.18-.48.39-1.01.52-1.57.19-.72.35-1.48.5-2.2l.02-.1c.36-1.66.73-3.38 1.34-4.95l.25-.56c.22-.46.44-.94.48-1.52a8.78 8.78 0 0 0-.14-2c-.07-.47-.14-.96-.14-1.42-.04-4.48.13-9.06.3-13.48.1-2.91.21-5.93.26-8.95l.08-4.47.07-2.8c.04-2.11.1-4.74.08-7.26a8.3 8.3 0 0 0 2.03-1.43 9.79 9.79 0 0 1 2.25-1.47l.43-.23a7.8 7.8 0 0 0 2.01-1.59c.38-.41.75-.9 1.11-1.41.7-1.05 1.12-2.1 1.58-3.22l.52-1.25.11-.25c.33-.76.71-1.62 1.34-2.01.14-.09.3-.16.46-.23.2-.09.44-.2.66-.35.37-.25.76-.48 1.13-.72l-.15-.23.21.2c1.47-.93 3-1.87 4-3.46l.32-.5c.44-.68.89-1.38 1.22-2.15.13-.3.24-.6.34-.9.13-.36.26-.73.41-1.07.12-.26.3-.5.5-.76.26-.35.53-.71.68-1.16.08-.21.1-.43.12-.62.01-.15.02-.3.07-.39.2-.51.81-1.07 1.35-1.57.25-.23.47-.44.67-.65.75-.8 2.47-2.83 2.2-4.6a2.2 2.2 0 0 0-1.19-1.63c-1.64-.92-3.3-.8-4.93-.67-1.01.07-2.07.16-3.07-.05-.45-.08-.88-.18-1.33-.28l-.12-.02c-.96-.21-1.96-.43-2.96-.58 1.79-.51 3.65-.69 5.43-.82 1.6-.12 3.18-.1 4.73-.1 1.61 0 3.27 0 4.91-.13 2.07-.16 4.27-.56 6.91-1.26l.3-.07c.82-.22 1.65-.45 2.52-.61l.45-.06a4.7 4.7 0 0 0 1.77-.4c.06-.03.13-.09.18-.14.27-.3.4-.75.51-1.16l.1-.32.34-.93a30.4 30.4 0 0 1 2.61-5.86c.44-.8.88-1.64 1.3-2.47 1.23-2.45.38-4.29-.95-6.63Zm-20.95 19.14c-1.5 0-3.18 0-4.8.11-2.7.2-5.32.48-7.81 1.68A7.64 7.64 0 0 0 84.27 54c-.46.26-.89.5-1.34.6-.18.03-.36.05-.55.06l.2-.22.37-.39.09-.09c.28-.3.57-.6.85-.92.3-.37.37-.82.2-1.34l-.08-.18-.02-.03c.07-.1.27-.26.36-.34.19-.15.37-.3.5-.49.73-1.15.89-2.1.47-2.87-.65-1.21-2.47-.73-3.98-.34-.37.1-.72.19-.96.22-.25.03-.5.08-.76.1-.84.13-1.68.27-2.47.25-.18 0-.28-.01-.34-.02l.05-.2c.09-.26.2-.62.14-1.01a1.25 1.25 0 0 0-.54-.88c-.8-.52-2.24-.07-3.52.32-.54.17-1.27.4-1.5.36-.13-.02-.17-.04-.32-.35-.1-.21-.24-.5-.5-.73-.52-.42-1.12-.4-1.59-.4-.3.01-.56.01-.77-.08-.18-.08-.26-.21-.4-.46-.09-.18-.19-.39-.37-.57-.55-.58-1.2-.42-1.64-.32-.22.06-.44.11-.54.05-.19-.11-.38-.68-.6-1.7l-.05-.27a6.85 6.85 0 0 1-.11-.58c-.13-.8-.29-1.72-.97-2.06-.4-.2-.87-.14-1.44.16-.41.23-.7.48-.92.82-.26.38-.39.8-.52 1.2-.07.24-.15.5-.26.72-.17.36-.43.67-.72 1.02-.42.52-.87 1.07-1.04 1.8-.14.6-.01 1.14.1 1.62.1.37.18.72.14 1.05-.02.16-.18.33-.35.53-.2.22-.41.47-.53.86a8 8 0 0 0-.4 1.52c-.08 1.1 1.1 2.33 1.81 2.98l.6.5c.38.3.74.59 1.01.96.3.4.51.88.66 1.25l.12.31c.12.32.25.66.4 1-.12 0-.24.02-.35.04-1.02.17-1.68.88-2.24 1.5-.3.34-.58.63-.9.86l-.5.01c-.6 0-1.23 0-1.97.34a8.67 8.67 0 0 1-3.75-.59c-1.38-.58-2.8-1.19-3.75-2.26-.41-.46-.67-1-1-1.63l-.25-.5a7.72 7.72 0 0 0-1.24-1.62l-.42-.46c-.75-.86-1.25-1.84-1.78-2.86l-.4-.77c-.63-1.17-.56-2.2.22-3.31.11-.17.23-.32.36-.5.5-.67 1-1.37 1.25-2.18.35-1.11.34-2.28.32-3.41l-.01-.78c0-.4-.06-.78-.1-1.15-.05-.41-.1-.81-.09-1.2a8 8 0 0 1 .67-2.28l.05-.14a15.1 15.1 0 0 1 2.44-4.14c.72-.8 1.46-1.75 1.6-2.8.13-1.09.1-2.1.07-3.17l-.01-.3a9.6 9.6 0 0 1 .37-3.1c.15-.5.57-.94 1.01-1.4.33-.35.66-.7.91-1.11.65-1.04 1.22-2.1 1.79-3.14l.04-.08 1.17-2.1A32.26 32.26 0 0 1 58 9.9l.3-.4c.37-.53.8-1.13 1.3-1.35.14-.05.3-.08.48-.08.36 0 .82.1 1.36.31.7.27.93.47 1.08.9.2.56.17 1.42.04 2.02l-.1.48c-.11.48-.21.97-.26 1.5l-.08.44c-.12.57-.25 1.23.07 1.7l.04.08c.04.07.1.11.17.12l.09.02c1.07.24 2.61-.98 3.04-1.43.74-.8 1.2-1.85 1.64-2.86.3-.68.59-1.32.95-1.88 1.63-2.54 4.3-4.6 7.34-5.65.43-.15.9-.3 1.33-.33.2 0 .42.04.66.08.32.06.65.12 1 .09.6-.07 1.14-.42 1.63-.71.31-.2.65-.4.96-.51l.56-.2c.85-.3 1.45-.51 2.37-.43 1.31.1 2.41.66 3.56 1.24.5.25 1.05.52 1.64.77 1.22.51 2.38.58 3.65.65l1.04.08c.98.09 4.3.52 6 2.58.59.7.9 1.46 1.23 2.46.07.19.1.4.16.6.15.53.29 1.08.57 1.53a4.65 4.65 0 0 0 1.98 1.68c.64.2 1.28-.06 1.8-.28.12-.06.24-.1.35-.14.8-.3 1.99-.63 3.03-.2 1.49.62 2.55 2.54 3.33 4.15l.2.44c.67 1.39 1.29 2.7 2.68 3.64.28.19.63.36 1 .55.84.41 1.79.88 1.88 1.52.04.3-.01.63-.07 1-.04.3-.09.62-.09.94.01.7 0 1.32-.06 1.97-.17 1.58.81 3 1.68 4.25.28.4.56.82.79 1.22 1.25 2.2 1.94 3.69.9 5.77-.41.84-.87 1.67-1.3 2.5l-.04.06-.89 1.68c-.7 1.38-1.22 2.81-1.7 4.2l-.33.92c-.05.11-.08.25-.12.4-.06.21-.2.7-.3.78-.17.1-1.02.2-1.35.24l-.52.06c-.88.17-1.75.4-2.6.62l-.29.08c-2.62.7-4.7 1.08-6.74 1.24-1.59.14-3.23.13-4.82.13Zm1.8 4.31c.42.24.65.55.71.95.17 1.09-.94 2.72-1.94 3.8-.18.19-.4.4-.64.6-.6.57-1.3 1.2-1.59 1.9-.1.25-.12.47-.13.67 0 .15-.02.28-.06.4-.11.3-.33.6-.56.9-.2.28-.42.57-.59.92-.18.38-.32.77-.46 1.19-.1.27-.2.55-.32.81-.3.7-.73 1.37-1.14 2l-.33.52c-.88 1.4-2.25 2.26-3.72 3.18l-1.19.76c-.15.1-.34.19-.52.27-.19.1-.38.18-.56.29-.9.54-1.34 1.59-1.7 2.44l-.12.25-.53 1.27c-.44 1.07-.84 2.08-1.48 3.04a7.86 7.86 0 0 1-2.79 2.7l-.42.23c-.87.45-1.7.89-2.46 1.62-.45.41-.89.75-1.39 1.05v-.9c-.03-2.84-.04-6.06-1.04-8.78a11.2 11.2 0 0 0-2.1-3.26c-.46-.57-.94-1.17-1.33-1.8-.57-.9-1.08-1.97-1.61-3.34a88.9 88.9 0 0 1-.78-2.1c-.42-1.21-.87-2.45-1.4-3.64-.16-.36-.32-.67-.47-.96a4.2 4.2 0 0 0-.42-.65 6 6 0 0 0 2.16.33c1.52-.1 2.94-.5 4.5-1.23.53-.25 1.09-.48 1.71-.74 1.2-.5 2.45-1.02 3.54-1.77 1.8-1.25 4.05-2.82 6.3-4.14.24-.14.48-.26.72-.38a8.43 8.43 0 0 1 1.86.08c1.06.14 2.14.38 3.1.59.49.1.97.22 1.45.31 1.15.23 2.26.14 3.35.06 1.53-.11 3-.23 4.39.56Zm-51.7 146.72c-.22.43-.45.9-.6 1.41-.61 2.45-.09 5.38.3 7.52.27 1.49.46 3.02.64 4.5.26 2.05.52 4.16 1 6.21.15.65.32 1.32.5 1.97.28 1.07.57 2.17.76 3.28.18 1.13.24 2.32.3 3.47a54.1 54.1 0 0 0 .22 3.31c.11 1.19.23 2.42.19 3.62-.01.36-.05.73-.08 1.1-.05.6-.1 1.26-.08 1.91.04.55.13 1.12.3 1.74.39 1.41.88 2.84 1.37 4.22.17.51.36 1.01.52 1.51l.34.98.04.13c.42 1.17.85 2.38 1.08 3.6.18.92.43 1.85.68 2.74.31 1.17.65 2.37.8 3.55.1.9.29 1.79.46 2.67.23 1.13.47 2.3.53 3.5.06.88.16 1.77.25 2.63l.16 1.5c.04.42.15.83.24 1.17.1.41.24.88.13 1.03l-.09.07a.62.62 0 0 0-.02-.5c-.35-.73-2.46-.96-2.48-.96h-.66c-.56.03-1.15.04-1.48-.26-.31-.3-.36-.88-.4-1.4v-.17a25.2 25.2 0 0 0-.62-3.57 29.7 29.7 0 0 1-.5-2.5c-.17-1.18-.3-2.4-.43-3.58l-.12-1.1c-.3-2.6-.8-5.17-1.34-7.78a11.01 11.01 0 0 0-.97-3.07c-.4-.78-.54-1.7-.7-2.6v-.08c-.05-.25-.1-.5-.13-.74-.21-1.11-.42-2.24-.61-3.36-.4-2.19-.8-4.45-1.3-6.66a62.92 62.92 0 0 0-.84-3.2c-.27-.97-.55-2-.8-3a78.5 78.5 0 0 0-.53-2.17 39.28 39.28 0 0 1-.94-4.35c-.07-.45-.08-.9-.1-1.36-.01-.58-.02-1.18-.14-1.8-.12-.62-.3-1.24-.47-1.9-.5-1.82-1.01-3.72-.46-5.4l.2-.62c.3-.87.58-1.7.7-2.66.19-1.44.32-2.93.43-4.26.17-1.98.36-4.03.68-6.02l.22-1.28c.34-2 .72-4.28 1-6.5a60 60 0 0 1 .88-5.25c.2-.94.42-1.78.67-2.55.23-.72.6-1.44.96-2.14.3-.56.59-1.14.83-1.75.3-.78.53-1.58.76-2.36.14-.5.28-1 .45-1.5a35.35 35.35 0 0 1 3.73-7.56c.28-.44.62-.85.95-1.26l.64-.8a23.18 23.18 0 0 0 2.42-4.5c.41-.92.85-1.89 1.34-2.77l.26-.46c.32-.57.66-1.16.89-1.82l.07-.2c.06-.2.12-.36.21-.54.26-.46.56-.91.84-1.35.22-.34.44-.67.64-1.02.46-.76.86-1.56 1.27-2.34.66-1.3 1.35-2.63 2.23-3.78.62-.8 1.12-1.5 1.5-2.35.98-2.25 1.48-4.7 1.97-7.06l.4-1.86.39-1.71.03-.15c.57-2.48 1.15-5.03 1.43-7.58.13-1.2.07-2.39.03-3.55-.04-1.09-.1-2.22.02-3.32.24-2.29.47-4.46.46-6.78 0-.82-.09-1.64-.18-2.43-.07-.76-.16-1.54-.16-2.3 0-1.06.07-2.14.13-3.18.11-1.74.23-3.54.02-5.34-.06-.55-.1-1.13-.14-1.68-.09-1.2-.17-2.42-.48-3.6a8.51 8.51 0 0 1-.2-1.9h.4c.24.02.5.04.77 0a8.71 8.71 0 0 0 2.71-.96l.53-.25c0 2.22-.05 4.48-.1 6.8l-.07 2.8-.07 4.52c-.06 2.93-.17 5.91-.28 8.8v.1c-.16 4.43-.33 9.01-.29 13.5 0 .53.08 1.05.15 1.56.09.6.18 1.22.13 1.77-.03.41-.2.8-.4 1.2-.1.2-.19.41-.27.62-.63 1.64-1.02 3.4-1.39 5.1-.16.75-.32 1.52-.5 2.27-.13.5-.32.98-.5 1.46-.26.67-.52 1.37-.64 2.14l-.06.48c-.1.73-.18 1.3-.52 1.97-.76 1.55-1.77 2.99-2.77 4.41-.6.86-1.22 1.75-1.79 2.65-.83 1.34-1.3 2.74-1.77 4.1-.32.93-.65 1.89-1.08 2.81a3.7 3.7 0 0 1-.54.72c-.17.21-.35.42-.5.66-.32.53-.6 1.13-.83 1.7-.19.4-.39.84-.6 1.24-.36.67-.6 1.37-.83 2.04l-.2.58a9.6 9.6 0 0 1-1.15 2.03c-.32.46-.64.94-.9 1.44-.23.43-.48.79-.78 1.2l-.49.7c-.31.49-.51 1-.7 1.51-.1.26-.2.53-.33.79-.23.48-.5.97-.73 1.4a16.6 16.6 0 0 0-1.17 2.47c-.84 2.46-.89 5.08-.96 7.61 0 .35 0 .69-.02 1.04a6.18 6.18 0 0 1-.67 2.69c-1.12 2.48-1.46 5.33-1.8 8.09a48.21 48.21 0 0 1-.66 4.43 8.45 8.45 0 0 1-.74 2.06ZM64.8 88.49l-.25-.19c-.76-.54-1.54-1.1-2.62-1.1-.17 0-.37.02-.56.06l-.4.06c-.53.1-1.07.19-1.6.3-.44.1-.81.27-1.14.43-.26.14-.5.25-.77.33-1 .3-1.9.25-2.71-.14-.36-.17-.75-.3-1.13-.43a5.55 5.55 0 0 1-1.44-.6 2.56 2.56 0 0 1-1-1.65c.5-.53 1.02-1.09 1.4-1.77l.4-.77c.3-.6.6-1.16 1.05-1.68.28-.33.6-.65.95-1 .98-1 1.99-2.03 2.42-3.48.19-.63.29-.95.61-1.48l.43-.72.54-.91a13.25 13.25 0 0 0 1.81-5c.34-1.85.53-3.7.72-5.5l.02-.3c.01-.17.02-.33.06-.48.16.45.25.88.24 1.44-.02 1.05.29 2.04.57 3 .12.37.23.76.33 1.14.22.9.66 1.69 1.1 2.48.26.47.52.96.73 1.44l.31.8c.4 1 .8 2.05 1.52 2.94l.27.31c.15.18.3.33.4.5.28.46.44.97.61 1.52.19.58.37 1.2.72 1.76a7 7 0 0 0 .75.95c.16.17.32.35.45.53 1.06 1.4 1.55 3.5 1.82 4.99.05.26.06.53.08.83.03.3.05.65.11.99.07.32.1.66.12.98-.5.06-.99.17-1.52.28-.41.09-.85.19-1.26.25-1.79.28-2.76-.13-4.14-1.11Zm-14.63-3.26c-.29.32-.62.68-.9 1.07a27.45 27.45 0 0 1-2.27 2.81l-2.3 2.48.2.19-.26-.13a23.66 23.66 0 0 1-4.52 3.78c-.93.62-1.94 1.17-2.92 1.7-1.23.67-2.5 1.37-3.68 2.23-.56.4-1.03.86-1.5 1.31-.3.29-.58.57-.9.84-.27.24-.58.44-.9.65a9 9 0 0 0-.66.45c-.32.24-.67.46-1.02.68l-.82.53c-.34.24-.59.52-.8.77-.11.14-.22.27-.35.39-.46.45-1.13.83-1.79 1.2a9.16 9.16 0 0 1-3.4 1.07c-.9.1-1.77.03-2.7-.03a22.9 22.9 0 0 0-1.77-.08h-.3l-1.34.02h-.25c-.73 0-1.5.02-2.25.05-.73.03-1.48-.05-2.22-.11-.59-.06-1.19-.11-1.8-.12-.26 0-.5-.02-.77-.04.44-.5.55-1.04.65-1.58l.11-.47c.11-.4.17-.8.22-1.16.04-.31.09-.6.16-.91a4.7 4.7 0 0 0-.34-2.95 5.96 5.96 0 0 0-.58-1.07c-.3-.49-.62-1-.62-1.47 0-.72.35-1.1.8-1.61.29-.32.58-.64.81-1.08.49-.9.67-1.9.85-2.88.16-.9.34-1.85.76-2.63.73-1.33 2.53-2.28 3.71-2.92.3-.16.63-.32.93-.49l.16-.08c.34-.18.67-.35 1-.54.47-.25 1-.45 1.46-.64.57-.23 1.16-.46 1.7-.77.54-.3.98-.7 1.46-1.1l.67-.55c.67-.52 1.3-.77 2.23-1.06l.62-.2c2.55-.8 5.18-1.61 7.68-2.71 2.22-.98 4.09-2.76 5.9-4.46l.96-.9 1.44-1.32a84.1 84.1 0 0 0 3.68-3.46c.44-.43.83-.63 1.38-.8.67-.22 1.3-.5 1.91-.74h.01c.61.08 1.2.06 1.79.04l.87-.02h.35c.74 0 1.37.02 2.19-.25a.92.92 0 0 1 .18-.06c-.14.44-.28.84-.44 1.22-.07.14-.13.3-.21.43-.19.37-.4.8-.45 1.3-.04.45-.03.93 0 1.44v.59c0 .91.02 1.85.05 2.75l.02 1.03c.02.85-.15 1.99-.47 3.06-.16.56-.27 1.1-.37 1.64-.13.7-.25 1.36-.52 2.06-.13.43-.68 2-.52 3.61ZM4.11 71.18l.11-.29c.13-.31.3-.67.21-1-.1-.42-.51-.73-.86-.98l-.24-.18c-.65-.61-.75-.87-.5-1.36.17-.34.54-.53.98-.73.51-.25 1.09-.54 1.37-1.14.86-1.8-1.26-3.18-1.96-3.62-1.1-.72-1.9-1.33-1.87-2.67.03-1.45.78-2.22 1.98-2.98 1.27-.8 2.5-1.92 1.9-3.96l-.04-.15c-.36-1.24-.36-1.57.48-1.9 1.61-.62 3.32-1.18 4.86-1.18.84.01 3.38.04 3.89-1.76.18-.66-.03-1.28-.2-1.82-.1-.34-.22-.67-.22-.96 0-.74.23-1.63.33-1.98.17-.62.58-1.48 1.03-1.94.16-.14.3-.25.46-.36.37-.26.8-.55 1-1.33.06-.26.06-.53.07-.83 0-.55.03-.9.27-1.04.18-.11.45-.15.7-.2.39-.06.81-.14 1.2-.4.21-.13.35-.26.5-.37.23-.2.34-.28.83-.34.53-.05.8-.06 1 .19.1.12.27.14.39.05l.03-.02a4.76 4.76 0 0 1-1.3 3.11c-.28.25-.63.46-.97.67-.64.4-1.3.8-1.41 1.51-.08.51.14 1.06.7 1.7.23.27.52.5.78.7.24.2.47.38.64.59.2.22.35.47.52.76l.22.35c.56.87.68 1.37.56 2.46-.09.84-.12 1.73.63 2.55.37.4.78.76 1.2 1.12l.58.52c.22.2.45.4.7.6.42.36.84.73 1.18 1.1.36.41.6.9.88 1.42.2.4.44.86.74 1.27l.19.25c.4.54.8 1.1 1.02 1.7.08.2.12.4.16.6.11.44.23.95.67 1.44 1.87 2.05 3.83 3.36 5.82 3.86l1.28.27c.52.1 1.02.2 1.52.34a24 24 0 0 0 2.86.62c.39.06.78.14 1.2.23.87.17 1.77.36 2.66.43l.74.06h.2l-.27.1c-.65.2-1.2.46-1.76 1.04a78.06 78.06 0 0 1-3.66 3.44l-.15.14-1.28 1.17-.86.8-.1.1c-1.75 1.66-3.57 3.37-5.63 4.28-2.45 1.09-5.06 1.9-7.58 2.68l-.62.2c-.5.15-.89.29-1.24.45l-.06-.05a.25.25 0 0 0-.15-.04h-.06c-.73.14-1.7-.21-2.58-.5-.38-.14-.74-.27-1.07-.35-.79-.21-1.54-.58-2.28-.95-.53-.26-1.09-.55-1.68-.76a4.57 4.57 0 0 1-2.3-1.54l-.22-.3c-.5-.66-1-1.34-1.85-1.66-.71-.26-1.6-.3-2.52-.35-1.67-.07-3.23-.15-3.82-1.41-.06-.17-.14-.53.07-1.47Zm17.3-42.16c.18-.46.37-.94.37-1.5 0-.46-.12-.89-.22-1.3-.1-.36-.19-.69-.19-1.02 0-.4.07-.49.48-.81a11 11 0 0 0 1.2-1.17l.26-.28.05-.05c.78-.85 1.2-1.68 1.66-2.6.11-.24.23-.46.36-.7.38-.72.43-1.13.5-1.85l.01-.12c.02-.24.02-.24.24-.48a2.8 2.8 0 0 1 2.22-.9h.18c.8.03 1.38.06 2.06.28 1.2.38 2.24.53 3.09.45.4-.03.7-.2.94-.33.16-.1.3-.17.44-.2.3-.08.59.03.96.15l.2.07c1.02.35 2 .94 2.95 1.53l.92.57a17.1 17.1 0 0 1 2.89 2.06l.81.72.14.12c2.27 1.99 4.61 4.05 4.68 7.04 0 .13.08.23.2.26-.2.28-.44.57-.67.83a16.15 16.15 0 0 0-2.62 4.42l-.05.14a8.74 8.74 0 0 0-.73 2.57c-.03.48.02.94.09 1.4.04.31.08.67.08 1 0 .27 0 .53.02.8 0 1.06.03 2.15-.28 3.1-.2.67-.67 1.3-1.1 1.91l-.38.51a3.76 3.76 0 0 0-.28 4.3l.4.77a14.26 14.26 0 0 0 1.9 3.06l.38.41.05.07c.42.45.82.88 1.1 1.41.09.15.17.3.24.46l.05.07c.31.62.6 1.21 1.1 1.77 1.1 1.24 2.62 1.88 4.09 2.51.8.34 1.7.56 2.67.63l-.6.46c-.28.24-.6.5-.9.71-.26.17-.5.36-.74.53l-.05.05c-.6.44-1.16.87-1.82 1.22-.58.31-1.16.53-1.77.76l-.6.23-.74.3c-.68-.14-1.3-.18-1.98-.23-.23 0-.47-.03-.71-.05-.84-.07-1.71-.25-2.6-.43-.39-.07-.78-.16-1.2-.22-.95-.17-1.83-.33-2.72-.6-.56-.17-1.13-.28-1.63-.37l-1.2-.25c-1.81-.46-3.6-1.67-5.36-3.59-.29-.3-.35-.62-.45-1-.05-.24-.1-.47-.2-.72a7.8 7.8 0 0 0-1.15-1.92l-.17-.25c-.25-.35-.46-.76-.67-1.15-.28-.54-.57-1.1-1.01-1.6-.38-.43-.84-.81-1.28-1.2a34.94 34.94 0 0 1-1.21-1.06l-.06-.06a12.6 12.6 0 0 1-1.1-1.04c-.44-.48-.48-.97-.39-1.81a4.05 4.05 0 0 0-.7-3.07 14.53 14.53 0 0 0-.81-1.23c-.24-.28-.53-.5-.79-.7a4.84 4.84 0 0 1-.65-.59c-.44-.5-.5-.78-.48-.93.04-.27.49-.56.97-.85.37-.23.76-.46 1.11-.77a5.7 5.7 0 0 0 1.43-5.34c-.21-.65-.42-1.32-.62-2l-.11-.37c-.09-.3-.23-.6-.36-.85-.18-.36-.35-.71-.36-1.03-.07-.3.07-.67.23-1.06Zm37.71 31.5c.02 0 .02 0 0 0Zm1.95-1.17a1.8 1.8 0 0 0-.02.26c-.2.04-.44.04-.67.04.3-.33.58-.65.91-.88-.1.16-.17.35-.22.58Zm-1.1 1.78a10 10 0 0 1-1.75 1.77c-.15.1-.34.19-.54.28l-.5.24c-.21.12-.42.29-.6.43-.22.17-.44.35-.65.42-.4.16-.83.29-1.25.4.24-.53.5-.92.8-1.26l.1-.1c.25-.23.52-.44.78-.65.27-.2.58-.44.86-.72.33-.31.76-.53 1.22-.77l.04-.02.52-.27a.74.74 0 0 0 .1-.07h.08l.37-.04c.37-.05.43-.06.65.13l-.24.23Zm-3.43.12c-.25.24-.52.45-.77.64-.27.2-.59.45-.87.73-.7.7-1.1 1.58-1.4 2.36l-.85.26c-.67.23-1.15.22-1.88.21h-.7c.38-.15.75-.32 1.12-.51.7-.38 1.31-.84 1.92-1.3.25-.18.5-.38.77-.56.33-.24.66-.5.98-.76.48-.38 1.07-.86 1.7-1.18h.1a.52.52 0 0 0-.12.1Zm4.46.32.24-.12-.24.12Zm-1.28-15.3c-.1-.43-.2-.8-.1-1.17.13-.53.47-.96.85-1.43.31-.37.61-.75.84-1.2.13-.29.23-.57.32-.86.1-.34.2-.68.4-.94.12-.21.3-.36.58-.5.38-.21.52-.17.55-.15.24.12.36.86.45 1.35.03.22.08.44.12.64l.05.25c.22 1.03.46 1.99 1.06 2.34.44.25.88.14 1.25.05.46-.1.58-.1.72.05.09.1.17.22.23.36.15.28.36.67.85.89.4.18.82.16 1.18.16.38 0 .71-.01.95.19.12.1.19.24.27.4.15.31.38.78 1.03.88.45.07 1.1-.14 1.93-.4.91-.27 2.28-.7 2.72-.43.04.04.09.07.1.22.03.18-.04.37-.1.59-.1.32-.23.7.02 1.06.25.35.75.4 1.16.4.84.04 1.75-.11 2.62-.24l.75-.11c.3-.04.68-.14 1.12-.25.96-.25 2.56-.68 2.86-.12.23.45.1 1.07-.44 1.9-.04.07-.19.19-.3.28-.3.25-.68.56-.7 1.02-.01.22.07.38.13.5l.03.07c.09.25.04.33-.02.4-.25.3-.53.59-.84.91l-.42.45c-.27.28-.47.5-.79.72l-.2.15v.01c-.34.04-.66.11-.95.19l-.55.13c-.24.04-.49.08-.73.1a.24.24 0 0 0-.05-.04c-.07-.04-.13-.06-.2-.04a.25.25 0 0 0-.18.12l-.01.01c-.79.09-1.6.19-2.43.5-.72.27-1.4.62-2.04.94a22 22 0 0 1-1.85.86c-.68.26-1.3.6-1.88.92-.43.23-.86.48-1.32.68-.77.34-1.19.18-2.01-.13l-.34-.12a8.64 8.64 0 0 1-1.2-.57c-.56-.3-1.14-.6-1.83-.74-.24-.45-.43-.94-.6-1.4l-.12-.3c-.16-.43-.4-.99-.78-1.49-.35-.46-.77-.8-1.19-1.13l-.55-.46c-.94-.85-1.55-1.73-1.52-2.2.03-.28.25-.99.37-1.35.06-.15.2-.31.34-.49.24-.27.51-.59.57-1.03.03-.51-.08-1-.18-1.4Zm21.26 8.56-.01-.07.1.13-.1-.06Zm-14.93 4.88.33.12c.9.34 1.6.61 2.74.11.5-.22.96-.48 1.43-.73.52-.28 1.1-.6 1.73-.86.67-.26 1.32-.59 1.96-.9.62-.32 1.27-.65 1.93-.9.74-.28 1.47-.36 2.24-.45l.15-.03c.47.15.86-.02 1.26-.17.12-.04.27-.04.44-.04.18 0 .4 0 .6-.07.16-.03.28-.1.38-.17h.55a5.7 5.7 0 0 0 1.67-.18 195.3 195.3 0 0 0-3.14 2.15c-1 .7-2.2 1.2-3.37 1.67-.55.23-1.17.48-1.75.76a11.32 11.32 0 0 1-4.15 1.14c-.85.05-1.88-.3-2.78-.6l-.75-.25c-.94-.3-1.9-.64-2.7-1.18.4.21.78.42 1.23.58Zm-13.84 20c.1-.5.2-1.02.34-1.54.34-1.16.52-2.4.5-3.35l-.01-1.02c-.02-.9-.05-1.82-.05-2.72v-.67c-.02-.43-.03-.88 0-1.27.04-.34.19-.64.35-.97a16.3 16.3 0 0 0 .74-1.92l.17-.48.14-.05c.62-.17 1.26-.35 1.88-.58.35-.13.64-.35.9-.56a3.9 3.9 0 0 1 .9-.54c.23-.1.48-.2.7-.35a6.6 6.6 0 0 0 1.13-1.02l.8-.92.21-.25.05.05c-.06.08-.14.2-.2.36-.1.32-.12.65-.14.98l-.03.3c-.18 1.77-.38 3.6-.7 5.4a12.5 12.5 0 0 1-1.68 4.66c-.2.31-.4.64-.58.96l-.4.7c-.4.63-.52 1.05-.72 1.7-.37 1.22-1.3 2.17-2.22 3.11l-.95 1c-.52.6-.84 1.23-1.17 1.89l-.38.73c-.19.33-.42.63-.65.9.08-1.05.4-1.98.51-2.27.28-.8.42-1.54.56-2.27Zm17.03-.4a7.29 7.29 0 0 1-.63-1.56c-.19-.57-.37-1.17-.7-1.72-.15-.26-.35-.46-.54-.68-.08-.08-.14-.17-.22-.24-.62-.75-1-1.73-1.36-2.68-.11-.27-.2-.56-.33-.82-.23-.54-.51-1.05-.78-1.57-.4-.71-.8-1.45-1-2.22l-.33-1.2a9.08 9.08 0 0 1-.53-2.7c0-.88-.18-1.5-.47-2.2a2.89 2.89 0 0 1-.2-1.07c0-.13-.03-.3-.06-.5.26-.3.44-.6.58-.86.3.16.65.41.88.58.21.17.4.32.58.4.44.25.92.37 1.4.48a4.25 4.25 0 0 1 3.01 2.14c.14.27.29.57.45.92.52 1.13.95 2.35 1.38 3.56.25.7.51 1.42.79 2.13a20.6 20.6 0 0 0 1.68 3.5c.43.68.94 1.3 1.42 1.89.78.96 1.51 1.85 1.93 2.97.93 2.57.96 5.7.98 8.47v1.37l-.07.03-.9.42c-.76.37-1.56.75-2.36.86-.19.02-.39.01-.6 0l-.42-.02h-.07c-.03-.33-.06-.7-.13-1.09a7.34 7.34 0 0 1-.1-.87c-.02-.3-.05-.6-.1-.94-.3-1.56-.82-3.83-2-5.37-.16-.21-.33-.4-.52-.6a4.41 4.41 0 0 1-.66-.8Zm-65.1 28.24a.4.4 0 0 1 .14-.29.72.72 0 0 1 .37-.07c.35 0 .81.13 1.1.21l-.06.05c-.41.25-1.28.45-1.52.3-.04-.05-.03-.14-.03-.2ZM58.2 273c-.32.52-.65 1.08-1.01 1.58-.63.9-1.57 1.35-2.93 1.42-.77.06-1.8-.5-2.07-1.13-.08-.18-.14-.46.18-.81l.06-.06c.62-.6 2.3-.77 3.55-.9a13.41 13.41 0 0 0 2.38-.36l-.12.2.21.18-.25-.12Z"/>
</svg>
