<svg xmlns="http://www.w3.org/2000/svg" xml:space="preserve" fill-rule="evenodd" stroke-linejoin="round" stroke-miterlimit="2" clip-rule="evenodd" viewBox="0 0 156 308">
  <path fill="#d1a680" fill-rule="nonzero" d="m155 62.58-.36-.37c-.44-.47-.89-.96-1.73-1.19-.69-.18-1.38-.38-2.06-.58a30.17 30.17 0 0 0-4.48-1.08c-.47-.07-.94-.19-1.36-.3-.6-.15-1.27-.33-1.98-.37-.27-.02-.54-.01-.83 0-.3.01-.6.02-.88-.02l-.69-.09c-.52-.07-1.1-.15-1.7-.17l-.9-.02-1.02-.03.67-.35c.65-.34 1.32-.7 2-.94 1-.35 1.84-.68 2.75-1.15l1.24-.63.12-.06c1-.51 2.04-1.03 3.05-1.61.23-.14.44-.29.64-.44.24-.18.46-.34.7-.45.33-.15.76-.29 1.14-.42l.41-.14.42-.13c.4-.11.61-.19 1.08-.67l.16-.16c.24-.24.51-.5.7-.88 0-.01.74-1.6.55-2.33-.06-.23-.16-.37-.23-.47-.05-.07-.05-.07-.05-.13 0-.08.03-.2.06-.32.07-.25.16-.56.06-.93-.19-.75-1.55-1.7-2.08-1.95a9.71 9.71 0 0 0-1.88-.55c-.3-.07-.6-.13-.9-.22-2.87-.8-5.82-.62-8.72-.44l-.1.01-1.13.06-.14.01c-1.57.07-3.19.14-4.73.57l-.68.19.08-.06c.3-.22.57-.43.85-.62a10.73 10.73 0 0 0 2.24-1.82c.2-.2.4-.4.6-.57.17-.16.41-.3.67-.45.21-.12.44-.26.66-.41 2.3-1.7 4.82-3.78 5.9-6.83.35-1.03.9-2.58.16-3.69-.28-.42-.57-.78-1.36-.81-.2 0-.4.05-.58.12l.03-.11c.15-.64.35-1.44-.77-2.15a4.7 4.7 0 0 0-2.89-.52c-1.5.11-3.09.57-4.43 1a20.38 20.38 0 0 0-4.6 2 41.8 41.8 0 0 1-2.88 1.62c-1.09.58-2.2 1.17-3.26 1.88-.52.35-1.1.67-1.62.96-1.08.61-2.2 1.23-3.1 2.19l-.06.06.6-.82.54-.77c.84-1.16 1.74-2.36 2.53-3.41a146 146 0 0 0 3.03-4.12c.64-.91 1.2-1.9 1.74-2.85l.06-.11c.2-.33.38-.67.57-1l.06-.1c.57-.97 1.16-1.98 1.47-3.13.56-2.09.52-3.75-.13-5.05a8.52 8.52 0 0 1-.14-.29 3.53 3.53 0 0 0-.9-1.38 1.84 1.84 0 0 0-.83-.29 2.05 2.05 0 0 1-.24-.05 4.63 4.63 0 0 0-2.7-.09c-.73.23-1.32.68-1.9 1.11-.3.23-.6.46-.93.65l-.83.48a34.81 34.81 0 0 0-3.5 2.21c-.75.56-1.43 1.2-2.1 1.83l-.65.6.1-.33c.06-.27.15-.55.25-.84.22-.67.44-1.36.48-2.06.01-.24-.04-.48-.09-.68a.93.93 0 0 1-.05-.3c0-.22.08-.47.16-.75l.07-.25.42-1.37c.36-1.1.73-2.26.85-3.42l.02-.22c.11-.98.27-2.47-.3-3.4-.3-.5-.99-.82-2-.96-.9-.12-2.39.4-3.12.95a37.05 37.05 0 0 0-3.14 2.73 16.9 16.9 0 0 0-3.5 4.98c-.16.32-.3.67-.43 1-.16.4-.32.81-.53 1.16.25-1.68.46-3.28.34-4.99l-.05-.8c-.13-2.36-.3-5.59-2.95-6.35-1.47-.42-3.59.06-5.39 4.76a33.4 33.4 0 0 1-3 5.74c-1.39 2.24-2.3 4.66-3.19 7.01l-.04.09c-.32.84-.64 1.7-.99 2.55l-.1-1.36a77.72 77.72 0 0 0-.54-5.8c-.18-1.63-.35-3.16-1.02-4.75l-.2-.42c-.13-.27-.25-.5-.28-.76-.03-.2-.02-.45 0-.7 0-.25 0-.5-.03-.78a42.3 42.3 0 0 0-.22-1.57c-.06-.42-.13-.84-.18-1.27-.16-1.28-.49-2.83-1.73-3.45a5.37 5.37 0 0 0-3.09-.5c-1.3.33-1.79 1.68-2.05 2.66-.1.42-.24.84-.38 1.27-.24.76-.48 1.54-.6 2.33a8.62 8.62 0 0 0-.08 1.6c0 .34.01.71-.02 1.05-.05.61-.2 1.23-.34 1.83-.1.42-.2.91-.29 1.38l-.14.85a39.3 39.3 0 0 0-.43 3.13c-.1 1.3-.2 2.59-.27 3.87l-.23-.82c-.26-.9-.52-1.83-.82-2.71a15.6 15.6 0 0 1-.63-2.83c-.1-.65-.2-1.32-.38-2.02l-.15-.6c-.35-1.39-.68-2.68-.5-4.13.06-.53.17-1.07.28-1.6.38-1.94.77-3.94-.59-5.78A2.39 2.39 0 0 0 70.6.42a4.3 4.3 0 0 0-3.15 1.42c-.94 1-1.19 2.44-1.3 3.44l-.14 1.43c-.14 1.43-.26 2.78-.6 4.15-.29 1.17-.65 2.35-.99 3.48-.33 1.1-.67 2.21-.96 3.34-.48 1.9-.67 3.92-.86 5.87l-.02.19-.1 1.07c-.09.8-.14 1.6-.16 2.44l-.15-.24a1.2 1.2 0 0 1-.13-.21c-.09-.18-.14-.38-.2-.59a6.06 6.06 0 0 0-.18-.56 18.2 18.2 0 0 0-1.98-3.74c-.68-.97-1.45-1.93-2.13-2.78a39.83 39.83 0 0 1-2.8-3.8c-.3-.5-.6-1.03-.88-1.55-.4-.73-.8-1.48-1.29-2.18-.64-.93-1.4-1.79-2.16-2.64l-.66-.74c-.96-1.1-2.58-2.96-4.34-3.28-.34-.06-.85-.16-1.32.11a1.3 1.3 0 0 0-.59.8l-.03.08-.2-.12c-.25-.16-.56-.36-.93-.39a1.4 1.4 0 0 0-1.08.36c-.63.57-.69 1.62-.69 1.92 0 1.1.07 2.35.23 3.45.1.65.26 1.3.42 1.91a13 13 0 0 1 .43 2.06c.11.96.38 1.8.67 2.72.13.41.27.83.38 1.26.2.7.3 1.43.42 2.13.12.73.24 1.49.44 2.24.1.38.16.77.23 1.16.11.67.22 1.37.54 2.07.27.59.56 1.18.86 1.77.28.55.56 1.12.82 1.69a80.76 80.76 0 0 0 2.05 4.21l-.54-.37c-.7-.48-1.45-.92-2.1-1.3a26.1 26.1 0 0 1-2.87-1.87 18.64 18.64 0 0 0-3.8-2.14 59.78 59.78 0 0 1-3.66-1.88l-.66-.36a32.78 32.78 0 0 0-4.26-2.05 33.77 33.77 0 0 0-3.5-1.03l-1.62-.43c-1.68-.48-3.29-.8-4.92-1.12-.39-.08-.79-.2-1.2-.34-.42-.13-.85-.26-1.3-.35-.48-.09-2.1-.31-2.79.6-.76 1.01-.06 2.28.35 3.04.17.32.28.73.4 1.18.15.65.32 1.32.76 1.82.12.14.27.24.4.33.1.07.18.13.24.2l.31.41c.13.18.27.38.44.56l.21.23c.44.49.85.95 1.44 1.37 1.16.83 2.3 2.05 3.24 3.43.41.6.76 1.12 1.47 1.57l.62.36.64.38c.57.39 1.11.85 1.65 1.32.4.34.8.69 1.23 1.01.7.53 1.48.96 2.23 1.37l.8.45.56.33c.71.42 1.45.85 2.22 1.2 1 .45 2.06.86 3 1.22a32.52 32.52 0 0 1 5.88 2.73c-1.35-.36-2.7-.75-3.93-1.11l-1.24-.35c-.8-.23-1.62-.46-2.44-.71-.63-.19-1.28-.4-1.95-.5l-.52-.08c-.69-.1-1.35-.2-2.07-.4l-1.58-.44-.94-.26-.9-.26c-.46-.14-.88-.27-1.33-.35-.79-.13-1.57-.1-2.32-.06h-.09l-.63.03-.67.01c-.88.01-1.72.02-2.69.29l-.4.12c-.48.14-.86.25-1.33.23l-.49-.05c-.32-.03-.65-.07-1-.05-.78.04-1.48.22-2.2.41-.4.1-.82.21-1.23.28-.42.07-.88.09-1.33.1-.56.02-1.13.04-1.69.16-.53.12-.99.38-1.46.64-.32.18-.65.37-.97.48l-.39.13c-.32.11-.66.22-.99.36-1.13.49-1.82 1.19-2.1 2.15-.55 1.79 1.63 3.89 2.71 4.58.6.38 1.24.54 1.87.7l.37.09c1.01.26 1.96.62 2.83 1.08.44.23.87.52 1.31.81.48.32.98.66 1.52.92.65.32 1.33.5 2 .66l.37.09.72.2.2.05c1.11.32 2.22.61 3.36.73l1.02.09c.78.07 1.6.13 2.36.28.94.18 1.86.24 2.78.31l1.12.09c.86.08 1.67.31 2.52.56l.12.03a53.1 53.1 0 0 0-4.93-.27c-1-.01-2.19-.04-3.4-.17a7.22 7.22 0 0 0-1.04-.02c-.44.02-.85.03-1.26-.09-.5-.14-1.02-.11-1.49-.09-.3.02-.6.03-.88 0l-.43-.07-.37-.06c-.38-.06-.69-.09-.98-.11-.34-.02-.69-.01-1.03-.01h-.65a19.8 19.8 0 0 0-5.46.56c-.67.17-1.28.42-1.88.66l-.76.3-.44.14c-.29.09-.59.18-.9.35l-.17.09c-.26.14-.45.25-.7.32a8.7 8.7 0 0 0-2.5 1.26l-.4.26c-.4.26-.93.59-1.05 1.13-.06.27 0 .55.16.81.28.44.73 1.07 1.2 1.53.65.68 1.81.99 2.62 1.16l.92.18a19 19 0 0 1 3.63.96c.32.13.64.29.95.45a14.42 14.42 0 0 0 3.71 1.35c.62.17 1.22.38 1.8.59l.06.02c.6.21 1.21.44 1.84.61.34.09.65.17.96.22.48.09.96.11 1.41.14a9.1 9.1 0 0 1 1.57.18c.82.2 1.5.23 2.31.11l.54-.09a6.73 6.73 0 0 1 1.53-.15c.83.05 1.48.02 2.35-.26.78-.26 1.4-.32 2.28-.23.42.04.83.12 1.33.24-.9.24-1.68.5-2.5.91-.34.16-.7.29-1.06.41-.53.18-1.08.36-1.6.69-.15.09-.29.2-.43.31-.17.13-.33.25-.5.33-.13.07-.28.1-.46.15-.19.05-.43.11-.66.23l-.17.09c-.65.33-1.38.7-2.05.92l-.43.15c-.45.15-.9.31-1.37.4-.8.15-1.47.16-2.36.13-.46-.01-.87.05-1.26.11l-.36.05c-.5.07-1 .04-1.55.02l-.44-.02c-1.55-.06-2.92.03-4.19.27-1.19.23-2.42.34-3.62.45l-.12.01-1.6.16-.22.02c-.57.06-.9.09-1.42.72-.04.06-.1.12-.2.22-.4.38-1.04 1-.74 1.71.18.43.7.67 1.2.92.17.08.38.19.46.25.25.2.5.44.74.67l.06.06c.13.12.26.25.4.36a9.39 9.39 0 0 0 3.92 2.33l.56.16c1.3.36 2.63.68 3.91.99l.25.06c1.3.31 2.63.63 3.92 1l1.33.4c1.12.35 2.28.72 3.43.86 1.13.14 2.27.1 3.37.01a5.38 5.38 0 0 0-2.17 1.83 6.6 6.6 0 0 0-.2.38c-.07.14-.14.28-.22.4a9.31 9.31 0 0 1-2.6 2.34l-.09.06-.53.38c-.65.47-1.38.93-2.03 1.34l-.86.55a10.02 10.02 0 0 0-3.02 2.61c-.26.38-.42.78-.59 1.18l-.18.44-.19.4c-.17.35-.34.71-.47 1.13-.07.23-.17.45-.27.7-.14.33-.28.66-.37 1.02-.1.4-.05.75 0 1.07l.03.42c0 .24-.13.62-.25.99-.25.73-.53 1.56-.17 2.23.22.42.65.5.97.55l.16.03c.23.06.48.17.77.29a5.61 5.61 0 0 0 1.06.37c1.58.32 3.61-.52 4.8-1.5.36-.3.65-.64.95-.98.22-.25.43-.5.66-.71l.15-.13c.38-.35.74-.67 1.08-1.19.5-.79 1.32-1.49 2.12-2.17.34-.29.73-.62 1.07-.94 1.48-1.42 3.57-1.99 5.6-2.55 1.1-.3 2.22-.61 3.27-1.06.45-.19.85-.45 1.21-.68.32-.2.62-.4.94-.55l.41-.19.07-.03c.67-.3 1.3-.58 1.9-1.16.16-.15.33-.32.53-.54.4-.4.8-.82 1.21-1.09.26-.17.55-.31.86-.45l.44-.21-.09.1c-.8.94-1.65 1.92-2.24 2.99-.46.85-.75 1.77-1.02 2.68-.26.84-.53 1.72-.94 2.48l-.17.31a32.11 32.11 0 0 0-1.79 3.68c-.2.54-.37 1.1-.52 1.66-.17.61-.35 1.24-.6 1.82-.26.61-.62 1.17-1 1.77l-.4.6c-.23.37-.44.76-.66 1.15-.32.58-.65 1.18-1.04 1.7-.17.22-.36.44-.59.7-.89 1.01-1.99 2.27-1.4 3.82.04.11.1.23.15.39.4 1.07.92 2.53 2.17 2.87.21.06.44.08.67.07 1.14-.05 1.91-1.1 2.6-2.03.2-.29.42-.58.62-.8.81-.85 1.47-1.8 2.12-2.73.5-.71 1.01-1.44 1.58-2.11.9-1.05 1.96-1.99 3-2.91.86-.76 1.75-1.54 2.55-2.4l.2-.21a13.85 13.85 0 0 0-1.63 3.32c-.27.88-.58 1.89-.74 2.89-.1.69-.14 1.38-.16 2.08-.02.44-.03.89-.08 1.33a33.28 33.28 0 0 0-.22 4.38c.01.25-.02.53-.04.83-.05.57-.1 1.15.04 1.68.11.41.37.74.6 1.03l.21.31c.2.28.34.6.5.92.16.33.34.71.57 1.04.23.33.32.43.67.55l.22.08c.13.05.33.12.58.19.51.14 1.78.43 2.5.05.54-.29.95-1 1.31-1.62.13-.23.28-.49.4-.64.13-.17.28-.33.46-.51.3-.3.6-.62.8-1.02l.18-.36c.45-.92.96-1.95 1.63-2.72.38-.43.92-1.1 1.33-1.8.2-.31.3-.65.4-.98.07-.26.14-.51.25-.7l.17-.28.03-.06c.23-.39.5-.82.66-1.25.1-.22.14-.44.2-.66.06-.23.11-.44.21-.64.3-.58.51-1.04.7-1.76.16-.6.31-1.05.46-1.44l-.07.25-.13.45c-.27.91-.54 1.85-.64 2.83-.08.83 0 1.64.06 2.44.04.47.08.95.1 1.42 0 .62-.07 1.29-.14 1.93-.12 1.19-.25 2.42.08 3.62.06.2.1.42.14.65.16.86.36 1.93 1.47 2.29l.4.14c.9.32 2.11.77 2.94.34.32-.16.6-.43.88-.7.14-.14.28-.27.41-.37a5.33 5.33 0 0 0 1.4-1.72 37.6 37.6 0 0 0 3.61-8.55l.57-2c.35-1.22.71-2.48 1.03-3.74.14-.56.24-1.12.34-1.7.1-.53.18-1.07.32-1.6.13-.51.21-1.04.28-1.56.07-.46.13-.93.24-1.38.16-.67.36-1.35.54-1.95.27-.9.54-1.82.72-2.78l.12-.65c.21-1.12.43-2.29.76-3.4.16-.53.36-1.01.58-1.46 0 1.07.05 2.23.16 3.56.11 1.35.02 2.52-.08 3.89l-.02.25c-.05.74 0 1.44.05 2.11l.06.82c.02.49.02.99.02 1.47 0 .66 0 1.35.06 2.04.07.71.15 1.43.24 2.14l.21 1.8.08.82c.1.96.2 1.95.27 2.92.03.34.02.71.01 1.09-.02.76-.03 1.54.21 2.29.18.53.28 1.03.4 1.61.04.27.1.54.16.82.13.56.36 1.05.6 1.53.13.29.3.63.4.96.25.72.46 1.19 1.26 1.74.3.2.5.43.75.7.15.17.31.34.5.51.2.18.73.62 1.28.77l.14.03c.56.1 1.06-.06 1.52-.5.06.21.12.42.2.64l.15.54c.16.55.25 1.11.34 1.7.06.4.13.82.22 1.23.26 1.19.41 2.41.57 3.6.12.93.24 1.88.41 2.84.14.75.32 1.49.5 2.25.2.81.41 1.65.54 2.48.13.79.2 1.59.28 2.37.07.71.14 1.44.25 2.16.21 1.43.64 2.84 1.05 4.2l.04.13.33 1.12c.34 1.18.62 2.39.88 3.55l.31 1.32c.08.35.17.59.35.94.34.68.62 1.38.92 2.16a193.13 193.13 0 0 1 5.26 15.18c.46 1.53 1.01 3.04 1.54 4.52.41 1.13.83 2.3 1.2 3.43.7 5.24 1.34 9.03 2.1 12.53a6.26 6.26 0 0 0-1-.43c-.37-.11-.7-.3-1.05-.51a5.67 5.67 0 0 0-1.4-.65l-1.02-.24c-.79-.18-1.6-.37-2.32-.64h.02l.22-.01c.13 0 .24-.11.24-.24l.01-.22c.01-.5-.47-.8-.74-.94a5.1 5.1 0 0 0-.48-1.21l-.23-.48a5.32 5.32 0 0 0-.94-1.44 6.9 6.9 0 0 1-.94-1.47 36.5 36.5 0 0 0-2.34-3.84c-.42-.63-.84-1.31-1.35-2.21l-.08-.14a1 1 0 0 1-.18-.41l-.07-1.79c0-.12-.1-.23-.23-.24-.13-.02-.24.07-.27.19l-.4 1.75-.13.51a4 4 0 0 0-.1 2.39c.38 1.19 1.06 2.4 2.06 3.69.26.34.5.71.73 1.08-.3-.3-.6-.62-.9-.96l-.23-.26a9.61 9.61 0 0 0-3.82-2.39c-.8-.31-1.67-.49-2.55-.67-.4-.08-.79-.16-1.18-.26-.8-.21-1.64-.37-2.47-.53l-.9-.18a36.38 36.38 0 0 0-3.65-.6c-.5-.05-.84-.04-1.34.06l-1.25.23a.25.25 0 0 0-.2.25c0 .12.08.22.2.25l1.24.24c.23.04.4.1.55.21.54.35 1 .57 1.55.75 1.27.42 2.24.83 3.14 1.35l.36.22c.27.16.54.33.84.47.76.36 1.62.64 2.42.8l.28.05c.13.02.25.03.36.07.41.14.84.41 1.28.7l.54.34c.21.12.4.17.55.21l.18.05c.1.03.15.07.25.14l.26.17c.24.14.47.25.7.37a7 7 0 0 1 1.56.98l.07.05.24.18-.44-.03-.39-.02-.6-.07-.74-.08-.15-.02c-1.05-.18-1.8-.26-2 .33a.75.75 0 0 0 .04.57c.2.38.7.55 1.15.68l.1.03.62.17.08.02.4.11.2.06c.3.1.65.21 1.03.18.34-.03.62-.16.9-.3l.25-.12c.32-.13.63-.16 1.06-.08l.2.08c.67.32 1.37.61 2.08.89.75.3 1.53.61 2.27.98.94.46 2.06.72 3.14.97l1 .24c.4.1.74.3 1.15.54.36.21.77.45 1.25.6.43.13.8.33 1.2.55l.37.2c.12.54.25 1.07.4 1.61l.38 1.57c.92 3.64 1.86 7.4 2.7 11.12.2.88.38 1.78.55 2.65.3 1.52.61 3.09 1.05 4.63l.92 3.11c.28.91.56 1.82.82 2.74l.54 1.86.05.18c.84 2.86 1.71 5.82 2.1 8.79.2 1.63.55 3.24.88 4.79.23 1.09.48 2.21.67 3.33.58 3.41.86 6.91 1.14 10.33.17 2.1.34 4.27.6 6.4.21 1.92.46 3.87.7 5.75l.01.1.18 1.39c-.2-.42-.43-.85-.68-1.27a42.3 42.3 0 0 0-4.29-5.67 1.12 1.12 0 0 0-.2-.18l-.04-.07.01-.02a.26.26 0 0 1 .17-.08l.68.05c.12.02.2-.05.25-.15a.24.24 0 0 0-.06-.28l-.5-.45a2.88 2.88 0 0 0-1.5-.74c-.49-.8-1.03-1.58-1.56-2.35l-.05-.08-1.09-1.61c-.43-.66-.7-1.35-.98-2.08-.18-.47-.37-.96-.6-1.45-.29-.58-.62-1.12-.94-1.65-.39-.64-.75-1.25-1.04-1.92-.06-.48-.16-.96-.26-1.47-.17-.85-.35-1.72-.3-2.52.04-.88.37-1.85.68-2.79.14-.41.27-.81.38-1.19.6-2.06.8-3.64.1-5.56-.17-.43-.4-.95-.9-1.06-.5-.1-.88.23-1.14.49-1.36 1.38-1.6 4.93-1.63 5.62-.14 2.74.83 5.31 1.76 7.8l.22.6.13.34.08.74.03.26c-.46-.9-.96-1.81-1.58-2.64a6.52 6.52 0 0 0-2.76-2.31 2.83 2.83 0 0 1-.37-.33c-.17-.17-.34-.34-.56-.48-.25-.16-.5-.25-.74-.33a3 3 0 0 1-.52-.22c-.34-.2-.6-.5-.89-.81a15.9 15.9 0 0 0-2.66-2.33l.2.04.16.04c.34.08.7.16 1 .26a2.53 2.53 0 0 1 .67.28c.16.09.31.21.47.33.34.25.7.51 1.15.64h.01l.26.07c.07.02.14.01.2-.03s.1-.1.11-.17l.04-.26c.1-.67-.28-1.54-.62-2.31-.13-.3-.27-.61-.35-.85-.18-.56-.42-1.07-.65-1.56l.07-.39a9.87 9.87 0 0 0-.16-3.1c-.06-.38-.1-.78-.15-1.21-.06-.56-.12-1.15-.24-1.72-.2-.97-.55-1.91-.87-2.81-.22-.63-.45-1.28-.63-1.88v-.23a27.79 27.79 0 0 0-1.07-6.15c-.09-.61-.12-1.19-.1-1.83a6.5 6.5 0 0 1 1.06-3.5c.28-.46.57-.94.75-1.51l.08-.24c.42-1.16.58-1.78.35-2.15a.9.9 0 0 0-.77-.45c-.77.01-1.65.92-3.04 3.14l-.32-.34c-.25-.27-.53-.57-.83-.86-.04-.78-.2-1.71-.47-2.51-.15-.46-.03-.92.1-1.45.17-.65.36-1.38-.03-2.15a3.82 3.82 0 0 1-.52-1.87c-.05-.79-.29-1.16-.77-1.74a10.67 10.67 0 0 1-1.78-3.78c-.17-.53-.34-1.09-.56-1.65l-.43-1.13a.25.25 0 0 0-.28-.16.26.26 0 0 0-.2.24l-.03 1.21a8.83 8.83 0 0 0 .42 3.48c.23.55.3 1.17.37 1.83.06.5.11 1.02.25 1.53.18.67.43 1.34.82 2.1.37.73.6 1.59.8 2.43.15.56.31 1.2.53 1.79l.11.3a7.34 7.34 0 0 0-1-.85c-.57-.39-1.24-.6-1.9-.82-.28-.09-.55-.17-.8-.27a4.46 4.46 0 0 1-.46-.22c-.57-.29-1.22-.61-1.87-.45l-.19.05a.25.25 0 0 0-.19.25l.01.19c.02.53.54.75.9.9l.22.11c.76.44 1.41.88 2.01 1.32.33.24.65.53 1 .85.94.87 1.93 1.78 3.32 1.82l.85 2.18.1.21a44.78 44.78 0 0 1 1.52 4.15l.13.74c.18.88.3 1.78.4 2.65l.21 1.57c.07.45.17.92.31 1.38.04.68.14 1.35.23 2 .1.64.18 1.3.22 1.95.04.67.2 1.27.36 1.84.1.34.2.71.26 1.1.06.36.1.75.11 1.18.04.69.08 1.4.32 2.05.13.36.3.71.44 1.01v.06c-.1.47-.2.95-.2 1.51-.02.35.01.69.04 1.03l.01.09a9.14 9.14 0 0 1-1.59-1.58l-.5-.57a7.79 7.79 0 0 0-2.5-1.64 8.18 8.18 0 0 1-2.1-1.29 6.7 6.7 0 0 0-1.26-.88 6.37 6.37 0 0 0-2.05-.47 12.3 12.3 0 0 1-1.06-.16 11 11 0 0 1-2.72-1.15c-.44-.24-.9-.48-1.39-.7a63.25 63.25 0 0 1-3.6-1.77c-.12-.47-.67-.83-1.1-1.11l-.2-.13a6.84 6.84 0 0 1-.78-.75l-.04-.04v-.01l.01-.2c.02-.59-.64-.85-1.99-1.16l-.13-.07-.25-.38c0-.35-.17-.66-.3-.92a5.88 5.88 0 0 1-.46-1.43l-.05-.22c-.1-.49-.26-.96-.4-1.4-.1-.29-.2-.58-.28-.88-.1-.39-.14-.8-.18-1.23-.05-.51-.1-1.04-.27-1.57a21.42 21.42 0 0 0-1.74-3.78c-.28-.63-.76-1.67-1.59-1.49l-.1.02a.25.25 0 0 0-.16.12l-.05.09c-.2.36-.06.84.07 1.32.04.14.1.31.1.38.04.62.1 1.33.21 2l.08.48c.2 1.11.38 2.26.82 3.33a21.93 21.93 0 0 0 2.53 4.28l.52.75-.32-.16c-.33-.13-.9-.33-1.46-.45l-.5-.28c-.55-.26-1.14-.4-1.77-.55l-.5-.12c-.36-.1-.74-.23-1.14-.41l-.98-.75a42.62 42.62 0 0 0-2.8-2c0-.25-.15-.43-.22-.52-.28-.58-.75-1.09-1.2-1.6-.24-.26-.46-.5-.65-.74l-1.1-1.49c-.06-.24-.16-.46-.25-.69l-.05-.13c-.15-.42-.25-.87-.36-1.33-.09-.37-.18-.76-.3-1.14a47.85 47.85 0 0 0-3.79-8.36c-.24-.43-.46-.87-.7-1.32l-.04-.07c-.97-1.88-1.97-3.83-3.6-5.17l-.17-.14c-.1-.09-.26-.07-.35.03l-.15.17c-.46.51-.33 1.26-.23 1.84l.05.32.05.59c.04.44.07.89.15 1.34.41 2.5 1.83 4.15 3.36 5.93l.67.79a21.7 21.7 0 0 1 2.31 3.66l.91 1.64c.46.78.98 1.58 1.53 2.38a1.68 1.68 0 0 1-.33-.09 1.15 1.15 0 0 0-.2-.06l-.78-.19c-.42-.1-.84-.21-1.25-.33l-.49-.39c-.64-.52-1.3-1.06-2.04-1.49a10.2 10.2 0 0 0-1.66-.73 8.47 8.47 0 0 1-1.55-.7c-.65-.4-1.25-.94-1.82-1.45l-.08-.07-.36-.32-.33-.29-.19-.27c-.12-.19-.26-.37-.4-.55-.17-.21-.32-.4-.42-.62a6.47 6.47 0 0 1-.3-.88 9.36 9.36 0 0 0-.24-.75l-.03-.09c-.54-1.5-1.03-2.25-1.58-2.44a.89.89 0 0 0-.76.09c-.63.4-.25 1.31-.07 1.75l.23-.1-.2.16.08.25-.15-.12-.09-.07-.75-.61c-.58-.48-1.23-.86-1.9-1.25-.3-.18-.6-.35-.89-.54l-.1-.07c-.86-.55-1.82-1.17-3-1.21-.3-.01-.7-.03-.99.25-.17.17-.25.4-.24.75 0 .04.04.14.06.17.2.33.47.58.76.71.58.47 1.18.92 1.81 1.34l-.23.21a.23.23 0 0 0-.08.17c0 .07.02.13.07.18.65.71 1.06 1.06 2.06 1.25.3.05.57.05.84.04.18 0 .35-.01.51.01l.2.03.03.01c.43.22.85.45 1.26.68-.45.03-1.44.18-1.88.93a.92.92 0 0 0-.08.86c.26.57 1.07.72 1.75.85l.3.06c.66.17 1.35.24 2.02.31.72.08 1.46.15 2.13.36.48.15.91.41 1.3.68.21.26.48.59.73.94.08.11.24.14.35.06l.17-.12c.23.15.44.26.65.36.61.29 1.22.65 1.77.96a17 17 0 0 0 2.93 1.45l.38.12.1.03c.18.15.36.29.56.43l1.2.85.1.06.52.37-1.5-.42-2.95-.82a7.58 7.58 0 0 0-3.36-.35l-.2.04a.26.26 0 0 0-.2.25v.2c0 .71.84.75 1.46.78l.4.03c.62.16 1.23.33 1.85.51-.33.02-.68.06-1 .12-.25.04-.52.06-.8.07a5.87 5.87 0 0 0-2.49.64c-.35.17-.52.34-.73.56l-.32.31a.27.27 0 0 0-.08.19c0 .07.04.14.1.18l.2.17c.31.26.75.26 1.07.26l.24.01c.35.04.71.11 1.06.17.35.07.7.13 1.05.17.5.06 1 .19 1.45.29.6.14 1.22.29 1.9.35l.24.02c.95.09 2.53.23 3.36-.54.21-.2.36-.44.44-.73l.45.2.08.04c.4.18.78.35 1.2.52l.11.05c1.07.44 2.18.9 3.18 1.46l.37.21c.5.27.97.54 1.43.75.76.53 1.44.86 2.2 1.05l-.06.11c0 .03-.04.08-.04.09-.02.03-.02.03-.09.04a2.78 2.78 0 0 0-.81.44l-.07.05a2.44 2.44 0 0 0-.54 0c-.39.05-.77.16-1.12.27l-.4-.01c-.62-.01-1.2-.07-1.86-.18a2.2 2.2 0 0 0-1.1.01l-.88.25a.25.25 0 0 0-.18.25c0 .11.08.21.2.24l.87.21c.2.04.38.11.6.18.44.14.94.31 1.43.31h.01c.5 0 .96-.12 1.44-.26.45.01.93.01 1.4-.11.1-.03.21-.07.31-.12.15.03.3.08.46.13.25.08.52.15.8.19.34.05.7.08 1.06.12.4.04.8.07 1.2.14.51.09 1.02.23 1.51.36.6.16 1.23.33 1.9.42a4.6 4.6 0 0 0 2.92 1.66 66.6 66.6 0 0 0 3.98 1.96c.45.2.88.43 1.35.67l.5.26a8.35 8.35 0 0 0-2.99 1.33l-.06.04a8.25 8.25 0 0 1-3.48 1.41c-.76.17-1.5.44-2.22.7-.45.16-.96.35-1.44.49l-.78.21c-.78.21-1.53.4-2.29.84-1.06.61-2.04 1.31-2.99 1.98l-1.09.76c-1.97 1.35-3.6 1.91-5.29 1.8-.37-.02-.73-.06-1.1-.1l-.09-.01c-.49-.05-.99-.1-1.49-.12-.7-.03-1.33.14-1.98.32l-.58.15a3.7 3.7 0 0 0-2.03 1.16l-.14.12c-.23.19-.59.49-.6 1 0 .42.17.64.33.74.38.27.85.08 1.27-.08.1-.03.17-.07.24-.08.45-.1.61-.07.98-.01l.3.05c.48.08.86.04 1.24.01l.6-.04c.22 0 .45.02.7.06.31.04.64.08 1 .05.32-.02.6-.11.84-.19.13-.04.27-.09.41-.12.23-.04.46-.05.7-.07.25-.01.5-.02.78-.07.5-.09.93-.3 1.3-.49.32-.16.61-.3.93-.38.18-.04.44-.01.68-.03.45-.05.73-.15 1.04-.27l.26-.1c.58-.2 1.2-.31 1.8-.41a8.36 8.36 0 0 0 2.83-.85c.5-.29.92-.66 1.34-1.03.16-.14.32-.29.5-.43.36-.31.58-.39.94-.52l.43-.17c.72-.3 1.28-.78 1.83-1.26.41-.36.8-.7 1.25-.94.57-.31 1.02-.21 1.64-.07.24.05.5.11.78.15 1.24.16 2.48-.02 3.68-.19l.7-.1c.65-.09 1.22.09 1.88.28l.16.05c.67.2 1.23.18 1.76.16.26-.01.52-.02.81-.01.64.03 1.38.27 2.1.51l.9.29c.48.13.95.24 1.45.33l.48.3a17.54 17.54 0 0 1 3.94 3.15c.32.35.65.71 1.11.99.23.14.48.23.7.3.2.07.38.14.53.24.13.08.26.21.4.36.15.15.3.3.5.43.2.14.4.24.61.36l.4.22a5.6 5.6 0 0 1 1.52 1.51c.71.95 1.26 2.05 1.8 3.12a34.58 34.58 0 0 0 1.32 2.39l.07.11c.06.23.08.42.05.56l-.05.21c-.03.12.04.25.16.29l.2.07c.12.04.25.15.35.31l.81 1.19c.07.1.2.14.31.09a.26.26 0 0 0 .14-.29l-.39-1.39a5.75 5.75 0 0 0-.69-1.43 8.75 8.75 0 0 0-.24-.66 5.2 5.2 0 0 1-.34-1.2 16.64 16.64 0 0 1 1.38 2.82c.3.74.58 1.5 1.07 2.25.36.56.74 1.11 1.12 1.66l.21-.14-.15.23c.4.56.78 1.14 1.16 1.72h-.07l-.2.01c-.56.01-1.1-.05-1.7-.13-.52-.07-1.07-.13-1.62-.13-.2 0-.45-.02-.7-.04a5 5 0 0 0-2.02.12l-.73.26a.27.27 0 0 0-.17.25c0 .11.08.2.2.23l.75.19c1.04.26 2.25.65 3.33 1.53.2.15.35.33.53.51.23.24.47.49.77.71.5.36.96.5 1.4.63.23.07.48.15.72.26.37.17.37.17.46.45l.16.47a9.98 9.98 0 0 0 1.58 2.72c.38.5.76 1.02 1.13 1.54.6.82 1.2 1.67 1.85 2.44l.11.12.01.08c.13.47.47.74.93.74h.21c.1 0 .17-.05.21-.12.24.39.5.71.77.9.1.86.2 1.73.28 2.6.3 2.83.6 5.76 1.13 8.59.43 2.26.7 4.34.8 6.37l.02.29c.1 1.76.2 3.43.57 5.17.11.51.25 1.02.38 1.53.3 1.12.57 2.18.63 3.32.03.58-.02 1.2-.07 1.81-.06.84-.13 1.71 0 2.56.2 1.24.51 1.93.97 2.06l.14.02h.01c.67 0 .87-.65.97-1l.08-.23c.06-.1.11-.18.17-.25.13-.18.26-.36.35-.69.11-.38.12-.78.14-1.14.01-.3.02-.58.08-.83.48-2.06 1.07-4.61.7-7-.07-.44-.16-.85-.24-1.25-.14-.65-.27-1.26-.3-1.94l-.2-2.03c-.07-.57-.14-1.14-.18-1.71-.05-.68-.16-1.36-.26-1.96a10.69 10.69 0 0 1-.23-2.96c.02-.56.03-1.14-.05-1.74-.08-.61-.25-1.21-.39-1.74-.14-.49-.28-1-.35-1.51a89 89 0 0 1-.45-3.65c-.06-.56-.05-1.13-.04-1.7.01-.56.01-1.13-.04-1.71a23.8 23.8 0 0 0-.34-2.17 32.8 32.8 0 0 1-.3-1.9c-.17-1.37-.3-2.77-.43-4.13-.27-2.85-.55-5.8-1.06-8.69l-.6-3.15-.02-.08c-.23-1.16-.47-2.36-.67-3.54a69.84 69.84 0 0 1-.46-3.46c-.13-1.09-.26-2.21-.44-3.33a89.87 89.87 0 0 0-4.24-16.78 57.19 57.19 0 0 1-2.6-8.92 51.66 51.66 0 0 0-1.94-8.2 53.3 53.3 0 0 1-1.42-4.89c-.15-.62-.34-1.28-.6-2.12.34-1.21.7-2.23 1.28-3.27a34.12 34.12 0 0 0 1.75-3.8c.28-.69.58-1.4.9-2.09.12-.29.26-.57.42-.91.2-.42.41-.85.6-1.28l.11-.29c.21.1.4.1.52.07.42-.09.61-.49.77-.81.04-.08.12-.25.16-.29l.18-.18c.3-.3.71-.72 1.01-.88.1-.05.22-.09.36-.13.17-.05.37-.11.58-.23.24-.14.42-.34.6-.53.07-.09.15-.18.23-.25.21-.17.43-.21.72-.26.28-.05.6-.1.92-.3.26-.16.41-.38.53-.57.06-.1.13-.2.2-.26l.25-.19c.2-.13.41-.28.62-.59l.1-.15c.36-.52.84-1.23.78-1.97l-.04-.46a.27.27 0 0 0-.15-.21.27.27 0 0 0-.26.04l-.35.3c-.3.27-.72.43-1.15.59-.52.2-1.07.42-1.53.85-.32.3-.6.62-.9.95-.23.26-.48.53-.73.78-.18.17-.38.31-.59.45l.05-.17c.12-.3.36-.68.55-1l.3-.48c.24-.45.54-.9.84-1.35.54-.82 1.11-1.67 1.44-2.61.18-.5.3-1.01.43-1.55.1-.36.18-.73.3-1.09.11-.38.31-.73.53-1.12.24-.42.5-.85.64-1.37l.27-.96.25-.91.12-.38c.13-.38.26-.77.25-1.19a6.22 6.22 0 0 0-.13-.99c-.12-.66-.22-1.24.03-1.74l.26-.54a.26.26 0 0 0-.04-.28c-.07-.07-.18-.1-.27-.06l-.56.22c-.5.2-.78.84-1 1.39l-.1.23-.47.83a16.5 16.5 0 0 0-.94 1.83l-.46 1.37-.55.98-.28-1.32c-.03-.12-.05-.31-.08-.56-.19-1.58-.45-3.01-1.42-3.13l-.13-.02c-.09 0-.17.02-.23.09l-.08.1a.86.86 0 0 0-.17.76l.01.08-.1.74c-.18 1.31-.39 2.81-.12 4.14.07.34.17.66.28.98a6.04 6.04 0 0 1 .4 2.46l.03.78c.05.67.04 1.38-.03 2.08l-.17.61-.22.76c-.03.11.01.21.1.27-.35.93-.67 1.81-.95 2.81-.05-.37-.18-.7-.3-1.02l-.13-.36-.15-.5c-.28-.97-.66-2.31-2-2.38l-.17-.01c-.1 0-.2.06-.25.16l-.06.16c-.15.38-.08.76-.03 1.06l.04.29.01.2a14.91 14.91 0 0 0 .96 4.65l.04.14.01.04c-.08.18-.14.37-.2.55-.05.16-.1.32-.17.47-.17.41-.37.82-.57 1.21l-.04.07-.42.88c-.3.69-.59 1.37-.9 2.13-.52 1.23-1.04 2.51-1.7 3.69-.37.66-.67 1.35-.97 2.18a86.9 86.9 0 0 0-.94-2.54 55.43 55.43 0 0 1-1.95-5.79c-.22-.86-.42-1.76-.6-2.63-.3-1.33-.6-2.71-1.02-4.05l-.16-.49-.15-1.11a34.87 34.87 0 0 0-1.18-5.04c-.22-.77-.45-1.57-.65-2.36a40.05 40.05 0 0 1-.62-3.26c-.13-.77-.26-1.57-.42-2.34a45.22 45.22 0 0 1-.68-3.95 23.3 23.3 0 0 0-1.49-6.25c-.37-.88-.52-1.76-.69-2.69-.12-.67-.25-1.37-.45-2.06-.23-.78-.62-1.71-1.2-2.85-.22-.44-.48-.83-.7-1.18a7.06 7.06 0 0 1-.88-1.65c-.15-.46-.36-.87-.56-1.27-.16-.32-.33-.64-.45-.98a6.2 6.2 0 0 1-.27-1.89 9.4 9.4 0 0 0-.16-1.58c-.1-.5-.23-1-.37-1.53-.23-.89-.45-1.73-.56-2.65-.16-1.35-.6-2.55-1.06-3.77-.19-.5-.3-1.01-.42-1.57-.1-.54-.23-1.1-.44-1.66-.1-.26-.22-.49-.36-.73-.15-.28-.29-.54-.33-.79-.06-.39-.04-.84-.02-1.31.01-.3.02-.62.01-.92v-.41c-.02-.75-.03-1.4-.88-2.21l.11-.15c.4-.54.82-1.1 1.05-1.82.43-1.36.8-2.76 1.15-4.14.22-.85.44-1.69.68-2.53l.12-.43c.28-.99.57-2.01.71-3.08.25-2.01.11-3.84-.08-5.52a53.3 53.3 0 0 1-.19-8.72c.05-.99.05-1.98.05-2.98v-.95l.23.45c.2.37.38.72.5 1.1l.33 1.27.24-.06-.23.13c.27 1.08.56 2.2 1.06 3.29.11.24.23.47.37.73.16.31.33.62.45.93.12.33.23.68.33 1.03.1.34.2.69.33 1.04.23.62.44 1.21.51 1.84.03.27.04.54.05.8.02.56.04 1.13.22 1.73l.17.55.02.07c.13.43.26.83.34 1.26.07.36.12.72.17 1.08l.01.07a26.23 26.23 0 0 0 1.54 5.99 16.02 16.02 0 0 0 1.7 3.72c.33.53.68 1.02 1.32 1.2.27.08.58.09.93.05.12-.01.23-.04.34-.06.22-.04.35-.07.51-.03.67.15 1.36.36 2.1.57l.36.11c.3.09.6.16.86 0 .28-.16.34-.43.42-.71l.04-.15.3-1.05.2-.71c.42-1.53.64-3.03.87-4.62.33-2.25.21-4.42.04-6.45-.05-.59-.05-1.21-.04-1.81v-1.36c-.03-.55-.12-1.02-.2-1.54a25.85 25.85 0 0 1-.25-1.76c-.15-1.19-.3-2.53-.66-3.48a32.04 32.04 0 0 1-2.07-7.43l.08.19.67 1.58.04.09c.61 1.43 1.6 2.44 2.63 3.51l.63.66c.44.47.84 1 1.23 1.53.43.58.88 1.18 1.4 1.72.42.43.88.85 1.33 1.25.32.29.64.57.94.87a15.7 15.7 0 0 1 2.02 2.42c.84 1.22 1.64 2.5 2.44 3.75l.25.4c.7 1.08 1.4 2.2 2.65 2.83.26.13.55.3.85.47.6.36 1.3.76 1.98.95.18.05.35.08.51.1.4.04.77-.03 1.16-.11l.31-.06.31-.04c.35-.04.8-.08 1.11-.21.3-.12.5-.31.7-.49l.16-.14c.12-.1.25-.19.4-.29.21-.15.46-.33.66-.53.41-.4.65-1.01.72-1.79.05-.54-.09-1.04-.22-1.53a4.62 4.62 0 0 1-.19-.91l-.03-.62c-.02-.54-.04-1.11-.22-1.69a15.42 15.42 0 0 0-2.09-4.62c-.33-.46-.49-.9-.68-1.43l-.23-.6c-.29-.7-.62-1.4-.92-2.02l-.22-.46c-.28-.58-.52-1.19-.76-1.81-.14-.37-.29-.75-.45-1.12.41.21.85.38 1.28.55.46.18.9.34 1.28.55.91.49 1.57.91 2.22 1.63l.06.06c.38.42.82.9 1.41 1.23.4.22.88.32 1.35.41.18.04.36.07.52.12l.5.15c.56.18 1.16.37 1.81.28.18-.02.33-.07.5-.12.13-.04.26-.08.38-.09.21-.02.43.04.71.13l.17.05c1.4.37 2.88.79 4.06 1.13l1.4.4.41.14c.88.3 2.53.85 3.07-.63.43-1.17.58-2.11.47-2.88a14.84 14.84 0 0 0-1.43-4.16l-.09-.19a10.7 10.7 0 0 0-1.44-2.25c-.53-.66-1.26-1.07-1.97-1.47l-.27-.15-.66-.39c-.48-.29-.97-.58-1.48-.83-.22-.11-.45-.2-.68-.29-.3-.12-.58-.23-.84-.39a9.77 9.77 0 0 0-2.2-.99c-.45-.15-.83-.4-1.23-.66l-.59-.38a11.68 11.68 0 0 0-3.47-1.18l-.07-.02-1.04-.25a4.6 4.6 0 0 1-1.09-.42l.95.28c.85.23 1.75.45 2.7.63l.97.21.06.01c.88.2 1.8.41 2.77.43 1.24.02 2.4.13 3.67.36 1.65.29 3.21.33 4.87.36l.47.01c.54.01 1.05.09 1.6.17.34.05.68.11 1.04.14.8.08 1.64-.01 2.5-.12 1.47-.19 2.52-.71 3.18-1.62.47-.64.76-.94 1.52-1.14.3-.08.6-.11.95-.14a5.8 5.8 0 0 0 1.4-.26l.13-.04c.22-.05.48-.15.61-.58.08-.25.01-.52-.09-.87a1.26 1.26 0 0 0-.03-.1c-.22-.97-.55-1.21-1.38-1.59-.2-.09-.43-.24-.64-.38l-.43-.27c-.44-.26-.77-.6-1.16-1l-.05-.05c-.77-.8-1.48-1.38-2.39-1.93a4.08 4.08 0 0 1-.64-.51c-.18-.16-.37-.33-.59-.48a2.67 2.67 0 0 0-1.04-.39l-.23-.05a6.54 6.54 0 0 1-1.66-.68c-.42-.23-.87-.39-1.26-.53-.27-.09-.58-.2-.85-.33a26.08 26.08 0 0 0-3.92-1.51l-.57-.16c-.77-.21-1.56-.42-2.33-.68l.06-.01.25-.03 1.4-.12.5-.04c.26-.02.52.05.83.13.28.08.56.15.9.16.55.01 1.1-.13 1.6-.28.44-.12.86-.24 1.27-.24.22 0 .43.01.64.03.4.02.82.05 1.27-.01a13.8 13.8 0 0 0 1.7-.38c.6-.17 1.2-.4 1.71-.6.4-.16.82-.32 1.24-.46.32-.1.65-.19 1.01-.28.35-.09.72-.18 1.07-.29.2-.06.37-.13.57-.21.23-.09.45-.18.68-.24.52-.14 1.06-.19 1.66-.25l1.1-.12c.61-.1 2.17-.42 3.17-1.29.52-.45.81-1.1.88-1.98.18-.91-.16-1.46-.82-2.12ZM84.46 192.16c-.13.01-.28-.02-.44-.07l.3.03.24.02-.1.02Zm4.26-.66a.1.1 0 0 0-.06-.02c-.52-.14-1.09-.1-1.59-.07l-.08.01-.2.02-.02-.04a4.47 4.47 0 0 0-1.23-1.19l-.3-.22c-.49-.38-.95-.61-1.43-.86l-.66-.35-.17-.11c-.12-.09-.28-.2-.52-.28l-.14-.04-.09-.02a1.01 1.01 0 0 1-.32-.12l-.55-.34c-.46-.3-.94-.61-1.47-.78a3.15 3.15 0 0 0-.55-.12l-.2-.03a7.78 7.78 0 0 1-3.31-1.38c-.88-.5-1.8-.91-2.98-1.31.7.11 1.38.25 2.04.38l.94.19c.8.16 1.6.32 2.4.52l1.27.28c.8.16 1.61.33 2.35.62a8.95 8.95 0 0 1 3.44 2.13l.23.26c.51.58 1 1.12 1.64 1.61.21.16.45.3.72.47.35.21.71.43.94.65l.11.14.01.01.07.08-.29-.09Zm1.78.03a2.4 2.4 0 0 0-.45-.23 2.88 2.88 0 0 1-.19-.24 2.3 2.3 0 0 0-.28-.34l-.15-.2c-.3-.4-.6-.77-.87-1.18l-.39-.62c-.3-.48-.6-.98-.97-1.46a11.72 11.72 0 0 1-1.9-3.4 2.26 2.26 0 0 1-.07-1.03c.42.72.77 1.29 1.13 1.83.75 1.13 1.61 2.41 2.28 3.74.35.69.67 1.19 1.07 1.66.35.41.61.76.8 1.18.05.14.12.28.2.43l-.2-.14Zm2.02 47.59.4.94a.55.55 0 0 0-.09-.06c-.18-.13-.36-.27-.56-.38l-.04-.02c0-.21-.02-.43-.04-.65-.02-.25-.04-.5-.04-.75.1.28.23.6.37.92Zm-8.23-34.53c-.35-.7-.58-1.29-.75-1.91-.12-.44-.17-.92-.22-1.39l-.07-.58c.23.42.51.84.84 1.25.41.5.52.68.55 1.2.06.92.2 1.38.62 2.24.22.44.11.89-.04 1.47l-.08.3c-.2-.86-.44-1.76-.85-2.58Zm-1.04 5.31c-.34-.31-.7-.64-1.07-.91l-.03-.03c.42.14.83.31 1.15.53.41.29.82.68 1.18 1.04.3.29.6.58.92.84-.79-.23-1.48-.86-2.15-1.47Zm5.71 3.99c-.29.6-.5 1.31-.6 2.05l-.6-1.47-.08-.21-.39-.99.15.15.2.19c.05.05.13.08.2.07a.27.27 0 0 0 .18-.11l.16-.23.16-.25c1.41-2.3 2.06-2.82 2.3-2.94-.04.16-.13.52-.42 1.3l-.08.24c-.14.46-.39.86-.67 1.31-.18.28-.35.57-.5.89Zm-24.39 5.66c-.4-.96-.58-2.06-.76-3.12l-.08-.48c-.09-.52-.14-1.08-.19-1.6l.02.03a19.73 19.73 0 0 1 1.55 3.36c.14.43.18.88.22 1.37a8.62 8.62 0 0 0 .51 2.36l.3.96c-.58-.9-1.15-1.83-1.57-2.88Zm-13.04-7.78-.03-.06a22.5 22.5 0 0 0-3.06-4.56l-.07-.08c-1.4-1.64-2.75-3.2-3.1-5.42-.08-.41-.1-.85-.15-1.33a9.85 9.85 0 0 0-.1-.96l-.07-.38c1.14 1.18 1.95 2.76 2.74 4.3l.75 1.42a47.14 47.14 0 0 1 3.74 8.25l-.65-1.18Zm-14.99-4.81-.23-.12c-.96-.51-1.96-1.03-2.88-1.62a24 24 0 0 1-1.8-1.34l-.02-.02-.08-.05a1.1 1.1 0 0 1-.15-.08h.06c.88.03 1.7.55 2.47 1.06l.11.07c.32.21.65.4.98.59.6.34 1.2.7 1.71 1.13l.77.62c-.32-.1-.64-.18-.94-.24Zm3.16.28.04.1.02.05c-.26-.4-.46-.83-.6-1.29v-.01a1.14 1.14 0 0 0-.06-.14l-.09-.23c.17.26.4.71.7 1.52Zm-.02 3.36c-.63-.07-1.28-.13-1.88-.29l-.38-.08a3.76 3.76 0 0 1-.98-.26c.18-.29.73-.43 1.2-.44.06-.01.14.01.26.02.35.04 1.06.13 1.36-.46.7.43 1.44.97 2.23 1.65l.1.15c-.63-.15-1.28-.22-1.9-.29Zm12.9 10.01c-.5.48-1.88.35-2.6.29l-.27-.02a11.1 11.1 0 0 1-1.76-.33c-.49-.12-1-.24-1.53-.31-.33-.04-.66-.1-1-.17l-.99-.17a4.7 4.7 0 0 1 1.82-.41c.33-.02.62-.04.91-.09.88-.16 1.92-.14 2.46-.12.22.01.46.05.76.14l.62.19.06.02.63.2c.34.09.7.21 1.1.36a.8.8 0 0 1-.2.42Zm1.61-2.45c-.48-.36-.97-.7-1.45-1.04.3.08.65.12.96-.07.22.31.45.61.7.92.2.28.47.57.68.8l.07.07a23.4 23.4 0 0 1-.96-.68Zm11.31 8.07c-.42-.07-.84-.11-1.28-.15-.34-.03-.67-.06-1-.11l-.16-.03c.08-.04.16-.11.25-.2.13-.13.2-.28.24-.38l.04-.09.06-.03.1.05c.21.12.44.24.72.36.22.09.45.13.66.17l.06.01.31.07c.34.11.63.31.93.52l-.93-.19Zm17.36 11.05c-.3-.01-.58 0-.9.01-.5.02-.93.04-1.45-.12l-.17-.05c-.73-.22-1.42-.43-2.27-.31l-.72.1c-1.14.16-2.3.33-3.42.19a7.04 7.04 0 0 1-.69-.13c-.7-.15-1.42-.31-2.3.17-.56.3-1 .69-1.45 1.07-.5.44-.98.85-1.55 1.08-.13.06-.25.1-.4.15-.39.14-.73.27-1.23.68l-.52.45a7.1 7.1 0 0 1-1.17.91c-.77.44-1.62.59-2.53.74-.64.11-1.29.22-1.94.45l-.25.09-.06.02c-.26.1-.45.17-.77.21l-.22.01c-.17.01-.37 0-.58.05-.43.1-.8.28-1.16.46-.35.17-.67.34-1.04.4-.2.04-.43.05-.66.06-.25.01-.54.02-.84.08-.2.04-.37.1-.54.15-.2.07-.39.13-.59.14-.27.01-.53-.02-.82-.05-.25-.03-.53-.07-.84-.06-.25 0-.46.02-.66.04-.34.03-.63.06-1 0l-.28-.05c-.4-.07-.73-.13-1.37.02-.12.03-.26.08-.43.15l-.02.01.05-.04.2-.17c.56-.54.86-.74 1.57-.91l.66-.17c.52-.14 1.01-.28 1.52-.28h.12c.5.02 1 .07 1.45.12l1.21.11c1.92.13 3.75-.48 5.91-1.97l1.05-.74.05-.04c.93-.66 1.9-1.34 2.91-1.93.65-.38 1.32-.55 2.06-.75l.8-.22c.51-.15 1.02-.34 1.5-.51.7-.25 1.4-.51 2.1-.66a9.17 9.17 0 0 0 2.76-.94c.38-.21.73-.42 1.07-.63a7.05 7.05 0 0 1 3-1.25c.33-.04.72.01 1.15.13 1.04.29 2.05.95 2.33 1.14.45.3.81.72 1.21 1.18a7.88 7.88 0 0 0 2.07 1.83 7.97 7.97 0 0 0-1.9-.42Zm5.5 1.31-.73-.13c-1.06-.68-2.12-1.44-2.98-2.05a6.93 6.93 0 0 1-1.19-1.17 7.7 7.7 0 0 0-1.39-1.34l-.19-.13c.35.06.67.14.98.29.38.18.71.46 1.06.75a8.17 8.17 0 0 0 2.31 1.42c.8.38 1.54.74 2.2 1.43.14.14.3.33.47.53l.51.58-1.05-.18Zm10.8 5.17a12.65 12.65 0 0 1-.59-4.16c.1-1.9.55-4.18 1.36-4.99.11-.11.18-.16.23-.19.04.05.11.17.2.42.61 1.67.42 3.09-.1 4.96-.1.36-.24.74-.38 1.15-.32.93-.64 1.88-.73 2.81Zm11.22 24.39c-.38-.52-.75-1.05-1.14-1.55a8.78 8.78 0 0 1-1.44-2.47c-.07-.17-.1-.31-.15-.43-.2-.6-.32-.72-.98-1.03-.3-.14-.6-.23-.86-.31-.4-.12-.74-.22-1.09-.48-.23-.17-.43-.38-.65-.61-.19-.2-.39-.4-.6-.59a7.66 7.66 0 0 0-1.25-.83c.5.01 1.02.07 1.5.13.58.07 1.2.15 1.81.13l.21-.01c.23-.01.44-.02.64-.01l.22.39.32.57c.03.27.13.46.32.58l.84 1.52.12.21c1.16 2.13 2.37 4.33 3.67 6.46l.21.43.1.22a25.63 25.63 0 0 1-1.8-2.32Zm.21-2.4a17.3 17.3 0 0 1 1.87 3.2l.08.17a113.2 113.2 0 0 1-1.95-3.37Zm2.53-81.42c.27-.3.55-.61.84-.88.33-.31.77-.48 1.24-.66l.23-.09-.23.35-.1.16c-.1.16-.2.23-.37.34l-.32.24c-.17.15-.29.33-.38.46-.08.12-.15.23-.22.27-.17.1-.36.14-.6.18-.16.03-.35.06-.54.12l.45-.49Zm-.36-4.66.14-.44c.15-.45.31-.91.3-1.38a5.9 5.9 0 0 0-.09-.72 4.94 4.94 0 0 1-.08-.63v-.31l.08-.3c.1-.4.2-.77.34-1.1l.78-1.39.5-1.43c.23-.57.55-1.14.9-1.73l.3-.53c0 .08.02.15.03.22.05.3.1.59.11.85.01.24-.1.55-.2.85l-.14.43-.22.79-.29 1.07c-.12.41-.33.77-.55 1.16-.23.4-.47.81-.62 1.3-.12.39-.22.79-.3 1.19-.12.47-.24.96-.4 1.42-.22.6-.55 1.19-.92 1.77.11-.36.23-.72.33-1.09Zm-1.49-8.76c.1.49.17 1.02.2 1.3s.07.52.1.65c.18.81.34 1.58.47 2.32.05.29.04.56.04.8l-.02.08-.16.56-.02.08-.1.36a7.73 7.73 0 0 0-.37-1.53c-.1-.28-.2-.57-.26-.86-.24-1.16-.05-2.53.12-3.76Zm-3.69 12.22v-.2a5.2 5.2 0 0 0-.06-.39 4 4 0 0 1 .62 1.44l.16.54.15.39c.12.31.23.6.25.89v.21a3 3 0 0 0 0 .67l-.38.34a13.46 13.46 0 0 1-.74-3.89Zm5.48 87.02c.12.22.25.45.4.66l.01.16c-.16-.29-.3-.59-.4-.82Zm-12.24-73.13c.43 1.13.92 2.45 1.35 3.79l-.26.92c-.04.13.04.27.17.31l.45.13.05.01c.1.32.18.64.26.97.48 1.97.93 3.5 1.44 4.98.9 2.58 1.4 5.17 1.9 8.04a59.7 59.7 0 0 0 2.64 9.08c.37 1.04.75 2.12 1.1 3.18a89.15 89.15 0 0 1 3.52 16.7c.13 1.15.27 2.34.47 3.51.21 1.25.47 2.52.7 3.65l.6 3.13c.5 2.85.77 5.78 1.04 8.61.13 1.36.26 2.76.42 4.15.08.67.2 1.33.32 1.97a14.79 14.79 0 0 1 .37 3.72c0 .58-.02 1.19.05 1.8.11 1.03.26 2.37.46 3.69.08.56.23 1.1.38 1.62.15.53.3 1.08.37 1.61.07.52.05 1.04.04 1.62 0 .52-.03 1.06.03 1.6.06.51.14 1.02.22 1.53.1.61.2 1.24.24 1.87.05.59.11 1.17.18 1.76.07.61.15 1.31.2 1.98.04.75.2 1.46.32 2.07.08.38.17.78.23 1.2.35 2.2-.23 4.66-.69 6.63-.08.34-.09.68-.1 1.02 0 .33-.02.63-.1.89-.05.18-.1.25-.2.4a1.92 1.92 0 0 0-.38.75 7.6 7.6 0 0 1-.22-.91c-.12-.75-.05-1.56.01-2.37.05-.62.1-1.27.06-1.9-.06-1.23-.37-2.39-.67-3.52-.13-.49-.26-.98-.37-1.48-.37-1.67-.46-3.3-.55-5.04v-.27a49.34 49.34 0 0 0-.82-6.49c-.53-2.8-.83-5.7-1.12-8.51l-.25-2.35a.9.9 0 0 0 .28-.2c.66-.66-.08-1.67-.49-2.23l-.09-.13-.49-3.94c-.24-1.91-.5-3.89-.72-5.84-.24-2.11-.4-4.27-.58-6.4-.27-3.42-.55-6.95-1.14-10.39-.2-1.14-.44-2.28-.68-3.39a54.91 54.91 0 0 1-.87-4.7 58.79 58.79 0 0 0-2.13-8.97l-.58-2c-.26-.92-.54-1.84-.82-2.76-.3-1.01-.63-2.05-.9-3.08-.43-1.5-.74-3.06-1.04-4.56l-.02-.09c-.17-.85-.34-1.72-.54-2.58-.84-3.72-1.78-7.47-2.69-11.09l-.4-1.62-.3-1.17v-.01l.17-.44a.3.3 0 0 0 0-.19.25.25 0 0 0-.14-.13l-.23-.1c-.26-1.16-.5-2.36-.75-3.62.4 1.19.84 2.39 1.3 3.58ZM84.1 133.93c.12.56.24 1.14.46 1.72.44 1.16.86 2.3 1.01 3.54.12.98.35 1.89.58 2.78.12.48.25.98.36 1.49a8 8 0 0 1 .14 1.44c.03.72.07 1.47.33 2.17.14.39.32.74.5 1.1.2.38.37.73.5 1.12.25.75.62 1.32 1 1.89.22.34.45.69.64 1.07.55 1.09.92 1.97 1.13 2.69.2.64.31 1.3.43 1.96.17.94.35 1.92.75 2.89.86 2.06 1.2 4.18 1.42 5.99.14 1.19.36 2.44.7 4.03.15.78.28 1.58.41 2.36.12.74.24 1.5.4 2.25-.88-2.85-1.87-5.78-3-8.92l-1.9-5.08c-.32-.8-.6-1.53-.96-2.25a2.76 2.76 0 0 1-.27-.74l-.3-1.33c-.28-1.17-.56-2.39-.9-3.58l-.38-1.27c-.4-1.34-.82-2.71-1.02-4.07-.1-.69-.17-1.4-.24-2.12-.08-.79-.16-1.61-.29-2.42-.14-.87-.35-1.72-.56-2.57-.18-.71-.36-1.44-.49-2.17-.17-.93-.29-1.87-.4-2.79-.1-.78-.2-1.58-.34-2.38.12.39.21.8.3 1.2Zm48.97-89.34c1.43-.4 3-.47 4.51-.54l.13-.01 1.14-.06.12-.01c2.78-.17 5.66-.35 8.38.41.31.09.63.16.98.23.58.13 1.18.26 1.67.48a4.42 4.42 0 0 1 1.54 1.3c.03.12 0 .25-.06.43a2 2 0 0 0-.1.57c0 .36.14.57.23.69.05.07.07.1.08.16.04.17-.2 1.02-.5 1.66-.1.23-.28.4-.5.62l-.17.17c-.3.32-.36.33-.66.41l-.46.15-.43.15c-.4.14-.83.28-1.19.44-.34.15-.63.37-.9.57-.18.12-.35.25-.53.36-.96.56-1.97 1.07-2.95 1.56l-.07.03-1.35.69c-.86.44-1.67.76-2.63 1.1-.75.27-1.45.64-2.14 1-.42.23-.9.48-1.38.69-.25.11-.52.21-.82.3h-.28c-.3.01-.59.06-.87.1-.4.07-.76.12-1.14.05-.06-.02-.13 0-.19.04a.27.27 0 0 0-.1.16l-.03.15c-.37.1-.72.24-1.05.38a14.14 14.14 0 0 1-3.23.82 48.9 48.9 0 0 0-3.25.48c-2.1.32-4.24.53-6.3.73-1.58.15-3.37.32-5.1.55-.33.04-.65.1-.97.15-.63.11-1.23.21-1.86.22-1.2.03-2.37.07-3.58.18-1.34.12-2.5.52-3.73.94l-.65.22c-.33.11-.64.23-.95.35l-.05-.01a3.78 3.78 0 0 0-1.22-.06c-.82.13-2.07.56-2.75 1.05l-.64-.19-.38-.12c-.04-.31-.08-.59-.14-.88l-.16-.89c-.23-1.38-.47-2.81-1.45-3.93l.65-.65 1.3-.99.07-.06c.56-.43 1.12-.87 1.7-1.29.31-.24.62-.5.93-.76.5-.42 1.01-.85 1.55-1.16.46-.26.93-.49 1.42-.73.73-.36 1.5-.73 2.2-1.22l.71-.5a11.78 11.78 0 0 1 3.51-1.93 140.08 140.08 0 0 1 16.45-3.68 36 36 0 0 1 3.98-.4c1.4-.06 2.44-.33 3.66-.67ZM96.53 64.54v.03-.03Zm-2.39 3.8c-.13.43-.38 1.3-.24 2.11l-.09.16-.4.7c-.18.19-.44.38-.65.54a9.58 9.58 0 0 0-.73-.33.25.25 0 0 0-.33.13l-.18.41a.48.48 0 0 1-.17 0c-.04 0-.1-.03-.17-.05-.13-.05-.3-.12-.5-.12h-.14a.26.26 0 0 0-.2.11l-.08.11a2.77 2.77 0 0 0-.4 1.59c-.5.25-1.03.49-1.57.71-1.05-.33-2.1-.5-3.2.58l-.56.46-.48.39-.77.3a11.44 11.44 0 0 0-1.34-4.29c-.17-.32-.38-.6-.57-.84-.2-.27-.4-.53-.54-.81-.2-.43-.37-.93-.54-1.46l-.15-.45-.1-.29a6.93 6.93 0 0 0-1.18-2.41 9.15 9.15 0 0 0-1.69-1.46 9.89 9.89 0 0 1-.72-.56l-.29-.24-.05-.05c-.42-.36-.85-.73-1.4-1-.28-.13-.6-.25-.99-.36l-.78-.19-.09-.02c-.25-.06-.49-.11-.72-.18-.89-.25-1.96-.5-3.13-.53l-.75-.03-.78-.03.04-.31c.06-.71.04-1.33-.05-1.87.47-.54.83-1 1.14-1.43.18-.25.3-.52.41-.77.06-.15.13-.29.21-.43.45-.77 1.38-1.23 2.13-1.49.2.22.35.32.53.43l.23.14.05.06c.03.03.06.04.1.06.22.19.46.44.71.72.34.37.68.76 1.1 1.02a8.57 8.57 0 0 0 3.4 1.07c.51.02 2.33-.27 2.78-.83.17-.21.31-.5.44-.91.44.9 1 1.65 1.7 2.3.4.38.94.67 1.55.84 1.03.28 2.1.2 2.84-.24a7.36 7.36 0 0 0 2.45-2.36l.24.07c.11.48.4.83.81 1.04a4.79 4.79 0 0 0 2.82.41l.37.23.08.05c-.57.7-1.16 1.7-.79 2.9.1.31.28.55.44.75.06.08.13.16.18.25.07.11.12.25.18.4.08.21.17.45.33.67a3.65 3.65 0 0 0 1.87 1.41c.02.45.01.87-.05 1.28l-.2.16-.33.27c-.5.44-.84.84-1.04 1.51Zm.9 3.58a10.67 10.67 0 0 0 2.24.64l-.5.04c-.42.03-.85.06-1.26.04-.42-.02-.85-.17-1.3-.33l-.34-.11c.1-.08.18-.17.26-.25l.03-.04.01-.02.23-.39c.18.17.38.31.62.42Zm-3.96 1.07-.19.12.04-.17.15.05Zm-1.19 2.13-.09-.05-.25-.14.32-.15.02.34Zm-10.26.97c-.58.16-1 .53-1.46.92l-.25.21-.4.33c-.32-.04-.64-.13-.98-.22l-.08-.02-.59-.15c-.57-.13-1.15-.16-1.7-.19a2.02 2.02 0 0 0-.35-.32c-.89-.62-2.05-1.33-3.04-1.12a6.8 6.8 0 0 0-.84.2l-.16-.46c-.1-.32-.23-.63-.33-.95-.6-1.91-1.9-2.73-3.68-2.3-.37.09-.73.24-1.06.39v-.01c-.23-.27-.44-.54-.63-.8v-.1c-.18-.64-.15-1.26-.13-1.91.02-.47.04-1.01-.02-1.57a12.02 12.02 0 0 1-.02-3.11 5.59 5.59 0 0 0 3.3-3.01c.33 0 .67.02 1 .04l.77.03c1.06.02 2.02.25 2.9.49l.81.2c.56.13 1.13.26 1.61.49.43.21.8.52 1.2.86l.34.3c.26.21.53.42.81.62a8.3 8.3 0 0 1 1.48 1.28c.5.59.74 1.32 1 2.09l.1.3.16.49c.17.52.34 1.05.58 1.55.18.37.41.67.63.97.18.24.35.47.5.72.4.74.61 1.66.83 2.54.11.43.23.92.37 1.38l.07.24-.4.12h-.02a2.58 2.58 0 0 0-2.32-.52Zm.92.9-.33.08-.07.02-.79.2c.17-.12.34-.21.53-.26.13-.04.26-.05.4-.05.08-.01.17 0 .26.01Zm-4.93 1.28c0 .53-.03 1.09-.09 1.7l-.27-.49c-.16-.26-.27-.61-.39-.99-.06-.18-.1-.35-.17-.51.32.03.65.06.97.13h.01a.23.23 0 0 0-.06.16Zm.03 7.03c0 .39-.02.79-.05 1.2a8.11 8.11 0 0 1-.58 2.34c.13-.61.27-1.28.37-1.94.07-.53.16-1.06.26-1.6Zm-8.32-1.69.41-.73c.62-1.09 1.26-2.21 1.66-3.42l.11-.32c-.14 1.01-.54 2.04-.9 2.98a21.63 21.63 0 0 1-2.75 4.78 24 24 0 0 1 1.47-3.29Zm-2.69 3.81a18 18 0 0 1-1.17 2.48l-.17.34c-.35.41-.74.75-1.17 1.12l-.02.02c-.3.27-.63.55-.94.86l-.35.36c-.76.77-1.47 1.5-2.3 2.16-.57.45-1.14.89-1.72 1.32a24.9 24.9 0 0 0 2.87-4.03l.06-.1c.84-1.31 1.7-2.67 2.32-4.13.81-1.9 2.08-3.69 3.31-5.42l.61-.86c.46-.66.98-1.3 1.5-1.93.52-.66 1.07-1.34 1.57-2.06-.23.6-.42 1.16-.57 1.61-.37 1.12-.99 2.2-1.58 3.25l-.42.74a28.38 28.38 0 0 0-1.83 4.27Zm4.24-11.83a7.33 7.33 0 0 1-.82-.59c-.34-.26-.69-.54-1.14-.8-.63-.37-1.09-.64-1.5-1.04.2-.09.4-.16.6-.21.44-.11.82-.11 1.15-.02.63.17 1.08.72 1.38 1.67l.33.99Zm-2.77-13.61a4.7 4.7 0 0 1-1.95 1.77l.14-.54c.13-.22.2-.34.37-.51.3-.32.87-.6 1.44-.72Zm-.8-.77c.1-.14.21-.28.34-.41l.67-.74.27-.29c0 .25 0 .52-.03.79 0 .13-.03.26-.06.4l-.44.05c-.25.04-.5.11-.76.2Zm7.31-6.91 1.14-.28c1.96-.49 3.52-.88 5.26.18.31.19.66.36 1.05.51l.01.03c-.1.55-.3 1.6-.57 1.94a5.6 5.6 0 0 1-1.99.47 8.37 8.37 0 0 1-2.92-.92c-.3-.19-.6-.52-.89-.85a7.08 7.08 0 0 0-.87-.86l-.02-.01a3.87 3.87 0 0 1-.2-.21Zm10.65 3.11c.31.05 1.36.1 1.94-1.41l.08-.22c.5.13 1.01.29 1.6.47.45.14.9.28 1.35.4h.02a6.5 6.5 0 0 1-1.95 1.79c-.95.55-2.53.2-3.26-.48A6.62 6.62 0 0 1 81.6 56l.54.37v.01c.01.47.52.93 1.13 1.03Zm.21-1.3-.75-.5c-.17-.11-.36-.23-.55-.37l1.11.15.42.06c.21.03.42.06.63.11a.69.69 0 0 1-.04.1c-.12.3-.36.79-.76.81a.3.3 0 0 0 .04-.1.26.26 0 0 0-.1-.26Zm10.8 3.28c.73.92.94 2.16 1.14 3.36l.16.91.06.32c-.39-.2-.67-.47-.94-.85-.09-.13-.15-.29-.22-.47s-.14-.37-.25-.55a4.53 4.53 0 0 0-.26-.35 1.56 1.56 0 0 1-.27-.42c-.19-.61 0-1.22.57-1.95Zm23.64-22.45c.2-.25.37-.49.57-.7.81-.85 1.82-1.41 2.9-2.01.52-.29 1.12-.63 1.67-1 1.02-.68 2.13-1.27 3.2-1.84.91-.48 1.95-1.03 2.91-1.64a19.34 19.34 0 0 1 4.38-1.89c1.3-.42 2.8-.86 4.2-.96a4.98 4.98 0 0 1 1.7.12c.23.06.43.15.6.25.53.33.48.51.34 1.11-.06.27-.14.57-.14.92v.16c0 .1.06.2.15.24l.14.06c.35.15.71.02 1-.09.1-.04.25-.1.31-.1.33.01.38.06.58.37.47.71.02 1.99-.28 2.83-.98 2.79-3.38 4.75-5.55 6.37-.17.13-.36.24-.56.35-.27.16-.57.33-.83.55-.23.2-.44.41-.65.63-.18.18-.35.36-.54.53-.45.4-.9.75-1.53 1.16-.3.19-.6.42-.92.67-.95.72-1.93 1.47-3.04 1.24a.24.24 0 0 0-.26.12c-.85.06-1.92.15-3 .34-4.94.85-10.78 1.96-16.57 3.7a12.4 12.4 0 0 0-3.8 2.07l-.69.49c-.67.46-1.4.82-2.14 1.18-.42.21-.86.42-1.28.66l.24-.27.65-.76.3-.24c.83-.65 1.7-1.33 2.5-2.07 1.21-1.12 2.37-2.36 3.5-3.55a19.54 19.54 0 0 1 4.47-3.43 9.78 9.78 0 0 0 2.24-1.73c.23-.25.4-.51.57-.78.13-.2.26-.4.4-.57.3-.36.66-.71.97-1.03l.06-.06.63-.65c.22-.24.41-.49.6-.75Zm-4.9 4.01c.36-.34.71-.69 1.04-1.03l.24-.24c-.1.15-.2.3-.33.43-.27.29-.57.56-.95.84Zm1.83-21.83c.64-.6 1.3-1.21 2-1.73a34 34 0 0 1 3.41-2.15l.82-.47c.37-.2.7-.47 1.03-.7.53-.4 1.03-.79 1.6-.97a3.82 3.82 0 0 1 2.15.1l.31.07c.16.03.36.07.44.13.2.14.44.7.6 1.03l.13.3c.54 1.07.56 2.5.06 4.36-.27 1.02-.83 1.97-1.37 2.89l-.06.1-.55.95-.1.17c-.53.93-1.07 1.89-1.69 2.77-.98 1.39-2.02 2.77-3.02 4.1-.84 1.11-1.7 2.26-2.54 3.42l-.55.78a30.05 30.05 0 0 1-4.1 4.94l-.06.06c-.56.57-1.13 1.16-1.77 1.64-.89.68-1.83 1.42-2.7 2.28l-1.76 1.76a306.08 306.08 0 0 1-4.43 4.38c-.52.5-1.09 1.1-1.66 1.75a31.2 31.2 0 0 0-2.1 1.76c-.98.89-1.75 1.82-2.57 2.81l-.35.43a6.58 6.58 0 0 1-2.73 1.37 14.8 14.8 0 0 0-2.9-1.17c.02-.29.08-.61.14-.93l.1-.57.23-.35c.45-.66.75-1.39 1.03-2.1l.4-.95c.32-.7.7-1.38 1.05-2.06.34-.64.7-1.31 1.01-1.98.27-.58.47-1.19.67-1.8.15-.45.3-.92.48-1.36.4-.98.78-1.97 1.13-2.95a.3.3 0 0 0 .13-.12c.43-.93.86-1.67 1.44-2.48.45-.63.85-1.3 1.23-1.95.47-.81.96-1.64 1.56-2.37a98.67 98.67 0 0 1 5.22-5.9 82.9 82.9 0 0 0 3.87-4.34c.24-.29.51-.56.75-.81.34-.34.7-.7 1-1.11a9 9 0 0 1 1.46-1.6c.55-.49 1.08-.98 1.56-1.43ZM90.4 54.72l.13-.02.1.05-.23-.03Zm1.62-4.97c.35-1.03.75-2.05 1.15-3.05l.44-1.12c.21-.55.48-1.12.73-1.63.38-.8.78-1.64 1.03-2.52l.37-1.35.21-.78c.2-.7.32-1.4.44-2.09.12-.66.25-1.41.45-2.11.6-2.03 1.14-4.09 1.7-6.12.58-2.14 1.18-4.36 1.81-6.52.2-.67.44-1.45.74-2.27a21.4 21.4 0 0 1-.47 2.46c-.4 1.6-.85 3.22-1.3 4.8-.7 2.51-1.42 5.1-1.98 7.74a48.62 48.62 0 0 1-2.73 8.59c-.2.47-.35.96-.5 1.43-.19.57-.38 1.15-.63 1.69-.3.64-.64 1.28-.96 1.89l-.03.06-.47.9Zm10.4-32.34c.28-.46.56-.87.85-1.22.4-.5.65-1.12.9-1.73a16.36 16.36 0 0 1 3.69-5.61c.93-.89 1.96-1.83 3.05-2.66.54-.4 1.78-.84 2.4-.76.21.03.41.07.6.12.53.15.67.33.7.38.4.65.26 1.94.17 2.8l-.02.21a16.16 16.16 0 0 1-.8 3.22c-.16.47-.3.94-.44 1.41l-.06.2.24.06h-.26c-.1.3-.2.63-.2 1 0 .18.04.37.08.53.03.15.07.3.06.4-.03.58-.24 1.21-.44 1.84-.1.29-.19.58-.26.86-.32 1.2-.83 2.14-1.23 2.3a.25.25 0 0 0-.14.13.21.21 0 0 0 0 .19l.04.1-.26.34c-.27.36-.58.68-.92 1.02-.27.27-.54.55-.8.86a81.13 81.13 0 0 1-3.83 4.29 97.51 97.51 0 0 0-5.27 5.96c-.64.79-1.15 1.65-1.64 2.49-.26.44-.53.9-.82 1.34.2-.72.36-1.42.5-2.1.55-2.59 1.27-5.18 1.97-7.69a197 197 0 0 0 1.3-4.81c.4-1.54.57-3.12.75-4.65l.1-.82ZM88.32 23.7c.37-.91.72-1.83 1.05-2.72.91-2.4 1.76-4.67 3.1-6.84a34.11 34.11 0 0 0 3.1-5.9c.83-2.2 2.24-4.72 4.2-4.17 1.98.57 2.14 3.4 2.26 5.51l.05.77c.13 1.76-.13 3.46-.4 5.26v.07c-.08.46-.14.93-.2 1.39a22.45 22.45 0 0 0-2.06 5.1c-.63 2.16-1.23 4.37-1.8 6.5l-.03.08c-.54 1.99-1.1 4.05-1.68 6.07-.2.74-.35 1.49-.48 2.22-.12.66-.24 1.34-.42 2l-.2.79-.38 1.33c-.23.8-.6 1.6-.98 2.38a26.4 26.4 0 0 0-1.15 2.69l-.04.11c-.57 1.45-1.17 2.95-1.59 4.5-.1.36-.2.73-.32 1.1-.26.85-.48 1.62-.6 2.41-.32.45-.64.92-.94 1.44l-.29-.08-1.32-.39c-.49-.15-1.04-.32-1.6-.47l.22-.93c.1-.36.17-.73.27-1.08l.31-1.1.85-3.02c.21-.72.32-1.42.42-2.12l.12-.73c.07-.41.18-.83.28-1.25.18-.73.37-1.48.4-2.28.02-.71.13-1.42.24-2.13.1-.66.2-1.33.24-2.02.08-1.67-.22-3.33-.52-4.94-.1-.59-.22-1.18-.3-1.77-.14-.84-.13-1.7-.13-2.54 0-.52.01-1.07-.02-1.62s-.13-1.08-.23-1.63l-.07-.37.64-1.62Zm-1.35 3.4.02.28c.03.5.02 1.02.02 1.56 0 .87 0 1.77.13 2.69l.31 1.8c.3 1.55.58 3.15.5 4.71-.03.64-.13 1.3-.23 1.94a20 20 0 0 0-.25 2.23c-.02.7-.19 1.37-.37 2.08-.1.4-.22.86-.3 1.32l-.12.75c-.1.69-.2 1.33-.4 2l-.79 2.81-.37 1.32-.28 1.12-.23.92c-.29-.06-.55-.11-.79-.14l-.42-.05c-.7-.09-1.49-.19-2.22-.38l.07-.3c.44-1.67.52-3.49.6-5.26.02-.8.05-1.63.12-2.39.04-.27.06-.53.07-.75.15-.63.33-1.25.5-1.79.15-.54.32-1.1.46-1.66.23-.93.44-1.88.65-2.82.3-1.34.61-2.74 1-4.09l.44-1.6 1-3.58c.23-.86.5-1.72.88-2.72ZM76.7 18.13c.1-1.02.26-2.05.42-3.06l.14-.86a19 19 0 0 1 .27-1.3c.15-.64.3-1.3.36-1.98.03-.4.03-.79.02-1.17 0-.5 0-.96.06-1.42.12-.73.35-1.48.58-2.2l.4-1.3c.2-.76.54-1.78 1.35-1.99.34-.09.96-.03 1.62.15.3.08.58.2.8.3.81.4 1.07 1.65 1.2 2.7.04.43.11.86.17 1.3.08.5.15 1.01.21 1.52.02.2.02.42.01.66 0 .27-.02.56.02.84.06.41.23.76.4 1.1l.15.33c.61 1.46.77 2.92.95 4.48.04.38.08.77.14 1.17.2 1.53.3 3.09.41 4.61.06.84.12 1.68.2 2.52.01.23.04.46.08.69a40.4 40.4 0 0 0-1.5 4.33l-1 3.57-.45 1.61c-.38 1.38-.7 2.78-1 4.2l-.64 2.74c-.08.34-.18.68-.28 1.02a6.91 6.91 0 0 1-.42-1.77c-.02-.66.01-1.33.03-1.92.05-1.39.11-2.82-.3-4.31a48.5 48.5 0 0 0-1.4-4.45c-.35-.91-.9-1.61-1.44-2.31-.27-.35-.55-.71-.8-1.09-.4-.62-.77-1.37-1.12-2.27.05-2.15.17-4.26.36-6.44Zm-.06 9.24c.27.42.57.8.86 1.18.51.66 1 1.27 1.3 2.05.53 1.37.98 2.96 1.36 4.35.37 1.34.32 2.64.26 4.04-.02.64-.05 1.3-.03 2 .08.77.27 1.53.55 2.21.13.66.17 1.33.14 2.01-.13.54-.2.99-.25 1.41-.09.85-.24 1.7-.38 2.53l-.25 1.51-.63-3.77-.05-.31c-.1-.64-.2-1.28-.32-1.92a23.43 23.43 0 0 0-.97-4.09l-.3-.81c-.4-1.08-.8-2.1-.96-3.24a67.57 67.57 0 0 1-.66-9.71l.33.56Zm-13.2-2.42.12-1.27c.2-1.92.38-3.9.84-5.72.28-1.12.62-2.23.95-3.3.35-1.16.71-2.34 1-3.53.35-1.43.5-2.88.62-4.29l.14-1.42c.1-.86.31-2.1 1.05-2.89a3.42 3.42 0 0 1 2.4-1.12c.45.03.81.22 1.1.6 1.1 1.5.76 3.2.41 5-.1.52-.22 1.1-.29 1.68-.2 1.62.15 3.01.52 4.47l.15.6c.16.65.27 1.31.37 1.95.16.96.32 1.96.68 2.99.3.83.54 1.71.81 2.65.28 1 .63 2.24 1.07 3.38-.1 4.35.11 8.25.64 11.92.18 1.25.6 2.32 1.04 3.5.1.25.2.49.28.75.47 1.28.72 2.69.93 3.91l.37 2.27c.3 1.83.6 3.71.96 5.57l.18.86-.24-.13c-1-.61-1.94-.83-2.87-.83-1.02 0-2.04.25-3.13.53l-.08.02a36.3 36.3 0 0 1-1.59.37c-.4-.43-.65-.66-.9-.58-.12-.1-.23-.21-.33-.33-2.46-2.66-3.57-5.42-4.48-8.75-.93-3.42-1.9-6.95-2.43-10.53v-.33a2.24 2.24 0 0 0-.16-.81 30.67 30.67 0 0 1-.14-7.19Zm-16.54 4.8c-.26-.57-.55-1.14-.83-1.69l-.22.11.18-.19a52.1 52.1 0 0 1-.82-1.68c-.26-.58-.36-1.18-.47-1.82-.07-.4-.13-.82-.25-1.25-.19-.7-.3-1.43-.42-2.14-.12-.73-.24-1.49-.44-2.23-.12-.46-.27-.91-.4-1.35-.28-.83-.53-1.62-.63-2.48-.08-.77-.28-1.5-.46-2.2-.15-.59-.3-1.2-.4-1.8a22.96 22.96 0 0 1-.22-3.3c0-.4.11-.97.37-1.22.1-.09.2-.12.35-.1.13 0 .31.12.5.23.3.2.9.58 1.38.06.16-.17.23-.36.3-.53.05-.18.08-.23.14-.26.15-.09.38-.05.67 0 1.43.27 2.97 2.02 3.8 2.96l.6.7.05.05c.72.81 1.47 1.65 2.08 2.54.45.66.85 1.4 1.24 2.11a35 35 0 0 0 .9 1.57c.85 1.4 1.87 2.68 2.87 3.92.7.88 1.43 1.79 2.1 2.72a16.53 16.53 0 0 1 1.86 3.54c.06.15.1.31.15.47.06.23.14.49.26.75l.2.34c.06.09.12.18.15.25.16.4.24.84.32 1.27l.06.3c.03.16.1.35.15.55.11.38.25.86.15 1.09-.26.57.02.95.26 1.19.08.08.14.15.18.22.04.33.1.65.13.95 0 .14 0 .29.03.45l.15.76c.11.55.21 1.07.27 1.62l.02.32c.02.31.04.62.15.96l.11.31c.06.16.12.31.15.47.02.07.06.13.12.16.45 1.91.97 3.81 1.47 5.65.95 3.46 2.11 6.35 4.7 9.16.22.24.46.46.68.65a4.3 4.3 0 0 0-2.19 1.75l-.27.54c-.09.21-.18.41-.3.58-.2.28-.42.57-.7.9a5.1 5.1 0 0 0-.64-.91l-.16-.18c-.16-.19-.33-.38-.48-.58.15.1.31.17.47.22.17.05.34.06.5.02.3-.06.53-.23.67-.49.4-.72 0-1.96-.5-3.3l-.16-.45-.1-.45c-.07-.32-.13-.65-.34-1.03l-.4-.72-.24-.39-.28-.51-.05-.09c-.38-.69-.77-1.4-1.26-2.04a16.48 16.48 0 0 0-3.34-3.08c-.39-.3-.79-.6-1.18-.92a133.02 133.02 0 0 0-6.26-4.71c-.49-.35-1-.67-1.46-.95-.69-.43-1.35-.83-1.96-1.34a70.52 70.52 0 0 1-3.06-6.03Zm18.77 24.79-.1-.11a56.4 56.4 0 0 1-.77-.81 18.68 18.68 0 0 0-1.9-1.87c-1-.81-1.98-1.55-2.9-2.18a11.9 11.9 0 0 1-2.58-2.35c-1.43-1.65-2.73-3.39-4.06-5.17-.87-1.16-1.45-2.39-2.09-3.72l-.33-.69.47.29c.47.29.95.58 1.4.91 2.04 1.46 4.2 3.03 6.22 4.67.38.31.76.6 1.13.88l.08.06c1.17.89 2.27 1.73 3.16 2.9.45.59.83 1.27 1.2 1.93l.32.6.25.43.37.66c.14.26.18.49.25.79a4.98 4.98 0 0 0 .31 1.05c.2.51.77 2.07.53 2.47-.06.03-.27 0-.96-.74Zm-23.19-9.61c-.73-.4-1.49-.81-2.27-1.16-.93-.41-1.89-.78-2.8-1.14-.94-.36-1.99-.76-2.96-1.2a21.4 21.4 0 0 1-2.15-1.17l-.55-.32-.82-.46c-.72-.4-1.47-.81-2.1-1.29a26.9 26.9 0 0 1-1.22-1c-.54-.46-1.1-.95-1.7-1.36-.25-.16-.5-.3-.78-.46l-.52-.3c-.54-.34-.78-.7-1.18-1.3a14.65 14.65 0 0 0-3.48-3.68c-.5-.36-.86-.76-1.29-1.23l-.22-.24a6.64 6.64 0 0 1-.39-.5c-.1-.15-.2-.29-.33-.44-.14-.18-.32-.29-.45-.38-.09-.06-.17-.11-.2-.16-.29-.32-.42-.86-.57-1.42a6.2 6.2 0 0 0-.49-1.43c-.32-.58-.79-1.46-.4-1.97.2-.28 1-.38 1.82-.23.41.08.83.21 1.22.33.41.13.83.26 1.27.35 1.68.33 3.2.64 4.84 1.1.51.15 1.02.28 1.54.41l.1.03c1.08.28 2.3.6 3.41 1 1.43.52 2.8 1.27 4.14 1.99l.66.36c1.2.65 2.43 1.32 3.7 1.9 1.36.62 2.57 1.21 3.62 2.02.95.74 1.97 1.34 2.98 1.94.64.38 1.37.81 2.1 1.3.74.51 1.46 1 2.16 1.57.45.78.83 1.58 1.21 2.37.62 1.29 1.25 2.62 2.17 3.86a92.43 92.43 0 0 0 4.1 5.22c.85.98 1.57 1.71 2.76 2.52.92.63 1.88 1.34 2.85 2.13.31.25.6.52.88.8a9.38 9.38 0 0 0-1.13-.62 9.43 9.43 0 0 1-1.88-1.3 9.42 9.42 0 0 0-2.1-1.43 42.57 42.57 0 0 0-5.29-2.05 25.7 25.7 0 0 0-5.92-1.1 15.1 15.1 0 0 1-2.33-.82c-.66-.3-1.35-.68-2-1.04Zm-13.8 11.84-1.17-.09a21.1 21.1 0 0 1-2.64-.29c-.83-.16-1.66-.23-2.47-.29l-.12-.01-.87-.08a18.33 18.33 0 0 1-3.2-.7l-.94-.25-.37-.1a8.9 8.9 0 0 1-1.8-.59 12.4 12.4 0 0 1-1.44-.87c-.42-.28-.89-.6-1.38-.85-.93-.49-1.95-.88-3.04-1.16l-.4-.1c-.57-.14-1.1-.27-1.56-.57-.98-.63-2.64-2.38-2.3-3.48.2-.67.7-1.17 1.56-1.54a14.13 14.13 0 0 1 1.31-.47c.41-.14.78-.35 1.14-.55.41-.23.8-.45 1.18-.54.47-.1.98-.12 1.53-.14.47-.02.97-.04 1.44-.12.46-.08.91-.19 1.34-.31.66-.17 1.3-.34 1.97-.37.28-.02.56.02.86.05l.52.05c.65.04 1.17-.11 1.68-.27l.37-.11c.85-.24 1.6-.24 2.45-.25h.14l.54-.01.76-.03a9.77 9.77 0 0 1 2.1.04c.4.07.81.19 1.23.33l.53.16 1.08.3.24.07 1.57.44c.74.21 1.42.31 2.22.43l.5.08c.58.09 1.2.28 1.8.47.83.25 1.65.49 2.46.71l1.24.35.1.03c1.63.47 3.32.96 5 1.38.65.17 1.2.23 1.85.22.34-.01.67 0 .96.01l.71.2c.11.03.23-.02.28-.12a24.3 24.3 0 0 1 4.85 1c1.62.5 3.4 1.19 5.15 2 .7.33 1.3.8 1.9 1.31.63.51 1.28 1.05 2.08 1.42A8.1 8.1 0 0 1 65 56.49c.2.27.4.51.6.73l.14.17c.24.28.51.61.64 1l.03.1-.8.9-.69.75a6.64 6.64 0 0 0-1.5 2.63l-.05.09c0 .02-.04.05-.08.1-.09.09-.2.22-.3.44-.06.13-.09.28-.13.43 0 .05-.02.1-.03.13l-.09.31c-.4.1-.8.17-1.2.2-.6.05-1.18.18-1.73.3a7.6 7.6 0 0 1-2.16.29c-.9-.05-1.82-.24-2.7-.43-.53-.11-1.08-.23-1.63-.31-1.1-.17-2.2-.49-3.28-.8-.66-.19-1.33-.38-2.02-.55-.62-.15-1.22-.15-1.8-.15-.8 0-1.54-.01-2.25-.37a2.2 2.2 0 0 1-.6-.55 5.17 5.17 0 0 0-.53-.53 12.14 12.14 0 0 0-4.52-2.09l-.06-.02-6.32-1.75-.57-.16c-.86-.23-1.75-.49-2.7-.58ZM63.8 72.81l-.24.08-.1.03-.07.02a5.2 5.2 0 0 0 .16-.46l.25.33Zm-1.33-7.48c-.1.46-.15.93-.17 1.4l-.48-.2c-.72-.29-1.4-.54-2.05-.75l.3-.06c.5-.12 1.03-.24 1.56-.28.27-.01.55-.05.84-.11Zm-32.03 3.81a5.88 5.88 0 0 0-2.68.28c-.72.24-1.25.26-1.98.21a7.08 7.08 0 0 0-1.78.17l-.49.08a4.9 4.9 0 0 1-1.94-.09c-.6-.15-1.18-.18-1.75-.21-.42-.02-.86-.05-1.29-.12-.9-.16-1.79-.48-2.67-.8-.62-.22-1.26-.46-1.92-.63-.9-.24-1.77-.49-2.62-.85-.3-.13-.6-.28-.92-.44-.32-.16-.66-.33-1-.48-1.23-.51-2.55-.76-3.82-1.01l-.9-.18c-1.07-.22-1.79-.52-2.15-.88a8.95 8.95 0 0 1-1.09-1.45c.03-.15.45-.41.63-.53l.41-.26c.72-.47 1.4-.91 2.22-1.14.37-.1.65-.26.92-.41l.15-.09c.23-.12.47-.2.76-.29l.46-.15.68-.27.12-.05c.58-.24 1.13-.46 1.74-.61a18.1 18.1 0 0 1 5.21-.53h.67c.32 0 .65-.01.96.01.27.01.55.05.9.1l.38.07.44.07c.37.05.74.03 1.07.01.42-.02.81-.04 1.18.06.53.15 1.04.13 1.53.12.3-.01.6-.02.9.01 1.26.14 2.48.17 3.51.18 3.27.04 6.1.32 8.61.88.36.08.7.14 1.05.2.5.08.95.16 1.43.29.06.02.13.01.2-.02.05-.03.1-.09.11-.15l.02-.08.3.08c1.54.44 2.92.88 4.22 1.93.14.11.27.26.41.42a2.8 2.8 0 0 0 1.61 1.04c.67.19 1.32.19 1.96.19.55 0 1.08.01 1.6.13.68.16 1.38.36 2 .54.73.21 1.5.44 2.3.61a22.2 22.2 0 0 1-.82-.08c-.87-.08-1.84.12-2.7.29l-.12.02-.54.11c-.48.09-.97.16-1.45.24-.59.09-1.19.19-1.77.3-.52.1-1 .29-1.45.45l-.7.25c-.4.13-.8.22-1.26.33l-.48.11c-1.59.39-3.17.99-4.69 1.56l-.15.06-.04-.01c-.53-.1-.86.01-1.18.13a6.94 6.94 0 0 1-.48.16l-.2.1a.28.28 0 0 0-.14.21 1.8 1.8 0 0 1-.58.18l-.27.06c-.26.06-.36.08-.59.01a9.74 9.74 0 0 0-2.05-.44Zm-7.8 16.74a18.65 18.65 0 0 1-3.25-.82c-.46-.15-.9-.29-1.36-.41-1.3-.37-2.65-.69-3.94-1l-.2-.05c-1.49-.36-3.02-.72-4.5-1.15a8.58 8.58 0 0 1-3.55-2.12l-.44-.41c-.25-.24-.5-.49-.79-.72-.17-.13-.4-.25-.66-.38a3.03 3.03 0 0 1-.7-.41c-.02-.14.37-.52.51-.65l.3-.3c.24-.31.26-.31.76-.37l.23-.03 1.6-.16.13-.01a35.6 35.6 0 0 0 3.68-.47c1.2-.23 2.5-.31 3.96-.26l.46.02a8.8 8.8 0 0 0 1.7-.02l.38-.06c.36-.06.71-.11 1.07-.09.96.04 1.7.02 2.58-.14.52-.1 1.02-.27 1.51-.44l.41-.14c.74-.24 1.51-.63 2.2-.97l.16-.09c.13-.07.28-.1.46-.15.2-.05.43-.11.66-.22.24-.12.44-.28.66-.44.11-.09.22-.17.35-.25.43-.27.9-.42 1.4-.59.38-.13.78-.26 1.17-.45.9-.44 1.76-.7 2.85-.98.9-.22 1.74-.6 2.58-.97.43-.19.88-.39 1.32-.55l.12-.05a41 41 0 0 1 4.58-1.53l.5-.11c.42-.1.86-.2 1.3-.34l.75-.27c.44-.16.85-.32 1.3-.41.56-.11 1.15-.2 1.73-.29l.1-.01 1.37-.23.68-.13c.8-.16 1.68-.35 2.41-.27l1.15.1 1.7.16c.62.06 1.25.04 1.87.02.81-.03 1.6-.06 2.31.11a21.06 21.06 0 0 1 3.23 1.07l.74.31.07.03c0 .09 0 .19-.02.28l-.04.35c-.06.45-.12.96-.09 1.37.03.34.21.67.37.96l.13.25.18.33c-.03.33-.09.64-.19.96-.1.33-.3.79-.66 1.15l-.94.44c-.38.19-.78.38-1.17.53-.29.12-.57.2-.83.29-.6.19-1.22.38-1.93.92l-.1.02-1.2.22c-.44.09-.9.15-1.37.2-.74.09-1.5.18-2.27.44l-1.05.32c-.67.19-1.36.38-1.99.69l-2.17 1.05-.78.38-.95.45-.08.03c-.44.2-.89.4-1.32.62-.4.21-.8.45-1.15.67-.3.19-.62.39-.94.56-.86.46-1.79.86-2.69 1.25l-1.23.54-.93.43c-.56.26-1.14.54-1.72.77-.97.39-1.93.72-2.86.97-.84.23-1.67.27-2.57.32l-1.14.07-1.16.12c-1.57.16-3.2.33-4.75.14Zm19.11 4.6-.16.08-.48.23c-.33.15-.67.31-.99.52-.5.33-.94.79-1.38 1.24l-.5.5c-.48.46-1 .7-1.63.97l-.49.22c-.38.18-.72.4-1.05.61-.36.23-.69.44-1.06.6-.99.42-2.09.72-3.17 1.02-2.13.59-4.33 1.19-5.99 2.78-.3.3-.66.59-1.03.9-.85.72-1.73 1.46-2.3 2.39-.27.41-.54.65-.92.99l-.15.14c-.29.27-.55.57-.76.81-.27.31-.52.6-.8.84-1 .82-2.74 1.55-4 1.3-.29-.06-.58-.19-.89-.32-.26-.11-.55-.24-.86-.33l-.3-.07a2.43 2.43 0 0 1-.26-.05c-.16-.3.05-.92.24-1.47.16-.46.31-.9.3-1.31 0-.19-.02-.37-.05-.55-.03-.27-.06-.48 0-.71.07-.29.2-.57.32-.88.11-.25.21-.51.3-.78a8.16 8.16 0 0 1 .61-1.42l.2-.47c.15-.36.3-.7.5-1 .68-1.02 1.73-1.69 2.74-2.34a44 44 0 0 1 .71-.45l.14-.09c.65-.41 1.4-.88 2.08-1.37l.6-.43c1.04-.73 2.11-1.48 2.86-2.6a5.46 5.46 0 0 0 .45-.83c.3-.51.9-.99 1.8-1.47l.06-.03a4.08 4.08 0 0 0 1.02-.64c.12-.1.17-.13.23-.13l.16.04c.06.02.13.01.2-.02.05-.03.1-.08.11-.15l.04-.13.46-.04 1.13-.07c.9-.05 1.81-.09 2.75-.35a25.93 25.93 0 0 0 4.74-1.81l.91-.43 1.27-.56c.9-.39 1.83-.79 2.71-1.27.34-.18.67-.39 1-.59a16.62 16.62 0 0 1 2.35-1.23c.35-.16.71-.32 1.05-.49l.77-.37 2.18-1.06c.56-.27 1.2-.45 1.85-.63.37-.1.73-.21 1.08-.33.67-.23 1.35-.31 2.1-.4l1.11-.15c-.4.42-.77.86-1.1 1.33-.6.86-1.37 1.62-2.1 2.36l-.07.06-.76.77a148.83 148.83 0 0 1-3.79 3.76c-.89.87-1.82 1.76-2.72 2.66-.55.55-1.06 1.14-1.64 1.84l-.08-.01a.29.29 0 0 0-.18.05.22.22 0 0 0-.09.17c0 .11-.02.15-.46.25-.38.12-.65.26-.92.4Zm2.52 16.14c-.78.83-1.65 1.6-2.5 2.35-1.05.93-2.14 1.89-3.08 2.99-.6.71-1.14 1.47-1.66 2.21-.62.88-1.26 1.79-2 2.59-.24.25-.47.55-.72.89-.55.75-1.18 1.6-1.86 1.63h-.06c-.98 0-1.42-1.22-1.82-2.31l-.15-.41c-.39-1 .4-1.89 1.22-2.83.23-.26.44-.5.63-.75.44-.58.8-1.21 1.14-1.84.2-.36.4-.73.62-1.08l.38-.58c.4-.6.8-1.22 1.1-1.92.26-.64.45-1.3.63-1.94.14-.5.3-1.06.5-1.57a31.73 31.73 0 0 1 1.73-3.57l.17-.31c.46-.85.74-1.76 1.01-2.66.27-.89.53-1.73.95-2.49.54-.98 1.34-1.91 2.15-2.86l.48-.57.7-.83c.62-.77 1.28-1.56 1.98-2.27.9-.9 1.81-1.79 2.71-2.66 1.26-1.22 2.57-2.49 3.81-3.78l.81-.82c.77-.76 1.56-1.55 2.21-2.48.56-.8 1.22-1.49 2.13-2.22 1.13-.19 2.23-.41 3.21-.93.5-.26.93-.63 1.37-.99l.31-.25.11-.1c.41-.17.82-.29 1.25-.41l.12-.03c.22-.06.42-.14.62-.23.6.64 1.18.99 1.98 1.46.4.23.71.48 1.03.73.38.29.72.55 1.11.76l-.16.21c-.5.76-1.1 1.5-1.7 2.24-.49.6-1.04 1.29-1.53 1.98l-.6.85a30.59 30.59 0 0 0-3.4 5.6 27.7 27.7 0 0 1-2.27 4l-.63.99c-2.2 3.54-5.23 6.2-8.39 8.83-.49.41-.97.85-1.4 1.31a56.25 56.25 0 0 0-4.24 4.07Zm12.46 3.74c-.23.58-.47 1.18-.73 2.16-.16.6-.34.99-.64 1.58-.14.29-.22.58-.28.84-.05.18-.09.35-.15.52-.14.35-.38.75-.59 1.11l-.2.34c-.18.29-.27.6-.36.91a3 3 0 0 1-.29.75c-.3.5-.74 1.09-1.23 1.66-.75.86-1.29 1.95-1.77 2.93l-.18.36c-.13.26-.37.51-.63.78-.18.19-.37.38-.53.59-.15.2-.3.46-.46.75a3.97 3.97 0 0 1-.92 1.25c-.4.21-1.64-.03-2.25-.28l-.27-.1a.24.24 0 0 1-.07-.03 6.87 6.87 0 0 1-.61-1.09c-.17-.34-.34-.7-.56-1.03a4.4 4.4 0 0 0-.26-.36 2.25 2.25 0 0 1-.43-.71c-.1-.36-.06-.85 0-1.35.02-.31.05-.63.03-.93-.05-1.35.07-2.72.21-4.25.05-.47.06-.95.08-1.42.02-.64.05-1.3.15-1.93.15-.93.45-1.9.71-2.76a16.41 16.41 0 0 1 2.1-3.97l.6-.93c.52-.86 1.2-1.7 1.96-2.49.88-.76 1.8-1.52 2.75-2.25 1.03-.8 2.07-1.58 3.1-2.36l.1-.07c1.32-1 2.7-2.04 4.02-3.09.9-.7 1.62-1.45 2.4-2.24l.35-.35.22-.21-.1.23c-.74 1.48-1.44 2.88-1.82 4.58-.1.44-.16.87-.2 1.3-.07.44-.13.89-.23 1.32-.1.43-.23.85-.36 1.28-.26.91-.54 1.85-.64 2.84a42.83 42.83 0 0 1-.6 4.08l-.4-.11a.25.25 0 0 0-.3.17c-.29.9-.5 1.45-.72 1.98Zm17.28-21.45c-.2.92-.43 1.97-.52 3.04l-.2.39a14.2 14.2 0 0 0-1.39 3 36.2 36.2 0 0 0-.79 3.51l-.12.64c-.18.91-.44 1.81-.7 2.71-.2.64-.4 1.3-.56 1.97-.12.5-.19 1.01-.26 1.47-.06.46-.14.98-.26 1.46-.15.57-.25 1.16-.33 1.67-.09.53-.19 1.09-.32 1.62-.33 1.27-.7 2.57-1.03 3.72l-.57 2a36.54 36.54 0 0 1-3.52 8.33 4.4 4.4 0 0 1-1.14 1.42 5.3 5.3 0 0 0-.5.46c-.22.21-.45.42-.64.52-.46.23-1.53-.16-2.17-.39l-.42-.15c-.56-.19-.68-.82-.82-1.55-.05-.25-.09-.5-.16-.73a8.96 8.96 0 0 1-.04-3.27c.07-.67.14-1.36.13-2.04 0-.51-.06-1.03-.1-1.49-.07-.75-.13-1.52-.06-2.26.1-.89.35-1.79.61-2.65l.13-.45a42.65 42.65 0 0 0 1.43-7.5c.1-.91.35-1.77.61-2.68.13-.43.25-.87.36-1.31.12-.49.18-.97.25-1.44.05-.4.11-.81.2-1.2a19.26 19.26 0 0 1 1.73-4.37l.72-1.48c.17-.38.36-.74.52-1.05l.05-.06.17-.21.86-1.13c.44-.57.88-1.14 1.3-1.71a22.77 22.77 0 0 0 3.04-5.24c.53-1.36 1.13-2.91 1-4.47a5.21 5.21 0 0 0-.13-.81l.33.1c.63.19 1.3.39 1.95.5.32.06.65.08.95.11.13.26.23.57.32.88.13.41.26.84.48 1.2.36.59.64 1.25.84 1.97-.1.68-.24 1.36-.36 2.04-.17.9-.34 1.84-.48 2.78-.08.71-.24 1.43-.39 2.13Zm6.34 38.16a2.38 2.38 0 0 1-.94-.57l-.45-.46c-.26-.28-.52-.57-.9-.82-.53-.36-.66-.58-.89-1.25-.13-.38-.29-.72-.45-1.06-.2-.45-.4-.87-.52-1.33l-.17-.82c-.1-.57-.22-1.11-.42-1.71-.2-.59-.18-1.29-.17-1.97.01-.39.02-.79 0-1.18a80.7 80.7 0 0 0-.29-2.94l-.08-.82-.2-1.83c-.1-.69-.19-1.4-.25-2.11-.06-.65-.06-1.31-.06-1.97 0-.49 0-.99-.02-1.49 0-.27-.03-.54-.06-.84-.05-.67-.1-1.31-.05-1.97l.02-.25c.1-1.34.2-2.61.08-4.04a31.41 31.41 0 0 1-.07-5.44c1.02-1.86 1.94-3.69 2.1-5.62.14-1.79.04-3.32-.3-4.68.15-1 .25-1.83.3-2.6.37-.05.78-.36 1.28-.76.4 0 .78-.04 1.16-.15.48-.14.96-.26 1.45-.38l1.3-.34a4.85 4.85 0 0 1 .96 1.36c0 .16-.03.33-.03.5-.03.61-.02 1.22 0 1.8v.29c0 .44.12.75.32 1.07a96.4 96.4 0 0 1-.1 2.35l-.06 1.12c-.07 1.45-.26 2.84-.46 4.31l-.15 1.14c-.14 1.1-.25 2.22-.35 3.31l.25.02-.26.05c-.13 1.38-.26 2.8-.47 4.17a80.25 80.25 0 0 0-.67 14.43l.02.56c.03 1 .07 1.94 0 2.93-.1 1.23-.18 2.45.04 3.74.16.91.23 1.84.3 2.76.07.84.14 1.72.27 2.59l.03.17c-.36.59-.67.8-1.04.73Zm2.47.81c-.13-.42-.26-.86-.37-1.32l.03-.05c.43.46.43.78.44 1.44l.01.32-.1-.39Zm3.07-14.47c-.12 1-.39 1.94-.68 2.94l-.12.42c-.24.86-.47 1.72-.7 2.62-.35 1.33-.7 2.71-1.12 4.03a5 5 0 0 1-1.03 1.7c-.06-.54-.1-1.09-.15-1.63-.07-.92-.15-1.87-.3-2.82-.2-1.19-.15-2.33-.05-3.5.08-1.05.05-2.01.02-3.04l-.02-.56c-.17-5.59.04-10.25.65-14.25.22-1.41.35-2.86.48-4.26.1-1.09.2-2.22.35-3.32l.14-1.05.01-.1c.2-1.48.4-2.88.46-4.38l.06-1.12.03-.58.02.09c.11.44.22.85.3 1.29l.02.23c.08.58.18 1.23.38 1.81.06.17.13.33.21.5.1.19.17.35.2.53.06.35.13.7.21 1.04l.08.38c.04.2.1.39.16.58.01.15.02.3.05.45l.06.33c.08.43.15.81.12 1.26-.08 1.13-.07 2.25-.07 3.34 0 .94 0 1.92-.05 2.89-.17 3.28-.1 6.27.2 8.88.18 1.63.32 3.39.08 5.3Zm15.3-12.45c.31.82.46 2.16.6 3.27.04.44.1.85.14 1.19l.11.64c.08.46.16.9.18 1.38.02.43.02.87.01 1.34 0 .61 0 1.25.05 1.88.17 1.96.3 4.08-.04 6.26-.23 1.53-.44 2.98-.85 4.46l-.17.61-.32 1.16-.04.16v.04l-.06-.01-.38-.11c-.7-.21-1.42-.43-2.14-.59a1.61 1.61 0 0 0-.37-.04c-.2 0-.38.03-.55.07l-.27.05c-.66.08-.88-.1-1.33-.8-.62-.98-1.1-2.02-1.59-3.51-.49-1.48-1-3.05-1.3-4.64l-.19-1.18-.19-1.2c-.09-.48-.23-.93-.37-1.37l-.18-.59a6.24 6.24 0 0 1-.18-1.51 8.4 8.4 0 0 0-.61-2.94l-.3-.97c-.12-.36-.22-.73-.36-1.1-.14-.37-.33-.72-.5-1.07-.13-.22-.24-.44-.35-.66-.47-1.02-.72-2.04-1-3.13l-.02-.06c-.1-.43-.22-.86-.34-1.3a6.82 6.82 0 0 0-.57-1.29c-.2-.39-.4-.76-.5-1.16-.13-.51-.2-.99-.26-1.49l-.08-.53c-.06-.43-.2-.8-.33-1.16l-.09-.24.01-.76a6.27 6.27 0 0 0-.32-2.56c-.13-.49-.25-.95-.3-1.44-.1-.73-.17-1.37-.58-2.11a9.35 9.35 0 0 1-1-2.46l-.13-.52-.02-.07-.15-.67-.02-.07a17.1 17.1 0 0 0-.18-1.74c.11-.64.3-1.12.58-1.48l.22-.24c.71-.27 1.32-.49 1.98-.67.57-.15 1.17-.35 1.77-.58l.07.02c.31.1.61.27.93.45.3.16.58.33.91.46.1.04.17.07.25.12l.01.05.03.21c.02.19.04.43.15.65.1.19.21.33.32.46.08.09.14.16.18.23.06.12.11.29.16.46l.14.42c.17.41.36.81.55 1.21.17.36.35.73.51 1.1l.24.61c.2.52.41 1.11.77 1.63.16.23.3.5.45.79.23.46.48.94.85 1.33.18.18.37.34.56.49.23.18.44.36.62.58.37.45.7.92 1.01 1.41.4.59.76 1.2 1.08 1.74l.34.56c.3 1.08.48 1.94.56 2.7a33.3 33.3 0 0 0 2.18 7.83Zm-9.1-23.22c.17.14.35.28.56.4a5.58 5.58 0 0 1 2.5 3.09l.11.35c.12.35.26.76.46 1.18l.76 1.41c.15.42.28.86.41 1.32.1.29.23.57.36.84.1.2.2.4.27.61l.1.29c-.26-.38-.53-.77-.84-1.14a5.1 5.1 0 0 0-.76-.72c-.17-.14-.33-.27-.48-.42a4.61 4.61 0 0 1-.69-1.1c-.15-.3-.3-.62-.5-.9-.3-.41-.48-.9-.67-1.41a17.32 17.32 0 0 0-.8-1.84c-.18-.37-.36-.74-.5-1.12a2.53 2.53 0 0 1-.12-.33c-.05-.15-.1-.33-.18-.51Zm27.43 20.68.22.46c.31.63.63 1.29.9 1.96l.22.58c.2.56.4 1.08.8 1.65a14.4 14.4 0 0 1 1.95 4.33c.14.46.16.94.18 1.45l.03.65c.03.37.12.73.22 1.08.11.42.22.82.2 1.19-.06.55-.2.95-.44 1.18-.15.15-.36.3-.58.45l-.42.32-.2.18c-.15.13-.27.25-.4.3-.2.08-.59.12-.85.14l-.36.04-.38.07c-.29.06-.6.11-.84.09a5.84 5.84 0 0 1-2.1-.93c-.32-.18-.62-.36-.9-.5-1.02-.5-1.63-1.46-2.28-2.48l-.25-.4c-.75-1.18-1.59-2.52-2.46-3.78a16.97 16.97 0 0 0-3.16-3.51c-.42-.38-.85-.76-1.23-1.16-.48-.49-.9-1.07-1.32-1.62-.4-.54-.82-1.1-1.3-1.62-.2-.23-.43-.45-.64-.67-.97-1-1.89-1.95-2.43-3.22l-.04-.09-.67-1.58c-.4-.94-.82-1.68-1.4-2.63l-.23-.35-.37-1.26c-.09-.28-.15-.58-.22-.88a9.18 9.18 0 0 0-.35-1.29c-.09-.23-.19-.45-.3-.68a6.39 6.39 0 0 1-.3-.7c-.13-.47-.27-.93-.45-1.42l-.79-1.47c-.16-.34-.28-.69-.4-1.06l-.13-.35a6.47 6.47 0 0 0-2.9-3.59 6.8 6.8 0 0 1-.94-.74 7.59 7.59 0 0 0-.97-.76l-.13-.22-.12-.2c-.15-.28-.15-.44-.15-.82v-.31c.6-.34 1.18-.7 1.72-1.08l.3-.21c.32.15.66.3 1.01.41 1.35.45 2.66.91 3.82 1.6.85.5 1.61 1.29 2.35 2.05a19.6 19.6 0 0 0 4.72 3.68c1.7.97 3.13 2.38 4.51 3.74.46.45.91.9 1.38 1.34.81.75 1.48 1.56 2.2 2.42l.61.73c.36.43.74.83 1.11 1.23.6.65 1.23 1.31 1.76 2.06l.21.29a15.7 15.7 0 0 1 1.5 2.37c.26.55.5 1.15.7 1.67.24.62.5 1.25.78 1.87Zm3.6-12.94 1.08.26.07.02c1.12.26 2.27.52 3.18 1.07l.55.35c.41.27.88.59 1.45.78.85.28 1.45.55 2 .9.33.21.67.34 1.01.47.2.08.4.16.6.26.48.24.98.54 1.43.81l.06.04.6.35.26.16c.63.36 1.28.72 1.7 1.24.56.7 1 1.39 1.3 2.05l.1.19c.6 1.3 1.15 2.52 1.34 3.89.08.61-.05 1.4-.42 2.41-.16.45-.6.46-1.89.02l-.42-.13-1.39-.4c-1.33-.38-2.7-.77-4.08-1.13l-.2-.05a3 3 0 0 0-.85-.15l-.17.01c-.2.02-.4.07-.57.13-.12.04-.23.07-.34.08-.44.06-.92-.1-1.4-.25a7.9 7.9 0 0 0-.53-.16l-.57-.13c-.4-.08-.8-.16-1.07-.31a4.7 4.7 0 0 1-1.16-1.03l-.06-.07a8.41 8.41 0 0 0-2.48-1.83c-.44-.23-.9-.42-1.39-.6a7.41 7.41 0 0 1-1.83-.9l.01-.09c.01-.04-.02-.14-.03-.18-.2-.59-.4-.93-.94-1.28a3.62 3.62 0 0 1-1.3-1.46.25.25 0 0 0-.33-.13l-.03.01c-.35-.41-.72-.8-1.07-1.18-.36-.39-.73-.79-1.08-1.2l-.53-.63-.08-.1c-.74-.88-1.43-1.72-2.28-2.51L110 83.76a23.36 23.36 0 0 0-4.7-3.88 18.15 18.15 0 0 1-3.54-2.54c-.33-.3-.64-.63-.98-.98a12.52 12.52 0 0 0-2.56-2.21c-.35-.21-.73-.4-1.14-.59.44-.03.87-.05 1.27 0a11.64 11.64 0 0 1 4.36 1.29c.3.14.57.28.87.41l1.07.45c.67.27 1.31.52 1.92.88a13.7 13.7 0 0 0 3.34 1.45c.46.13.93.24 1.43.36 1.02.23 2.17.5 3.08 1l.11.11c.68.69 1.4 1.4 2.21 1.99.47.34 1.01.67 1.6.99.16.17.33.34.52.49.33.27.68.48 1.02.69.31.18.62.37.9.59.81.66 1.38.96 2.34 1.22Zm-19-11.05.66.18 2.21.61c.52.14 1.02.37 1.51.59.33.15.67.3 1.04.44.95.36 2.01.76 2.94 1.4l-.94-.22a12.97 12.97 0 0 1-4.5-1.69c-.68-.4-1.38-.68-2.06-.96l-.07-.03-.79-.32Zm30.38-1.47.58.16c1.37.38 2.6.92 3.74 1.45.3.14.6.25.94.36.4.14.77.27 1.11.46.65.36 1.23.6 1.9.77l.27.07c.27.06.5.11.67.24.17.12.33.26.51.42.23.21.47.42.77.6a9.9 9.9 0 0 1 2.2 1.77l.04.05c.4.41.81.84 1.37 1.17l.4.24c.23.16.48.32.75.45.62.28.7.32.84.92l.05.19.06.23a4.86 4.86 0 0 1-1.28.25 6.4 6.4 0 0 0-1.1.17 3.3 3.3 0 0 0-2.05 1.5c-.5.67-1.33 1.08-2.53 1.23-.8.1-1.58.19-2.27.11-.34-.03-.67-.09-1.02-.14-.54-.08-1.1-.17-1.69-.18l-.47-.01a29.52 29.52 0 0 1-4.7-.34 22.88 22.88 0 0 0-3.84-.37 11.9 11.9 0 0 1-2.62-.42c-.34-.08-.68-.16-1.03-.22a25.86 25.86 0 0 1-7.2-2.4l-.18-.18a7.22 7.22 0 0 0-1.27-1.11c-.53-.34-1-.72-1.5-1.11l-.34-.27a5.89 5.89 0 0 0-.6-.4 17 17 0 0 0-1.52-1.4c-1.13-.92-2.45-1.41-3.6-1.85a12.3 12.3 0 0 1-.98-.42c-.5-.23-1.03-.47-1.65-.64l-2.22-.61-6.66-1.85c-.32-.09-.66-.16-1.04-.25-.66-.15-1.35-.3-1.89-.55a.88.88 0 0 1-.47-.46c.43-.75.78-1.4 1.1-2.02.27-.57.45-1.13.57-1.7.08-.1.15-.2.2-.3a.85.85 0 0 1 .1-.14c.04-.05.13-.09.24-.14.12-.06.24-.11.35-.19.16-.11.3-.24.46-.39.24.02.45.02.65-.02 1.08-.18 2-.54 2.98-.92l.2-.07c.4.08.75.13 1.15.09a14.8 14.8 0 0 1 2.44-.09c.71.04 1.42.01 2.12-.02.67-.03 1.36-.07 2.03-.02.85.05 1.57.29 2.32.55l.07.02.75.25c.36.11.73.2 1.14.3a15.79 15.79 0 0 1 2.18.7 22.32 22.32 0 0 0 2.82.88c.46.12.92.23 1.38.37.42.12.84.29 1.3.46.47.18.95.36 1.46.51 1.07.31 2.14.66 3.23 1.02l.75.25c.37.12.74.26 1.11.4a.2.2 0 0 0 .11.11l.94.49c.55.29 1.17.63 1.82.89 1.14.44 2.33.77 3.55 1.1Zm19.9-6.88c-.56.49-1.57.88-2.69 1.06-.34.05-.69.09-1.05.12-.59.05-1.2.11-1.8.28-.27.07-.52.17-.78.27l-.5.19-1 .28c-.36.09-.73.18-1.09.3-.43.14-.86.31-1.3.48-.53.2-1.08.42-1.62.57-.23.07-.93.27-1.57.36-.35.05-.7.03-1.08 0l-.7-.03c-.55 0-1.05.14-1.54.28-.46.13-.89.26-1.3.24-.24-.01-.46-.07-.7-.13-.29-.08-.6-.17-.98-.17l-.17.01-.49.04c-.48.03-.95.07-1.43.12l-.27.03c-.39.05-.66.08-.95 0-.27-.08-.54-.14-.8-.2a8.21 8.21 0 0 1-1.17-.32l-.56-.22c-.52-.2-1.06-.41-1.6-.59l-.74-.24c-1.06-.35-2.15-.71-3.27-1.03-.46-.13-.92-.31-1.39-.48-.42-.16-.89-.34-1.37-.48-.47-.14-.94-.26-1.44-.39s-1-.26-1.5-.41c-.4-.12-.83-.29-1.2-.43-.38-.15-.8-.31-1.24-.45a26 26 0 0 0-1.1-.3c-.34-.09-.7-.17-1.03-.28l-.72-.24-.07-.02a9.29 9.29 0 0 0-2.58-.6c-.7-.04-1.42-.01-2.14.02-.63.03-1.34.06-2.02.02-.28-.02-.56-.02-.83-.02a11.8 11.8 0 0 1 2.52-.56c1.2-.11 2.34-.14 3.52-.17a14.2 14.2 0 0 0 2-.24l.07-.01c.3-.05.57-.1.86-.13 1.7-.23 3.41-.39 5.11-.55 2.07-.2 4.2-.4 6.32-.73l.8-.13.22-.04c.75-.12 1.45-.23 2.2-.32a15.8 15.8 0 0 0 2.54-.55c.33-.1.64-.22.95-.35.46-.19.9-.36 1.37-.42.6-.08 1.3-.17 2-.36l.55.07c.21.03.41.07.63.09.6.06 1.22.06 1.77.07h.14l.7.02c.51.02 1.02.09 1.6.16l.7.09c.37.04.73.03 1.06.02.25-.01.48-.02.72 0 .62.03 1.2.18 1.8.34.47.12.95.25 1.47.32 1.46.21 2.92.64 4.34 1.06.68.2 1.4.41 2.1.59.55.15.84.46 1.26.91l.38.4c.52.52.7.81.63 1.49-.06.59-.23 1.01-.55 1.29Z"/>
</svg>
