<?xml version="1.0" encoding="UTF-8" standalone="no"?>
<!DOCTYPE svg PUBLIC "-//W3C//DTD SVG 1.1//EN" "http://www.w3.org/Graphics/SVG/1.1/DTD/svg11.dtd">
<svg width="100%" height="100%" viewBox="0 0 98 315" version="1.1" xmlns="http://www.w3.org/2000/svg" xmlns:xlink="http://www.w3.org/1999/xlink" xml:space="preserve" xmlns:serif="http://www.serif.com/" style="fill-rule:evenodd;clip-rule:evenodd;stroke-linejoin:round;stroke-miterlimit:2;">
    <g transform="matrix(1,0,0,1,-7870,-7585)">
        <g transform="matrix(1,0,0,0.832402,2405.5,5835.85)">
            <g transform="matrix(0.8775,0,0,1.05418,4645.04,1710.51)">
                <path d="M1044.92,406.5C1044.76,406.22 1044.51,406.05 1044.2,405.99C1043.38,405.84 1042.34,406.68 1041.93,407.05C1040.95,407.92 1040.41,409.13 1039.89,410.3C1039.79,410.53 1039.68,410.76 1039.58,410.98C1039.07,411.16 1038.6,411.24 1038.16,411.19C1037.67,411.14 1037.18,411.08 1036.66,411.01C1035.71,410.89 1034.72,410.76 1033.74,410.74C1032.26,410.71 1030.92,410.48 1029.65,410.02C1028.41,409.58 1027.16,409.32 1025.91,409.05C1025.29,408.92 1024.65,408.79 1024.02,408.63C1022.69,408.3 1021.14,408.13 1019.73,409.46C1019.57,409.61 1019.43,409.77 1019.29,409.94C1019.19,410.06 1019.09,410.17 1018.98,410.28C1018.57,410.69 1018.29,410.84 1017.77,411.12L1017.36,411.34C1017.05,411.51 1016.75,411.71 1016.42,411.93C1016.04,412.18 1015.64,412.45 1015.23,412.64C1014.67,412.9 1014.16,412.98 1013.56,413.07C1013.4,413.09 1013.24,413.12 1013.07,413.15C1011.85,413.36 1010.68,413.9 1009.53,414.43C1009.18,414.59 1008.84,414.75 1008.5,414.9C1008.23,415.02 1007.95,415.13 1007.67,415.24L1007.54,415.29C1006.8,415.59 1006.03,415.9 1005.33,416.28C1004.85,416.54 1004.46,416.87 1004.06,417.2C1003.89,417.34 1003.72,417.49 1003.54,417.62C1002.34,418.53 1001.54,419.58 1000.69,420.69L1000.22,421.3C999.1,422.74 998.19,423.97 997.54,425.61C997.21,426.42 996.74,427.19 996.27,427.93C995.8,428.68 995.32,429.45 994.96,430.31C994.32,431.86 993.98,433.39 993.94,434.87L993.94,435.12C993.93,435.73 993.92,436.21 993.74,436.78C993.5,437.51 993.46,438.1 993.48,438.77C993.49,439.57 993.49,440.38 993.49,441.18L993.49,441.29C993.49,441.83 993.48,442.37 993.49,442.91C993.49,443.52 993.44,443.97 993.28,444.54C993.19,444.88 993.06,445.17 992.91,445.49C992.81,445.7 992.71,445.92 992.62,446.17C992.27,447.1 992.28,448.03 992.3,448.94L992.31,449.3C992.32,450.23 992.32,451.16 992.32,452.09L992.32,453.44C992.32,454.49 992.32,455.25 991.9,456.19C991.82,456.37 991.75,456.55 991.67,456.75C991.6,456.94 991.52,457.13 991.44,457.31C991.32,457.56 991.15,457.79 990.96,458.05C990.8,458.26 990.64,458.49 990.49,458.75C990.44,458.84 990.39,458.94 990.34,459.03L990.31,459.09C990.12,459.46 989.97,459.74 989.71,460.01C989.6,460.11 989.48,460.2 989.36,460.29C989.11,460.47 988.82,460.68 988.61,461.02C988.19,461.7 988.13,462.43 988.1,463.05C988.08,463.67 987.9,464.31 987.72,464.93L987.67,465.11C987.58,464.99 987.48,464.89 987.39,464.79C987.34,464.74 987.3,464.69 987.27,464.65C987.19,464.53 987.09,464.36 987.01,464.21C986.99,464.16 986.98,464.13 986.98,464.02C987.01,463.97 987.05,463.88 987.07,463.76C987.12,463.51 987.1,463.27 987.09,463.03C987.08,462.92 987.08,462.82 987.08,462.71C987.09,462.57 987.11,462.42 987.14,462.25C987.17,462.07 987.2,461.88 987.21,461.68C987.24,461.04 987.23,460.44 987.18,459.9C987.17,459.76 987.15,459.62 987.13,459.45C987.09,459.16 987.05,458.87 987.08,458.61C987.1,458.43 987.19,458.22 987.28,458.02L987.39,457.75C987.5,457.48 987.62,457.2 987.76,456.98C987.89,456.79 988.04,456.6 988.21,456.41C988.35,456.24 988.49,456.08 988.64,455.87C989.17,455.14 989.67,454.46 989.18,453.34C989.06,453.06 988.91,452.8 988.77,452.54C988.69,452.4 988.61,452.25 988.54,452.1C988.3,451.63 988.15,451.01 988.03,450.46C988.02,450.42 988.02,450.38 988.02,450.33C988.02,450.21 988.01,450.03 987.92,449.82C987.74,449.42 987.36,449.1 987.01,448.81L986.87,448.69C986.4,448.27 985.95,447.9 985.52,447.58C985.49,447.56 985.45,447.53 985.42,447.51C985.2,447.27 984.97,447.15 984.73,447.14L984.11,447.12C983.99,447.11 983.91,447.18 983.87,447.27C983.83,447.37 983.85,447.48 983.93,447.55L984.37,447.98C984.5,448.1 984.65,448.19 984.77,448.26C984.83,448.34 984.9,448.43 984.95,448.5C985.08,448.68 985.2,448.85 985.36,448.98L985.45,449.05C985.56,449.14 985.58,449.15 985.61,449.21C985.75,449.5 985.81,449.9 985.88,450.3C985.91,450.47 985.93,450.63 985.97,450.79L986.03,451.06C986.15,451.63 986.26,452.16 986.26,452.73L986.26,452.8C986.26,453.02 986.26,453.12 986.2,453.27C985.8,454.24 985.38,455.2 984.95,456.14C984.62,456.85 984.31,457.46 984,458.01C983.92,458.15 983.84,458.28 983.75,458.41C983.82,458.24 983.89,458.07 983.98,457.89C984.16,457.53 984.15,457.22 984.15,456.92L984.15,456.81C984.15,456.17 984.1,455.63 983.86,455.07C983.79,454.91 983.72,454.77 983.64,454.61C983.55,454.43 983.46,454.26 983.4,454.09C983.29,453.76 983.26,453.37 983.23,452.99L983.22,452.9C983.21,452.74 983.17,452.61 983.14,452.51C983.12,452.45 983.1,452.39 983.1,452.36C983.11,452.14 983.09,451.93 983.07,451.75C983.04,451.45 983.02,451.23 983.12,451L983.45,450.2C983.49,450.1 983.46,449.98 983.37,449.91C983.28,449.84 983.16,449.84 983.07,449.91L982.38,450.44C981.8,450.89 981.13,451.39 980.73,452.12C980.23,453.01 979.96,454.34 980,455.68L980.01,455.98C980.02,456.29 980.04,456.57 980,456.85C979.92,457.45 979.71,458.08 979.52,458.61C979.5,458.43 979.48,458.26 979.43,458.09C979.39,457.74 979.24,457.42 979.02,457.2C978.96,457.14 978.91,457.1 978.86,457.05C978.85,457.04 978.84,457.03 978.83,457.02L978.83,457.01C978.84,456.89 978.85,456.78 978.87,456.66C978.9,456.42 978.93,456.15 978.9,455.85C978.88,455.7 978.86,455.56 978.83,455.39C978.8,455.2 978.77,455.02 978.76,454.83C978.69,453.83 978.72,452.9 978.85,452.07C978.93,451.53 979.06,451.05 979.22,450.61L979.27,450.47C979.36,450.22 979.54,449.75 979.7,449.61C979.75,449.57 979.78,449.51 979.79,449.44C979.8,449.37 979.78,449.31 979.73,449.26L979.43,448.9C979.34,448.8 979.18,448.79 979.08,448.87C977.69,450.03 976.21,451.43 976.14,453.31C976.13,453.49 976.14,453.68 976.15,453.86C976.16,454.17 976.18,454.46 976.1,454.71C976.02,455 975.8,455.26 975.58,455.54C975.45,455.7 975.32,455.87 975.2,456.04C974.29,457.42 974.49,459.04 974.69,460.62C974.76,461.2 974.84,461.78 974.85,462.35C974.52,461.76 974.18,461.21 973.82,460.68C973.78,460.62 973.73,460.56 973.64,460.47C973.62,460.43 973.6,460.34 973.54,460.26C973.49,460.19 973.44,460.14 973.38,460.09C973.38,460.07 973.37,460.05 973.36,460.02C973.34,459.93 973.31,459.81 973.26,459.69C973.08,459.33 972.83,459.05 972.57,458.78C972.43,458.64 972.3,458.5 972.19,458.35C971.79,457.8 971.58,457.3 971.57,456.84C971.57,456.8 971.57,456.75 971.58,456.69C971.59,456.52 971.61,456.31 971.53,456.1C971.48,455.98 971.39,455.85 971.19,455.59L971.13,455.51C970.91,455.19 970.62,455 970.36,454.85L970.23,454.77C969.73,454.48 969.3,454.24 968.88,454.28L968.62,454.3C968.59,454.3 968.57,454.31 968.55,454.32L968.55,454.2C968.55,453.98 968.57,453.74 968.59,453.51C968.63,452.97 968.68,452.42 968.55,451.89C968.5,451.68 968.39,451.55 968.31,451.47C968.29,451.41 968.31,451.28 968.32,451.17C968.34,451.01 968.36,450.83 968.34,450.65C968.26,450.03 968.01,449.49 967.78,448.96C967.68,448.73 967.57,448.5 967.48,448.26C967.39,448.01 967.32,447.74 967.25,447.47C967.18,447.18 967.1,446.88 966.99,446.58C966.91,446.37 966.83,446.17 966.74,445.95C966.56,445.51 966.38,445.09 966.29,444.63C966.1,443.67 965.93,442.71 965.75,441.74C965.24,438.94 964.71,436.05 963.92,433.26C963.63,432.21 963.22,431.22 962.82,430.26L962.79,430.18C962.65,429.84 962.51,429.49 962.37,429.14L962.22,428.76C961.9,427.94 961.57,427.09 961.1,426.28C960.72,425.64 960.27,425.08 959.8,424.49C959.67,424.33 959.55,424.18 959.42,424.02C958.74,423.15 958.49,422.07 958.22,420.93C957.95,419.77 957.66,418.57 956.9,417.54C956.7,417.27 956.49,417 956.27,416.72C955.8,416.11 955.31,415.48 954.92,414.85C954.63,414.37 954.39,413.83 954.16,413.32C953.92,412.77 953.67,412.21 953.34,411.67C952.93,411 952.52,410.32 952.11,409.65C950.86,407.57 949.56,405.42 948.16,403.37C946.39,400.76 945.05,398.05 944.06,395.08C943.67,393.91 943.37,392.69 943.08,391.51C942.83,390.49 942.57,389.44 942.25,388.41C942.11,387.97 941.97,387.53 941.83,387.07C941.58,386.28 941.32,385.46 941.09,384.64C940.9,383.98 940.74,383.36 940.61,382.75C940.56,382.52 940.5,382.29 940.43,382.06C940.27,381.47 940.13,380.96 940.22,380.35C940.26,380.07 940.28,379.78 940.3,379.5C940.33,379.06 940.36,378.61 940.49,378.24C940.65,377.82 940.73,377.44 940.82,377L940.88,376.69C941.04,375.94 941.24,375.23 941.44,374.71C941.59,374.3 941.79,374.04 942.11,373.82L942.21,373.75C942.39,373.63 942.53,373.53 942.68,373.51C942.73,373.5 942.78,373.51 942.87,373.51C943.03,373.52 943.22,373.54 943.44,373.47L943.78,373.37C943.86,373.34 943.92,373.28 943.95,373.2C943.97,373.12 943.96,373.03 943.9,372.97L943.67,372.7C943.51,372.51 943.31,372.43 943.14,372.36C943.1,372.35 943.07,372.33 943.03,372.31C942.93,372.25 942.84,372.18 942.74,372.1C942.62,372 942.49,371.9 942.32,371.8C942.12,371.68 941.89,371.53 941.46,371.59C940.63,371.7 940.23,372.22 939.95,372.72C939.49,373.53 939.08,374.36 938.69,375.17C938.31,375.95 937.87,376.84 937.4,377.66L937.26,377.9C937,378.36 936.72,378.82 936.54,379.35C936.38,379.79 936.3,380.25 936.2,380.74C936.17,380.92 936.13,381.1 936.09,381.27C935.95,381.92 935.7,382.55 935.45,383.18C935.27,383.63 935.07,384.14 934.92,384.66C934.77,385.17 934.82,385.56 935.08,386C935.35,386.45 935.46,386.65 935.55,387.16C935.6,387.47 935.69,387.75 935.77,388.03C935.88,388.41 935.99,388.76 935.99,389.15C935.99,389.7 936.07,390.23 936.14,390.74C936.23,391.39 936.32,392 936.26,392.61C936.21,393.09 936.17,393.57 936.13,394.06C936.07,394.79 936,395.54 935.92,396.27L935.9,396.45C935.84,396.97 935.8,397.34 935.57,397.73C935.11,398.51 935.38,399.44 935.59,400.12L935.69,400.46C935.87,401.1 936.08,401.82 936.59,402.36C936.85,402.64 937.16,402.8 937.44,402.96C937.61,403.06 937.78,403.15 937.91,403.25C938.21,403.49 938.43,403.84 938.66,404.21L938.77,404.39C939.68,405.82 940.39,407.45 941.08,409.02C941.33,409.59 941.57,410.15 941.83,410.71C942.57,412.33 943.39,414.25 943.84,416.3C944.02,417.12 944.17,417.96 944.32,418.77C944.63,420.53 944.96,422.35 945.61,424.08C945.9,424.83 946.25,425.55 946.59,426.24C946.89,426.84 947.19,427.46 947.44,428.08C947.98,429.42 948.39,430.54 948.73,431.63C949.01,432.51 949.24,433.41 949.46,434.28C949.62,434.92 949.79,435.56 949.97,436.2C950.23,437.1 950.55,437.99 950.85,438.86C951.06,439.46 951.27,440.05 951.46,440.65C951.7,441.4 951.92,442.15 952.15,442.93C952.68,444.74 953.23,446.61 954.05,448.37L954.22,448.74C954.47,449.26 954.7,449.75 954.88,450.29C954.92,450.41 954.95,450.54 955,450.7C955.07,450.99 955.16,451.31 955.31,451.6C955.46,451.9 955.65,452.13 955.85,452.37C956,452.56 956.15,452.74 956.25,452.93C956.6,453.58 957.04,454.03 957.51,454.52L957.6,454.61C958.19,455.22 958.49,456 958.84,456.87C958.91,457.06 958.99,457.25 959.07,457.44C959.27,457.93 959.48,458.41 959.7,458.89C960.08,459.76 960.48,460.65 960.8,461.55C960.89,461.8 960.97,462.06 961.05,462.33C961.13,462.59 961.21,462.85 961.3,463.1C961.44,463.5 961.64,463.7 961.84,463.9C961.89,463.95 961.93,464 961.98,464.06C962.07,464.16 962.15,464.26 962.26,464.4C962.52,464.72 962.79,465.06 963.15,465.37C963.51,465.68 963.58,465.97 963.7,466.46C963.75,466.64 963.8,466.84 963.86,467.05C964.02,467.52 964.24,468.11 964.59,468.51C964.88,468.84 965.07,468.93 965.4,469.08L965.46,469.11C965.94,469.32 966.37,469.61 966.86,470.02C967.52,470.58 968.15,471.21 968.76,471.83L968.91,471.98C969.18,472.26 969.49,472.52 969.81,472.8C970.21,473.15 970.63,473.51 970.94,473.88C971.11,474.08 971.17,474.32 971.25,474.66C971.27,474.74 971.29,474.82 971.31,474.89C971.39,475.18 971.5,475.44 971.61,475.69C971.7,475.89 971.78,476.08 971.84,476.28C972.04,476.93 971.99,477.65 971.95,478.41C971.91,479.07 971.87,479.76 971.99,480.44C972.07,480.88 972.22,481.3 972.37,481.7C972.49,482.02 972.6,482.32 972.67,482.63C972.7,482.77 972.74,482.91 972.78,483.08C972.87,483.43 972.96,483.76 973,484.11C973.02,484.24 973.02,484.38 973.02,484.53C973.02,484.9 973.02,485.32 973.22,485.69C973.31,485.86 973.4,485.99 973.48,486.13C973.62,486.36 973.74,486.54 973.83,486.82C973.97,487.25 974.17,487.61 974.5,488.04C975.57,489.42 975.56,491.48 975.44,493.12L975.38,493.83C975.3,494.74 975.23,495.59 975.24,496.52L975.24,497.76C975.21,497.89 975.17,498.02 975.12,498.15C974.94,498.67 974.91,499.18 974.88,499.67C974.86,500.04 974.84,500.39 974.76,500.73C974.57,501.51 974.36,502.43 974.28,503.37C974.24,503.83 974.13,504.27 974.02,504.74C973.91,505.18 973.8,505.64 973.75,506.11C973.64,507.08 973.49,508.07 973.3,509.19C973.2,509.57 973.11,509.96 973.03,510.32C972.76,511.03 972.32,511.68 971.84,512.36C971.05,513.5 970.24,514.67 970.24,516.23L970.24,516.39C970.24,517.3 970.24,518.15 970.1,519.05C969.76,521.23 969.11,523.54 968.11,526.1C967.96,526.48 967.77,526.84 967.58,527.21C967.46,527.44 967.34,527.67 967.23,527.9C966.96,528.48 966.83,529.04 966.7,529.59C966.66,529.76 966.62,529.92 966.58,530.09C966.2,531.58 965.57,533.09 964.96,534.56C964.74,535.08 964.52,535.6 964.32,536.12C963.64,537.82 963.26,539.18 963.04,540.66C962.86,541.87 962.49,543.18 962.12,544.46L961.92,545.16C961.58,546.36 961.26,547.7 960.92,549.36C960.72,550.31 960.54,551.26 960.35,552.21C960,554.03 959.63,555.92 959.17,557.75C958.68,559.71 958.3,561.71 957.92,563.68C957.34,566.71 956.74,569.84 955.74,572.8C955.46,573.63 955.05,574.41 954.66,575.18C954.35,575.77 954.04,576.38 953.77,577.03C953.52,577.65 953.42,578.27 953.33,578.89C953.29,579.14 953.25,579.4 953.2,579.66C953.14,579.96 953.07,580.26 953,580.56L952.98,580.63C952.75,581.63 952.51,582.67 952.5,583.74C952.49,584.74 952.5,585.75 952.5,586.76C952.5,587.35 952.51,587.95 952.51,588.54C952.51,589.13 952.52,589.72 952.54,590.33C952.57,591.72 952.61,593.16 952.45,594.52L952.43,594.66C952.31,595.69 952.19,596.76 951.91,597.75C951.75,598.32 951.69,598.86 951.63,599.38C951.6,599.65 951.57,599.93 951.53,600.21C951.32,601.51 951.07,602.91 950.59,604.31C950.25,605.31 949.93,606.51 950.11,607.81C950.15,608.13 950.21,608.44 950.28,608.76C950.38,609.29 950.48,609.79 950.49,610.32C950.5,611.42 950.26,612.54 950.03,613.63C949.91,614.18 949.79,614.74 949.7,615.31C949.31,617.75 949.47,620.23 949.62,622.63C949.7,623.92 949.78,625.25 949.78,626.56C949.77,629.93 949.69,633.06 949.54,636.13L949.5,636.9C949.38,639.16 949.26,641.5 949.71,643.83C949.82,644.41 949.97,644.99 950.11,645.5C950.32,646.27 950.53,647.07 950.61,647.88C950.72,648.95 950.89,650.02 951.05,651.06C951.12,651.49 951.19,651.93 951.25,652.37C951.37,653.19 951.47,654.04 951.57,654.91C951.69,655.98 951.82,657.09 952,658.19C952.11,658.84 952.31,659.44 952.51,660.02C952.67,660.48 952.83,660.96 952.93,661.44C953.15,662.48 953.16,663.57 953.17,664.64C953.18,665.96 953.19,667.32 953.6,668.68C953.84,669.48 954.14,670.27 954.45,671.08C954.65,671.6 954.84,672.12 955.02,672.64C955.11,672.89 955.19,673.15 955.27,673.4C955.6,674.41 955.95,675.46 956.53,676.45C956.74,676.8 956.96,677.14 957.19,677.48C957.67,678.2 958.12,678.88 958.4,679.66C958.56,680.1 958.65,680.59 958.75,681.07C958.88,681.72 959.01,682.39 959.31,683.03C959.72,683.91 960.13,684.86 960.63,686.09C960.73,686.97 960.92,687.76 961.22,688.48C961.42,688.97 961.67,689.38 961.92,689.78L961.99,689.89L962.17,690.46C962.26,690.79 962.34,691.12 962.44,691.46C962.51,691.71 962.62,691.93 962.72,692.13L962.8,692.29C963.08,692.87 963.24,693.39 963.44,694.04C963.47,694.15 963.57,694.24 963.7,694.22C963.7,694.68 963.68,695.15 963.67,695.63C963.6,698.64 963.54,701.75 964.84,704.6C965.27,705.53 965.82,706.38 966.35,707.21L966.75,707.83C967.51,709.03 967.85,710.14 968.29,711.54L968.31,711.6C969.52,715.5 971.72,719.11 973.88,722.48C974.65,723.69 975.49,724.73 976.35,725.77C976.7,726.2 976.92,726.64 977.16,727.11C977.3,727.39 977.45,727.69 977.62,727.98C978.03,728.66 978.94,729.16 979.79,729.16C980.05,729.16 980.29,729.12 980.52,729.04L980.67,728.99C980.76,728.96 980.83,728.87 980.83,728.77L980.84,728.61C980.86,728.17 980.59,727.85 980.38,727.58C980.3,727.49 980.2,727.37 980.17,727.29C980.1,727.14 980.07,726.96 980.03,726.76C979.99,726.54 979.95,726.29 979.84,726.04C979.71,725.75 979.55,725.58 979.41,725.44C979.36,725.39 979.32,725.35 979.27,725.29C979.03,725.01 978.93,724.77 978.78,724.41L978.67,724.16C978.53,723.84 978.4,723.53 978.24,723.18C977.79,722.16 977.36,721.19 977.01,720.11C976.67,719.07 976.24,718.07 975.82,717.1C975.36,716.03 974.88,714.93 974.54,713.78L974.32,713.03C973.96,711.78 973.59,710.49 973,709.25C972.62,708.44 972.21,707.56 971.87,706.58C970.55,702.86 968.79,699.29 967.1,695.84C964.29,690.11 961.37,684.19 960.46,677.54C960.02,674.32 960.02,670.99 960.03,667.77C960.03,665.53 960.03,663.22 959.89,660.95C959.49,654.71 957.97,648.55 956.5,642.59C955.23,637.43 953.91,632.09 953.33,626.75C951.58,610.48 956.78,595.18 961.81,580.38C962.81,577.44 963.84,574.4 964.82,571.37C965.08,570.57 965.62,570.15 966.31,569.6C966.52,569.43 966.74,569.26 966.97,569.06C967.3,568.77 967.5,568.51 967.69,568.24C967.77,568.14 967.85,568.03 967.94,567.91C968.2,567.58 968.54,567.31 968.9,567.03C969.27,566.74 969.66,566.43 969.99,566.03C970.1,565.9 970.22,565.76 970.34,565.62L970.4,565.55C970.7,565.21 971,564.86 971.26,564.49C971.47,564.19 971.65,563.88 971.83,563.58C972.08,563.16 972.31,562.77 972.61,562.41C972.86,562.12 973.02,561.92 973.2,561.53C973.4,561.09 973.59,560.62 973.79,560.11C973.91,559.81 974.03,559.51 974.15,559.22C974.6,558.17 974.97,557.43 975.67,556.55C976.21,555.87 976.56,555.2 976.93,554.48L977.14,554.08C977.37,553.64 977.62,553.21 977.87,552.78C978.51,551.68 979.17,550.54 979.52,549.22C980.56,545.35 983.73,540.48 986.28,536.55C986.67,535.95 987.04,535.37 987.39,534.84C990.54,529.92 994.78,525.73 999.67,522.74C1001,521.93 1002.39,521.18 1003.75,520.46C1006.57,518.96 1009.48,517.4 1011.87,515.19C1013.66,513.54 1015.13,511.55 1016.56,509.63C1018.38,507.18 1020.26,504.64 1022.76,502.91C1023.8,502.19 1025.01,501.56 1026.18,500.95C1028.91,499.53 1031.73,498.05 1032.94,495.17C1033.13,494.72 1033.23,494.21 1033.33,493.72C1033.47,493.03 1033.61,492.32 1033.97,491.91C1034.11,491.75 1034.31,491.58 1034.51,491.43C1034.62,491.34 1034.73,491.26 1034.82,491.17L1034.9,491.1C1035.53,490.55 1036.18,489.97 1036.58,489.18C1036.87,488.59 1037.03,487.27 1036.31,486.72C1036.04,486.51 1035.74,486.5 1035.54,486.48C1035.48,486.48 1035.4,486.47 1035.4,486.48C1035.4,486.48 1035.39,486.46 1035.37,486.41C1035.3,486.18 1035.31,485.8 1035.32,485.46C1035.32,485.26 1035.33,485.07 1035.32,484.88C1035.3,484.55 1035.29,484.27 1035.4,484.05C1035.55,483.75 1035.83,483.64 1036.21,483.48C1036.51,483.36 1036.85,483.22 1037.14,482.97L1037.22,482.9C1037.27,482.85 1037.3,482.79 1037.3,482.72L1037.3,482.62C1037.31,482.28 1037.25,481.89 1037.12,481.44C1037.34,481.22 1037.51,480.99 1037.63,480.72C1037.95,479.97 1037.48,479.1 1036.84,478.75C1036.3,478.46 1035.75,478.58 1035.44,479.06L1035.38,479.15C1035.34,479.21 1035.33,479.29 1035.35,479.36L1035.38,479.46C1035.48,479.76 1035.6,480.09 1035.74,480.43C1035.82,480.64 1035.91,480.85 1035.99,481.07C1035.81,481.18 1035.62,481.28 1035.43,481.39C1035.23,481.5 1035.04,481.6 1034.85,481.72C1034.08,482.19 1033.46,482.85 1032.87,483.48C1032.4,483.98 1031.91,484.5 1031.36,484.9C1031.24,484.99 1031.11,485.06 1030.96,485.13C1030.67,485.28 1030.35,485.44 1030.09,485.79C1030.01,485.9 1029.96,486.01 1029.91,486.12C1029.88,486.19 1029.85,486.26 1029.82,486.29C1029.72,486.39 1029.61,486.46 1029.2,486.36C1028.92,486.29 1028.62,486.12 1028.34,485.95C1027.94,485.72 1027.53,485.48 1027.08,485.42C1027.05,485.41 1026.29,485.3 1025.96,485.44C1025.22,485.75 1025.43,486.8 1025.59,487.58C1025.62,487.75 1025.65,487.89 1025.66,487.99C1025.72,488.83 1025.68,489.46 1025.52,489.98C1025.21,490.98 1024.25,491.81 1023.33,492.62C1022.69,493.18 1022.09,493.7 1021.65,494.3C1020.76,495.52 1020.02,497.4 1019.77,499.11C1019.7,499.55 1019.71,499.94 1019.72,500.28C1019.73,500.99 1019.74,501.37 1019.1,501.89C1018.72,502.19 1018.36,502.48 1018.1,503.01C1018.04,503.12 1018,503.23 1017.96,503.34C1017.91,503.49 1017.87,503.6 1017.79,503.69C1017.68,503.82 1017.51,503.92 1017.32,504.04C1017.09,504.18 1016.82,504.34 1016.6,504.6C1016.22,505.04 1015.97,505.53 1015.72,506.02C1015.52,506.41 1015.34,506.77 1015.09,507.09C1014.67,507.65 1014.26,508.24 1013.86,508.81C1012.63,510.58 1011.37,512.4 1009.53,513.49C1009.04,513.78 1008.58,514.14 1008.12,514.51C1007.87,514.71 1007.62,514.9 1007.37,515.09C1006.99,515.37 1006.58,515.55 1006.15,515.74C1005.88,515.86 1005.61,515.98 1005.34,516.13C1004.87,516.38 1004.42,516.67 1003.95,516.97C1003.51,517.25 1003.05,517.55 1002.59,517.79C1000.66,518.81 998.61,519.88 996.53,520.77L996.3,520.87C995.19,521.34 993.81,521.92 992.96,522.77C991.81,523.93 990.73,525.39 989.79,526.68L989.57,526.98C988.52,528.41 987.73,529.78 987.15,531.16C986.62,532.42 985.77,533.52 984.93,534.6C984.36,535.33 983.78,536.09 983.28,536.9C982.74,537.79 982.22,538.68 981.69,539.57C981.04,540.68 980.3,541.93 979.57,543.11C977.53,546.4 975.86,550.3 974.63,554.69C974.54,555 974.47,555.31 974.39,555.64C974.16,556.57 973.95,557.45 973.45,558.2C972.69,559.34 971.52,560.38 970.66,561.15C968.73,562.86 967.26,564.23 965.87,565.59C965.57,565.88 965.27,566.17 964.98,566.46L964.92,566.52C963.61,567.78 962.26,569.09 961.16,570.64C960.41,571.69 959.65,572.42 958.58,573.32C958.52,573.37 958.46,573.42 958.39,573.48C958.41,573.32 958.42,573.16 958.43,573.01C958.46,572.64 958.48,572.32 958.61,571.96C959.09,570.65 959.59,569.3 960.18,568.01C960.35,567.65 960.54,567.3 960.73,566.95C960.9,566.64 961.07,566.33 961.22,566.02C961.52,565.4 961.7,564.89 961.84,564.29C962.21,563.88 962.38,563.37 962.35,562.83C962.54,561.66 962.68,560.46 962.76,559.28C962.86,558.04 962.99,557.04 963.31,555.9C963.63,554.94 963.84,553.94 963.94,552.89C963.92,552.28 964.02,551.69 964.2,551.14C964.32,550.85 964.47,550.56 964.62,550.28C964.79,549.95 964.98,549.58 965.14,549.18C965.51,548.22 965.69,547.24 965.85,546.29C965.98,545.55 966.12,544.78 966.35,544.06C966.45,543.76 966.54,543.46 966.64,543.16C966.98,542.12 967.3,541.14 967.52,540.02C967.72,538.97 967.98,537.98 968.2,537.15C968.4,536.41 968.52,535.65 968.63,534.92C968.72,534.33 968.82,533.72 968.96,533.13C969.44,531.13 969.79,529.34 970.09,527.5C970.26,526.46 970.5,525.37 970.84,524.07C971.06,523.25 971.3,522.43 971.54,521.6C971.84,520.57 972.16,519.5 972.42,518.43C972.77,516.99 973.05,515.51 973.33,514.06C973.56,512.83 973.78,511.71 974.01,510.64C974.11,510.36 974.18,510.1 974.23,509.84L974.33,509.32C974.55,508.48 974.82,507.63 975.08,506.81C975.29,506.17 975.5,505.51 975.68,504.85C975.76,504.57 975.81,504.29 975.85,504.04C975.92,503.63 975.99,503.24 976.17,502.9C976.36,502.52 976.56,502.17 976.77,501.81C977.17,501.11 977.58,500.38 977.88,499.54C977.98,499.27 978.08,499.01 978.18,498.74C978.33,498.36 978.47,497.97 978.6,497.59C979.19,495.81 979.6,493.58 979.72,491.45C979.77,490.65 980.01,490.02 980.29,489.3L980.39,489.03C980.62,488.44 980.8,487.84 980.99,487.24C981.25,486.39 981.52,485.51 981.91,484.71C982.11,484.3 982.3,483.86 982.5,483.38C982.64,483.05 982.78,482.72 982.92,482.42C983.2,481.81 983.46,481.14 983.7,480.45C983.8,480.15 983.87,479.82 983.93,479.51C984.01,479.13 984.08,478.78 984.21,478.48C984.27,478.35 984.38,478.2 984.51,478.04C984.62,477.9 984.74,477.75 984.84,477.58C984.97,477.36 985.07,477.14 985.17,476.91C985.36,476.47 985.52,476.13 985.86,475.9C986.81,475.26 988,474.47 989.2,474.26C989.34,474.24 989.51,474.25 989.68,474.27C990.1,474.31 990.79,474.39 991.17,473.6C991.28,473.37 991.34,473.13 991.4,472.91C991.46,472.7 991.51,472.5 991.6,472.33C991.94,471.67 992.46,471.05 992.96,470.45C993.25,470.11 993.54,469.75 993.81,469.38C994.27,468.75 994.78,468.29 995.38,467.76C996.09,467.12 996.58,466.87 997.44,466.69C997.83,466.61 998.22,466.55 998.61,466.49C998.92,466.44 999.24,466.39 999.55,466.34C999.85,466.29 1000.19,466.25 1000.53,466.23C1001.48,466.15 1002.56,466.05 1003.32,465.41C1004.03,464.81 1004.54,464.05 1005.03,463.31C1005.49,462.62 1005.97,461.91 1006.59,461.38C1007.56,460.56 1008.82,460 1010.04,459.45C1010.55,459.22 1011.07,458.99 1011.56,458.74C1012.26,458.39 1012.84,457.94 1013.42,457.5C1013.86,457.16 1014.32,456.81 1014.82,456.52C1015.44,456.16 1016.11,455.99 1016.82,455.8C1017.72,455.56 1018.64,455.32 1019.49,454.69C1020.12,454.22 1021.01,453.5 1021.53,452.68C1021.82,452.22 1022.01,451.68 1022.21,451.13C1022.3,450.87 1022.39,450.62 1022.49,450.38C1022.75,449.78 1022.85,449.11 1022.95,448.46C1022.98,448.23 1023.02,448.01 1023.06,447.8C1023.13,447.44 1023.18,447.08 1023.24,446.71C1023.37,445.89 1023.49,445.11 1023.74,444.34L1023.79,444.18C1024.06,443.35 1024.31,442.57 1024.41,441.66C1024.46,441.17 1024.6,440.77 1024.76,440.3L1024.85,440.03C1024.99,439.61 1025.1,439.2 1025.2,438.79C1025.32,438.34 1025.44,437.87 1025.6,437.43C1025.68,437.22 1025.77,437 1025.86,436.79C1026.01,436.42 1026.17,436.03 1026.29,435.63C1026.41,435.23 1026.47,434.83 1026.53,434.47C1026.59,434.11 1026.64,433.76 1026.74,433.43L1026.79,433.25C1026.93,432.79 1027.08,432.27 1027.34,431.94L1027.41,431.85C1027.85,431.31 1028.11,430.98 1028.17,429.97C1028.24,428.73 1028.15,427.48 1028.05,426.25C1027.98,425.36 1027.91,424.43 1027.91,423.54C1027.91,423.42 1027.91,423.29 1027.9,423.15C1027.89,422.55 1027.87,421.88 1028.11,421.44C1028.32,421.05 1028.76,420.73 1029.19,420.41C1029.36,420.28 1029.53,420.16 1029.68,420.04C1029.88,419.87 1030.06,419.69 1030.23,419.51C1030.42,419.31 1030.6,419.13 1030.8,418.98C1031.29,418.62 1031.93,418.36 1032.56,418.11C1032.98,417.94 1033.41,417.77 1033.81,417.57C1034.58,417.17 1035.28,416.7 1035.97,416.24L1036.26,416.04C1036.44,415.92 1036.57,415.78 1036.71,415.62C1036.77,415.56 1036.82,415.5 1036.89,415.44C1037.01,415.34 1037.15,415.28 1037.32,415.21C1037.46,415.15 1037.63,415.08 1037.81,414.96C1038.68,414.4 1039.46,413.49 1040.14,412.25C1040.22,412.11 1040.29,411.96 1040.37,411.81C1041.06,411.51 1041.68,411.09 1042.24,410.73C1043.07,410.18 1043.62,409.41 1044.16,408.6C1045.03,407.24 1045.11,406.82 1044.92,406.5ZM1018.88,503.36C1019.05,503.02 1019.27,502.84 1019.66,502.53C1020.64,501.75 1020.62,500.95 1020.61,500.16C1020.6,499.85 1020.6,499.53 1020.65,499.17C1020.88,497.61 1021.55,495.89 1022.36,494.79C1022.73,494.29 1023.29,493.8 1023.89,493.27C1024.92,492.38 1025.98,491.45 1026.37,490.19C1026.57,489.56 1026.63,488.81 1026.55,487.84C1026.54,487.72 1026.5,487.53 1026.46,487.3C1026.33,486.67 1026.32,486.39 1026.32,486.27C1026.47,486.26 1026.69,486.28 1026.82,486.3C1027.12,486.35 1027.44,486.53 1027.78,486.72C1028.11,486.91 1028.48,487.12 1028.89,487.22C1029.34,487.33 1029.92,487.4 1030.43,486.91C1030.59,486.75 1030.66,486.59 1030.73,486.45C1030.76,486.39 1030.78,486.33 1030.81,486.3C1030.93,486.13 1031.11,486.04 1031.36,485.92C1031.52,485.84 1031.69,485.75 1031.87,485.62C1032.49,485.17 1033.02,484.62 1033.52,484.08C1034.09,483.47 1034.64,482.89 1035.3,482.48C1035.46,482.38 1035.63,482.29 1035.84,482.18C1035.97,482.11 1036.1,482.04 1036.23,481.97C1036.25,482.09 1036.27,482.19 1036.28,482.29C1036.14,482.37 1035.97,482.44 1035.8,482.51C1035.35,482.69 1034.8,482.91 1034.49,483.54C1034.27,483.99 1034.29,484.46 1034.31,484.87C1034.32,485.01 1034.31,485.16 1034.31,485.36C1034.3,485.79 1034.29,486.23 1034.4,486.6C1034.61,487.32 1035.18,487.35 1035.45,487.36C1035.55,487.36 1035.64,487.37 1035.68,487.4C1035.87,487.54 1035.83,488.32 1035.67,488.66C1035.36,489.29 1034.78,489.79 1034.22,490.28L1034.14,490.35C1034.05,490.43 1033.96,490.5 1033.85,490.59C1033.63,490.77 1033.39,490.96 1033.19,491.19C1032.66,491.8 1032.49,492.64 1032.33,493.45C1032.24,493.92 1032.15,494.36 1032,494.72C1030.92,497.28 1028.38,498.61 1025.66,500.03C1024.48,500.65 1023.26,501.29 1022.17,502.04C1019.54,503.87 1017.61,506.47 1015.73,509C1014.34,510.88 1012.89,512.83 1011.17,514.41C1008.86,516.54 1006.01,518.06 1003.23,519.54C1001.87,520.27 1000.46,521.01 999.11,521.84C994.1,524.91 989.74,529.2 986.52,534.25C986.18,534.79 985.8,535.36 985.41,535.97C982.83,539.94 979.62,544.89 978.53,548.9C978.21,550.09 977.61,551.13 976.97,552.24C976.72,552.67 976.47,553.11 976.23,553.56L976.02,553.97C975.84,554.31 975.67,554.65 975.48,554.97C975.49,554.94 975.5,554.9 975.51,554.87C976.72,550.57 978.35,546.75 980.35,543.53C981.09,542.34 981.83,541.08 982.48,539.97L982.53,539.89C983.04,539.03 983.55,538.16 984.06,537.31C984.52,536.54 985.09,535.81 985.65,535.09C986.52,533.97 987.41,532.82 987.99,531.44C988.54,530.13 989.29,528.82 990.3,527.46L990.54,527.14C991.51,525.82 992.5,524.46 993.6,523.36C994.31,522.64 995.6,522.1 996.63,521.66L996.86,521.56C998.98,520.66 1001.05,519.58 1002.99,518.55C1003.49,518.29 1003.96,517.98 1004.42,517.69C1004.85,517.41 1005.29,517.13 1005.74,516.89C1005.98,516.76 1006.22,516.65 1006.49,516.53C1006.95,516.32 1007.42,516.11 1007.88,515.78C1008.14,515.59 1008.41,515.38 1008.67,515.18C1009.1,514.84 1009.54,514.5 1009.98,514.23C1011.99,513.03 1013.32,511.12 1014.62,509.25C1015.01,508.69 1015.41,508.12 1015.81,507.58C1016.1,507.19 1016.32,506.77 1016.53,506.36C1016.76,505.91 1016.97,505.49 1017.28,505.14C1017.4,505 1017.58,504.89 1017.77,504.77C1018,504.63 1018.26,504.47 1018.47,504.22C1018.66,504 1018.74,503.78 1018.82,503.57C1018.81,503.52 1018.84,503.44 1018.88,503.36ZM1036.68,480.27C1036.68,480.27 1036.68,480.28 1036.68,480.27C1036.64,480.18 1036.6,480.08 1036.56,479.97C1036.51,479.84 1036.46,479.72 1036.41,479.6C1036.61,479.77 1036.76,480.07 1036.68,480.27ZM971.05,519.17C971.2,518.19 971.2,517.3 971.2,516.36L971.2,516.2C971.2,515.06 971.77,514.13 972.43,513.17C972.39,513.39 972.35,513.61 972.31,513.82C972.04,515.24 971.76,516.71 971.41,518.13C971.26,518.75 971.08,519.38 970.9,520.01C970.96,519.73 971.01,519.45 971.05,519.17ZM961.31,562.67L961.31,562.75C961.33,563.13 961.23,563.42 960.98,563.65L960.93,563.7C960.89,563.74 960.87,563.78 960.86,563.83L960.85,563.9C960.73,564.48 960.57,564.94 960.28,565.54C960.13,565.84 959.97,566.14 959.8,566.45C959.61,566.81 959.41,567.17 959.23,567.55C958.61,568.88 958.11,570.26 957.61,571.61C957.44,572.07 957.41,572.49 957.38,572.89C957.36,573.17 957.34,573.43 957.28,573.69C957.25,573.8 957.22,573.91 957.17,574.07C957.05,574.48 956.92,574.91 956.95,575.36L957.03,576.54C957.04,576.66 957.13,576.76 957.25,576.77C957.37,576.78 957.48,576.72 957.52,576.6L957.9,575.48C958.11,574.86 958.63,574.42 959.13,574C960.26,573.05 961.07,572.28 961.88,571.14C962.93,569.66 964.18,568.44 965.53,567.15L965.58,567.1C965.88,566.81 966.18,566.52 966.49,566.22C967.86,564.87 969.32,563.51 971.24,561.81C971.63,561.46 972.04,561.1 972.43,560.72C972.38,560.84 972.33,560.95 972.28,561.06C972.15,561.33 972.05,561.46 971.83,561.72C971.47,562.14 971.21,562.59 970.95,563.03C970.78,563.31 970.61,563.61 970.42,563.88C970.19,564.21 969.9,564.54 969.58,564.91C969.45,565.06 969.32,565.21 969.19,565.36C968.92,565.68 968.6,565.94 968.24,566.22C967.86,566.52 967.46,566.84 967.13,567.25C967.02,567.38 966.94,567.5 966.85,567.62C966.66,567.87 966.53,568.05 966.28,568.27C966.08,568.44 965.88,568.6 965.66,568.78C964.94,569.35 964.19,569.94 963.85,571.02C962.9,573.98 961.88,576.99 960.89,579.89L960.85,580.02C955.79,594.91 950.55,610.31 952.33,626.8C952.91,632.21 954.24,637.57 955.52,642.77C956.98,648.69 958.49,654.81 958.88,660.96C959.02,663.21 959.02,665.5 959.02,667.72C959.02,670.97 959.01,674.33 959.46,677.63C959.73,679.61 960.18,681.6 960.83,683.7L960.78,683.7C960.75,683.7 960.7,683.71 960.67,683.72C960.5,683.34 960.34,682.96 960.16,682.59C959.91,682.06 959.8,681.47 959.68,680.85C959.58,680.34 959.48,679.82 959.3,679.31C958.98,678.42 958.48,677.66 957.99,676.92C957.77,676.6 957.56,676.27 957.36,675.93C956.83,675.03 956.52,674.08 956.17,673.01C956.09,672.77 956.01,672.53 955.93,672.29C955.74,671.74 955.54,671.2 955.33,670.66C955.04,669.91 954.75,669.13 954.51,668.36C954.14,667.14 954.13,665.84 954.12,664.59C954.11,663.48 954.1,662.34 953.86,661.2C953.75,660.67 953.57,660.16 953.41,659.67C953.22,659.1 953.04,658.56 952.94,657.99C952.76,656.93 952.64,655.84 952.51,654.77C952.41,653.93 952.32,653.06 952.19,652.2C952.13,651.76 952.06,651.32 951.99,650.88C951.83,649.86 951.66,648.8 951.56,647.75C951.47,646.86 951.25,646.03 951.03,645.19C950.89,644.68 950.75,644.14 950.65,643.62C950.23,641.41 950.35,639.13 950.46,636.92L950.5,636.15C950.65,633.06 950.73,629.91 950.74,626.53C950.74,625.2 950.66,623.85 950.58,622.53C950.43,620.19 950.28,617.77 950.65,615.43C950.74,614.88 950.86,614.3 950.97,613.79C951.21,612.66 951.46,611.49 951.45,610.27C951.45,609.66 951.33,609.09 951.23,608.53C951.17,608.24 951.11,607.94 951.07,607.64C950.92,606.53 951.21,605.47 951.51,604.58C952.01,603.11 952.27,601.66 952.49,600.32C952.54,600.02 952.57,599.73 952.6,599.44C952.65,598.94 952.7,598.46 952.85,597.97C953.16,596.9 953.28,595.79 953.4,594.71L953.41,594.58C953.57,593.15 953.54,591.68 953.5,590.25L953.5,590.18C953.49,589.61 953.47,589.04 953.47,588.48C953.47,587.89 953.47,587.29 953.46,586.69C953.45,585.69 953.45,584.69 953.46,583.69C953.47,582.72 953.7,581.74 953.92,580.79C954,580.46 954.07,580.13 954.14,579.8C954.2,579.52 954.24,579.25 954.29,578.96C954.38,578.39 954.46,577.86 954.67,577.35C954.92,576.74 955.23,576.14 955.53,575.57C955.94,574.79 956.36,573.98 956.67,573.07C957.69,570.03 958.3,566.87 958.88,563.81C959.25,561.88 959.63,559.89 960.12,557.94C960.58,556.09 960.95,554.2 961.31,552.35L961.33,552.25C961.51,551.34 961.69,550.43 961.88,549.52C962.22,547.88 962.54,546.56 962.87,545.39L963.07,544.69C963.44,543.39 963.83,542.04 964.01,540.77C964.22,539.37 964.58,538.07 965.23,536.44C965.43,535.94 965.64,535.43 965.86,534.9C966.49,533.4 967.13,531.86 967.53,530.3C967.57,530.13 967.61,529.97 967.65,529.77C967.77,529.25 967.88,528.76 968.11,528.28C968.22,528.06 968.33,527.84 968.45,527.61C968.65,527.23 968.86,526.84 969.02,526.41C969.19,525.97 969.36,525.53 969.51,525.1C969.33,525.87 969.19,526.58 969.08,527.27C968.79,529.09 968.43,530.85 967.96,532.83C967.81,533.45 967.71,534.09 967.62,534.72C967.51,535.42 967.4,536.14 967.21,536.83C966.98,537.68 966.72,538.69 966.51,539.77C966.31,540.82 966,541.78 965.67,542.79C965.57,543.09 965.47,543.39 965.38,543.7C965.13,544.48 964.99,545.28 964.85,546.06C964.69,546.96 964.52,547.9 964.19,548.77C964.06,549.11 963.88,549.45 963.71,549.77C963.56,550.05 963.4,550.37 963.25,550.73C963.02,551.4 962.9,552.13 962.92,552.79C962.83,553.72 962.63,554.65 962.33,555.55C961.98,556.78 961.85,557.84 961.74,559.13C961.64,560.32 961.5,561.5 961.31,562.67ZM977.83,724.73C977.99,725.11 978.14,725.47 978.48,725.87C978.54,725.94 978.6,726.01 978.66,726.07C978.78,726.19 978.84,726.25 978.9,726.38C978.96,726.52 978.99,726.69 979.02,726.88C979.06,727.12 979.11,727.39 979.24,727.67C979.33,727.85 979.45,728 979.57,728.14C979.08,728.08 978.6,727.77 978.4,727.45C978.24,727.18 978.1,726.91 977.97,726.64C977.72,726.14 977.46,725.63 977.05,725.12C976.21,724.1 975.39,723.08 974.65,721.92C972.53,718.61 970.36,715.06 969.19,711.28L969.17,711.22C968.73,709.81 968.36,708.59 967.52,707.27L967.11,706.63C966.57,705.8 966.07,705.02 965.67,704.15C964.46,701.51 964.52,698.51 964.59,695.6C964.6,695.13 964.61,694.65 964.62,694.18C964.63,693.52 964.51,692.94 964.33,692.4C964.94,693.69 965.56,694.96 966.18,696.22C967.86,699.64 969.6,703.18 970.91,706.85C971.27,707.86 971.69,708.77 972.08,709.61C972.63,710.77 972.98,711.97 973.34,713.24L973.56,713.99C973.92,715.2 974.41,716.33 974.88,717.43C975.29,718.37 975.71,719.34 976.04,720.35C976.41,721.48 976.85,722.47 977.32,723.55C977.46,723.86 977.59,724.17 977.73,724.48L977.83,724.73ZM962.93,689.63L962.89,689.57C962.8,689.22 962.68,688.83 962.54,688.43C962.86,689.2 963.19,689.97 963.54,690.73C963.48,690.62 963.42,690.51 963.36,690.4L963.12,689.97C963.06,689.85 962.99,689.74 962.93,689.63ZM1040.96,410.28C1041.39,409.34 1041.86,408.41 1042.58,407.77C1043.08,407.32 1043.66,406.98 1043.96,406.94C1043.87,407.11 1043.69,407.42 1043.3,407.95L1043.26,408.01C1042.79,408.72 1042.31,409.39 1041.63,409.84C1041.42,409.99 1041.19,410.14 1040.96,410.28ZM1023.75,439.94C1023.57,440.46 1023.41,440.91 1023.35,441.52C1023.26,442.33 1023.03,443.06 1022.77,443.85L1022.72,444.01C1022.45,444.86 1022.32,445.71 1022.18,446.6C1022.13,446.93 1022.08,447.26 1022.01,447.59C1021.97,447.81 1021.93,448.05 1021.9,448.29C1021.81,448.88 1021.72,449.48 1021.51,449.97C1021.4,450.23 1021.3,450.51 1021.2,450.79C1021.03,451.27 1020.85,451.76 1020.62,452.13C1020.19,452.82 1019.38,453.46 1018.82,453.88C1018.13,454.39 1017.34,454.6 1016.49,454.83C1015.75,455.03 1014.98,455.23 1014.25,455.65C1013.71,455.96 1013.22,456.33 1012.74,456.7C1012.18,457.13 1011.66,457.53 1011.04,457.84C1010.57,458.08 1010.08,458.3 1009.56,458.53C1008.28,459.11 1006.95,459.7 1005.88,460.61C1005.15,461.23 1004.64,462 1004.14,462.75C1003.66,463.46 1003.21,464.14 1002.61,464.65C1002.09,465.09 1001.21,465.17 1000.36,465.24C1000,465.27 999.64,465.3 999.29,465.37C999.01,465.42 998.73,465.46 998.46,465.51L998.38,465.52C997.98,465.58 997.57,465.64 997.17,465.73C996.13,465.94 995.5,466.27 994.65,467.03C994.02,467.6 993.47,468.09 992.95,468.8C992.7,469.14 992.42,469.48 992.13,469.82C991.6,470.45 991.05,471.11 990.66,471.87C990.52,472.14 990.45,472.4 990.38,472.66C990.33,472.84 990.28,473.03 990.21,473.18C990.14,473.33 990.13,473.35 989.69,473.3C989.48,473.28 989.22,473.25 988.96,473.3C987.56,473.54 986.28,474.4 985.25,475.08C985.2,475.11 985.16,475.14 985.11,475.18C985.12,475.17 985.13,475.15 985.15,475.14C985.69,474.51 986.25,473.86 986.79,473.18C988.58,470.88 990.25,469.28 992.2,467.99C994.11,466.72 995.57,465.32 996.81,463.57C997.23,462.97 997.64,462.34 998.03,461.74C998.45,461.09 998.93,460.36 999.41,459.68C999.62,459.39 999.85,459.1 1000.08,458.81C1000.71,458.01 1001.36,457.18 1001.75,456.22C1001.93,455.77 1002.05,455.35 1002.17,454.93C1002.37,454.22 1002.55,453.55 1003.08,452.91C1004.26,451.48 1005.82,450.46 1008.12,449.59C1011.9,448.17 1014.48,445.25 1015.59,441.16C1016.05,439.45 1015.67,437.89 1015.3,436.37C1015,435.14 1014.69,433.87 1014.86,432.54C1015.26,429.33 1018.94,427.11 1022.18,425.16C1023.22,424.53 1024.2,423.94 1025.01,423.35C1025.72,422.83 1026.35,422.22 1026.96,421.61C1026.85,422.11 1026.86,422.65 1026.87,423.14C1026.87,423.26 1026.88,423.39 1026.88,423.5C1026.88,424.43 1026.95,425.38 1027.02,426.29C1027.11,427.48 1027.2,428.7 1027.14,429.88C1027.1,430.58 1027,430.7 1026.59,431.21L1026.51,431.3C1026.13,431.78 1025.94,432.4 1025.78,432.95L1025.73,433.13C1025.61,433.52 1025.55,433.91 1025.49,434.3C1025.43,434.66 1025.38,435 1025.28,435.33C1025.18,435.69 1025.03,436.05 1024.87,436.42C1024.78,436.64 1024.69,436.85 1024.61,437.07C1024.43,437.56 1024.3,438.08 1024.18,438.54C1024.08,438.92 1023.98,439.32 1023.85,439.7L1023.75,439.94ZM973.72,482.8C973.68,482.66 973.65,482.52 973.61,482.38C973.52,482.01 973.39,481.66 973.27,481.33C973.13,480.95 973,480.6 972.93,480.24C972.83,479.68 972.87,479.08 972.9,478.45C972.95,477.64 973,476.8 972.75,475.98C972.67,475.73 972.57,475.49 972.48,475.28C972.38,475.05 972.29,474.84 972.23,474.62L972.17,474.38C972.09,474.02 971.99,473.61 971.67,473.23C971.31,472.8 970.86,472.41 970.42,472.04C970.12,471.78 969.83,471.53 969.58,471.28L969.42,471.12C968.8,470.5 968.16,469.85 967.47,469.26C966.91,468.78 966.4,468.46 965.84,468.2L965.78,468.17C965.5,468.04 965.45,468.02 965.3,467.85C965.06,467.57 964.88,467.07 964.76,466.71C964.7,466.53 964.66,466.37 964.61,466.19C964.48,465.67 964.34,465.13 963.75,464.61C963.45,464.35 963.22,464.06 962.97,463.76C962.87,463.64 962.78,463.52 962.67,463.4C962.6,463.31 962.53,463.24 962.46,463.17C962.31,463.02 962.24,462.94 962.17,462.75C962.08,462.51 962.01,462.26 961.93,462C961.85,461.73 961.77,461.46 961.67,461.2C961.33,460.26 960.93,459.35 960.55,458.48C960.34,458 960.13,457.53 959.93,457.04C959.86,456.86 959.79,456.69 959.72,456.51L959.49,456.6L959.7,456.45C959.36,455.57 959,454.66 958.28,453.91L958.19,453.82C957.76,453.37 957.38,452.98 957.1,452.45C956.95,452.17 956.76,451.94 956.59,451.73C956.43,451.53 956.28,451.34 956.17,451.14C956.07,450.94 956,450.68 955.94,450.43C955.9,450.27 955.86,450.11 955.81,449.96C955.61,449.37 955.37,448.85 955.11,448.3L954.94,447.94C954.15,446.24 953.61,444.4 953.07,442.58C952.85,441.83 952.63,441.08 952.39,440.33C952.2,439.73 951.99,439.14 951.76,438.5C951.46,437.65 951.15,436.78 950.9,435.91C950.72,435.28 950.56,434.65 950.39,433.98C950.16,433.1 949.93,432.2 949.65,431.32C949.29,430.2 948.88,429.05 948.33,427.7C948.06,427.04 947.75,426.4 947.44,425.78C947.11,425.11 946.77,424.41 946.5,423.71C945.88,422.07 945.56,420.29 945.26,418.57C945.11,417.74 944.96,416.89 944.78,416.06C944.31,413.93 943.46,411.94 942.7,410.28C942.45,409.73 942.2,409.17 941.96,408.6C941.26,406.99 940.53,405.33 939.58,403.84L939.47,403.66C939.21,403.24 938.93,402.81 938.5,402.46C938.3,402.3 938.07,402.18 937.87,402.07C937.63,401.94 937.43,401.83 937.28,401.67C936.93,401.3 936.77,400.72 936.61,400.16L936.51,399.81C936.35,399.27 936.15,398.61 936.4,398.19C936.74,397.62 936.8,397.06 936.86,396.52L936.88,396.34C936.97,395.6 937.03,394.84 937.09,394.08C937.13,393.61 937.17,393.14 937.22,392.67C937.29,391.94 937.19,391.25 937.1,390.56C937.03,390.08 936.96,389.59 936.96,389.1C936.96,388.57 936.82,388.11 936.7,387.71C936.63,387.47 936.55,387.21 936.51,386.96C936.39,386.29 936.22,385.97 935.92,385.47C935.79,385.26 935.78,385.15 935.86,384.9C936,384.42 936.19,383.95 936.37,383.49C936.62,382.84 936.89,382.17 937.05,381.45C937.09,381.25 937.13,381.05 937.17,380.85C937.25,380.44 937.33,380.02 937.46,379.64C937.61,379.21 937.86,378.78 938.11,378.36L938.25,378.12C938.73,377.29 939.15,376.42 939.57,375.57C939.96,374.78 940.36,373.96 940.8,373.18C941.08,372.68 941.3,372.57 941.59,372.53L941.66,372.53C941.69,372.53 941.7,372.53 941.88,372.64C941.92,372.67 941.97,372.7 942.01,372.73C941.89,372.8 941.78,372.87 941.67,372.94L941.58,373C941.09,373.33 940.77,373.75 940.55,374.35C940.28,375.08 940.08,375.9 939.96,376.47C939.93,376.59 939.91,376.71 939.88,376.83C939.81,377.19 939.74,377.52 939.61,377.87C939.42,378.37 939.39,378.9 939.35,379.41C939.33,379.68 939.32,379.93 939.28,380.17C939.15,380.99 939.33,381.65 939.51,382.3C939.57,382.51 939.63,382.71 939.67,382.93C939.81,383.55 939.97,384.19 940.16,384.87C940.4,385.7 940.66,386.53 940.91,387.34C941.05,387.78 941.19,388.22 941.32,388.66C941.63,389.67 941.88,390.7 942.13,391.71C942.42,392.91 942.73,394.15 943.13,395.36C944.14,398.42 945.52,401.21 947.35,403.89C948.72,405.9 950,408.03 951.27,410.12C951.68,410.8 952.09,411.47 952.5,412.15C952.79,412.63 953.03,413.17 953.26,413.69C953.5,414.24 953.75,414.8 954.08,415.34C954.5,416.02 955,416.67 955.49,417.31C955.7,417.58 955.9,417.84 956.1,418.11C956.74,418.98 956.99,420.03 957.26,421.14C957.54,422.33 957.83,423.56 958.64,424.6C958.77,424.76 958.89,424.92 959.02,425.08L959.07,425.14C959.5,425.68 959.91,426.19 960.25,426.77C960.68,427.51 960.98,428.29 961.3,429.11L961.45,429.49C961.59,429.85 961.74,430.21 961.88,430.56L961.9,430.62C962.29,431.55 962.68,432.52 962.96,433.51C963.73,436.25 964.25,439.12 964.77,441.9C964.95,442.87 965.13,443.83 965.31,444.8C965.42,445.35 965.62,445.84 965.83,446.34C965.91,446.52 965.98,446.71 966.05,446.9C966.14,447.16 966.21,447.43 966.28,447.7C966.35,447.97 966.43,448.28 966.53,448.58C966.62,448.84 966.74,449.09 966.86,449.35C967.07,449.81 967.28,450.28 967.34,450.76C967.35,450.83 967.34,450.93 967.32,451.04C967.3,451.23 967.27,451.46 967.33,451.69C967.38,451.91 967.49,452.03 967.57,452.11C967.66,452.49 967.62,452.96 967.59,453.42C967.57,453.68 967.55,453.94 967.55,454.19C967.55,454.42 967.54,454.65 967.54,454.88C967.53,455.45 967.51,456.09 967.59,456.71C967.7,457.64 968.13,458.26 968.59,458.94C968.72,459.13 968.86,459.33 968.98,459.54C969.18,459.87 969.38,460.24 969.57,460.67C969.87,461.33 970.13,462.03 970.4,462.76C970.56,463.2 970.72,463.63 970.9,464.05C971.57,465.71 972.23,467.33 972.85,468.97C973.32,470.22 973.73,471.36 974.08,472.45C974.66,474.21 975.11,475.81 975.46,477.35C975.51,477.56 975.54,477.78 975.57,478.02C975.66,478.62 975.75,479.24 976.05,479.75C976.12,479.86 976.18,479.95 976.25,480.03C976.33,480.14 976.37,480.18 976.39,480.29C976.41,480.39 976.42,480.51 976.43,480.64C976.44,480.8 976.45,480.96 976.48,481.13C976.54,481.42 976.66,481.67 976.76,481.89C976.83,482.04 976.91,482.2 976.95,482.35C977.07,482.79 977.04,483.35 977,483.88C976.98,484.14 976.97,484.4 976.97,484.65L976.97,484.82C976.97,485.3 976.97,485.74 977.09,486.24C977.14,486.43 977.19,486.6 977.25,486.77L977.3,486.93C977.24,487.44 977.18,487.9 977.1,488.33C976.94,489.25 976.75,490.21 976.43,491.08C976.35,489.53 975.96,488.36 975.25,487.45C974.99,487.11 974.84,486.84 974.74,486.53C974.61,486.13 974.44,485.87 974.27,485.6C974.2,485.49 974.13,485.38 974.06,485.24C973.97,485.08 973.97,484.82 973.97,484.54C973.97,484.35 973.97,484.17 973.95,484C973.92,483.55 973.82,483.15 973.72,482.8ZM975.24,464.87C975.34,464.86 975.43,464.79 975.46,464.69L975.62,464.09C975.94,462.9 975.78,461.66 975.63,460.46C975.44,459 975.27,457.63 975.98,456.55C976.08,456.4 976.19,456.26 976.3,456.12C976.56,455.8 976.85,455.43 976.99,454.96C977.11,454.56 977.09,454.17 977.07,453.79C977.06,453.63 977.05,453.47 977.06,453.32C977.09,452.62 977.37,451.94 977.97,451.21C977.92,451.43 977.88,451.66 977.84,451.9C977.7,452.8 977.67,453.8 977.74,454.87C977.76,455.09 977.79,455.32 977.83,455.55C977.85,455.68 977.87,455.81 977.89,455.94C977.91,456.12 977.89,456.3 977.86,456.51C977.84,456.65 977.83,456.79 977.82,456.94C977.8,457.43 978.03,457.63 978.2,457.77C978.23,457.79 978.26,457.82 978.29,457.85C978.36,457.92 978.41,458.04 978.43,458.23C978.53,458.65 978.53,459.08 978.52,459.55L978.52,459.83C978.52,459.94 978.51,460.06 978.51,460.19C978.49,460.53 978.47,460.92 978.56,461.28L978.59,461.4C978.61,461.48 978.67,461.54 978.74,461.57L978.85,461.61C979.03,461.68 979.2,461.68 979.35,461.6C979.59,461.49 979.66,461.26 979.71,461.11C979.87,460.73 979.97,460.33 980.07,459.95C980.14,459.66 980.22,459.36 980.32,459.09C980.54,458.48 980.81,457.72 980.91,456.95C980.96,456.59 980.94,456.24 980.93,455.91L980.92,455.63C980.89,454.73 981.04,453.45 981.53,452.58C981.67,452.32 981.87,452.09 982.07,451.9C982.08,452.04 982.09,452.18 982.09,452.33C982.08,452.52 982.13,452.68 982.18,452.81C982.2,452.87 982.22,452.93 982.22,452.96L982.23,453.05C982.26,453.49 982.29,453.95 982.45,454.4C982.53,454.64 982.65,454.86 982.76,455.08C982.82,455.2 982.88,455.32 982.94,455.44C983.12,455.85 983.15,456.27 983.16,456.8L983.16,456.91C983.16,457.16 983.16,457.29 983.09,457.45C982.67,458.32 982.45,459.15 982.28,459.92L982.22,460.17C982.2,460.24 982.22,460.31 982.26,460.37C982.3,460.43 982.36,460.46 982.43,460.47L982.69,460.5C983.1,460.54 983.39,460.49 983.68,460.08C983.8,459.91 983.91,459.76 984.04,459.59C984.3,459.24 984.57,458.88 984.81,458.46C985.14,457.89 985.46,457.26 985.8,456.51C986.24,455.57 986.66,454.59 987.07,453.61C987.2,453.28 987.21,453.04 987.21,452.77L987.21,452.7C987.21,452.03 987.09,451.44 986.96,450.82L986.9,450.55C986.87,450.41 986.85,450.26 986.82,450.1C986.81,450.03 986.8,449.97 986.79,449.9C986.9,450.01 986.98,450.11 987.03,450.21C987.04,450.23 987.04,450.26 987.04,450.34C987.04,450.44 987.05,450.54 987.07,450.65C987.21,451.25 987.37,451.94 987.67,452.52C987.75,452.68 987.84,452.83 987.92,452.99C988.05,453.23 988.18,453.46 988.29,453.7C988.56,454.3 988.34,454.59 987.83,455.3C987.73,455.44 987.61,455.58 987.47,455.76C987.31,455.94 987.12,456.17 986.96,456.42C986.76,456.72 986.63,457.04 986.5,457.35L986.39,457.6C986.28,457.85 986.16,458.14 986.12,458.47C986.08,458.85 986.13,459.2 986.18,459.59C986.2,459.71 986.21,459.83 986.22,459.94C986.26,460.44 986.27,461 986.25,461.6C986.24,461.75 986.22,461.9 986.19,462.06C986.16,462.24 986.13,462.43 986.12,462.63C986.11,462.77 986.12,462.91 986.13,463.06C986.14,463.24 986.15,463.4 986.12,463.54C986.08,463.62 986.01,463.75 986.01,463.97C986.01,464.15 986.02,464.35 986.14,464.6C986.23,464.79 986.36,464.99 986.45,465.13C986.52,465.24 986.61,465.34 986.72,465.44C986.77,465.5 986.86,465.59 986.91,465.64C986.87,465.67 986.81,465.71 986.78,465.74C986.66,465.82 986.53,465.91 986.43,466.04C986.33,466.16 986.24,466.27 986.15,466.39C985.95,466.65 985.75,466.9 985.51,467.11C985.22,467.35 984.9,467.54 984.55,467.74C984.23,467.93 983.87,468.14 983.54,468.4C983.31,468.58 983.13,468.79 982.95,469C982.81,469.16 982.67,469.32 982.52,469.44C982,469.86 981.64,470.31 981.44,470.77C981.23,471.26 981.18,471.81 981.13,472.35L981.11,472.6C981.04,473.31 980.92,474.06 980.74,475.03L980.7,475.26C980.64,475.6 980.58,475.92 980.49,476.23L980.46,476.33C980.39,476.59 980.37,476.63 980.37,476.62C980.34,476.65 980.24,476.71 980.18,476.75C980.09,476.81 980,476.86 979.94,476.91C979.9,476.95 979.85,476.98 979.81,477.01C979.61,477.16 979.38,477.32 979.23,477.64C979.05,478.02 979.01,478.46 979,478.83C978.98,479.34 978.99,479.86 979,480.37C979,480.63 979.01,480.9 979.01,481.16C979.01,481.39 979.02,481.62 979.03,481.86C979.06,482.55 979.09,483.27 978.85,483.84L978.82,483.9C978.68,484.25 978.54,484.58 978.44,484.95C978.48,483.61 978.43,482.23 978.27,480.84C978.09,479.3 977.59,477.84 977.1,476.44L976.86,476.52L977.1,476.44C976.58,474.95 976.04,473.4 975.92,471.79C975.9,471.46 975.89,471.13 975.88,470.8C975.86,470.07 975.83,469.32 975.67,468.58C975.49,467.73 975.13,466.95 974.78,466.17C974.62,465.82 974.46,465.46 974.32,465.1C974.05,464.39 973.87,463.69 973.7,463.01C973.59,462.56 973.47,462.11 973.33,461.65C973.82,462.41 974.28,463.23 974.73,464.16L975,464.71C975.04,464.83 975.14,464.89 975.24,464.87ZM977.63,491.09L977.61,491.15C977.56,491.34 977.5,491.53 977.45,491.73C977.19,492.81 977.1,493.87 977.02,494.9C976.98,495.34 976.95,495.78 976.9,496.23C976.76,497.52 976.52,498.56 976.17,499.4C976.17,499.24 976.18,499.06 976.19,498.89C976.2,498.73 976.21,498.57 976.21,498.42L976.2,497.88C976.43,496.96 976.45,496.09 976.47,495.24C976.47,495.04 976.48,494.84 976.48,494.63C976.5,493.85 976.58,493.03 976.93,492.36C977.41,491.44 977.69,490.41 977.9,489.39C977.89,489.54 977.88,489.68 977.88,489.8C977.88,489.94 977.86,490.07 977.84,490.2C977.69,490.44 977.54,490.77 977.63,491.09ZM976.98,479.34C976.96,479.31 976.93,479.27 976.91,479.23C976.72,478.91 976.64,478.42 976.57,477.94C976.71,478.4 976.86,478.87 976.98,479.34ZM986.48,468.81L986.41,469.12C986.34,469.42 986.23,469.7 986.1,470.02C986,470.27 985.9,470.53 985.81,470.81C985.45,472.03 984.99,472.95 984.27,473.91C983.66,474.72 983.15,475.58 982.69,476.56C982.52,476.78 982.36,477 982.19,477.23C982.11,477.34 982.13,477.48 982.23,477.56C982.06,477.96 981.89,478.38 981.72,478.82C981.46,479.5 981.16,480.18 980.87,480.83C980.57,481.51 980.26,482.2 979.99,482.92C980.01,482.56 979.99,482.19 979.98,481.83C979.97,481.61 979.96,481.39 979.96,481.18C979.96,480.95 979.96,480.71 979.95,480.48L979.95,480.33C979.94,479.86 979.94,479.37 979.95,478.89C979.96,478.62 979.98,478.31 980.09,478.09C980.13,478 980.21,477.94 980.39,477.81C980.44,477.77 980.49,477.74 980.53,477.7C980.57,477.67 980.62,477.64 980.68,477.6C980.8,477.53 980.95,477.44 981.06,477.32C981.22,477.15 981.3,476.9 981.38,476.62L981.4,476.53C981.51,476.17 981.57,475.81 981.63,475.46L981.67,475.23C981.86,474.23 981.97,473.46 982.05,472.72L982.08,472.41C982.12,471.98 982.16,471.53 982.31,471.18C982.45,470.87 982.73,470.53 983.12,470.21C983.33,470.04 983.5,469.84 983.68,469.64C983.83,469.47 983.97,469.31 984.13,469.18C984.4,468.96 984.7,468.79 985.05,468.59C985.41,468.38 985.78,468.16 986.12,467.88C986.45,467.61 986.69,467.29 986.92,466.99C987,466.89 987.08,466.78 987.16,466.68C987.17,466.66 987.21,466.64 987.25,466.61C987.17,466.84 987.08,467.06 986.97,467.29C986.71,467.82 986.6,468.3 986.48,468.81ZM975.7,500.93C975.72,500.84 975.74,500.74 975.76,500.65C975.88,500.71 975.99,500.73 976.09,500.74L976.17,500.74C976.07,500.92 975.96,501.11 975.86,501.29C975.73,501.52 975.59,501.76 975.46,502C975.53,501.63 975.62,501.27 975.7,500.93ZM977.86,496.34C977.91,495.89 977.95,495.44 977.99,494.98C978.07,493.94 978.16,492.97 978.4,491.96C978.44,491.8 978.49,491.63 978.54,491.46C978.56,491.43 978.57,491.39 978.57,491.35C978.65,491.08 978.72,490.8 978.77,490.56C978.79,490.53 978.8,490.51 978.82,490.48C978.76,490.75 978.72,491.04 978.7,491.35C978.6,493.12 978.29,494.97 977.85,496.54C977.84,496.47 977.85,496.4 977.86,496.34ZM979.28,488.57C979.36,488.53 979.42,488.45 979.43,488.36C979.52,487.12 979.92,486 980.36,484.78C980.47,484.48 980.58,484.18 980.68,483.87C980.99,482.97 981.38,482.08 981.77,481.21C982.05,480.58 982.37,479.87 982.64,479.16C982.96,478.32 983.25,477.65 983.5,477.1C983.84,476.66 984.19,476.24 984.54,475.83C984.41,476.05 984.31,476.27 984.22,476.48C984.14,476.67 984.05,476.87 983.94,477.05C983.87,477.16 983.78,477.28 983.69,477.4C983.53,477.6 983.37,477.8 983.26,478.05C983.09,478.43 983,478.86 982.92,479.27C982.86,479.55 982.8,479.84 982.72,480.1C982.5,480.77 982.25,481.4 981.98,481.98C981.84,482.29 981.69,482.63 981.54,482.99C981.36,483.41 981.18,483.85 980.98,484.25C980.56,485.11 980.28,486.03 980,486.92C979.82,487.49 979.64,488.08 979.43,488.64L979.33,488.91C979.3,488.98 979.27,489.06 979.24,489.13C979.26,488.93 979.28,488.74 979.28,488.57ZM1032.6,416.95C1032.57,416.91 1032.53,416.88 1032.48,416.86C1032.42,416.84 1032.35,416.85 1032.29,416.88C1031.89,417.09 1031.45,417.28 1031.04,417.46C1030.3,417.79 1029.53,418.13 1028.81,418.62C1027.92,419.23 1027.17,419.98 1026.43,420.72C1025.8,421.35 1025.15,422.01 1024.43,422.53C1023.66,423.09 1022.7,423.67 1021.67,424.29C1018.41,426.26 1014.35,428.7 1013.89,432.38C1013.7,433.89 1014.03,435.25 1014.35,436.57C1014.7,438.03 1015.04,439.4 1014.64,440.87C1013.6,444.71 1011.28,447.33 1007.76,448.65C1005.29,449.58 1003.61,450.69 1002.31,452.26C1001.65,453.05 1001.44,453.82 1001.21,454.64C1001.1,455.02 1001,455.41 1000.83,455.82C1000.49,456.65 999.88,457.43 999.29,458.18C999.05,458.48 998.82,458.78 998.6,459.08C998.1,459.78 997.62,460.52 997.18,461.19C996.79,461.78 996.39,462.4 995.98,462.99C994.82,464.64 993.44,465.96 991.63,467.16C989.73,468.42 988.1,469.95 986.38,472.07C986.5,471.76 986.61,471.44 986.71,471.09C986.78,470.85 986.87,470.62 986.97,470.38C987.1,470.06 987.23,469.72 987.32,469.35L987.39,469.03C987.49,468.56 987.59,468.16 987.8,467.74C988.11,467.12 988.25,466.57 988.4,465.99C988.44,465.82 988.49,465.65 988.54,465.47L988.62,465.17C988.81,464.5 989.01,463.8 989.04,463.06C989.06,462.53 989.1,461.98 989.4,461.5C989.51,461.32 989.69,461.2 989.9,461.04C990.05,460.93 990.2,460.82 990.35,460.67C990.73,460.3 990.94,459.89 991.16,459.46C991.21,459.37 991.25,459.28 991.3,459.18C991.41,458.97 991.56,458.78 991.71,458.57C991.91,458.3 992.11,458.03 992.27,457.69C992.36,457.49 992.45,457.28 992.53,457.07C992.6,456.9 992.66,456.73 992.74,456.56C993.25,455.43 993.25,454.54 993.25,453.41L993.25,452.07C993.25,451.14 993.26,450.2 993.24,449.27L993.23,448.9C993.21,448.05 993.2,447.25 993.48,446.5C993.57,446.27 993.66,446.07 993.75,445.87C993.91,445.53 994.06,445.2 994.17,444.79C994.35,444.13 994.42,443.6 994.41,442.9L994.41,441.18C994.41,440.37 994.42,439.56 994.4,438.75C994.39,438.18 994.42,437.68 994.62,437.08C994.85,436.38 994.86,435.8 994.87,435.14L994.87,434.9C994.9,433.55 995.21,432.13 995.81,430.69C996.14,429.91 996.6,429.17 997.05,428.45C997.53,427.68 998.04,426.88 998.39,425.98C999,424.46 999.87,423.29 1000.94,421.91C1001.1,421.7 1001.26,421.5 1001.41,421.29C1002.22,420.23 1002.99,419.23 1004.07,418.4C1004.26,418.25 1004.45,418.1 1004.64,417.94C1005,417.64 1005.35,417.35 1005.73,417.14C1006.39,416.79 1007.14,416.48 1007.85,416.19C1008.18,416.06 1008.5,415.93 1008.81,415.79C1009.16,415.64 1009.51,415.48 1009.87,415.31C1010.95,414.81 1012.06,414.3 1013.16,414.11C1013.3,414.08 1013.45,414.06 1013.63,414.04C1014.28,413.94 1014.89,413.85 1015.57,413.53C1016.05,413.31 1016.48,413.02 1016.89,412.75C1017.17,412.56 1017.46,412.37 1017.76,412.21L1018.16,411.99C1018.7,411.7 1019.08,411.49 1019.6,410.98C1019.72,410.86 1019.84,410.73 1019.96,410.59C1020.08,410.45 1020.2,410.31 1020.33,410.19C1020.91,409.65 1021.52,409.39 1022.31,409.39C1022.72,409.39 1023.19,409.46 1023.72,409.59C1024.38,409.76 1025.05,409.9 1025.71,410.04C1026.93,410.3 1028.09,410.54 1029.25,410.96C1030.62,411.45 1032.06,411.7 1033.65,411.73C1034.56,411.75 1035.52,411.87 1036.46,411.99C1036.97,412.06 1037.48,412.12 1037.99,412.17C1038.29,412.2 1038.59,412.19 1038.89,412.15C1038.35,413.03 1037.76,413.68 1037.13,414.09C1037.02,414.16 1036.91,414.21 1036.79,414.26C1036.58,414.35 1036.35,414.45 1036.11,414.65C1036,414.74 1035.91,414.84 1035.82,414.94C1035.73,415.04 1035.65,415.12 1035.57,415.18L1035.27,415.38C1034.58,415.84 1033.93,416.28 1033.21,416.66C1033.07,416.75 1032.83,416.85 1032.6,416.95ZM984.8,448.17L984.88,448.02L984.85,448.12L984.8,448.17ZM968.52,455.09C968.66,455.34 968.92,455.47 969.08,455.56C969.13,455.59 969.21,455.63 969.23,455.65C969.44,455.85 969.57,456.16 969.71,456.49C969.82,456.75 969.94,457.04 970.12,457.3L970.2,457.42C970.32,457.59 970.41,457.72 970.46,457.87C970.53,458.1 970.59,458.23 970.72,458.47L971.37,459.7C971.4,459.75 971.42,459.81 971.46,459.9C971.55,460.1 971.65,460.33 971.77,460.46C972.26,461.38 972.49,462.3 972.73,463.27C972.91,463.98 973.09,464.72 973.39,465.48C973.54,465.86 973.71,466.24 973.88,466.62C974.2,467.33 974.53,468.07 974.69,468.82C974.83,469.48 974.86,470.19 974.88,470.87C974.89,471.21 974.9,471.55 974.93,471.88C974.58,470.85 974.2,469.77 973.76,468.61C973.13,466.95 972.48,465.32 971.81,463.67C971.64,463.25 971.48,462.82 971.3,462.34C971.04,461.65 970.78,460.93 970.46,460.25C970.25,459.79 970.04,459.38 969.81,459.02C969.67,458.8 969.53,458.59 969.38,458.37C968.98,457.78 968.63,457.28 968.55,456.58C968.51,456.11 968.51,455.62 968.52,455.09Z" style="fill:rgb(158,155,128);fill-rule:nonzero;"/>
            </g>
        </g>
    </g>
</svg>
