<svg xmlns="http://www.w3.org/2000/svg" xml:space="preserve" fill-rule="evenodd" stroke-linejoin="round" stroke-miterlimit="2" clip-rule="evenodd" viewBox="0 0 156 311">
  <path fill="#d19389" fill-rule="nonzero" d="m154.47 70.24-.32-.4c-.39-.51-.79-1.04-1.6-1.35-.67-.25-1.34-.52-2-.78a30.17 30.17 0 0 0-4.35-1.52c-.46-.11-.92-.28-1.32-.43-.59-.2-1.23-.45-1.94-.56-.26-.05-.53-.06-.82-.08-.31-.02-.6-.04-.88-.1l-.67-.17c-.52-.12-1.1-.25-1.69-.33l-.88-.1-1.02-.14.7-.28c.69-.28 1.39-.57 2.09-.74 1.02-.25 1.9-.5 2.85-.88l1.3-.5.12-.05c1.04-.4 2.13-.82 3.2-1.3l.67-.38c.26-.15.5-.3.74-.38.34-.11.79-.21 1.18-.3l.42-.1c.17-.05.32-.07.43-.1.4-.06.63-.12 1.14-.55l.18-.15c.26-.21.55-.44.77-.8 0-.01.9-1.52.78-2.27-.03-.23-.12-.38-.18-.49-.04-.07-.04-.07-.04-.13.01-.08.05-.2.1-.32.09-.24.2-.54.15-.91-.12-.77-1.38-1.85-1.88-2.15a9.71 9.71 0 0 0-1.82-.73c-.3-.1-.6-.19-.88-.3-2.77-1.09-5.73-1.2-8.63-1.3h-.11l-1.12-.05H139c-1.57-.09-3.19-.18-4.76.1l-.7.12.09-.05c.3-.19.6-.37.9-.53a10.73 10.73 0 0 0 2.4-1.6c.23-.17.44-.36.65-.5.2-.15.45-.26.72-.39.22-.1.47-.21.7-.34 2.45-1.47 5.17-3.29 6.53-6.22.46-.99 1.15-2.48.53-3.66-.24-.44-.49-.83-1.27-.93-.2-.02-.4 0-.6.06l.05-.1c.21-.63.49-1.4-.56-2.22a4.7 4.7 0 0 0-2.82-.8c-1.52-.04-3.13.26-4.5.56-1.53.33-3.28.77-4.8 1.54-.95.48-1.98.9-3 1.33-1.15.47-2.32.95-3.44 1.55-.55.3-1.16.56-1.7.8-1.14.5-2.31 1-3.31 1.87l-.06.06.67-.76.62-.72c.95-1.07 1.97-2.17 2.86-3.14a146 146 0 0 0 3.41-3.8c.73-.85 1.38-1.78 2.02-2.67l.07-.1.66-.94.07-.1c.66-.9 1.35-1.85 1.77-2.97.76-2.02.88-3.68.36-5.04a8.52 8.52 0 0 1-.1-.3c-.18-.5-.4-1.13-.77-1.46-.24-.21-.54-.3-.8-.37a2.05 2.05 0 0 1-.23-.07 4.63 4.63 0 0 0-2.68-.36c-.75.16-1.38.55-2 .92-.32.2-.65.4-.99.56l-.87.4a34.81 34.81 0 0 0-3.7 1.85c-.8.48-1.54 1.05-2.28 1.61l-.7.54a11.33 11.33 0 0 1 .46-1.13c.3-.65.58-1.31.69-2 .03-.24 0-.49-.02-.69a.93.93 0 0 1-.02-.3c.02-.22.12-.46.23-.73l.1-.25c.17-.43.35-.88.55-1.32.46-1.07.94-2.18 1.18-3.32l.04-.22c.2-.96.5-2.43.02-3.42-.25-.52-.9-.9-1.9-1.14-.87-.2-2.4.16-3.18.64-1.22.74-2.35 1.6-3.4 2.41a16.9 16.9 0 0 0-3.97 4.61c-.19.3-.36.64-.52.95-.2.39-.4.78-.64 1.1.41-1.64.78-3.21.82-4.92l.03-.8c.1-2.37.24-5.6-2.31-6.61-1.42-.57-3.58-.3-5.83 4.2-1 2-2.2 3.64-3.56 5.42-1.6 2.1-2.73 4.42-3.85 6.67l-.05.08c-.4.8-.8 1.63-1.23 2.44l.03-1.36a77.72 77.72 0 0 0 .03-5.83c-.02-1.63-.04-3.17-.55-4.82-.04-.15-.1-.3-.16-.44-.1-.28-.2-.52-.2-.78-.01-.21.02-.45.06-.7.03-.25.06-.5.05-.78 0-.52-.03-1.06-.06-1.58-.02-.43-.05-.85-.06-1.28-.03-1.3-.2-2.87-1.38-3.6a5.37 5.37 0 0 0-3.02-.82c-1.33.21-1.95 1.51-2.3 2.46l-.5 1.23c-.32.73-.64 1.48-.84 2.26a8.62 8.62 0 0 0-.23 1.57c-.03.35-.06.72-.12 1.05-.11.6-.32 1.2-.52 1.8-.14.4-.3.88-.42 1.34l-.23.83c-.27 1-.54 2.03-.73 3.07-.24 1.29-.45 2.56-.65 3.83l-.15-.84c-.17-.92-.34-1.87-.55-2.78-.23-.98-.3-1.9-.35-2.88-.04-.65-.08-1.33-.18-2.04l-.09-.63c-.21-1.4-.41-2.72-.1-4.15.12-.52.28-1.04.44-1.57.57-1.88 1.15-3.84-.02-5.8A2.39 2.39 0 0 0 76.57.12a4.3 4.3 0 0 0-3.28 1.1c-1.03.9-1.42 2.31-1.63 3.3-.1.47-.2.94-.28 1.4-.28 1.42-.53 2.75-1 4.08-.4 1.13-.88 2.27-1.33 3.36-.43 1.06-.88 2.14-1.28 3.23-.66 1.85-1.05 3.84-1.43 5.76l-.04.19-.21 1.05c-.16.8-.29 1.58-.39 2.42l-.13-.26c-.04-.07-.08-.15-.1-.22-.08-.19-.1-.4-.15-.6-.03-.2-.07-.38-.12-.58a18.2 18.2 0 0 0-1.6-3.92c-.59-1.03-1.26-2.06-1.85-2.97a39.83 39.83 0 0 1-2.43-4.07c-.25-.52-.48-1.07-.71-1.62-.33-.76-.65-1.55-1.07-2.3-.55-.98-1.23-1.91-1.9-2.83l-.58-.8c-.84-1.2-2.27-3.2-4-3.7-.33-.08-.82-.23-1.32-.01-.4.18-.56.5-.66.73l-.04.08-.19-.14c-.23-.18-.52-.4-.89-.47a1.4 1.4 0 0 0-1.1.25c-.69.5-.85 1.54-.88 1.84a23.62 23.62 0 0 0-.11 3.46c.04.65.13 1.3.23 1.94a13 13 0 0 1 .23 2.1c.01.96.2 1.82.4 2.76.09.42.18.86.25 1.3.12.71.16 1.45.21 2.16.05.73.1 1.5.22 2.27.06.39.08.78.12 1.18.04.67.08 1.38.33 2.1.21.62.44 1.24.68 1.85.23.58.45 1.17.65 1.77.42 1.21.97 2.75 1.63 4.39l-.5-.42a38.02 38.02 0 0 0-1.96-1.5 26.1 26.1 0 0 1-2.68-2.15 18.64 18.64 0 0 0-3.58-2.5 59.78 59.78 0 0 1-3.45-2.23l-.62-.42A32.78 32.78 0 0 0 34 20.02a33.77 33.77 0 0 0-3.38-1.37l-1.57-.58a58.58 58.58 0 0 0-4.79-1.6 10.6 10.6 0 0 1-1.17-.45c-.4-.17-.8-.35-1.25-.48-.47-.14-2.06-.51-2.83.32-.86.94-.28 2.27.05 3.06.14.34.2.76.27 1.22.1.66.2 1.34.59 1.88.1.15.24.27.36.37.09.08.17.15.22.22.1.14.18.28.27.44.11.2.23.4.39.6l.18.25c.4.53.76 1.03 1.3 1.5 1.07.95 2.09 2.27 2.89 3.74.35.63.65 1.19 1.3 1.7l.6.42.6.44c.52.45 1.01.96 1.5 1.48.36.37.73.76 1.13 1.12.64.6 1.38 1.1 2.08 1.59l.76.52.52.39c.67.48 1.36.98 2.1 1.4.94.55 1.96 1.06 2.86 1.51a32.52 32.52 0 0 1 4.74 2.72l.84.58c-1.3-.5-2.61-1.01-3.8-1.5l-1.2-.46c-.78-.31-1.57-.62-2.36-.95-.6-.25-1.23-.52-1.89-.69l-.5-.13c-.69-.16-1.33-.33-2.03-.6l-1.53-.59-.9-.35-.88-.35c-.44-.18-.85-.35-1.29-.48-.77-.2-1.55-.25-2.3-.28l-.1-.01-.62-.03a15.2 15.2 0 0 1-.67-.06 9.84 9.84 0 0 0-2.7.03l-.41.08c-.5.09-.88.16-1.35.1l-.48-.1c-.32-.06-.64-.14-1-.15-.77-.04-1.49.07-2.23.2-.41.05-.83.12-1.24.15-.43.03-.89 0-1.34-.03-.56-.04-1.13-.07-1.7 0-.53.06-1.02.27-1.51.49-.34.14-.68.3-1.01.38l-.4.1c-.33.07-.68.15-1.02.25-1.18.38-1.93 1-2.32 1.94-.7 1.72 1.26 4.03 2.26 4.82.56.44 1.18.66 1.8.88l.35.13c.98.35 1.9.8 2.72 1.35.41.27.81.6 1.22.93.45.37.91.75 1.42 1.07.62.38 1.28.62 1.93.85l.36.12.7.27.18.07c1.08.43 2.16.83 3.28 1.06l1 .19c.78.14 1.58.28 2.33.5.92.28 1.83.43 2.73.59.37.06.74.12 1.11.2.85.16 1.63.47 2.45.8l.12.04a53.1 53.1 0 0 0-4.88-.75c-1-.1-2.18-.25-3.38-.5-.35-.08-.71-.1-1.02-.12a3.78 3.78 0 0 1-1.24-.21c-.5-.2-1-.21-1.48-.24a5.17 5.17 0 0 1-.87-.09l-.43-.1-.36-.1c-.37-.1-.68-.16-.96-.2-.34-.06-.69-.09-1.03-.12l-.64-.06a19.8 19.8 0 0 0-5.5.02c-.68.1-1.3.3-1.93.47l-.78.23-.45.1c-.3.05-.61.11-.94.25l-.17.07c-.28.12-.48.21-.74.25a8.7 8.7 0 0 0-2.6 1.01l-.43.22c-.43.22-.98.5-1.15 1.03-.09.26-.07.54.08.82.23.46.62 1.13 1.03 1.64.6.74 1.72 1.16 2.5 1.4l.9.28a19 19 0 0 1 3.52 1.3c.3.17.61.36.9.55a14.42 14.42 0 0 0 3.56 1.7c.6.24 1.18.5 1.74.77l.06.03c.56.26 1.16.55 1.77.78.33.13.63.24.93.32.47.13.95.2 1.4.27a9.1 9.1 0 0 1 1.54.34c.8.28 1.46.37 2.28.33l.55-.04a6.73 6.73 0 0 1 1.54 0c.82.14 1.47.17 2.36-.02.8-.19 1.43-.18 2.3 0 .4.07.8.2 1.3.36-.94.15-1.73.33-2.58.66-.36.13-.73.22-1.1.3-.54.13-1.1.26-1.66.54-.16.07-.3.17-.46.26-.18.11-.35.22-.53.28-.13.06-.29.07-.47.1-.2.04-.44.07-.68.17l-.18.07c-.68.27-1.44.56-2.13.72l-.44.1c-.46.11-.94.22-1.4.27-.81.07-1.48.01-2.36-.1a7.04 7.04 0 0 0-1.27-.02l-.36.02c-.5.02-1.01-.06-1.55-.13l-.43-.07c-1.54-.2-2.91-.25-4.2-.14-1.2.11-2.44.1-3.65.1H3.62c-.58 0-.92 0-1.49.57-.04.06-.12.1-.23.2-.42.34-1.12.9-.9 1.63.14.44.63.73 1.11 1.03.16.1.36.23.43.3.23.22.46.48.68.74l.05.06c.12.13.23.28.35.4a9.39 9.39 0 0 0 3.69 2.7l.54.22c1.26.48 2.55.93 3.8 1.36l.23.09c1.26.43 2.56.88 3.8 1.38.42.16.85.34 1.3.53 1.07.45 2.19.93 3.32 1.19 1.11.25 2.25.32 3.35.34-1.12.46-1.87.99-2.33 1.6a6.6 6.6 0 0 0-.24.36c-.08.14-.17.27-.26.38-.73.9-1.8 1.5-2.83 2.07l-.08.06c-.2.1-.38.2-.57.32-.69.4-1.46.8-2.15 1.14l-.9.46c-1.1.56-2.36 1.22-3.27 2.3-.3.35-.5.74-.7 1.12l-.22.42-.23.38c-.2.33-.4.67-.58 1.08-.1.22-.21.43-.34.67-.17.31-.34.63-.47.98-.13.38-.12.74-.11 1.06v.42c-.02.24-.2.6-.35.96-.32.7-.68 1.5-.38 2.2.17.44.6.57.9.65l.16.04c.23.08.46.22.74.37a5.61 5.61 0 0 0 1.02.47c1.54.47 3.64-.17 4.92-1.02.4-.27.71-.58 1.04-.89.25-.22.48-.45.73-.64l.16-.11c.42-.31.8-.6 1.2-1.08.57-.74 1.45-1.36 2.32-1.95.36-.26.78-.55 1.15-.83 1.62-1.27 3.75-1.64 5.82-2 1.12-.19 2.28-.38 3.36-.73.47-.14.9-.36 1.28-.56.33-.16.65-.33.98-.45l.43-.15.07-.02c.7-.24 1.35-.45 2-.97.18-.14.37-.29.59-.49.43-.36.87-.74 1.31-.96.28-.15.58-.26.9-.37l.46-.16-.1.09c-.9.85-1.83 1.75-2.52 2.75-.54.8-.92 1.7-1.28 2.57-.34.81-.7 1.66-1.18 2.38l-.2.29a32.11 32.11 0 0 0-2.14 3.49c-.26.51-.48 1.05-.68 1.6-.23.59-.47 1.2-.78 1.75-.31.58-.73 1.1-1.17 1.66l-.45.56c-.27.35-.51.71-.77 1.08-.38.55-.76 1.11-1.2 1.6-.2.2-.4.4-.66.63-.98.92-2.2 2.06-1.77 3.66l.12.4c.28 1.11.66 2.61 1.87 3.08.2.08.43.12.66.13 1.14.06 2.01-.9 2.78-1.77.24-.26.49-.53.7-.73.9-.77 1.65-1.65 2.38-2.51.57-.66 1.15-1.33 1.78-1.94 1-.96 2.15-1.8 3.27-2.6.93-.68 1.9-1.37 2.78-2.15l.22-.19c-.75.97-1.47 1.98-1.95 3.15-.36.85-.76 1.82-1.02 2.8-.18.68-.28 1.36-.36 2.06-.07.43-.12.88-.21 1.31-.3 1.54-.56 2.92-.65 4.34-.02.25-.07.53-.12.82-.1.57-.22 1.14-.13 1.68.07.42.3.77.49 1.08.07.1.14.23.19.33.16.3.28.63.4.97.13.34.27.74.47 1.09.2.35.28.46.61.61l.21.1.56.25c.5.19 1.73.6 2.49.3.56-.24 1.04-.91 1.46-1.5.15-.2.32-.45.46-.59.14-.16.31-.3.5-.46.33-.27.66-.56.9-.94l.22-.34c.53-.87 1.14-1.85 1.89-2.55.42-.39 1.02-1 1.5-1.66.21-.29.35-.62.48-.94.1-.25.2-.49.33-.67l.2-.26.03-.06c.27-.36.57-.76.78-1.18.1-.2.18-.42.26-.63.08-.23.15-.43.27-.62.35-.55.61-.98.87-1.68.22-.58.41-1.02.6-1.39l-.1.24-.17.44c-.35.88-.71 1.79-.91 2.75a13.2 13.2 0 0 0-.18 2.44c0 .47-.01.95-.05 1.42a15.9 15.9 0 0 1-.32 1.9c-.23 1.18-.48 2.39-.27 3.62.04.2.06.42.07.66.08.87.17 1.95 1.24 2.42l.39.18c.85.4 2.02.97 2.89.62.33-.12.64-.37.94-.6.16-.13.3-.25.45-.33.68-.43 1.15-1 1.55-1.58a37.6 37.6 0 0 0 4.44-8.15l.76-1.94c.47-1.18.95-2.4 1.4-3.62.19-.54.34-1.1.5-1.66.14-.52.28-1.05.47-1.56.18-.5.31-1.01.43-1.52.12-.46.23-.92.38-1.35.22-.66.49-1.31.73-1.9.35-.86.71-1.75.99-2.69l.18-.63c.32-1.1.65-2.24 1.09-3.31.21-.51.46-.97.72-1.4-.1 1.07-.17 2.22-.2 3.56-.01 1.35-.22 2.5-.45 3.86l-.05.25c-.12.73-.14 1.43-.15 2.1l-.02.83c-.03.49-.08.98-.13 1.46-.06.66-.13 1.34-.14 2.04 0 .71.01 1.44.03 2.15.01.6.03 1.2.03 1.81v.83c.01.96.01 1.96-.01 2.93 0 .34-.05.7-.1 1.08-.1.76-.18 1.53-.02 2.3.13.55.18 1.06.24 1.64l.08.84c.08.57.26 1.08.44 1.58.11.3.24.65.32 1 .17.73.34 1.22 1.08 1.85.27.23.45.48.68.77.13.18.27.37.44.55.19.2.67.7 1.2.9l.14.04c.55.15 1.06.04 1.56-.35l.13.66.1.55c.1.56.14 1.13.18 1.73.02.4.04.82.1 1.24.14 1.21.17 2.44.2 3.64.04.94.06 1.9.14 2.87.06.76.17 1.51.28 2.28.12.83.24 1.69.3 2.52.04.8.03 1.6.04 2.4 0 .7 0 1.44.03 2.16.07 1.45.36 2.9.64 4.29l.03.13.21 1.15c.23 1.2.39 2.44.53 3.62.06.44.11.9.18 1.34.05.36.11.6.26.97.27.71.48 1.43.7 2.24.49 1.78.96 3.53 1.39 5.22.94 3.7 1.71 7.1 2.36 10.4.3 1.57.7 3.13 1.09 4.65.3 1.17.6 2.37.86 3.53.18 5.29.45 9.12.86 12.68-.3-.2-.6-.37-.96-.53a4.76 4.76 0 0 1-.99-.6c-.41-.31-.83-.6-1.34-.8l-.98-.33c-.77-.26-1.56-.53-2.24-.86h.24c.12.02.24-.08.26-.2l.03-.22c.06-.5-.39-.85-.65-1.01a5.1 5.1 0 0 0-.35-1.25l-.19-.5c-.16-.55-.43-1.01-.8-1.53a6.9 6.9 0 0 1-.78-1.55 36.5 36.5 0 0 0-1.96-4.05c-.35-.67-.7-1.4-1.12-2.34l-.07-.14a1 1 0 0 1-.14-.43l.1-1.79a.25.25 0 0 0-.2-.26c-.12-.03-.24.05-.28.16l-.57 1.7-.18.5a4 4 0 0 0-.35 2.37c.28 1.22.83 2.5 1.7 3.87.23.37.43.76.62 1.15-.28-.33-.53-.68-.8-1.04l-.2-.28A9.61 9.61 0 0 0 70 185.1c-.78-.39-1.61-.65-2.47-.91-.4-.12-.77-.24-1.15-.38-.79-.29-1.6-.53-2.4-.77l-.9-.27c-1.05-.32-2.28-.7-3.56-.95-.5-.1-.83-.12-1.34-.07l-1.26.1c-.13.01-.23.1-.24.23-.01.12.07.23.18.27l1.22.36c.22.07.38.14.52.27.5.4.93.66 1.47.9 1.23.54 2.15 1.04 3 1.65l.33.25c.26.19.5.38.8.55.71.43 1.54.8 2.32 1.03l.28.08c.12.03.24.05.35.1.4.18.8.5 1.2.83l.5.39c.2.14.38.2.53.26l.18.07c.08.04.14.08.23.16l.24.2c.23.16.45.3.67.43a7 7 0 0 1 1.45 1.13l.07.06.22.2-.44-.07-.38-.06-.6-.13-.72-.15-.15-.04c-1.03-.28-1.77-.43-2.02.14a.75.75 0 0 0-.02.57c.16.4.64.61 1.08.79l.09.04.6.23.08.03.38.14.2.08c.3.13.63.28 1.01.28.34 0 .63-.1.93-.2l.26-.1c.33-.1.64-.1 1.06.02l.18.1c.65.39 1.32.74 2 1.1.71.36 1.46.75 2.16 1.19.89.55 1.98.92 3.03 1.27l.96.34c.39.14.72.37 1.1.65.34.24.72.52 1.19.72.41.17.76.4 1.14.66l.35.24c.06.55.14 1.09.23 1.64l.23 1.6c.56 3.71 1.13 7.55 1.6 11.33.11.9.2 1.8.29 2.7.15 1.53.3 3.13.59 4.7.18 1.06.4 2.14.6 3.19.2.93.39 1.86.56 2.8l.35 1.9.03.2c.56 2.92 1.14 5.95 1.22 8.94.05 1.65.24 3.28.42 4.86.12 1.1.26 2.24.34 3.38.24 3.45.18 6.96.12 10.39-.03 2.1-.08 4.28-.04 6.43.03 1.93.1 3.9.15 5.79v.1l.04 1.4a15.7 15.7 0 0 0-.55-1.33 42.3 42.3 0 0 0-3.72-6.06 1.12 1.12 0 0 0-.18-.2l-.03-.08.01-.01a.26.26 0 0 1 .18-.07l.67.12c.12.03.2-.03.26-.13.05-.1.04-.2-.03-.28l-.45-.5c-.41-.45-.87-.73-1.42-.88-.41-.84-.87-1.67-1.33-2.5l-.04-.08-.92-1.7c-.37-.7-.57-1.42-.78-2.17-.13-.49-.27-1-.46-1.5-.22-.6-.5-1.18-.76-1.74-.33-.67-.63-1.31-.85-2.01-.01-.48-.07-.97-.12-1.49-.08-.86-.18-1.74-.06-2.54.14-.87.56-1.8.96-2.7l.5-1.15c.79-2 1.15-3.55.63-5.53-.12-.44-.3-.98-.8-1.14-.47-.15-.88.14-1.16.38-1.5 1.24-2.08 4.75-2.18 5.43-.4 2.71.31 5.37 1 7.93l.15.62.1.35v1.01c-.36-.94-.77-1.9-1.3-2.78a6.52 6.52 0 0 0-2.53-2.57c-.12-.1-.22-.23-.33-.37-.15-.18-.3-.37-.51-.53-.23-.18-.48-.3-.7-.4a3 3 0 0 1-.5-.27c-.32-.23-.56-.56-.8-.9l-.32-.4a15.9 15.9 0 0 0-2.1-2.17l.18.06.16.05c.33.12.67.23.97.36.14.07.25.14.33.15.11.06.22.13.31.2.15.1.29.23.44.37.31.28.63.57 1.08.75h.01l.25.1c.07.02.14.02.2-.02.07-.03.11-.09.13-.15l.06-.26c.17-.66-.12-1.56-.39-2.36-.1-.31-.2-.63-.26-.88-.13-.57-.31-1.1-.5-1.61l.11-.39c.25-1.02.22-2 .15-3.1-.03-.38-.03-.78-.03-1.22 0-.56-.01-1.15-.07-1.73-.12-.99-.36-1.96-.6-2.88-.15-.65-.32-1.32-.44-1.94l.01-.22a27.79 27.79 0 0 0-.45-6.23c-.03-.62 0-1.2.07-1.83a6.5 6.5 0 0 1 1.41-3.38c.32-.43.66-.88.9-1.43 0-.05.05-.12.1-.23.53-1.11.75-1.71.56-2.1a.9.9 0 0 0-.73-.53c-.76-.06-1.73.76-3.33 2.83l-.28-.37c-.23-.3-.48-.62-.75-.94.04-.78-.04-1.72-.22-2.54-.1-.47.06-.92.24-1.44.24-.63.5-1.33.18-2.14-.3-.78-.36-1.1-.33-1.91.03-.8-.18-1.18-.6-1.8a10.67 10.67 0 0 1-1.4-3.94c-.11-.55-.23-1.12-.4-1.7l-.31-1.17a.25.25 0 0 0-.26-.18c-.12 0-.21.1-.24.21l-.13 1.2a8.83 8.83 0 0 0 .07 3.51c.18.57.19 1.2.2 1.86 0 .5 0 1.02.1 1.55.1.68.29 1.37.6 2.17.3.76.43 1.64.56 2.5.1.56.19 1.22.35 1.83l.08.3a7.34 7.34 0 0 0-.92-.94c-.52-.44-1.17-.72-1.81-1-.26-.12-.52-.22-.76-.35a4.46 4.46 0 0 1-.44-.26c-.54-.35-1.15-.73-1.81-.63l-.2.03a.25.25 0 0 0-.21.23l-.01.19c-.03.53.46.8.8.98l.22.13c.7.52 1.31 1.02 1.87 1.51.3.28.6.6.9.95.86.96 1.76 1.96 3.13 2.13l.64 2.26.07.22c.43 1.47.84 2.86 1.11 4.28l.06.74c.1.9.11 1.8.14 2.68l.05 1.58c.03.46.08.94.18 1.4-.03.69 0 1.36.03 2.02.03.65.05 1.31.03 1.96-.03.67.07 1.29.18 1.87.05.35.12.73.15 1.12.02.36.01.75-.01 1.18-.03.7-.06 1.4.12 2.08.1.37.23.73.34 1.04l-.02.06c-.13.46-.28.93-.35 1.49-.04.34-.04.68-.05 1.03v.09a9.14 9.14 0 0 1-1.42-1.73c-.17-.24-.32-.46-.45-.62a7.79 7.79 0 0 0-2.32-1.88c-.4-.24-.82-.49-1.22-.8-.25-.2-.49-.43-.75-.68a6.7 6.7 0 0 0-1.16-1 6.37 6.37 0 0 0-2-.67c-.34-.08-.7-.16-1.04-.27a11 11 0 0 1-2.6-1.4c-.4-.29-.84-.57-1.3-.84a63.25 63.25 0 0 1-3.43-2.11c-.06-.48-.57-.9-.98-1.22a6.84 6.84 0 0 1-.88-.97l-.04-.04v-.01l.03-.2c.08-.58-.55-.9-1.86-1.35l-.13-.08-.2-.4c.03-.35-.11-.68-.23-.95l-.08-.2a5.88 5.88 0 0 1-.23-1.27l-.02-.22c-.05-.5-.17-.98-.27-1.43l-.18-.9c-.08-.4-.07-.82-.06-1.25 0-.51 0-1.04-.12-1.59a21.42 21.42 0 0 0-1.36-3.93c-.22-.65-.6-1.73-1.44-1.64l-.1.01a.25.25 0 0 0-.17.1l-.06.1c-.23.33-.14.82-.06 1.31.03.15.06.32.06.39-.02.62-.03 1.33.02 2.01l.03.49c.08 1.12.16 2.28.5 3.4.48 1.64 1.29 3.07 2.09 4.5l.44.8-.3-.2a9.97 9.97 0 0 0-1.4-.59c-.17-.11-.33-.23-.49-.32-.51-.32-1.08-.51-1.7-.72l-.48-.17c-.35-.14-.72-.3-1.1-.52l-.9-.84c-.83-.81-1.73-1.56-2.6-2.27.04-.25-.1-.44-.16-.54-.22-.6-.64-1.16-1.04-1.7-.2-.3-.4-.55-.57-.8l-.95-1.6c-.03-.24-.11-.47-.18-.71l-.04-.13c-.1-.44-.16-.9-.22-1.36-.06-.38-.1-.78-.2-1.17a47.85 47.85 0 0 0-2.94-8.69c-.2-.45-.38-.9-.57-1.38l-.03-.07c-.79-1.97-1.59-4-3.08-5.5l-.16-.16c-.09-.1-.25-.1-.35 0l-.16.15c-.51.46-.45 1.22-.41 1.81l.02.32-.01.6c0 .44-.02.89.02 1.34.16 2.53 1.41 4.31 2.76 6.24l.59.85a21.7 21.7 0 0 1 1.94 3.87l.74 1.72c.39.82.83 1.67 1.3 2.52a1.68 1.68 0 0 1-.33-.13 1.15 1.15 0 0 0-.2-.08c-.24-.1-.5-.18-.75-.26l-1.2-.45a21 21 0 0 0-.46-.44c-.58-.58-1.19-1.18-1.88-1.68a10.2 10.2 0 0 0-1.58-.89 8.47 8.47 0 0 1-1.48-.85c-.6-.46-1.15-1.06-1.67-1.62l-.07-.08-.33-.35-.3-.32-.16-.29c-.1-.2-.22-.4-.34-.59a2.95 2.95 0 0 1-.36-.65c-.1-.28-.15-.58-.21-.9-.05-.26-.1-.53-.17-.78l-.02-.1c-.39-1.54-.8-2.33-1.33-2.57a.89.89 0 0 0-.77.01c-.66.34-.37 1.28-.24 1.74l.24-.08-.21.14c0 .08.03.17.05.25l-.14-.13-.08-.08-.69-.68c-.53-.53-1.14-.97-1.76-1.43-.29-.2-.57-.4-.84-.62l-.1-.08c-.8-.63-1.69-1.34-2.86-1.5-.3-.04-.7-.1-1 .15-.2.15-.3.38-.32.72l.04.18c.16.35.42.62.7.78.52.53 1.08 1.03 1.66 1.51l-.25.19a.23.23 0 0 0-.1.16c0 .07.01.13.06.19.57.77.95 1.15 1.93 1.44.29.08.56.1.83.12.18.02.35.03.5.06l.19.05.04.02 1.19.8c-.45-.02-1.45.03-1.97.74a.92.92 0 0 0-.16.84c.2.6 1 .83 1.66 1.02l.28.09c.65.23 1.33.37 2 .5.7.16 1.43.3 2.08.57.46.2.86.5 1.21.8.2.29.43.64.65 1.02.07.11.22.16.34.09l.18-.1c.21.17.41.3.61.42.58.35 1.15.76 1.67 1.13a17 17 0 0 0 2.77 1.73l.37.15.09.04.52.49 1.11.96.09.07.49.42-1.46-.57-2.85-1.1a7.58 7.58 0 0 0-3.3-.68l-.21.02c-.12.01-.22.11-.24.23l-.01.2c-.06.7.77.83 1.38.92l.4.07c.6.22 1.19.45 1.79.69-.33-.02-.68-.01-1.02.02-.24.01-.51 0-.8-.01a5.87 5.87 0 0 0-2.53.4c-.37.13-.55.28-.78.48l-.35.28a.27.27 0 0 0-.1.18c0 .07.02.14.07.18l.18.2c.3.28.73.33 1.05.36.1 0 .17.01.24.03l1.04.27c.34.1.68.2 1.03.28.49.1.97.28 1.41.43.59.2 1.19.4 1.85.53l.25.04c.93.19 2.49.48 3.4-.2.22-.18.4-.4.5-.69l.43.25.08.04 1.13.64.11.06c1.02.54 2.08 1.1 3.02 1.76l.35.25c.46.32.91.63 1.35.89.7.6 1.35 1 2.08 1.25l-.06.1-.05.1c-.02.02-.02.02-.1.03a2.78 2.78 0 0 0-.85.36l-.07.04a2.44 2.44 0 0 0-.54-.06c-.39.02-.78.09-1.14.16l-.4-.05c-.6-.07-1.2-.18-1.83-.36a2.2 2.2 0 0 0-1.1-.1l-.9.17a.25.25 0 0 0-.2.23c0 .1.06.22.17.26l.85.3c.19.05.37.14.58.23.43.18.9.4 1.4.45.5.05.97-.03 1.47-.12.44.06.92.1 1.39.03.11-.02.23-.05.33-.09.15.04.28.1.44.17.25.1.5.2.77.27.35.09.7.15 1.06.23.39.07.78.14 1.17.25.5.14 1 .33 1.47.5.58.23 1.2.46 1.84.61a4.6 4.6 0 0 0 2.76 1.94 66.6 66.6 0 0 0 3.77 2.34c.42.24.83.51 1.27.8.16.1.31.21.48.3-1.19.1-2.12.55-3.11 1.04l-.06.03c-.33.16-.67.32-1.03.47-.89.39-1.56.47-2.58.6-.77.09-1.53.29-2.27.47-.47.12-1 .26-1.48.35l-.8.13c-.8.14-1.56.25-2.36.61-1.12.5-2.16 1.1-3.17 1.68l-1.16.65c-2.1 1.15-3.77 1.55-5.44 1.28-.37-.06-.72-.14-1.09-.21l-.09-.02c-.48-.1-.97-.2-1.47-.27-.69-.1-1.33.01-2 .13l-.59.1a3.7 3.7 0 0 0-2.13.95l-.16.1c-.24.17-.63.43-.69.94-.05.42.1.65.26.77.35.3.83.16 1.27.04.09-.02.17-.05.24-.05.46-.06.62-.01.98.08l.28.08c.48.13.87.13 1.25.13.18 0 .37 0 .59.02.23.02.45.07.7.13.3.07.63.14.98.15.33 0 .6-.05.86-.1l.42-.09c.24-.02.47 0 .7 0 .26.01.5.03.79 0 .5-.03.96-.2 1.34-.35.34-.13.64-.24.96-.29.19-.02.44.03.68.04.46 0 .75-.08 1.07-.17l.26-.07c.6-.15 1.23-.2 1.84-.24a8.36 8.36 0 0 0 2.9-.57 8.5 8.5 0 0 0 1.43-.89l.53-.38c.4-.27.63-.33 1-.42l.44-.13a6.77 6.77 0 0 0 1.95-1.08c.44-.31.86-.61 1.33-.8.6-.26 1.04-.12 1.64.08.23.08.49.16.76.23 1.22.28 2.47.22 3.68.17.24 0 .48-.02.7-.03.66-.03 1.21.2 1.85.46l.16.07c.64.26 1.2.3 1.73.33.26.01.52.03.81.07.63.09 1.35.4 2.03.71l.88.38c.46.17.92.33 1.4.47l.46.34a17.54 17.54 0 0 1 3.6 3.52c.3.38.59.77 1.02 1.1.21.16.45.27.65.36.2.1.38.18.52.3.12.09.24.23.36.4.14.16.27.32.45.47.18.16.37.28.58.42.12.08.25.16.37.26.58.45.97.99 1.37 1.65.61 1.01 1.05 2.16 1.48 3.28a34.58 34.58 0 0 0 1.08 2.5l.06.12c.04.24.04.43 0 .57l-.07.2c-.04.12.01.25.13.3l.2.1c.1.05.23.17.3.34l.7 1.26c.06.1.18.16.3.12a.26.26 0 0 0 .17-.28l-.26-1.42a5.75 5.75 0 0 0-.54-1.49c-.05-.22-.1-.45-.18-.68a5.2 5.2 0 0 1-.18-.77l-.04-.46a16.64 16.64 0 0 1 1.1 2.95c.22.76.43 1.55.84 2.34.3.6.63 1.18.96 1.76l.22-.12-.17.22c.33.6.66 1.2.98 1.82h-.07l-.2-.01c-.55-.05-1.09-.16-1.68-.3-.5-.12-1.05-.23-1.6-.29l-.7-.1a5 5 0 0 0-2.01-.08l-.75.18a.27.27 0 0 0-.2.24c0 .1.06.2.17.24l.74.27c1 .36 2.17.86 3.16 1.85.18.16.32.36.48.55.2.27.42.54.7.79.45.4.9.59 1.32.76.23.1.47.2.7.33.35.2.35.2.41.5l.12.48c.3 1.11.7 1.9 1.3 2.86.33.53.66 1.09.98 1.64.5.87 1.03 1.78 1.6 2.61l.1.13v.08c.08.48.4.78.85.83l.21.02c.09 0 .17-.03.22-.1.2.41.43.76.68.97l.02 2.62c.02 2.84.04 5.79.29 8.66.2 2.29.26 4.38.17 6.41v.3c-.08 1.76-.16 3.43.05 5.2.06.51.15 1.03.23 1.56.19 1.14.35 2.22.3 3.36-.03.58-.14 1.2-.25 1.8-.14.83-.3 1.68-.25 2.54.07 1.26.32 1.97.77 2.15.04.01.09.03.14.03.67.07.93-.56 1.07-.9l.1-.22c.07-.1.13-.17.2-.23.14-.17.29-.33.41-.65.15-.37.2-.77.25-1.12.04-.3.08-.58.16-.82.68-2 1.52-4.49 1.38-6.9-.02-.44-.07-.86-.11-1.27-.08-.66-.15-1.28-.12-1.96.02-.68.01-1.36 0-2.04 0-.57-.02-1.15 0-1.72.01-.68-.03-1.37-.07-1.97l-.07-1.48c0-.49.06-.99.13-1.5.08-.55.14-1.12.12-1.73-.02-.61-.13-1.23-.22-1.77-.09-.5-.18-1.02-.2-1.53a89 89 0 0 1-.09-3.68c0-.56.06-1.13.13-1.7.06-.55.12-1.12.13-1.7 0-.73-.06-1.46-.13-2.2-.05-.6-.1-1.27-.12-1.92-.03-1.38-.02-2.78-.01-4.15 0-2.86.02-5.82-.2-8.75l-.3-3.2v-.08c-.12-1.17-.25-2.39-.33-3.58-.08-1.17-.1-2.34-.12-3.5-.02-1.09-.04-2.22-.11-3.35a89.88 89.88 0 0 0-2.58-17.11 57.19 57.19 0 0 1-1.71-9.14 51.66 51.66 0 0 0-1.13-8.35 53.3 53.3 0 0 1-.93-5c-.09-.63-.21-1.3-.4-2.17.47-1.17.92-2.15 1.6-3.13.81-1.16 1.47-2.4 2.12-3.61.34-.66.71-1.34 1.09-2l.51-.86c.24-.4.5-.8.73-1.21.05-.1.1-.18.13-.28.2.12.38.14.51.12.43-.05.66-.43.85-.73.05-.07.14-.24.19-.27l.2-.16c.32-.27.77-.65 1.09-.78.1-.04.22-.07.37-.1.17-.03.38-.07.6-.17.25-.11.45-.3.64-.47.08-.08.17-.16.26-.22.22-.15.45-.17.74-.19.28-.02.6-.04.95-.2.27-.14.44-.35.58-.52.07-.1.15-.19.22-.24.1-.06.18-.1.27-.17.2-.1.44-.24.68-.52l.11-.14c.41-.49.96-1.15.97-1.89v-.46c0-.09-.05-.18-.12-.22a.27.27 0 0 0-.27.01l-.37.27c-.34.23-.76.35-1.2.47-.54.15-1.11.31-1.61.7-.35.26-.67.55-1 .85-.25.24-.52.48-.8.7-.19.16-.4.28-.63.4l.07-.17c.15-.28.43-.64.65-.94.12-.16.24-.31.33-.45.3-.42.64-.84.98-1.26.62-.76 1.27-1.55 1.69-2.45.23-.48.4-.98.58-1.5.12-.35.25-.71.4-1.06.15-.37.38-.7.64-1.06.28-.4.57-.8.77-1.3l.36-.93.34-.88c.04-.12.1-.24.16-.37.17-.36.33-.74.36-1.16.03-.34 0-.68-.03-1-.05-.67-.1-1.25.2-1.73l.31-.5a.26.26 0 0 0 0-.29c-.07-.08-.18-.12-.27-.09l-.58.17c-.53.15-.86.76-1.14 1.28l-.12.22-.54.78c-.39.54-.77 1.1-1.12 1.73l-.59 1.32-.64.92-.15-1.34c-.02-.12-.02-.31-.03-.56-.03-1.6-.15-3.04-1.1-3.26l-.13-.03c-.09-.01-.17 0-.24.07l-.09.09a.86.86 0 0 0-.24.74v.08c-.05.23-.1.47-.17.72-.3 1.29-.66 2.76-.53 4.11.04.35.1.68.19 1a6.04 6.04 0 0 1 .14 2.5c-.01.25-.03.51-.03.77-.02.67-.1 1.38-.24 2.07l-.22.59-.3.73c-.04.11 0 .21.07.28-.43.9-.84 1.74-1.22 2.7 0-.37-.1-.7-.2-1.04a5.2 5.2 0 0 1-.09-.37l-.1-.51c-.18-1-.43-2.37-1.76-2.57l-.16-.02a.27.27 0 0 0-.27.13l-.07.16c-.2.36-.16.74-.14 1.05l.01.29v.2a14.91 14.91 0 0 0 .5 4.72l.02.14v.05c-.1.17-.17.35-.25.52a16.73 16.73 0 0 1-.9 1.6l-.04.07-.5.83c-.38.66-.73 1.3-1.12 2.03-.63 1.18-1.27 2.4-2.05 3.51-.43.62-.8 1.28-1.18 2.08a86.9 86.9 0 0 0-.68-2.62 55.43 55.43 0 0 1-1.38-5.96c-.13-.88-.24-1.79-.34-2.67a50.96 50.96 0 0 0-.61-4.13l-.11-.5-.05-1.13a34.87 34.87 0 0 0-.68-5.13c-.14-.79-.29-1.6-.41-2.41a40.05 40.05 0 0 1-.3-3.3c-.05-.78-.1-1.6-.19-2.38-.17-1.59-.26-2.82-.29-4a23.3 23.3 0 0 0-.87-6.36c-.28-.91-.34-1.8-.42-2.74-.06-.68-.12-1.4-.25-2.1-.15-.8-.45-1.76-.91-2.95-.18-.46-.4-.87-.58-1.24-.3-.57-.57-1.1-.72-1.73-.1-.48-.27-.9-.43-1.32-.13-.34-.27-.67-.35-1.02a6.2 6.2 0 0 1-.09-1.9 9.4 9.4 0 0 0 0-1.6c-.06-.5-.13-1.01-.22-1.56-.14-.9-.28-1.76-.3-2.69-.02-1.36-.35-2.6-.68-3.85a10.6 10.6 0 0 1-.27-1.6c-.05-.55-.12-1.12-.27-1.7-.08-.27-.17-.51-.29-.76-.12-.3-.24-.57-.25-.82-.02-.4.04-.84.1-1.3a14.11 14.11 0 0 0 .14-1.33c.06-.75.11-1.4-.65-2.29l.12-.13c.45-.5.93-1.02 1.23-1.71.56-1.31 1.05-2.67 1.55-4.01.3-.82.6-1.64.92-2.45l.16-.42c.38-.96.77-1.94 1.01-3 .45-1.97.49-3.8.46-5.5a53.3 53.3 0 0 1 .67-8.7c.14-.97.24-1.96.34-2.95l.09-.95.18.47c.17.4.31.76.38 1.15l.22 1.3.24-.04-.24.1c.16 1.1.34 2.25.73 3.38l.3.76c.13.33.27.65.36.97.09.34.16.7.23 1.06.06.35.13.7.22 1.07.17.64.32 1.25.33 1.88 0 .27-.01.54-.03.8-.03.56-.07 1.13.05 1.74.03.2.07.38.12.57v.07c.1.44.19.85.22 1.29.04.36.05.72.07 1.09v.07a26.23 26.23 0 0 0 .95 6.11c.36 1.61.76 2.77 1.31 3.87.29.56.6 1.08 1.21 1.32.26.1.57.15.92.14l.34-.02c.23-.02.36-.04.52.02.65.21 1.31.49 2.02.77l.36.14c.28.12.57.22.85.09.3-.13.38-.4.49-.67l.05-.14.4-1.02.26-.69c.58-1.48.95-2.95 1.33-4.5.55-2.21.64-4.38.67-6.42.01-.6.07-1.21.14-1.8.05-.45.1-.91.13-1.36.03-.55-.01-1.03-.05-1.55l-.04-.6-.04-1.18c-.02-1.2-.04-2.55-.3-3.53a32.04 32.04 0 0 1-1.34-7.6l.06.2.52 1.64.03.1c.46 1.48 1.34 2.58 2.27 3.75.19.23.38.46.56.71.4.51.74 1.08 1.08 1.65.37.62.76 1.26 1.22 1.85.38.46.8.93 1.2 1.37a15.7 15.7 0 0 1 2.62 3.56c.72 1.3 1.4 2.65 2.07 3.98l.2.42c.59 1.14 1.17 2.32 2.37 3.07l.8.55c.56.42 1.2.89 1.87 1.14.18.07.34.12.5.15.39.08.77.05 1.17 0l.31-.02.31-.01c.36 0 .8 0 1.13-.1.3-.1.53-.26.74-.42l.18-.12c.13-.1.26-.17.41-.25.24-.13.5-.29.72-.47.45-.35.75-.94.9-1.7.1-.54 0-1.05-.08-1.55-.05-.33-.1-.64-.1-.93 0-.2.02-.4.04-.62.03-.54.06-1.1-.06-1.7-.28-1.47-.7-3.2-1.63-4.8-.28-.5-.4-.95-.53-1.5-.05-.19-.1-.4-.17-.61-.22-.73-.48-1.46-.72-2.1l-.17-.48c-.23-.6-.4-1.24-.58-1.88-.1-.38-.22-.77-.34-1.16.39.25.8.47 1.22.68.44.22.85.42 1.22.67a7.51 7.51 0 0 1 2.05 1.84l.05.07c.34.45.73.97 1.29 1.36.37.26.84.4 1.3.54.17.06.35.1.5.17.14.05.28.1.48.2.55.23 1.13.48 1.78.45.18 0 .34-.04.51-.07.13-.03.27-.05.39-.05.2 0 .42.08.7.2l.16.06c1.35.51 2.78 1.07 3.93 1.53l1.34.53c.12.05.26.1.4.18.85.39 2.44 1.1 3.12-.32.54-1.13.78-2.05.75-2.82a14.84 14.84 0 0 0-1.02-4.29l-.07-.2a10.7 10.7 0 0 0-1.2-2.37c-.47-.71-1.16-1.2-1.83-1.66l-.25-.17-.62-.46c-.45-.33-.9-.67-1.39-.97-.2-.13-.43-.24-.65-.35-.29-.15-.55-.29-.8-.47-.57-.45-1.2-.8-2.1-1.2-.42-.2-.78-.48-1.15-.78-.17-.15-.35-.29-.55-.44a11.68 11.68 0 0 0-3.34-1.51l-.06-.03-1.01-.35a4.6 4.6 0 0 1-1.05-.52l.92.37c.82.31 1.7.62 2.62.89.32.09.64.2.95.3l.06.02c.86.28 1.75.58 2.71.7 1.24.14 2.38.36 3.62.72 1.61.45 3.16.64 4.81.83l.47.06c.54.06 1.04.19 1.56.32.35.09.68.18 1.04.24.78.16 1.63.15 2.49.13 1.49-.05 2.58-.46 3.33-1.3.53-.6.85-.86 1.62-.99.31-.05.61-.05.96-.04.43 0 .92 0 1.42-.13l.13-.02c.23-.03.5-.1.67-.52.1-.24.06-.52 0-.87l-.03-.1c-.12-1-.42-1.26-1.21-1.72-.2-.11-.4-.29-.6-.45l-.4-.3c-.42-.3-.71-.68-1.06-1.11l-.05-.06a11.19 11.19 0 0 0-2.19-2.15c-.2-.16-.38-.35-.58-.57-.17-.18-.34-.37-.54-.54a2.67 2.67 0 0 0-1-.49l-.22-.07a6.54 6.54 0 0 1-1.59-.84c-.4-.27-.83-.47-1.2-.65a7.44 7.44 0 0 1-.81-.41 26.08 26.08 0 0 0-3.76-1.9l-.55-.2c-.75-.29-1.51-.58-2.25-.91h.06l.25-.01 1.4.02h.5c.27.01.52.1.82.22.27.1.54.2.88.24.55.07 1.1-.02 1.62-.12.45-.07.88-.15 1.29-.11.22.02.42.05.63.1.39.05.81.12 1.27.1a13.8 13.8 0 0 0 1.73-.2c.6-.12 1.22-.29 1.76-.44a18.01 18.01 0 0 1 2.31-.52c.35-.05.73-.1 1.1-.18l.58-.15c.24-.07.46-.13.7-.17.53-.09 1.07-.09 1.68-.09l1.1-.01c.62-.04 2.2-.2 3.28-.97.56-.4.92-1.02 1.07-1.89.27-.88-.01-1.47-.6-2.19ZM71.58 192.3c-.13 0-.27-.05-.43-.11l.29.06.25.04a.3.3 0 0 1-.1.01Zm4.3-.24a.1.1 0 0 0-.05-.02c-.5-.2-1.07-.2-1.58-.23h-.28l-.01-.04c-.3-.57-.7-.93-1.11-1.3l-.28-.25c-.45-.43-.88-.7-1.34-1l-.62-.41-.16-.13c-.1-.1-.26-.22-.49-.33l-.13-.05-.09-.03a1.01 1.01 0 0 1-.3-.15c-.18-.12-.34-.25-.52-.4-.43-.33-.88-.69-1.39-.91a3.15 3.15 0 0 0-.53-.17l-.2-.05a7.78 7.78 0 0 1-3.16-1.7c-.83-.58-1.71-1.08-2.84-1.6.68.18 1.35.39 2 .58l.91.28c.77.24 1.56.48 2.34.75.41.15.82.28 1.24.4.77.24 1.57.5 2.28.86a8.95 8.95 0 0 1 3.21 2.45l.2.28c.46.63.88 1.21 1.48 1.77.2.18.42.34.67.53.33.25.66.5.87.74l.1.15v.01l.07.1-.28-.13Zm1.78.2a2.4 2.4 0 0 0-.43-.27l-.16-.25a2.3 2.3 0 0 0-.25-.37l-.13-.21c-.27-.43-.53-.83-.75-1.26l-.33-.66c-.25-.5-.5-1.03-.82-1.55-.8-1.3-1.31-2.46-1.57-3.57-.07-.36-.04-.7.04-1.03.35.76.64 1.36.95 1.93.63 1.2 1.37 2.56 1.9 3.95.28.72.55 1.25.9 1.76.31.44.54.81.67 1.25l.16.45-.18-.16ZM75 239.83l.3.97a.55.55 0 0 0-.08-.07c-.17-.14-.33-.3-.52-.43l-.04-.02.02-.66c0-.25.01-.5.04-.75.06.3.17.62.28.96Zm-4.81-35.17c-.28-.73-.45-1.34-.56-1.98-.08-.45-.08-.93-.08-1.4 0-.2 0-.39-.02-.59.19.44.43.89.72 1.33.35.54.45.73.43 1.25-.03.92.05 1.39.4 2.29.17.46.02.9-.19 1.46l-.1.29c-.13-.88-.27-1.8-.6-2.65Zm-1.56 5.18c-.3-.34-.63-.7-.97-1.01l-.03-.03c.4.18.8.39 1.1.64.37.32.74.75 1.06 1.15.27.31.54.63.84.92-.77-.3-1.4-1-2-1.67Zm5.3 4.53a7.21 7.21 0 0 0-.81 1.98l-.45-1.52-.06-.22-.29-1.02.14.16.18.21c.04.06.12.1.19.09.07 0 .14-.04.19-.1l.18-.2.19-.24c1.62-2.15 2.32-2.6 2.56-2.7-.04.16-.17.5-.53 1.25-.05.1-.1.19-.1.23-.2.45-.48.82-.8 1.24-.2.26-.4.54-.6.84ZM49.1 217.6c-.3-1-.38-2.1-.45-3.18l-.04-.48c-.04-.53-.03-1.1-.03-1.61.01 0 0 .02.02.03.47 1.12.95 2.27 1.21 3.5.1.44.1.89.09 1.38a8.62 8.62 0 0 0 .27 2.4c.08.34.15.66.2.98-.48-.95-.96-1.93-1.27-3.02Zm-12.22-9.02-.02-.06a22.5 22.5 0 0 0-2.6-4.84l-.06-.08c-1.25-1.77-2.43-3.46-2.57-5.7-.03-.42-.01-.86 0-1.34a9.85 9.85 0 0 0-.02-.97l-.02-.38c1.01 1.29 1.67 2.94 2.3 4.55l.6 1.48a47.14 47.14 0 0 1 2.92 8.58l-.53-1.24Zm-14.45-6.25-.21-.14c-.9-.6-1.85-1.22-2.71-1.9a24 24 0 0 1-1.66-1.5c0-.02-.02-.02-.02-.03l-.07-.06a1.1 1.1 0 0 1-.14-.1l.06.01c.87.12 1.62.72 2.35 1.3l.1.08c.3.24.61.46.92.68.55.4 1.13.82 1.6 1.3l.7.69c-.31-.13-.62-.24-.92-.33Zm3.12.59.03.1c.01.02 0 .03.02.05a5.06 5.06 0 0 1-.47-1.34v-.01l-.05-.15-.07-.23c.15.27.33.74.54 1.58Zm-.35 3.34c-.62-.13-1.26-.26-1.84-.47l-.37-.12c-.63-.18-.86-.3-.95-.36.2-.27.77-.35 1.23-.32.07 0 .15.03.26.05.35.07 1.05.23 1.4-.33.66.5 1.34 1.11 2.06 1.86l.09.16c-.62-.2-1.26-.34-1.88-.47Zm11.86 11.22c-.55.43-1.9.17-2.62.04l-.26-.05c-.6-.1-1.13-.3-1.72-.5-.48-.17-.97-.34-1.5-.46a12.3 12.3 0 0 1-.97-.26c-.31-.1-.65-.19-.97-.27a4.7 4.7 0 0 1 1.85-.23c.33.01.62.02.92 0 .89-.07 1.92.05 2.46.12.21.03.45.1.74.21l.6.25.05.03.61.26c.33.12.68.28 1.06.47a.8.8 0 0 1-.25.4Zm1.84-2.28c-.44-.4-.9-.79-1.34-1.17.28.1.64.18.96.02l.6.98c.18.3.42.62.6.87l.07.07c-.3-.25-.6-.5-.89-.77Zm10.47 9.14c-.41-.1-.83-.19-1.26-.27l-.99-.21-.15-.05c.08-.03.17-.09.27-.17.14-.12.21-.26.27-.35l.05-.1.06-.01.1.05c.2.14.41.29.68.43.21.11.44.18.64.24l.06.01.3.1c.33.15.6.37.88.61l-.91-.28Zm16.2 12.7c-.31-.04-.58-.06-.9-.08-.5-.03-.93-.05-1.44-.26l-.16-.07c-.7-.29-1.37-.56-2.23-.53l-.72.03c-1.15.05-2.34.1-3.43-.14a7.04 7.04 0 0 1-.67-.2c-.68-.22-1.38-.45-2.32-.06-.57.25-1.06.59-1.53.93-.54.38-1.06.74-1.65.92-.14.05-.26.07-.42.1-.4.1-.75.2-1.29.56l-.56.4c-.4.3-.8.6-1.25.8-.81.35-1.67.42-2.6.48-.64.05-1.3.1-1.97.26l-.25.06-.07.02a2.9 2.9 0 0 1-1 .12c-.17 0-.37-.04-.58 0-.44.05-.83.2-1.2.34-.37.13-.7.27-1.08.3-.21.01-.43 0-.66-.01-.25-.02-.54-.03-.84 0-.2.02-.38.06-.56.1-.2.04-.4.08-.6.07-.27-.01-.52-.07-.8-.13-.25-.05-.53-.12-.84-.14a6.32 6.32 0 0 0-.66-.02c-.34 0-.63 0-1-.1l-.27-.08c-.4-.1-.71-.2-1.36-.11l-.45.1-.02.01.06-.03.21-.15c.61-.48.93-.65 1.65-.75l.68-.1c.53-.1 1.03-.19 1.54-.14l.12.01c.48.07.99.17 1.43.27l1.2.22c1.89.32 3.77-.1 6.07-1.38l1.11-.63.06-.04c.99-.56 2.02-1.14 3.08-1.63.69-.32 1.37-.42 2.13-.55l.81-.14c.53-.1 1.05-.24 1.55-.36.7-.18 1.43-.37 2.14-.45a9.17 9.17 0 0 0 2.85-.67c.4-.17.77-.34 1.13-.52a7.05 7.05 0 0 1 3.1-.95c.34 0 .72.08 1.14.24 1 .4 1.94 1.15 2.2 1.37.42.34.74.8 1.1 1.29a7.88 7.88 0 0 0 1.87 2.02c-.6-.26-1.22-.5-1.86-.6Zm5.34 1.84-.72-.2c-.98-.78-1.96-1.64-2.76-2.33a6.93 6.93 0 0 1-1.07-1.28 7.7 7.7 0 0 0-1.43-1.62c.34.1.65.2.95.38.36.22.66.53.98.85a8.17 8.17 0 0 0 2.16 1.64c.75.46 1.46.9 2.05 1.64a21.3 21.3 0 0 0 .87 1.2l-1.03-.28Zm10.23 6.2a12.65 12.65 0 0 1-.17-4.2c.28-1.88.96-4.1 1.84-4.83.12-.1.2-.14.25-.16.03.05.1.18.16.43.44 1.73.11 3.12-.6 4.93-.13.35-.3.71-.48 1.1-.4.9-.82 1.82-1 2.73Zm8.79 25.38c-.33-.56-.65-1.12-.99-1.66a8.78 8.78 0 0 1-1.19-2.6c-.05-.17-.08-.32-.1-.44-.14-.62-.25-.75-.88-1.12-.3-.17-.57-.29-.82-.4-.39-.15-.72-.29-1.04-.58-.21-.19-.4-.42-.59-.67a7.66 7.66 0 0 0-1.7-1.6c.5.07 1 .18 1.47.28.58.13 1.18.27 1.8.3l.2.02c.24.01.45.02.65.05l.18.41.26.6c0 .27.08.47.26.6l.69 1.6.1.23c.94 2.23 1.93 4.54 3.02 6.78l.16.45.08.23a25.63 25.63 0 0 1-1.56-2.48Zm.44-2.37a17.3 17.3 0 0 1 1.55 3.37l.06.17c-.56-1.17-1.1-2.36-1.6-3.54Zm10.5-80.78c.3-.28.6-.56.91-.8.36-.27.82-.4 1.3-.53l.24-.07-.26.33-.12.15c-.12.14-.22.2-.4.3l-.34.2c-.18.14-.32.3-.42.43-.1.1-.18.21-.25.24-.18.09-.37.1-.61.12-.17.02-.36.03-.55.07l.5-.44Zm.1-4.68.17-.42c.2-.43.4-.88.44-1.34.01-.24 0-.49-.02-.73a4.94 4.94 0 0 1-.02-.63l.03-.31.1-.3c.15-.38.27-.74.46-1.06.29-.4.58-.82.9-1.3l.64-1.38c.29-.54.66-1.08 1.06-1.63l.35-.5.02.22c.02.3.04.6.03.86-.02.24-.16.54-.29.83l-.18.41-.3.77-.39 1.03c-.16.4-.4.74-.66 1.1-.27.38-.55.76-.74 1.24-.16.37-.3.76-.43 1.15-.15.46-.32.93-.53 1.37a9.34 9.34 0 0 1-1.08 1.68c.14-.35.3-.7.43-1.06Zm-.63-8.86c.05.5.07 1.03.07 1.31s.02.53.03.66c.1.82.19 1.6.24 2.35.03.3-.01.57-.03.8l-.03.08-.22.54-.02.08-.15.35-.03-.54c-.03-.35-.1-.69-.19-1.02-.06-.29-.13-.59-.16-.88-.13-1.18.2-2.52.49-3.73Zm-4.87 11.8V184.97a4 4 0 0 1 .47 1.5l.1.55c.03.14.07.27.12.4.09.33.17.63.16.92l-.03.2a3 3 0 0 0-.07.67l-.4.3a13.46 13.46 0 0 1-.36-3.94Zm-3.07 87.14c.1.23.2.47.32.7v.15l-.32-.85Zm-5.02-73.98c.32 1.17.67 2.53.97 3.9l-.35.9c-.05.12.02.27.14.32l.44.17.05.02.16.99c.28 2 .58 3.57.94 5.1.65 2.65.9 5.28 1.1 8.18.25 3.13 1.01 6.26 1.75 9.3.26 1.07.53 2.18.77 3.27a89.15 89.15 0 0 1 1.88 16.97c.01 1.15.04 2.35.12 3.53.09 1.27.22 2.56.33 3.7l.3 3.18c.2 2.88.2 5.83.2 8.67-.01 1.37-.02 2.77 0 4.17.02.68.07 1.34.13 2a14.79 14.79 0 0 1 0 3.74c-.06.57-.13 1.17-.12 1.79 0 1.03.02 2.38.1 3.72.02.56.11 1.11.21 1.64.1.55.2 1.1.21 1.64.02.53-.05 1.04-.12 1.62-.06.52-.13 1.05-.12 1.6 0 .5.04 1.02.07 1.54.04.62.07 1.25.05 1.88l.01 1.77c.01.62.02 1.32 0 2-.03.74.05 1.46.12 2.08.04.39.1.8.11 1.22.13 2.22-.68 4.62-1.33 6.53-.12.33-.16.67-.2 1-.05.33-.08.63-.19.88-.07.18-.13.24-.25.38a1.92 1.92 0 0 0-.45.7 7.6 7.6 0 0 1-.12-.92c-.05-.76.1-1.55.24-2.35.11-.62.23-1.26.25-1.89.06-1.23-.14-2.41-.32-3.57-.09-.5-.17-1-.23-1.5-.2-1.7-.13-3.34-.05-5.08l.02-.27c.09-2.07.03-4.2-.18-6.54-.25-2.83-.26-5.75-.28-8.57l-.01-2.37a.9.9 0 0 0 .3-.17c.71-.6.08-1.67-.28-2.27l-.07-.13-.1-3.97c-.06-1.93-.12-3.92-.15-5.89-.03-2.12.01-4.29.05-6.42.07-3.43.13-6.97-.12-10.45a88.33 88.33 0 0 0-.34-3.44 54.91 54.91 0 0 1-.4-4.77 58.79 58.79 0 0 0-1.25-9.13l-.38-2.05c-.17-.94-.36-1.88-.55-2.83-.2-1.03-.42-2.1-.6-3.15-.27-1.53-.43-3.12-.58-4.64v-.1c-.1-.85-.18-1.74-.3-2.61a473.9 473.9 0 0 0-1.58-11.3l-.25-1.65-.18-1.2.21-.43a.3.3 0 0 0 .02-.19.25.25 0 0 0-.12-.14l-.22-.12c-.15-1.18-.28-2.4-.4-3.68.28 1.22.6 2.46.94 3.7Zm-10.47-64.42c.06.56.13 1.15.29 1.75.32 1.2.63 2.38.66 3.62.02 1 .16 1.92.3 2.83.07.49.15 1 .21 1.52a8 8 0 0 1 0 1.44c-.04.72-.07 1.47.12 2.2.1.4.24.76.39 1.14.15.4.3.76.39 1.16.17.77.48 1.38.8 1.98a16.46 16.46 0 0 1 1.4 3.92c.12.65.18 1.32.23 1.99.08.95.16 1.94.47 2.95.65 2.13.78 4.28.82 6.1.03 1.2.12 2.46.3 4.08.08.79.13 1.6.18 2.39.05.74.1 1.51.18 2.28-.6-2.93-1.3-5.94-2.12-9.18-.43-1.68-.9-3.44-1.4-5.24-.22-.83-.43-1.58-.72-2.33-.11-.3-.16-.48-.2-.76l-.17-1.36c-.16-1.19-.32-2.43-.54-3.65l-.25-1.3c-.27-1.37-.55-2.78-.62-4.15-.03-.7-.03-1.4-.03-2.13 0-.8 0-1.62-.05-2.44-.06-.88-.18-1.75-.3-2.61-.12-.73-.23-1.47-.28-2.2-.08-.95-.1-1.9-.14-2.83-.02-.78-.04-1.59-.1-2.4.09.4.14.82.18 1.23Zm57.48-84.12c1.46-.26 3.03-.17 4.54-.1h.13l1.14.06h.12c2.79.1 5.67.2 8.3 1.23.3.12.61.22.96.33.56.18 1.15.37 1.61.64.5.29 1.36 1.18 1.4 1.44.02.12-.03.25-.1.42a2 2 0 0 0-.15.56c-.04.36.08.58.16.71.04.07.06.1.06.17.03.17-.3 1-.66 1.6-.13.22-.31.37-.55.57l-.19.15c-.34.29-.39.3-.7.34l-.47.1-.44.12c-.42.1-.86.2-1.23.32-.35.11-.66.3-.96.47-.18.1-.36.22-.55.31-1.01.47-2.07.87-3.1 1.27l-.06.02-1.42.55c-.9.36-1.73.6-2.72.84-.77.2-1.5.5-2.23.79-.44.18-.95.38-1.44.55-.26.08-.54.16-.84.22l-.28-.03c-.31-.02-.6 0-.88.01-.41.03-.77.05-1.14-.06-.06-.03-.13-.01-.2.02-.05.04-.1.1-.1.15l-.05.15c-.38.06-.74.17-1.08.27a14.14 14.14 0 0 1-3.3.5c-.8.01-1.57.06-2.32.1-.31.03-.64.04-.96.06-2.12.11-4.27.11-6.35.11-1.58 0-3.38-.01-5.13.05-.32 0-.65.04-.97.05-.64.05-1.24.1-1.87.04-1.2-.09-2.37-.16-3.58-.17-1.35-.01-2.54.27-3.8.57l-.68.15-.98.26-.04-.01c-.38-.11-.78-.2-1.21-.18-.83.05-2.12.35-2.84.77l-.62-.25-.37-.16c0-.3-.02-.6-.05-.89l-.07-.9c-.1-1.4-.2-2.84-1.06-4.05l.71-.58 1.38-.86.09-.05c.6-.38 1.2-.76 1.8-1.12.35-.21.68-.44 1.01-.67.54-.37 1.1-.74 1.66-1 .48-.21.97-.4 1.49-.59.76-.28 1.55-.58 2.3-1l.76-.42c1.21-.7 2.27-1.3 3.68-1.58 5.9-1.16 11.76-1.69 16.73-2.05a36 36 0 0 1 4-.01c1.4.08 2.46-.09 3.71-.3ZM96.1 66.47l-.02.03v-.03h.01Zm-2.76 3.55c-.17.41-.5 1.25-.44 2.07l-.1.15c-.17.24-.35.47-.47.66-.2.17-.48.33-.7.47a9.58 9.58 0 0 0-.7-.4.25.25 0 0 0-.34.1l-.22.4c-.06 0-.12-.01-.17-.03-.04 0-.1-.04-.16-.06-.13-.06-.29-.15-.5-.17l-.13-.01a.26.26 0 0 0-.22.08l-.08.1a2.77 2.77 0 0 0-.56 1.55c-.51.2-1.06.39-1.62.55-1.02-.43-2.04-.7-3.25.27-.19.14-.4.27-.6.4-.17.1-.34.22-.51.34l-.8.22a11.44 11.44 0 0 0-.91-4.4 5.59 5.59 0 0 0-.49-.89c-.17-.29-.34-.56-.46-.86-.16-.45-.27-.96-.39-1.5l-.1-.47-.08-.3a6.93 6.93 0 0 0-.93-2.5 9.15 9.15 0 0 0-1.54-1.63c-.23-.2-.46-.4-.67-.62l-.26-.27-.05-.06c-.38-.4-.77-.8-1.29-1.13-.27-.16-.57-.3-.95-.45-.25-.1-.5-.18-.76-.27l-.09-.03-.7-.25c-.86-.33-1.9-.69-3.06-.83l-.74-.1c-.25-.04-.52-.09-.77-.11l.07-.3c.13-.7.17-1.33.13-1.87.52-.5.92-.92 1.27-1.31.2-.23.35-.5.49-.73.07-.14.15-.28.25-.4.52-.73 1.5-1.1 2.26-1.28.18.24.32.35.49.48.07.05.15.1.21.16l.05.07.08.06c.21.22.43.49.65.8.3.4.6.81 1 1.11a8.57 8.57 0 0 0 3.26 1.4c.52.07 2.36-.04 2.86-.55.19-.2.36-.47.53-.86.35.93.82 1.73 1.45 2.45.37.42.88.76 1.47.99 1 .38 2.06.4 2.85.04 1-.46 1.97-1.22 2.67-2.11l.23.1c.07.48.31.86.7 1.1a4.79 4.79 0 0 0 2.77.68l.35.28.08.05c-.64.64-1.33 1.58-1.07 2.81.06.32.22.58.36.8.05.08.11.16.15.26.06.11.1.26.14.41.06.22.13.47.27.7.4.73.92 1.2 1.72 1.59-.02.45-.07.87-.17 1.27l-.22.14c-.12.08-.25.15-.35.23-.55.4-.92.76-1.19 1.4Zm.54 3.65a10.67 10.67 0 0 0 2.17.85h-.5c-.42-.02-.85-.03-1.25-.09-.42-.06-.83-.25-1.28-.46l-.31-.14.28-.22.03-.04.01-.02.27-.36c.16.18.35.34.58.48Zm-4.04.67-.2.1.06-.16c.05.02.08.05.14.06Zm-1.4 2-.08-.05c-.07-.06-.16-.1-.23-.17l.33-.11-.01.34Zm-10.3-.03c-.59.1-1.05.43-1.54.77l-.27.18-.43.3c-.31-.08-.62-.2-.95-.32l-.08-.03-.57-.2c-.56-.2-1.13-.28-1.69-.36-.1-.14-.2-.25-.3-.35-.83-.7-1.91-1.53-2.92-1.42a6.8 6.8 0 0 0-.85.12l-.12-.47c-.08-.33-.17-.65-.23-.98-.41-1.96-1.64-2.9-3.44-2.65-.38.05-.75.17-1.1.28l-.54-.86v-.1c-.1-.66-.02-1.27.07-1.92.06-.46.13-1 .13-1.56-.02-1.2.06-2.16.28-3.1a5.59 5.59 0 0 0 3.58-2.67c.33.03.67.08.98.14.28.03.54.08.78.1 1.05.13 1.98.45 2.83.77.25.1.51.18.8.28.54.19 1.1.37 1.55.65.4.25.74.6 1.1.97l.32.33c.23.24.48.47.74.7.49.44.99.89 1.35 1.42.44.63.6 1.38.79 2.18l.07.3.11.5c.12.54.24 1.09.43 1.6.14.4.34.71.53 1.03.15.26.3.5.41.77.33.77.46 1.71.6 2.6.06.45.13.95.23 1.42 0 .08.03.16.04.24l-.4.08h-.03a2.58 2.58 0 0 0-2.26-.74Zm.83.98-.34.05-.07.01c-.26.05-.54.08-.8.12.18-.1.36-.17.55-.2.13-.03.26-.03.4-.01l.26.03Zm-5.03.8c-.05.52-.14 1.08-.26 1.68l-.22-.52c-.13-.27-.2-.63-.29-1.02-.04-.19-.07-.36-.12-.52.32.06.64.12.95.22h.01a.23.23 0 0 0-.07.15Zm-.66 7c-.04.38-.1.78-.17 1.18a8.11 8.11 0 0 1-.8 2.27c.19-.59.4-1.24.56-1.89.12-.52.26-1.04.41-1.57Zm-8.11-2.5.48-.69c.72-1.02 1.47-2.08 1.98-3.24l.14-.3c-.23.98-.73 1.97-1.18 2.87a21.63 21.63 0 0 1-3.2 4.49 24 24 0 0 1 1.78-3.13Zm-3.05 3.52a18 18 0 0 1-1.41 2.36l-.2.32c-.4.37-.81.67-1.28 1l-.02.02c-.33.24-.68.48-1.02.76l-.38.33c-.83.69-1.61 1.34-2.51 1.92-.6.4-1.21.77-1.83 1.15a24.9 24.9 0 0 0 3.25-3.73l.07-.1c.96-1.22 1.95-2.49 2.7-3.88 1-1.81 2.44-3.47 3.83-5.07l.7-.8c.52-.6 1.1-1.2 1.67-1.77.59-.6 1.2-1.23 1.77-1.9-.29.58-.53 1.12-.72 1.55-.48 1.08-1.2 2.1-1.9 3.08l-.48.7a28.38 28.38 0 0 0-2.24 4.06Zm5.37-11.35c-.26-.2-.5-.43-.75-.67-.32-.3-.64-.6-1.06-.9-.6-.44-1.02-.75-1.4-1.2.22-.06.42-.11.63-.14.45-.07.82-.03 1.14.1.61.22 1 .81 1.21 1.79.06.34.15.68.23 1.02Zm-1.42-13.82a4.7 4.7 0 0 1-2.11 1.57 36 36 0 0 1 .19-.52c.15-.2.22-.32.42-.47.33-.3.92-.52 1.5-.58Zm-.73-.84c.12-.13.25-.26.39-.38l.74-.67.3-.26a7.13 7.13 0 0 1-.21 1.17l-.44.01c-.26.02-.52.06-.78.13Zm7.96-6.16c.4-.06.79-.1 1.16-.17 2-.3 3.6-.53 5.22.7.29.21.62.42 1 .6v.03a6.15 6.15 0 0 1-.76 1.88 5.6 5.6 0 0 1-2.02.27 8.37 8.37 0 0 1-2.82-1.2 4.67 4.67 0 0 1-.8-.93 7.08 7.08 0 0 0-.78-.94l-.02-.02-.18-.22Zm10.3 4.13c.3.08 1.34.24 2.06-1.21l.1-.21c.49.18.98.39 1.55.62.44.19.87.37 1.3.53h.03a6.5 6.5 0 0 1-2.12 1.6c-1 .45-2.54-.05-3.2-.8a6.62 6.62 0 0 1-1.25-2.1l.5.43c-.03.48.43.98 1.03 1.14Zm.33-1.27-.7-.57-.5-.42c.37.1.74.18 1.08.25l.42.1c.2.06.4.1.61.18l-.05.1c-.15.28-.43.74-.83.72a.3.3 0 0 0 .05-.1c.03-.09 0-.2-.08-.26Zm10.42 4.32c.64.99.73 2.24.81 3.46l.07.92.03.32a2.54 2.54 0 0 1-.85-.93c-.08-.14-.12-.3-.17-.5-.05-.18-.1-.38-.2-.57a4.53 4.53 0 0 0-.22-.37c-.1-.16-.2-.3-.23-.44-.13-.63.11-1.22.76-1.89Zm25.73-20.03c.22-.23.42-.45.64-.64.89-.76 1.95-1.22 3.07-1.71.56-.24 1.19-.52 1.77-.83 1.08-.58 2.25-1.06 3.37-1.52.95-.39 2.04-.84 3.05-1.35 1.41-.71 3.09-1.13 4.55-1.45 1.32-.3 2.86-.58 4.27-.54.67.01 1.24.1 1.68.28.22.08.41.2.57.3.5.39.43.56.23 1.15-.08.26-.2.55-.23.9l-.01.16c-.01.1.04.2.12.25l.14.07c.33.19.7.1 1 .01.1-.03.26-.07.32-.07.33.05.37.1.54.43.4.75-.17 1.98-.55 2.79-1.25 2.68-3.83 4.4-6.15 5.8-.18.1-.38.2-.6.29-.28.13-.6.27-.87.46-.25.18-.48.37-.71.57-.2.16-.39.32-.6.47-.48.36-.97.66-1.63 1-.31.17-.64.36-.98.58-1.01.63-2.06 1.28-3.15.94a.24.24 0 0 0-.27.1c-.85-.03-1.92-.05-3.01.04-5 .36-10.92.9-16.86 2.06-1.58.3-2.75.97-3.98 1.68l-.74.42c-.7.4-1.47.68-2.24.97-.44.17-.9.33-1.34.53l.27-.24c.25-.26.5-.5.72-.7l.32-.2c.89-.57 1.82-1.16 2.69-1.82 1.31-1 2.59-2.12 3.83-3.2a19.54 19.54 0 0 1 4.78-2.97 9.78 9.78 0 0 0 2.4-1.5c.26-.23.45-.47.65-.72.15-.19.3-.37.45-.53.33-.33.73-.64 1.07-.93l.06-.05.7-.59c.24-.21.45-.44.66-.69Zm-5.27 3.52c.4-.3.78-.62 1.14-.93l.26-.21a3.5 3.5 0 0 1-.37.4c-.3.25-.62.5-1.03.74Zm3.96-21.55c.7-.53 1.42-1.08 2.15-1.53a34 34 0 0 1 3.62-1.8l.86-.39c.39-.17.74-.4 1.1-.6.56-.35 1.1-.68 1.68-.8.75-.16 1.5.06 2.13.3.1.05.2.08.3.1.16.05.35.11.43.18.17.16.37.74.48 1.08l.11.3c.44 1.13.32 2.56-.36 4.36-.37.99-1.02 1.88-1.65 2.74l-.07.1-.64.89-.12.16c-.62.87-1.25 1.77-1.95 2.59-1.11 1.28-2.28 2.56-3.4 3.78-.95 1.02-1.93 2.08-2.87 3.16l-.62.72a30.05 30.05 0 0 1-4.57 4.51l-.06.06c-.62.51-1.24 1.04-1.92 1.46-.96.59-1.97 1.23-2.92 2l-1.92 1.58c-1.57 1.3-3.21 2.64-4.84 3.92-.56.45-1.19 1-1.82 1.58-.7.45-1.52.98-2.27 1.55-1.05.79-1.91 1.64-2.83 2.54l-.39.4c-.9.6-1.9.99-2.85 1.1a14.8 14.8 0 0 0-2.77-1.45c.05-.3.14-.6.23-.92l.16-.55h-.01l.27-.33c.51-.61.88-1.3 1.23-1.99.16-.3.32-.61.5-.9.38-.67.81-1.31 1.24-1.95.4-.6.81-1.24 1.2-1.87.32-.55.58-1.14.84-1.73.2-.43.39-.89.61-1.3.5-.94.97-1.89 1.42-2.83a.3.3 0 0 0 .14-.1c.52-.9 1.02-1.59 1.67-2.33.51-.59.98-1.21 1.42-1.82.54-.76 1.11-1.54 1.78-2.21 1.72-1.74 3.61-3.5 5.78-5.36a82.9 82.9 0 0 0 4.27-3.94c.27-.27.56-.5.83-.73.37-.3.75-.63 1.1-1.01a9 9 0 0 1 1.61-1.45c.6-.43 1.17-.87 1.7-1.27ZM90.94 56.09h.14l.08.05-.22-.05Zm2.1-4.78c.45-1 .95-1.97 1.45-2.93.18-.35.37-.71.54-1.07.27-.53.6-1.07.89-1.55.46-.76.94-1.55 1.27-2.4.18-.44.34-.88.5-1.31l.29-.76c.26-.68.45-1.36.64-2.04.18-.64.39-1.37.66-2.05.78-1.96 1.53-3.96 2.29-5.93.78-2.07 1.6-4.22 2.44-6.3.25-.66.58-1.4.95-2.2-.2.84-.42 1.63-.7 2.4-.56 1.56-1.17 3.13-1.77 4.66-.94 2.43-1.91 4.93-2.73 7.5-.84 2.68-2 5.39-3.55 8.29-.25.45-.45.92-.65 1.37-.24.55-.48 1.11-.78 1.62-.37.61-.77 1.21-1.14 1.79l-.04.06-.56.85Zm13.52-31.17c.32-.43.64-.81.97-1.13.44-.47.75-1.05 1.05-1.64.15-.28.3-.59.48-.85a16.36 16.36 0 0 1 3.74-4.37c1.03-.8 2.14-1.63 3.3-2.34a4.47 4.47 0 0 1 2.46-.53c.22.05.41.11.59.18.52.2.64.4.67.45.33.68.06 1.95-.1 2.8l-.05.2c-.21 1.04-.67 2.1-1.12 3.13-.2.46-.4.91-.57 1.37l-.08.18.24.1-.26-.04c-.13.3-.26.61-.3.98-.02.18 0 .37.03.54.01.15.04.3.02.4-.09.58-.36 1.18-.62 1.79-.13.28-.24.56-.34.83-.44 1.16-1.04 2.05-1.45 2.17a.25.25 0 0 0-.15.11.21.21 0 0 0-.02.2l.03.1-.3.3c-.3.34-.64.63-1 .93-.3.25-.6.5-.89.78a81.13 81.13 0 0 1-4.23 3.9 97.51 97.51 0 0 0-5.83 5.41c-.71.72-1.3 1.53-1.88 2.32-.3.41-.61.84-.94 1.25.26-.7.5-1.38.7-2.04.8-2.52 1.77-5.03 2.71-7.46a197 197 0 0 0 1.77-4.66c.54-1.5.87-3.05 1.2-4.55l.17-.81Zm-14.64 4.88c.46-.87.9-1.75 1.31-2.6 1.14-2.3 2.21-4.48 3.76-6.5a34.11 34.11 0 0 0 3.65-5.58c1.05-2.1 2.7-4.47 4.6-3.73 1.91.76 1.8 3.59 1.7 5.7l-.02.77c-.04 1.77-.46 3.43-.91 5.2l-.02.07-.32 1.36a22.45 22.45 0 0 0-2.55 4.87c-.84 2.1-1.65 4.23-2.44 6.3l-.03.07c-.73 1.93-1.49 3.93-2.26 5.88-.28.72-.5 1.45-.7 2.16-.18.65-.37 1.31-.61 1.95l-.29.77c-.16.43-.32.86-.5 1.28-.3.78-.76 1.54-1.2 2.28a26.4 26.4 0 0 0-1.41 2.56l-.05.1c-.71 1.4-1.46 2.83-2.03 4.33l-.42 1.06c-.34.82-.64 1.57-.85 2.34-.35.42-.71.86-1.06 1.34l-.28-.1-1.28-.52c-.47-.2-1-.42-1.56-.63l.32-.9.38-1.05.42-1.06c.37-.98.75-1.95 1.14-2.93.28-.7.45-1.38.62-2.06l.2-.72c.1-.4.25-.8.4-1.22.25-.7.5-1.43.62-2.23.09-.7.26-1.4.44-2.1.17-.64.33-1.3.44-1.98.24-1.65.1-3.33-.03-4.97-.06-.6-.1-1.2-.14-1.79-.05-.85.05-1.7.13-2.54.05-.51.12-1.06.14-1.61.02-.55-.02-1.09-.07-1.65l-.03-.37.8-1.55Zm-1.67 3.25-.01.28c-.02.5-.08 1.02-.13 1.56-.1.86-.19 1.76-.14 2.69.03.6.08 1.21.13 1.82.14 1.57.27 3.19.04 4.73-.1.64-.26 1.29-.42 1.91a20 20 0 0 0-.47 2.2c-.08.7-.32 1.34-.57 2.03-.14.39-.3.84-.43 1.29l-.19.73c-.18.68-.34 1.3-.6 1.95l-1.05 2.72-.5 1.28c-.14.35-.26.72-.39 1.08l-.32.9c-.28-.09-.54-.17-.77-.22l-.41-.09c-.7-.16-1.47-.33-2.18-.6l.1-.29c.6-1.62.86-3.42 1.1-5.17.11-.8.22-1.62.37-2.37.06-.26.11-.52.14-.74.21-.61.45-1.21.66-1.73.22-.52.44-1.07.63-1.6.32-.91.63-1.84.93-2.75.43-1.3.87-2.67 1.38-3.97l.6-1.55c.45-1.16.9-2.3 1.34-3.47.33-.83.68-1.66 1.16-2.62Zm-9.35-9.93c.2-1 .46-2.02.72-3l.22-.85a19 19 0 0 1 .4-1.27c.21-.62.43-1.26.55-1.93.07-.4.11-.78.14-1.16.04-.5.08-.96.2-1.41.19-.71.49-1.44.79-2.14l.52-1.26c.27-.72.72-1.7 1.54-1.84.35-.05.96.07 1.6.31.3.11.56.25.76.37.77.49.91 1.76.93 2.8 0 .45.03.88.05 1.31.03.51.05 1.03.06 1.55 0 .2-.02.42-.06.66-.03.26-.07.55-.06.83.02.42.16.78.3 1.14.03.11.08.23.1.34.47 1.51.49 2.98.52 4.55 0 .38 0 .78.02 1.18.05 1.54 0 3.1-.04 4.63l-.06 2.52c0 .24 0 .47.02.7a40.4 40.4 0 0 0-1.93 4.16c-.43 1.15-.88 2.3-1.33 3.46l-.6 1.56c-.52 1.33-.97 2.7-1.42 4.08-.29.87-.59 1.78-.9 2.66-.11.33-.24.66-.38.99-.16-.6-.24-1.2-.24-1.8.04-.66.14-1.33.22-1.91.18-1.38.38-2.8.12-4.32a48.5 48.5 0 0 0-.96-4.57c-.26-.94-.73-1.69-1.2-2.44-.24-.37-.48-.76-.7-1.16-.33-.66-.63-1.44-.89-2.37.27-2.13.6-4.22 1-6.37Zm-.96 9.19c.23.44.49.85.74 1.26.44.7.86 1.36 1.08 2.16.4 1.42.7 3.05.94 4.47a12.7 12.7 0 0 1-.14 4.04c-.08.64-.17 1.3-.22 1.99 0 .77.12 1.55.33 2.25.06.67.04 1.34-.06 2.02-.18.52-.3.96-.39 1.38-.17.83-.4 1.66-.62 2.48l-.4 1.48c-.1-1.29-.18-2.56-.26-3.82l-.02-.31c-.03-.65-.08-1.3-.13-1.94a23.43 23.43 0 0 0-.56-4.17L80 40c-.3-1.12-.6-2.17-.64-3.32-.14-3.08-.04-6.28.3-9.73l.27.59Zm-12.91-3.7.25-1.25c.38-1.9.76-3.85 1.4-5.62.39-1.08.83-2.15 1.27-3.2.46-1.1.93-2.25 1.34-3.4.49-1.39.77-2.82 1.04-4.21l.27-1.4c.19-.85.52-2.06 1.33-2.77a3.42 3.42 0 0 1 2.5-.88c.45.07.79.3 1.03.7.95 1.6.45 3.26-.08 5.02-.15.5-.32 1.07-.45 1.64-.36 1.6-.14 3.01.08 4.5l.1.61c.09.67.13 1.33.17 1.98.06.97.13 1.98.38 3.04.21.86.37 1.76.55 2.72.18 1.02.4 2.29.73 3.47-.52 4.32-.7 8.22-.53 11.92.06 1.26.36 2.37.7 3.59l.2.77c.34 1.32.45 2.75.54 3.98l.15 2.3c.12 1.85.23 3.75.4 5.64l.1.87-.22-.15a5.34 5.34 0 0 0-2.78-1.11c-1.01-.1-2.05.05-3.16.22l-.09.01a36.3 36.3 0 0 1-1.61.22c-.36-.47-.59-.72-.85-.67-.1-.11-.2-.23-.29-.36-2.19-2.89-3.02-5.74-3.6-9.15-.6-3.5-1.21-7.1-1.39-10.71l.03-.33a2.24 2.24 0 0 0-.08-.82c-.07-2.61.11-4.96.57-7.17Zm-16.92 3.15c-.2-.59-.44-1.18-.66-1.76l-.23.09.2-.17a52.1 52.1 0 0 1-.66-1.75c-.2-.6-.24-1.21-.28-1.86-.04-.4-.05-.83-.13-1.27-.12-.72-.16-1.45-.2-2.17-.06-.74-.1-1.5-.23-2.26-.07-.47-.18-.94-.27-1.39-.2-.85-.36-1.66-.38-2.53 0-.77-.13-1.52-.24-2.23-.1-.6-.2-1.22-.22-1.83-.05-1.06-.01-2.27.1-3.3.04-.41.2-.96.49-1.18.1-.09.21-.1.36-.08.13.02.3.16.46.29.3.23.84.66 1.38.2.18-.16.26-.34.34-.5.08-.18.11-.23.17-.25.16-.08.39-.01.67.07 1.4.4 2.76 2.3 3.48 3.31l.54.75.05.06c.63.88 1.3 1.79 1.82 2.73.38.7.7 1.47 1.03 2.23a35 35 0 0 0 .73 1.65c.72 1.47 1.6 2.85 2.48 4.18.61.94 1.25 1.92 1.81 2.91.63 1.1 1.16 2.38 1.52 3.7l.1.49c.04.23.1.5.19.77.04.13.1.24.16.36l.13.26c.12.42.15.86.2 1.3l.02.3.1.56c.07.4.16.88.04 1.1-.32.55-.07.95.14 1.21.07.1.13.17.16.24 0 .33.02.66.04.96-.02.14-.03.29-.02.45l.08.77c.05.56.1 1.09.1 1.64v.32c-.02.3-.03.62.05.97l.08.32c.04.16.09.32.1.48.02.07.05.14.1.17.27 1.95.6 3.89.92 5.77.6 3.54 1.47 6.52 3.78 9.57.2.27.4.5.6.72a4.3 4.3 0 0 0-2.34 1.53c-.13.16-.23.35-.32.5-.11.2-.22.4-.36.55-.23.26-.47.53-.78.83a5.1 5.1 0 0 0-.55-.97l-.14-.2c-.14-.2-.3-.4-.42-.62.14.12.29.2.44.27.17.07.33.1.5.07.3-.03.55-.18.71-.42.47-.68.2-1.95-.17-3.34l-.12-.46-.05-.46c-.04-.32-.07-.66-.24-1.06-.1-.25-.22-.5-.34-.75l-.19-.41-.23-.54-.04-.1c-.3-.72-.63-1.46-1.05-2.15a16.48 16.48 0 0 0-3.02-3.39c-.36-.34-.73-.67-1.09-1.03a133.02 133.02 0 0 0-5.77-5.3c-.45-.4-.94-.77-1.36-1.09-.64-.5-1.26-.96-1.82-1.52a70.52 70.52 0 0 1-2.45-6.3ZM66.36 53.5l-.1-.12-.67-.88c-.53-.7-1.06-1.4-1.71-2.04-.92-.9-1.82-1.74-2.68-2.46a11.9 11.9 0 0 1-2.33-2.59c-1.26-1.78-2.39-3.64-3.54-5.54-.75-1.24-1.2-2.52-1.71-3.9l-.26-.73.44.34c.44.33.88.67 1.3 1.04 1.89 1.65 3.88 3.43 5.73 5.26l1.04.98.08.07c1.07 1 2.08 1.94 2.86 3.2.39.63.7 1.34 1 2.03l.26.63.2.45c.12.24.21.46.31.7.12.27.13.5.17.8a4.98 4.98 0 0 0 .2 1.08c.15.53.57 2.14.3 2.51-.07.03-.27-.02-.89-.83ZM44.22 41.66c-.68-.47-1.4-.95-2.14-1.38-.89-.5-1.8-.96-2.69-1.4-.89-.46-1.9-.96-2.81-1.5-.7-.4-1.37-.88-2.03-1.37l-.52-.37-.77-.54c-.67-.46-1.38-.95-1.97-1.49a26.9 26.9 0 0 1-1.1-1.11c-.5-.51-1-1.05-1.58-1.52-.22-.18-.45-.35-.72-.53l-.48-.35c-.5-.4-.71-.78-1.05-1.41a14.65 14.65 0 0 0-3.1-4c-.47-.41-.79-.85-1.17-1.36l-.2-.26a6.64 6.64 0 0 1-.33-.53l-.29-.47c-.12-.2-.29-.32-.4-.43-.1-.06-.17-.12-.2-.18-.25-.34-.33-.9-.42-1.46a6.2 6.2 0 0 0-.35-1.47c-.26-.61-.64-1.53-.21-2 .23-.26 1.04-.28 1.84-.05.4.12.8.29 1.18.44.4.17.8.34 1.23.48 1.64.49 3.12.95 4.71 1.56.5.2.99.38 1.5.56l.09.04c1.05.39 2.23.83 3.3 1.33 1.37.66 2.66 1.54 3.92 2.39l.62.42c1.13.77 2.3 1.55 3.5 2.25 1.3.75 2.44 1.46 3.4 2.37.88.83 1.83 1.53 2.78 2.22.6.44 1.28.94 1.95 1.5.7.58 1.37 1.14 2 1.77.38.83.68 1.66.98 2.48.5 1.35.99 2.73 1.78 4.06 1.16 1.92 2.3 3.79 3.57 5.6.75 1.05 1.4 1.85 2.5 2.77.85.72 1.74 1.52 2.63 2.4.28.28.54.58.8.88-.33-.26-.69-.5-1.07-.73a9.43 9.43 0 0 1-1.74-1.47 9.42 9.42 0 0 0-1.96-1.63c-1.7-1-3.45-1.9-5.06-2.56a25.7 25.7 0 0 0-5.78-1.68 15.1 15.1 0 0 1-2.24-1.04c-.63-.36-1.27-.8-1.9-1.23Zm-14.9 10.43c-.38-.08-.77-.14-1.15-.2a21.1 21.1 0 0 1-2.6-.55c-.8-.24-1.62-.4-2.42-.53l-.12-.02-.86-.17a18.33 18.33 0 0 1-3.13-1c-.3-.13-.6-.24-.9-.35l-.36-.13a8.9 8.9 0 0 1-1.74-.77 12.4 12.4 0 0 1-1.34-1c-.39-.32-.82-.69-1.29-.99a13.98 13.98 0 0 0-2.9-1.45l-.4-.14c-.55-.2-1.07-.37-1.5-.72-.9-.72-2.39-2.62-1.95-3.69.26-.64.82-1.1 1.71-1.38a14.13 14.13 0 0 1 1.35-.33c.42-.1.81-.28 1.19-.44.43-.19.83-.37 1.23-.42.47-.06.98-.03 1.53 0 .47.03.97.06 1.45.03.46-.03.92-.1 1.36-.18.68-.1 1.32-.2 2-.17.28 0 .55.07.85.13a4.42 4.42 0 0 0 2.21 0l.38-.08c.87-.15 1.6-.08 2.46 0h.14c.18.03.36.04.54.05l.76.05c.73.03 1.42.07 2.09.24.39.11.78.27 1.19.45.17.07.33.15.5.21l1.05.4.24.1 1.52.6c.71.27 1.38.44 2.16.64l.48.12c.58.15 1.18.4 1.76.65.8.33 1.6.65 2.38.95l1.2.47.1.04c1.57.62 3.2 1.28 4.82 1.86.64.23 1.19.35 1.83.4.34.02.67.07.96.1l.68.27c.11.04.24 0 .3-.09a24.3 24.3 0 0 1 4.72 1.47c1.57.66 3.27 1.52 4.93 2.5.67.4 1.2.92 1.77 1.48.57.57 1.17 1.18 1.93 1.62a8.1 8.1 0 0 1 3.07 3.25c.17.29.35.55.52.78l.13.19c.21.3.45.65.54 1.05l.02.1-.9.82-.74.68a6.64 6.64 0 0 0-1.75 2.47l-.06.09-.1.09c-.09.08-.21.2-.33.4-.08.13-.12.28-.18.42-.01.05-.02.1-.04.13l-.12.3c-.4.06-.82.09-1.22.08-.6 0-1.18.06-1.74.13a7.6 7.6 0 0 1-2.18.08c-.9-.14-1.79-.42-2.65-.7-.51-.16-1.05-.33-1.59-.46-1.09-.28-2.14-.7-3.18-1.12l-1.96-.75c-.6-.2-1.2-.26-1.79-.32a4.73 4.73 0 0 1-2.19-.59 2.2 2.2 0 0 1-.55-.6c-.14-.2-.29-.4-.47-.59a12.14 12.14 0 0 0-4.3-2.52l-.05-.02-6.12-2.36-.55-.22c-.83-.31-1.7-.66-2.63-.84Zm33.4 19.4c-.1.02-.17.05-.26.06l-.1.02-.07.01a5.2 5.2 0 0 0 .2-.44l.22.35Zm-.6-7.57c-.15.45-.24.9-.3 1.37l-.46-.24c-.7-.36-1.34-.68-1.97-.95l.3-.03c.51-.07 1.05-.14 1.58-.12.27.01.56 0 .85-.03Zm-32.25.65c-1-.2-1.74-.2-2.7.02-.73.17-1.26.14-1.98.01-.6-.1-1.2-.05-1.8 0l-.49.03a4.9 4.9 0 0 1-1.92-.28c-.58-.2-1.16-.3-1.72-.38-.42-.06-.85-.13-1.27-.24-.88-.25-1.74-.66-2.58-1.06-.6-.28-1.21-.58-1.85-.82-.87-.32-1.71-.66-2.53-1.1a18.8 18.8 0 0 1-.87-.53c-.3-.19-.62-.4-.96-.57-1.16-.63-2.45-1-3.69-1.38L4.62 58c-1.03-.32-1.72-.7-2.04-1.09a8.95 8.95 0 0 1-.94-1.55c.04-.14.48-.36.68-.46l.43-.22c.76-.4 1.48-.77 2.32-.92.38-.06.67-.2.96-.32l.15-.07c.24-.1.5-.15.79-.21l.47-.1.7-.21.13-.04c.6-.18 1.17-.35 1.79-.44a18.1 18.1 0 0 1 4.66-.08l.58.07.66.06.96.1c.27.04.54.11.87.2l.39.1a5.5 5.5 0 0 0 1.5.23c.41.02.8.04 1.16.17.51.2 1.02.24 1.51.27.3.02.6.04.9.1 1.23.26 2.45.41 3.47.52 3.25.36 6.03.92 8.48 1.72.35.12.69.21 1.03.3.48.13.93.26 1.4.43.05.03.12.03.18 0 .07-.02.11-.08.14-.13l.03-.08.28.1c1.5.6 2.83 1.17 4.02 2.34.13.12.24.29.36.46a2.8 2.8 0 0 0 1.5 1.2c.65.25 1.3.31 1.94.37.54.06 1.07.12 1.57.29.67.22 1.34.5 1.93.73.72.28 1.46.59 2.23.83-.26-.04-.53-.1-.8-.16-.85-.16-1.84-.06-2.71.03h-.12l-.55.06c-.49.05-.98.07-1.47.1-.6.03-1.2.07-1.79.12-.53.05-1.03.2-1.49.31-.23.07-.48.12-.73.18-.4.09-.8.14-1.27.2l-.5.07c-1.61.23-3.24.67-4.81 1.1l-.16.04-.04-.02a1.96 1.96 0 0 0-1.18.02 6.94 6.94 0 0 1-.5.1l-.2.09a.28.28 0 0 0-.16.2c-.17.07-.3.09-.6.12-.1 0-.2.02-.27.03-.27.03-.37.04-.6-.05a9.74 9.74 0 0 0-1.99-.64Zm-9.4 15.9c-1.04-.23-2.12-.7-3.16-1.14l-1.3-.54c-1.28-.5-2.58-.94-3.83-1.38l-.2-.07c-1.44-.5-2.93-1-4.36-1.58a8.58 8.58 0 0 1-3.33-2.46l-.4-.45c-.22-.26-.45-.54-.71-.8a4.29 4.29 0 0 0-.62-.44c-.18-.1-.62-.37-.67-.47 0-.15.43-.49.58-.6.14-.1.25-.2.32-.27.28-.29.3-.28.8-.3h1.98c1.21 0 2.48.01 3.7-.1 1.21-.12 2.51-.07 3.97.12l.46.07c.54.08 1.1.17 1.69.14l.38-.02c.37-.02.72-.04 1.08.01.95.14 1.68.19 2.58.12.53-.05 1.04-.17 1.54-.3.15-.03.28-.05.43-.1.76-.16 1.56-.47 2.27-.74l.18-.07c.14-.06.29-.08.47-.1.2-.04.44-.08.68-.16.25-.1.47-.24.7-.38.12-.08.24-.14.37-.21.46-.23.93-.33 1.45-.45.4-.1.8-.18 1.21-.33.94-.35 1.82-.53 2.93-.7.91-.13 1.8-.43 2.67-.71.44-.15.91-.3 1.36-.42l.13-.04a41 41 0 0 1 4.7-1.07l.5-.06c.44-.06.89-.12 1.34-.22.25-.05.5-.12.77-.19.46-.12.88-.24 1.33-.28.58-.06 1.17-.09 1.76-.12h.09l1.4-.1.68-.06c.8-.08 1.71-.18 2.43-.03l1.13.21c.57.1 1.13.21 1.68.33.61.12 1.24.16 1.86.2.8.05 1.59.1 2.29.34a21.06 21.06 0 0 1 3.1 1.38c.25.12.47.25.71.38l.07.03-.05.28-.07.35c-.1.44-.21.94-.23 1.35 0 .34.15.69.28 1l.1.25c.04.12.1.22.15.35-.06.33-.15.63-.28.94a2.8 2.8 0 0 1-.77 1.08 27 27 0 0 0-.98.34c-.4.15-.81.3-1.22.42-.3.09-.58.14-.85.2-.62.13-1.25.26-2.01.73h-.1l-1.22.11c-.45.05-.9.06-1.38.07-.75.01-1.51.03-2.3.21-.34.08-.7.14-1.08.22-.69.12-1.4.24-2.05.49l-2.26.83-.81.3-1 .36-.08.02c-.45.16-.92.31-1.37.49-.43.17-.85.37-1.21.55-.33.16-.66.33-1 .47-.9.37-1.86.68-2.8.98l-1.27.41-.97.34c-.58.2-1.18.43-1.78.6-1 .3-2 .53-2.94.68-.86.15-1.7.1-2.6.07l-1.13-.04H25.2c-1.58.01-3.22.02-4.74-.32Zm18.57 6.45-.17.06-.5.18c-.34.12-.7.25-1.04.42-.53.28-1.01.7-1.5 1.1a5.15 5.15 0 0 1-2.26 1.25l-.5.18c-.4.14-.76.33-1.1.5-.39.2-.74.37-1.12.5-1.03.32-2.15.5-3.26.7-2.18.38-4.42.76-6.23 2.18-.34.27-.72.52-1.11.8-.92.63-1.87 1.28-2.54 2.15-.3.38-.59.6-1 .9l-.16.12c-.32.24-.6.51-.84.73-.3.28-.57.55-.89.76-1.06.72-2.87 1.27-4.1.9-.28-.09-.55-.25-.85-.4-.25-.14-.52-.3-.82-.42l-.3-.1a2.43 2.43 0 0 1-.25-.07c-.13-.32.14-.91.38-1.44.2-.44.4-.87.43-1.28a3.3 3.3 0 0 0 0-.55c0-.27 0-.48.07-.7.1-.29.25-.55.4-.85.14-.24.27-.49.38-.75.15-.33.33-.64.55-1l.2-.35.25-.45c.18-.34.35-.67.58-.94.79-.95 1.9-1.52 2.97-2.06a44 44 0 0 1 .75-.38l.15-.08c.68-.34 1.47-.74 2.2-1.16l.64-.37c1.1-.62 2.24-1.26 3.1-2.3a5.46 5.46 0 0 0 .53-.79c.35-.47.98-.9 1.93-1.28l.07-.03c.24-.1.49-.2.72-.32l.35-.21c.13-.1.19-.12.25-.11.04 0 .08.02.15.05.06.03.13.03.2 0 .06-.02.1-.07.13-.13l.05-.13h.46l1.13.05c.9.03 1.81.08 2.77-.08a25.93 25.93 0 0 0 4.9-1.34l.95-.34 1.31-.43c.94-.3 1.9-.6 2.83-1 .35-.15.7-.32 1.05-.49a16.62 16.62 0 0 1 2.46-1c.36-.12.74-.24 1.1-.38l.8-.3c.75-.27 1.5-.56 2.27-.83.58-.22 1.24-.33 1.9-.45.38-.06.75-.14 1.1-.22.7-.16 1.38-.18 2.14-.2l1.12-.03c-.45.37-.86.78-1.24 1.21-.68.8-1.51 1.48-2.32 2.14l-.07.06-.83.69a148.83 148.83 0 0 1-4.14 3.37c-.97.78-1.98 1.57-2.97 2.38-.6.5-1.16 1.03-1.8 1.67l-.09-.02c-.06 0-.13 0-.18.04-.05.03-.1.09-.1.16-.03.1-.04.14-.49.2-.39.08-.67.2-.95.3Zm.92 16.3c-.85.76-1.8 1.44-2.71 2.1-1.14.82-2.32 1.67-3.36 2.68-.68.64-1.28 1.35-1.87 2.03-.7.82-1.43 1.66-2.25 2.38-.26.23-.52.5-.8.82-.62.7-1.33 1.48-2 1.44h-.07c-.97-.1-1.3-1.36-1.58-2.48l-.11-.43c-.3-1.03.57-1.84 1.49-2.7.25-.23.49-.45.7-.68.5-.53.9-1.13 1.31-1.72.24-.34.47-.69.73-1.01.14-.19.28-.37.43-.54.45-.56.9-1.14 1.27-1.8.34-.62.59-1.25.83-1.87.19-.49.4-1.03.65-1.52.61-1.2 1.32-2.26 2.07-3.38l.2-.3c.54-.8.91-1.67 1.27-2.54.35-.86.7-1.67 1.19-2.39.63-.92 1.52-1.77 2.42-2.63l.53-.52.77-.76c.7-.7 1.44-1.43 2.2-2.06.98-.81 1.98-1.6 2.96-2.39 1.37-1.09 2.8-2.22 4.16-3.39l.89-.73c.84-.68 1.7-1.4 2.44-2.25.64-.74 1.36-1.37 2.34-2 1.14-.08 2.26-.2 3.28-.62.52-.2.99-.53 1.46-.85l.34-.21.12-.1c.42-.12.84-.2 1.28-.28l.12-.02c.23-.04.43-.1.64-.17.54.7 1.08 1.1 1.83 1.65.36.27.66.55.95.83.35.32.67.62 1.03.86l-.18.2c-.58.7-1.24 1.38-1.9 2.06-.55.55-1.17 1.18-1.72 1.82l-.69.79a30.59 30.59 0 0 0-3.94 5.24 27.7 27.7 0 0 1-2.64 3.76l-.72.92c-2.54 3.3-5.81 5.66-9.22 7.97-.52.36-1.05.75-1.53 1.16a56.25 56.25 0 0 0-4.6 3.64ZM52 108.18c-.29.55-.59 1.13-.94 2.08-.22.58-.44.95-.8 1.5-.16.28-.27.56-.35.82l-.2.5c-.18.33-.45.7-.7 1.05l-.24.31c-.2.28-.32.58-.44.88a3 3 0 0 1-.36.71 12.8 12.8 0 0 1-1.39 1.53c-.83.79-1.47 1.82-2.05 2.75l-.21.34c-.16.24-.42.47-.7.71-.2.17-.4.34-.59.54-.17.18-.34.43-.53.7-.3.43-.73 1.02-1.04 1.15-.42.17-1.63-.19-2.21-.5a26.34 26.34 0 0 1-.33-.16l-.09-.17c-.16-.3-.29-.64-.4-.97-.14-.36-.28-.73-.46-1.08a4.4 4.4 0 0 0-.23-.39 2.25 2.25 0 0 1-.35-.75c-.07-.36.02-.85.12-1.34.06-.3.12-.62.13-.92.08-1.35.34-2.7.62-4.21.1-.46.16-.94.22-1.4.09-.64.18-1.3.34-1.91.24-.91.64-1.85.98-2.68a16.41 16.41 0 0 1 2.47-3.75l.68-.86c.62-.8 1.37-1.58 2.2-2.29.96-.67 1.95-1.33 2.97-1.97 1.1-.7 2.21-1.37 3.31-2.04l.1-.06c1.42-.87 2.89-1.77 4.31-2.68.96-.61 1.76-1.29 2.61-2l.38-.31.24-.19-.13.22c-.87 1.4-1.7 2.72-2.25 4.38-.14.43-.24.85-.34 1.27-.1.43-.2.88-.34 1.3l-.49 1.23c-.35.88-.72 1.8-.91 2.77-.3 1.43-.62 2.74-1 4l-.39-.15a.25.25 0 0 0-.32.14c-.37.87-.64 1.4-.9 1.9Zm19.3-19.65c-.3.9-.63 1.91-.82 2.97l-.25.37a14.2 14.2 0 0 0-1.66 2.85 36.2 36.2 0 0 0-1.13 3.41l-.19.63c-.26.89-.61 1.76-.97 2.63-.25.61-.51 1.25-.74 1.9-.17.49-.29.99-.4 1.44-.1.45-.24.96-.4 1.43-.2.55-.37 1.13-.5 1.63-.14.52-.3 1.06-.47 1.58a155.03 155.03 0 0 1-2.15 5.53 36.54 36.54 0 0 1-4.32 7.95c-.4.55-.76.99-1.28 1.3a5.3 5.3 0 0 0-.55.4c-.23.2-.48.38-.68.46-.48.19-1.5-.3-2.12-.6l-.4-.19c-.54-.24-.6-.88-.67-1.62-.02-.25-.04-.5-.08-.74a8.96 8.96 0 0 1 .28-3.26c.13-.66.27-1.34.33-2.02.04-.5.04-1.03.04-1.49 0-.75.02-1.53.16-2.25.18-.88.53-1.75.87-2.58l.17-.44c.91-2.28 1.6-4.61 2.16-7.32.19-.9.52-1.73.87-2.6l.49-1.28c.16-.47.27-.95.39-1.4.09-.4.19-.8.3-1.18a19.26 19.26 0 0 1 2.16-4.18c.29-.45.58-.93.86-1.4.21-.36.44-.7.62-1l.06-.05.19-.2.97-1.03 1.46-1.58a22.77 22.77 0 0 0 3.54-4.92c.66-1.3 1.4-2.78 1.43-4.35 0-.25 0-.52-.05-.82l.32.14c.6.25 1.24.51 1.89.69.31.09.64.14.93.2.1.27.18.59.24.9.09.43.17.87.36 1.25.3.62.51 1.3.64 2.04l-.56 2c-.26.87-.52 1.8-.75 2.71-.15.7-.38 1.4-.6 2.09Zm2.57 38.6a2.38 2.38 0 0 1-.88-.67 6.49 6.49 0 0 1-.4-.5c-.24-.3-.47-.62-.82-.9-.5-.41-.6-.64-.76-1.33-.1-.4-.22-.75-.35-1.1-.16-.47-.32-.9-.38-1.38l-.1-.83c-.05-.58-.1-1.13-.24-1.74-.15-.61-.06-1.3.02-1.98.05-.39.1-.78.1-1.18.03-.96.03-1.94.01-2.95v-.82l-.02-1.84c-.03-.7-.05-1.42-.04-2.13 0-.65.07-1.3.14-1.96.04-.5.1-.99.12-1.49.02-.27.03-.54.02-.84.02-.67.03-1.31.15-1.97l.04-.24c.23-1.33.45-2.58.48-4.02.03-2.16.16-3.84.46-5.42 1.2-1.75 2.3-3.48 2.64-5.38.32-1.77.37-3.3.15-4.7.26-.97.44-1.79.55-2.55.39-.01.83-.28 1.36-.63.39.04.78.04 1.17-.04.5-.09.98-.16 1.48-.23l1.33-.21a4.85 4.85 0 0 1 .82 1.44l-.08.5c-.09.6-.14 1.21-.18 1.79l-.03.29c-.04.44.05.76.22 1.1l-.33 2.32-.17 1.11c-.21 1.44-.53 2.8-.88 4.25L79.21 92a95.36 95.36 0 0 0-.67 3.26l.25.04-.27.03c-.26 1.36-.53 2.76-.87 4.1a80.25 80.25 0 0 0-2.08 14.3l-.04.55c-.07 1-.12 1.94-.3 2.92-.22 1.21-.4 2.42-.31 3.73.07.92.05 1.85.03 2.77-.02.84-.03 1.73.01 2.6l.01.18c-.41.55-.74.73-1.1.62Zm2.38 1.04c-.1-.43-.18-.88-.24-1.35l.03-.05c.39.5.35.82.3 1.48l-.02.32-.07-.4Zm4.47-14.1c-.22.98-.58 1.9-.97 2.86l-.16.4-.95 2.55c-.48 1.28-.97 2.62-1.5 3.9a5 5 0 0 1-1.2 1.59l.01-1.64c.02-.92.03-1.88-.03-2.84-.08-1.2.09-2.33.3-3.48.18-1.04.25-2 .32-3.03l.03-.56a79.28 79.28 0 0 1 2.05-14.11c.35-1.39.62-2.82.89-4.2.2-1.07.42-2.19.67-3.27l.25-1.03.02-.1c.34-1.45.67-2.82.88-4.31l.17-1.1.09-.58.01.09c.07.45.14.87.16 1.31v.23c.03.59.07 1.24.21 1.84.04.18.1.34.16.52.07.2.13.36.15.55.02.35.06.7.1 1.05l.05.39c.02.2.06.4.1.59v.45l.03.34c.04.43.07.82 0 1.26-.2 1.12-.3 2.24-.4 3.32-.1.94-.19 1.91-.33 2.87a55.37 55.37 0 0 0-.68 8.86c.03 1.64 0 3.4-.43 5.28Zm16.43-10.9c.24.86.26 2.2.28 3.32 0 .44.02.86.03 1.2l.05.65c.04.46.07.9.04 1.39-.02.43-.06.87-.12 1.33-.06.61-.13 1.25-.13 1.88a26.28 26.28 0 0 1-.65 6.23c-.38 1.5-.73 2.92-1.29 4.35l-.23.6-.43 1.11-.05.16-.02.04-.05-.02-.36-.14c-.68-.28-1.37-.57-2.07-.8a1.61 1.61 0 0 0-.37-.08c-.2-.02-.38 0-.55.02l-.28.02c-.66.02-.86-.18-1.24-.92-.52-1.04-.9-2.12-1.24-3.65-.34-1.52-.7-3.14-.84-4.75l-.07-1.19c-.02-.4-.04-.8-.08-1.21-.04-.49-.13-.95-.23-1.4l-.12-.6c-.1-.5-.06-1-.03-1.53a8.4 8.4 0 0 0-.32-2.99c-.08-.31-.15-.65-.21-.99-.08-.37-.14-.75-.25-1.13-.1-.38-.25-.75-.4-1.11-.1-.23-.18-.46-.27-.7-.37-1.05-.52-2.1-.69-3.2l-.01-.07-.22-1.32c-.09-.49-.26-.91-.44-1.34-.17-.41-.32-.8-.38-1.2-.08-.53-.1-1.01-.11-1.52l-.03-.53c-.02-.44-.12-.82-.22-1.19l-.06-.25c.01-.25.05-.5.08-.75a6.27 6.27 0 0 0-.07-2.58c-.08-.5-.15-.97-.16-1.46-.02-.74-.03-1.38-.36-2.16a9.35 9.35 0 0 1-.77-2.55l-.07-.53v-.07l-.1-.68v-.07c.02-.58.02-1.16-.01-1.75.17-.63.4-1.08.72-1.42l.24-.21c.73-.2 1.36-.36 2.04-.48.58-.09 1.2-.23 1.81-.4l.07.03c.3.13.58.33.88.54.28.18.55.38.86.54.09.05.17.09.24.15v.05l.02.2c0 .2 0 .44.08.67.07.2.18.35.27.49.08.1.13.17.16.25.05.12.08.3.12.47.02.15.06.3.1.43.12.43.27.84.42 1.26.14.37.28.76.4 1.14l.18.63c.14.54.3 1.15.6 1.7.14.25.26.53.38.83.18.48.38.99.71 1.41.17.2.34.37.51.54.21.2.4.4.56.64.33.48.6.98.87 1.5.33.63.64 1.27.9 1.84l.29.59c.2 1.1.29 1.98.3 2.74a33.3 33.3 0 0 0 1.4 8Zm-6.78-24c.17.17.33.32.53.46a5.58 5.58 0 0 1 2.18 3.32l.08.36c.09.36.19.78.34 1.22l.62 1.48c.1.43.2.88.28 1.35.07.3.17.6.28.87.07.21.15.42.2.64.04.09.06.2.08.3-.23-.4-.46-.82-.73-1.22a5.1 5.1 0 0 0-.68-.8c-.16-.15-.3-.3-.44-.46-.24-.3-.4-.71-.58-1.16-.12-.31-.25-.65-.42-.95-.25-.43-.38-.94-.52-1.46a17.32 17.32 0 0 0-.61-1.91c-.15-.39-.29-.77-.4-1.17l-.08-.34c-.03-.15-.07-.33-.13-.52Zm25.29 23.28.17.48c.25.65.5 1.34.7 2.03l.16.6c.15.58.3 1.12.64 1.72a14.4 14.4 0 0 1 1.52 4.5c.09.48.06.95.03 1.46 0 .22-.02.43-.03.65 0 .38.05.74.11 1.1.07.43.14.84.08 1.2-.1.55-.29.93-.55 1.14-.16.13-.39.26-.62.39l-.45.27-.22.16c-.16.12-.29.23-.43.26-.2.06-.6.06-.85.06h-.36l-.39.04c-.3.03-.6.05-.84 0a5.84 5.84 0 0 1-2.01-1.13c-.3-.2-.58-.42-.85-.58-.96-.6-1.47-1.62-2.02-2.7l-.2-.42c-.64-1.25-1.34-2.66-2.08-4a16.97 16.97 0 0 0-2.8-3.8c-.39-.42-.78-.84-1.12-1.28-.43-.53-.8-1.15-1.15-1.74a19.2 19.2 0 0 0-1.14-1.74c-.18-.25-.38-.49-.57-.73a10.82 10.82 0 0 1-2.1-3.44l-.03-.1c-.18-.53-.35-1.08-.51-1.63-.3-.98-.65-1.75-1.15-2.76l-.18-.37-.25-1.29c-.06-.29-.1-.59-.13-.9-.05-.42-.1-.87-.22-1.31l-.23-.7c-.1-.27-.19-.52-.23-.74-.09-.48-.18-.95-.31-1.45-.21-.53-.43-1.05-.65-1.54-.12-.36-.2-.72-.3-1.1l-.09-.36a6.47 6.47 0 0 0-2.53-3.85 6.8 6.8 0 0 1-.86-.83 7.59 7.59 0 0 0-.9-.85l-.1-.24a3.52 3.52 0 0 1-.1-.2c-.12-.3-.1-.46-.07-.84l.03-.3c.63-.29 1.24-.59 1.82-.91l.32-.18c.3.18.62.36.96.5 1.3.58 2.56 1.17 3.65 1.97.8.58 1.47 1.44 2.13 2.27.3.37.6.75.91 1.1a19.6 19.6 0 0 0 3.43 3.03c1.6 1.13 2.88 2.67 4.12 4.16.42.5.82.98 1.25 1.47.73.82 1.32 1.7 1.95 2.62l.53.79c.32.46.66.9.99 1.33.53.7 1.1 1.43 1.55 2.22l.18.31c.47.81.95 1.65 1.26 2.5.2.58.37 1.2.52 1.74.19.64.38 1.3.6 1.94Zm4.84-12.53 1.05.37.07.02c1.1.37 2.21.74 3.06 1.38l.52.4c.38.3.81.67 1.36.92.82.36 1.4.69 1.9 1.09.31.24.64.4.96.57.2.1.39.2.56.31.47.29.94.64 1.36.95l.05.05.56.4.25.19c.6.42 1.2.84 1.56 1.4.5.75.87 1.48 1.1 2.17l.07.2c.47 1.35.91 2.62.97 4 .02.61-.19 1.39-.66 2.35-.2.44-.64.4-1.88-.16l-.4-.17-1.35-.54c-1.29-.5-2.61-1.03-3.95-1.52l-.2-.07a3 3 0 0 0-1-.24c-.2 0-.4.03-.57.08-.13.02-.24.04-.35.04-.44.02-.9-.19-1.38-.38a7.9 7.9 0 0 0-.5-.21l-.56-.19c-.39-.12-.79-.24-1.03-.41a4.7 4.7 0 0 1-1.05-1.14l-.06-.08a8.41 8.41 0 0 0-2.29-2.06c-.41-.27-.86-.5-1.32-.73-.6-.3-1.23-.62-1.73-1.08l.02-.09c.01-.04-.01-.14-.02-.18-.15-.6-.3-.97-.8-1.37a3.62 3.62 0 0 1-1.16-1.58.25.25 0 0 0-.31-.16h-.03l-.95-1.27c-.32-.42-.65-.86-.96-1.3l-.47-.68-.07-.1c-.65-.95-1.25-1.86-2.02-2.73-.42-.47-.82-.95-1.23-1.45a23.36 23.36 0 0 0-4.31-4.32 18.15 18.15 0 0 1-3.27-2.87c-.3-.33-.57-.7-.87-1.07-.7-.89-1.43-1.8-2.34-2.45-.32-.25-.68-.47-1.07-.7.44.01.87.03 1.26.12a11.64 11.64 0 0 1 4.21 1.71c.28.17.54.34.83.5l1.02.55c.64.33 1.25.64 1.83 1.06a13.7 13.7 0 0 0 3.18 1.77c.44.18.9.33 1.38.5 1 .33 2.12.71 2.97 1.3l.1.12c.61.75 1.25 1.53 2 2.2.44.38.94.76 1.5 1.14.14.18.3.37.47.54.3.3.63.54.95.78.29.21.58.43.84.68.74.73 1.28 1.09 2.2 1.44Zm-17.82-12.86.64.25 2.14.82c.5.2.98.47 1.44.74.32.18.64.36 1 .54.9.45 1.92.95 2.78 1.68l-.91-.31a12.97 12.97 0 0 1-4.31-2.12c-.64-.47-1.31-.82-1.96-1.16l-.07-.04-.75-.4Zm30.38 1.52.56.21c1.32.51 2.5 1.17 3.58 1.81.28.17.57.3.9.45.38.18.74.35 1.06.57a7.75 7.75 0 0 0 2.08 1.05c.26.08.47.15.64.3.16.14.3.3.46.47.21.23.43.46.71.67a9.9 9.9 0 0 1 2 1.98l.05.05c.36.45.73.92 1.25 1.3l.37.28c.22.18.45.36.7.52.6.34.67.39.75 1l.04.2.03.23a4.86 4.86 0 0 1-1.3.12c-.35 0-.72 0-1.1.06a3.3 3.3 0 0 0-2.2 1.3c-.56.61-1.42.94-2.63.97-.8.02-1.6.03-2.27-.11-.34-.07-.66-.16-1-.24-.53-.14-1.08-.28-1.67-.35l-.46-.05c-1.6-.2-3.12-.37-4.66-.8-1.29-.37-2.5-.6-3.77-.75a11.9 11.9 0 0 1-2.57-.67c-.33-.11-.66-.23-1-.32a25.86 25.86 0 0 1-6.93-3.1l-.17-.2a7.22 7.22 0 0 0-1.15-1.22c-.5-.39-.92-.81-1.38-1.25l-.32-.3c-.15-.15-.34-.3-.56-.46a17 17 0 0 0-1.37-1.54c-1.03-1.03-2.3-1.65-3.41-2.2a12.3 12.3 0 0 1-.93-.51c-.48-.28-.97-.57-1.57-.8l-2.15-.82-6.45-2.5c-.31-.12-.64-.22-1.01-.35-.64-.21-1.32-.43-1.83-.73a.88.88 0 0 1-.42-.5c.5-.7.91-1.32 1.28-1.9.34-.55.57-1.09.74-1.64.1-.1.17-.19.23-.28a.85.85 0 0 1 .1-.13c.06-.05.15-.08.27-.12.12-.04.25-.08.37-.15.17-.1.32-.21.5-.34.23.04.44.06.64.04 1.1-.07 2.04-.34 3.06-.62l.2-.05c.38.11.74.2 1.14.2.75 0 1.57.01 2.44.15.7.1 1.4.15 2.1.19.68.03 1.37.06 2.03.17.84.14 1.53.45 2.25.78l.07.03.72.32c.35.14.71.27 1.1.4l.98.37c.36.16.73.34 1.13.55a22.32 22.32 0 0 0 2.72 1.15c.45.16.9.32 1.34.5.4.16.8.37 1.25.59.45.22.9.45 1.4.65 1.03.41 2.06.87 3.11 1.33l.73.32 1.06.5c.02.06.05.1.1.13l.89.58c.52.34 1.1.74 1.72 1.06 1.1.55 2.24 1 3.43 1.45Zm20.47-4.9c-.6.43-1.64.72-2.78.79-.34.02-.7.02-1.05.02-.6-.01-1.2-.01-1.82.1-.28.04-.54.12-.8.19a10.54 10.54 0 0 1-1.55.32c-.36.06-.74.1-1.1.2-.45.09-.9.22-1.36.34-.54.15-1.1.32-1.66.41-.23.05-.95.18-1.6.2-.35.02-.7-.03-1.07-.1l-.7-.1a5.52 5.52 0 0 0-1.55.13c-.47.08-.91.17-1.33.11-.23-.03-.44-.11-.67-.2-.28-.1-.6-.23-.96-.26a.97.97 0 0 0-.17 0l-.5-.02-1.43-.02h-.27c-.4.02-.67.02-.95-.09l-.78-.28c-.4-.12-.77-.25-1.13-.43l-.53-.27c-.5-.25-1.02-.51-1.54-.74l-.7-.32c-1.03-.45-2.08-.91-3.16-1.34-.45-.18-.89-.4-1.34-.62-.4-.2-.85-.42-1.32-.6-.45-.2-.9-.36-1.39-.54-.48-.17-.98-.35-1.46-.55-.39-.16-.79-.37-1.14-.55l-1.2-.57a26 26 0 0 0-1.06-.4c-.33-.12-.68-.24-1-.38l-.7-.31-.06-.03a9.29 9.29 0 0 0-2.5-.85c-.71-.1-1.42-.15-2.14-.19a19.3 19.3 0 0 1-2.01-.18l-.83-.1a11.8 11.8 0 0 1 2.57-.3c1.2 0 2.34.08 3.52.17.69.05 1.36 0 2.01-.04h.07c.3-.03.58-.05.87-.05 1.71-.06 3.43-.06 5.14-.05 2.08 0 4.22.01 6.36-.1.27-.02.55-.03.81-.06l.22-.02c.76-.04 1.47-.08 2.21-.1.73 0 1.6-.11 2.6-.3.33-.07.65-.15.97-.25a5.4 5.4 0 0 1 1.4-.29c.6-.02 1.31-.04 2.02-.16l.56.12.61.16c.6.11 1.21.17 1.76.24l.14.01c.23.02.45.06.68.09.52.07 1.02.19 1.59.32l.69.15c.36.08.72.1 1.05.13.25.01.48.03.72.07.61.09 1.16.3 1.75.51.46.17.93.35 1.44.47 1.43.35 2.84.92 4.21 1.48.66.26 1.34.54 2.02.79.55.2.8.54 1.18 1.03l.34.43c.46.57.6.88.48 1.55-.12.58-.33.98-.68 1.23Z"/>
</svg>
