<svg xmlns="http://www.w3.org/2000/svg" xml:space="preserve" fill-rule="evenodd" stroke-linejoin="round" stroke-miterlimit="2" clip-rule="evenodd" viewBox="0 0 250 441">
  <g fill="#222" fill-rule="nonzero">
    <path d="M248.9 64.94c-1.23-1.9-3.09-2.33-5.06-2.8-1.71-.39-3.37-.04-4.97.32-1.7.36-3.3.71-4.76.06a12.4 12.4 0 0 1-2.92-2c-.36-.29-.71-.58-1.07-.85-1.05-.8-2.07-1.73-3.06-2.62l-.22-.2c-1-.88-1.94-1.9-2.9-2.9-1.96-2.07-3.99-4.23-6.7-5.67-2.5-1.33-5.86-1.88-8.16-1.95-1.76-.05-3.3.28-4.91.62-.64.14-1.3.27-1.98.4a7 7 0 0 1-5.56-1.1l-1.08-.72c-.8-.55-1.71-1.18-2.73-1.66a13.4 13.4 0 0 0-6.32-1.11c-3.12.12-6.36 1.31-9.64 3.57a23.51 23.51 0 0 0-4.5 4.38 9.23 9.23 0 0 1-3.46 2.66c-1.71.85-3.74 1.23-5.74 1.6-1.17.23-2.38.45-3.54.8-.62.16-1.26.39-1.92.64.12-.99-.13-2.12-.41-2.79-.52-1.18-1.37-2.02-2.21-2.85-.41-.42-.86-.84-1.21-1.3l-.27-.35c-1.37-1.7-2.8-3.47-2.83-5.5-.02-1.1.39-2.25.82-3.43.2-.57.4-1.15.57-1.73.51-1.95-.68-4.4-1.9-6.56a97.59 97.59 0 0 0-5.48-8.18 19.41 19.41 0 0 0-5.47-5.08 13.65 13.65 0 0 0-5.1-4.64 33.2 33.2 0 0 0-7.11-2.52l-.66-.17c-2.21-.58-4.5-1.18-5.92-2.8-1.3-1.5-2-3.14-2.63-4.85a5.05 5.05 0 0 0-2.6-2.74c-4.97-2.6-11.33 1.36-14.18 4.45-.48.53-.9 1.12-1.27 1.66-.32.48-.66.98-1.05 1.43-.59.66-1.12 1.3-1.58 2.2a8.23 8.23 0 0 1-3.25 3.36c-1 .55-2.1.97-3.18 1.42-2.43.96-4.94 1.95-6.38 4.26l-1.09-.14c-.66-.08-1.35-.15-2.01-.34-1.5-.43-2.58-.72-3.74-1.64-.64-.52-1.18-1.15-1.76-1.83-.41-.48-.82-.98-1.29-1.44-.39-.38-.76-.77-1.15-1.17-1.52-1.55-3.09-3.14-5.04-4.22-3.37-1.83-8.25-2.3-12.46-1.13-.89.24-1.8.58-2.76.94-2.4.89-4.9 1.8-7.07 1.27-.55-.14-1.1-.31-1.7-.5-1-.3-2.15-.67-3.3-.8-.43-.06-.86-.12-1.27-.21-1-.17-2.13-.38-3.3-.26-.7.07-1.38.17-2.15.28-1.35.18-2.63.37-4.02.34l-.82-.04a52.58 52.58 0 0 0-5.45-.01l-.32.01c-1.48.09-3.33.21-4.62 1.29l-.1.1a.48.48 0 0 0-.16.3l-.02.15c-.07 1.02 1.28 1.81 3.22 2.82.32.17.59.3.71.4.5.34 1.02.66 1.54.99.94.58 1.81 1.14 2.63 1.86.95.84 1.9 1.77 2.48 3.01.35.8.62 1.68.87 2.55.48 1.63.98 3.3 2.16 4.73.42.51.92.94 1.44 1.37.3.25.6.53.89.8.71.72 1.34 1.65 2.01 2.62.45.65.93 1.37 1.48 2.04-.4-.05-.8-.07-1.2-.09h-.33c-3.31 0-6.97 1.73-9.62 4.59-1.46 1.57-2.97 3.3-4.76 5.43a9.95 9.95 0 0 1-3.97 2.99c-1.51.74-2.5 1.06-4.11.92-.48-.03-.95-.08-1.44-.15-.9-.1-1.8-.2-2.75-.2h-.7c-2.13-.04-4.55-.07-6.46 1.4-1.78 1.39-3.24 4.12-.09 9.38 1.1 1.83 2.44 3.6 3.73 5.29l1.24 1.66c1.9 2.56 2.82 6.55 3.55 9.77l.14.65c.32 1.4.62 2.8.93 4.23.51 2.38 1.03 4.84 1.65 7.24.45 1.71 1.21 3.32 1.94 4.86.32.65.63 1.32.91 1.98.95 2.2 2.01 4.49 3.65 6.58 2.23 2.84 5.38 4.62 8.41 6.35l.52.29c1.37.79 2.99 1.44 4.8 1.98a17.87 17.87 0 0 0-3.34 3.7c-1.2 1.85-3.26 3.17-5.27 4.45-2.96 1.9-6.03 3.85-6.86 7.6-.34 1.5-.84 3.78.35 5.34.36.48.84.84 1.32 1.2.2.15.4.3.57.46.41.36.86.7 1.3 1.03.9.68 1.84 1.38 2.35 2.19 1.1 1.68 2.3 3.25 3.33 4.57 1.55 1.98 3.32 3.23 5.37 4.67l.12.09 1.05.77c1.07.78 2.17 1.6 3.5 2.22 1.65.77 3.27 1.23 5.09 1.73 2.76.75 5.54 1.16 8.23 1.56l.12.02c.66.1 1.32.18 2 .29 1.2.18 2.5.17 3.91.17 3.2 0 6.47-.02 8.06 2.36.78 1.16 1.7 2.17 2.61 3.17l.13.13.71.79c1.46 1.64 3.12 2.1 4.9 2.6l.37.1c-.46 3.02-.46 6.03 1.36 8.82.82 1.25 2 2.14 3.2 3.05l.8.61.04.04c-.78 1.84-1.64 5.05.32 7.58 1.55 2.02 3.6 3.8 6.1 5.3 2.43 1.5 5.16 2.3 7.83 3.1 1.59.48 3.2.96 4.74 1.6l.43.17c1.67.68 3.75 1.54 5.9 2.13 2.56.7 4.6.84 6.2.43 2.11-.55 4.35-.73 6.53-.92 2.33-.19 4.75-.4 7.12-1.05 2.51-.7 4.76-1.9 6.63-2.97.5-.3.94-.64 1.37-.96.44-.34.85-.67 1.3-.91.3-.17.68-.29 1.09-.43.51-.17 1.05-.34 1.58-.66a6.83 6.83 0 0 0 2.5-3.09c.9-1.84 2.03-3.49 3.22-5.22.71-1.04 1.46-2.14 2.15-3.27l1.06-1.72c.6.95.98 2.07 1.33 3.18.3.94.62 1.92 1.1 2.82a17.86 17.86 0 0 0 4 5.07c1.06.96 2.26 1.73 3.4 2.46.75.48 1.53.98 2.26 1.53 1.75 1.32 3.67 2.5 5.36 3.56.91.56 1.82 1.13 2.7 1.71l2.4 1.6.12.1c1.51 1.04 3.1 2.13 4.81 3.07 1.4.8 2.53 2.06 3.62 3.3l.62.68c.18.18.34.39.52.61.6.74 1.28 1.6 2.44 1.9.3.09.64.12.98.12h.03c.94 0 1.64-.24 2.12-.73l.14-.16.07.05c.52.38 1.14.53 1.79.43 1.97-.3 3.84-2.96 4.73-4.23l.15-.2c1.83-2.59 2.95-5.67 3.9-8.61.37-1.17.64-2.33.92-3.46l.36-1.44.27-1c.33-1.24.7-2.5.7-3.87.04-2.7-.26-5.43-.56-7.8l-.14-1.52c-.15-1.64-.29-3.33-.91-4.84a14.35 14.35 0 0 0-4.56-5.63c-.64-.43-1-.72-1.46-1.39a3.03 3.03 0 0 0-.43-.51l-.05-.07c.66.17 1.24.34 1.8.55 2.38.87 4.04 2.9 5.62 4.86 2.21 2.72 4.51 5.55 8.82 5.75l.8.05c.68.04 1.37.09 2.09.05h.6c1.7.04 3.16 0 3.81-.82.77-.94.13-2.24-.33-3.15-.08-.13-.15-.27-.18-.37-.36-.88-.88-1.66-1.36-2.45-.51-.82-1.01-1.6-1.31-2.43-1.5-3.99-2.18-7.55-1.95-10.29.22-2.58.29-4.88.22-7.05-.06-1.8-.52-2.58-1.55-3.99-.9-1.21-1.96-2.8-2.37-4.43-.23-.93-.29-1.92-.32-2.96-.05-1-.09-2-.32-3.01-.68-3.05-1.94-7.4-4.19-10.8-1.33-2.04-3.3-3.87-5.02-5.41l.36-.02 1.28-.12.62-.07c1.43-.14 2.7.22 4.12.63.82.24 1.65.48 2.58.62 1.03.15 2.07.27 3 .34 2.18.17 3.86-1.45 4.98-2.53.57-.55.94-1.13 1.26-1.66.18-.3.38-.6.6-.87.15-.2.35-.4.54-.59.27-.25.56-.53.8-.89.74-1.06 1.55-2.08 2.62-2.46.43-.15 1-.19 1.59-.24.44-.03.9-.07 1.35-.15a22.93 22.93 0 0 1 4.67-.5c1.48-.02 3-.03 4.38-.63 3.87-1.71 5.13-6.27 6.15-9.93l.39-1.39c.34-1.13.66-2.32.98-3.54.89-3.35 1.8-6.81 3.42-9.74 1.12-2 3.1-3.22 5.18-4.5 1.9-1.16 3.87-2.38 5.22-4.25 1.34-2.01.12-4.33-.45-5.23Zm-43.63 47.51c-.89-.07-1.89-.19-2.87-.34-.81-.12-1.63-.36-2.42-.58-1.23-.36-2.5-.72-3.9-.72-.27 0-.53.02-.8.03l-.64.07a16.01 16.01 0 0 1-3.22.14 46.53 46.53 0 0 0-6.33-4.45 37.7 37.7 0 0 0-7-3.3l-1.01-.37a26.9 26.9 0 0 0-2.96-.9c-.71-.16-1.43-.2-2.12-.28-.55-.05-1.16-.1-1.75-.2-.7-.14-1.42-.33-2.26-.57-.87-.24-1.78-.5-2.67-.63-1.18-.58-2.42-.96-3.54-1.32-.7-.2-1.4-.43-2.09-.7-1.98-.75-3.77-1.71-5.7-2.72l-.37-.19a29 29 0 0 0-1.8-.87l-.38-.33a12.34 12.34 0 0 1-2.31-3.13l-.45-.75a12.13 12.13 0 0 0-3.24-3.4l-.12-.7a52.25 52.25 0 0 0-1.07-4.2c-.25-.88-.5-1.75-.71-2.64l-.22-.87.04-.43a7.49 7.49 0 0 0-.45-2.72c.04-.41.1-.82.23-1.25 2.09-7.58 9.21-14.69 16.94-16.9 1.09-.3 2.27-.53 3.44-.75 2.07-.4 4.2-.79 6.13-1.74 1.62-.8 2.72-1.54 3.99-3.07.96-1.18 2.44-2.89 4.17-4.07 3-2.07 5.96-3.18 8.76-3.29 2.23-.1 4.04.23 5.54.96.9.43 1.7.98 2.58 1.58l1.05.71a8.66 8.66 0 0 0 6.74 1.32c.67-.1 1.31-.25 2.04-.4 1.52-.33 2.94-.64 4.53-.59 2.12.07 5.18.55 7.43 1.76 2.45 1.3 4.4 3.36 6.28 5.36a53.4 53.4 0 0 0 3 3.01l.21.2c1.02.9 2.05 1.86 3.17 2.7.36.27.7.54 1.03.82 1 .82 2.03 1.66 3.3 2.22 1.94.86 3.97.43 5.77.04 1.43-.31 2.89-.62 4.28-.31 1.76.4 3.17.73 4.04 2.09.4.65 1.28 2.27.4 3.49-1.15 1.6-2.97 2.72-4.75 3.81-2.17 1.34-4.43 2.73-5.75 5.09-1.73 3.1-2.65 6.66-3.56 10.1-.32 1.21-.63 2.36-.97 3.49l-.4 1.42c-.93 3.34-2.09 7.5-5.26 8.9-1.07.48-2.42.48-3.72.5-.59 0-1.2.01-1.78.05-.98.08-1.96.22-3.2.48-.33.06-.7.08-1.15.12-.64.03-1.35.08-2.01.32-1.5.53-2.51 1.78-3.4 3.06-.16.24-.4.45-.61.67-.23.22-.48.46-.71.76-.25.34-.47.66-.68 1-.32.5-.6.96-1.03 1.37-1.16 1.07-2.37 2.11-3.7 2.04Zm-4.47 16.69c.2.89.23 1.85.29 2.79.05 1.06.1 2.17.37 3.23.48 1.89 1.66 3.63 2.62 4.97.9 1.23 1.21 1.74 1.25 3.15.07 2.12 0 4.36-.2 6.88-.25 3 .43 6.67 2.03 10.93.37 1 .93 1.87 1.48 2.73.44.71.93 1.45 1.23 2.2.05.16.14.33.25.53.4.84.59 1.34.5 1.48-.11.1-.56.27-2.5.22h-.7c-.63.02-1.33-.02-1.93-.05l-.8-.05c-3.59-.18-5.54-2.59-7.63-5.16-1.73-2.14-3.53-4.34-6.34-5.35-.5-.17-.98-.33-1.48-.47-1.46-.39-2.92-.63-4.36-.87l-.3-.05-1.04-.17c-.8-.14-1.65-.19-2.69-.15-.8.01-1.58.1-2.35.17l-.12.01c-.82.07-1.66.16-2.48.17-.44.02-.87.09-1.28.16-.5.07-.96.15-1.37.1-.3-.03-.6-.08-.88-.12-.6-.08-1.23-.19-1.9-.22-1.12-.05-2.2-.36-3.32-.69l-.73-.2c-.28-.09-.53-.14-.89-.24a10.6 10.6 0 0 1-2.72-.94c-1.8-1.01-3.39-1.99-4.63-3.78l-.36-.52c-.85-1.23-1.67-2.4-2.15-3.73-.95-2.6-2.59-4.88-4.17-7.1l-.1-.12a23.26 23.26 0 0 0-1.15-4.11c-.73-1.85-1.7-4.4-3.1-6.13a33.2 33.2 0 0 1-2.2-3.27l-.58-.89-1.1-1.7-.55-.83c-.56-1.6-.47-3.39-.34-5.08.23-2.88.75-6.13 1.53-9.38a68.29 68.29 0 0 0 1.98-11.7c.05-.8.09-1.62.09-2.42 1.31.77 2.69 1.43 4.08 2.09l.8.35c1.4 1.17 3.15 2.21 4.72 3.15a22.59 22.59 0 0 0 6.46 2.55c.64.14 1.23.21 1.86.28l.89.1c.83.41 1.69.8 2.56 1.22 1.27.6 2.57 1.21 3.83 1.86.68.36 1.35.72 2.03 1.1 1.89 1.02 3.83 2.09 5.93 2.86 1.09.39 2.2.75 3.3 1.1 1.2.38 2.42.8 3.6 1.24l.28.1a18.44 18.44 0 0 0 4.4 1.25l.36.33c2 1.78 4.29 3.78 5.73 5.97 2.14 3.13 3.33 7.3 4 10.22Zm-5.97 51.1c-.01 1.17-.32 2.3-.67 3.55l-.27.98-.32 1.31-.04.16c-.26 1.1-.53 2.24-.89 3.35-.89 2.83-1.96 5.77-3.68 8.18l-.16.23c-.6.83-2.37 3.35-3.66 3.56a.65.65 0 0 1-.53-.14c-.3-.22-.3-.79-.32-1.35 0-.3-.02-.55-.05-.8-.2-1.5-.8-2.37-1.71-3.53l-.6-.76-.06-.08c-.84-1.06-1.64-2.06-2.21-3.32-.52-1.17-1.09-2.33-1.64-3.48l-.1-.2c-.24-.46-.45-.93-.68-1.39a54.88 54.88 0 0 0-3.44-5.94c-1.23-1.9-2.39-3.93-3.51-5.94l-1.18-2.09a96.9 96.9 0 0 0-4.13-6.48c-.12-.17-.25-.4-.43-.69-.51-.85-1.08-1.85-1.88-2.3-.98-.59-1.68-.44-2.09-.21-.62.34-.94 1.04-.94 1.98.03 3.12.75 6.54 2.08 9.9 1.27 3.18 3.48 7.77 6.8 11.53 1.57 1.78 3.5 3.1 5.37 4.38a44.2 44.2 0 0 1 3.28 2.4l.67.55c2.26 1.85 4.6 3.75 4.67 6.57.02.8-.07 1.28-.3 1.5-.18.18-.5.26-.98.26h-.02c-.96 0-1.43-.51-2.16-1.43-.17-.23-.37-.47-.57-.69l-.6-.68c-1.18-1.34-2.39-2.7-4.03-3.63-1.65-.93-3.22-2-4.72-3.05l-.14-.1a109.37 109.37 0 0 0-5.08-3.3c-1.74-1.1-3.56-2.21-5.23-3.48-.79-.58-1.57-1.1-2.37-1.6-1.09-.71-2.21-1.43-3.2-2.3a16.39 16.39 0 0 1-3.62-4.62c-.43-.83-.72-1.73-1.02-2.62a12.62 12.62 0 0 0-1.98-4.2 38.63 38.63 0 0 0 3.6-7.42c1.89-5.72 2.57-10.38 2.2-15.12l-.17-2.15c-.07-1.12-.14-2.2-.25-3.26.96 1.46 1.71 2.81 2.23 4.23.55 1.53 1.46 2.8 2.33 4.08l.36.5c1.44 2.1 3.19 3.18 5.16 4.29 1 .56 2.09.82 3.14 1.1.28.06.55.13.84.22l.74.2c1.1.33 2.37.69 3.7.75.58.04 1.13.12 1.72.21l.12.02c.27.03.52.08.79.12.66.06 1.3-.02 1.87-.12.37-.05.71-.12 1.03-.12.86-.02 1.71-.1 2.53-.17l.12-.02c.77-.07 1.55-.16 2.3-.17.91-.04 1.66.01 2.35.13l1.21.21.15.02c.64.1 1.24.2 1.87.32 0 .69.42 1.15.73 1.5.1.1.2.21.28.33a6.4 6.4 0 0 0 1.87 1.82 12.42 12.42 0 0 1 3.98 4.91c.53 1.3.65 2.88.8 4.42.05.54.09 1.07.16 1.57.32 2.36.62 5.05.58 7.62Zm-16.92 11.35c-1-.78-2.03-1.5-3.08-2.22a26.32 26.32 0 0 1-5.04-4.1c-3.19-3.6-5.3-8.02-6.52-11.08a26.64 26.64 0 0 1-1.98-9.35c0-.4.11-.6.11-.6h.02l.1.02c.08.02.18.07.34.15.45.26.95 1.12 1.34 1.78.16.28.32.55.46.76a98.37 98.37 0 0 1 5.24 8.47c1.12 1.99 2.28 4.06 3.54 6a51.91 51.91 0 0 1 4.14 7.38c.44.9.9 1.84 1.33 2.8Zm-34.18-19.82-.55.91a63.84 63.84 0 0 1-2.12 3.2c-1.18 1.71-2.39 3.48-3.33 5.41a5.5 5.5 0 0 1-1.9 2.43c-.36.22-.8.36-1.25.52-.45.13-.9.29-1.34.53-.57.3-1.07.7-1.53 1.04-.4.3-.8.62-1.21.86a27.78 27.78 0 0 1-6.24 2.82c-2.22.62-4.56.8-6.82 1-2.23.18-4.54.37-6.8.97-3.07.8-7.88-1.17-11.05-2.48l-.42-.18c-1.63-.66-3.3-1.16-4.94-1.66-2.53-.75-5.15-1.54-7.4-2.9a20.78 20.78 0 0 1-5.67-4.92c-1.04-1.33-1.14-3.33-.32-5.56.66.55 1.33 1.1 2.1 1.54.94.55 1.96.8 2.85 1.03.5.13 1.07.27 1.6.46 2.09.77 3.97 2.05 5.86 3.32.7.46 1.37.94 2.09 1.37 3.08 1.95 6.27 3.11 9.63 4.35l.36.13 1.05.4.2.07c2.44.94 5.46 2.14 7.83 1.74 1.29-.2 3.69-1.08 3.69-2.84 0-.75-.59-1.63-1.1-2.4-.22-.3-.41-.6-.5-.8a38.94 38.94 0 0 1-2.32-6.6 43.73 43.73 0 0 1-1.58-8.72l-.02-.43c-.06-1.02-.13-2.29-1.1-3.25l-.34-.34c-.11-.1-.25-.16-.38-.12a.5.5 0 0 0-.34.2l-.4.72c-.45.77-.84 1.44-1.41 2.2l-.2.25c-.87 1.16-1.32 1.73-2.64 2.35-1.9.87-4.4.68-6.6.53l-.57-.04c-1.8-.13-3.6-.65-5.35-1.14a25.92 25.92 0 0 0-5.68-1.2 6.03 6.03 0 0 0-5.2 1.97 13.8 13.8 0 0 0-2.07 2.72c-.21-.16-.4-.33-.62-.48a10.9 10.9 0 0 1-2.76-2.6c-2.12-3.26-1.32-7.1-.55-10.86.16-.78.32-1.54.44-2.29.63-3.61 2.12-6.66 5-10.22l.2-.22c.9-1.08 1.77-2.2 1.73-3.18-.02-.94-.8-1.82-1.51-2.6-.29-.33-.6-.67-.72-.9a8.05 8.05 0 0 1-.05-7.42c2.2-3.84 6.23-5.22 10.51-6.7 1.87-.65 3.8-1.3 5.56-2.19 7.3-3.66 13.12-9.6 18.77-15.33.87-.9 1.75-1.78 2.62-2.65l.87-.88c2.55-2.53 5.2-5.17 6.97-8.3.3-.53.8-1.62 1.03-2.74 1.03.41 2.26.69 3.05.79.62.09 1.24.05 1.87.02.39-.02.74-.05 1.1-.04l1.16.09.7.07c.14.22.28.44.44.66.28.4.53.8.73 1.22.39.89.62 2.1.75 2.74.26 1.57-.04 2.69-.47 4.24l-.17.69c-.2.77-.16 1.35-.13 1.98l.04.53c.01.55-.06 1.12-.15 1.7a21.65 21.65 0 0 0 1.03 9.69 36.02 36.02 0 0 0 3.5 6.45l.1.27c.47 1.15 1.1 2.26 1.75 3.36.48.82.98 1.66 1.35 2.5.41.89.75 1.83 1.1 2.75.44 1.25.9 2.53 1.56 3.77a41.6 41.6 0 0 0 2.8 4.33c.35 2.02.5 4.07.65 6.26l.16 2.14c.38 4.52-.28 9-2.12 14.52-1.1 3.21-3 6.35-4.86 9.37Zm-62.22.47a12.13 12.13 0 0 1 1.96-2.69 4.47 4.47 0 0 1 3.94-1.49c1.76.1 3.5.6 5.33 1.13 1.81.53 3.68 1.08 5.68 1.22l.57.03c2.4.17 5.15.38 7.43-.67 1.67-.77 2.3-1.59 3.24-2.82l.2-.26c.37-.48.65-.92.94-1.39.07.36.09.74.1 1.15l.02.45c.2 2.75.75 5.78 1.64 9 .62 2.22 1.34 4.6 2.42 6.85.13.27.34.58.63 1 .26.42.85 1.27.85 1.56 0 .47-1.16 1.12-2.35 1.3-1.92.31-4.83-.82-6.98-1.66l-1.25-.48-.36-.13c-3.29-1.2-6.39-2.35-9.33-4.2-.68-.42-1.35-.89-2.08-1.38-1.93-1.3-3.9-2.64-6.17-3.48-.35-.13-.73-.24-1.08-.34a9.8 9.8 0 0 0-.68-.17c-.87-.22-1.7-.45-2.44-.86-.78-.44-1.51-1.07-2.23-1.67Zm-27.8-22.94-2-.29-.12-.02c-2.76-.4-5.38-.8-8.02-1.52-1.74-.48-3.3-.92-4.82-1.64-1.18-.55-2.16-1.29-3.3-2.13-.34-.23-.66-.5-1-.73l-.12-.09c-1.94-1.37-3.62-2.55-5.02-4.36a62.56 62.56 0 0 1-3.24-4.47 11.3 11.3 0 0 0-2.73-2.58c-.43-.33-.84-.64-1.21-.96l-.68-.55c-.37-.29-.76-.56-1-.87-.76-1-.33-2.86-.07-4.1.7-3.13 3.37-4.82 6.18-6.63 2.14-1.37 4.37-2.8 5.74-4.92.8-1.25 2.31-2.94 3.92-4 2.8.67 5.66 1.06 8.2 1.4l.5.07a90.1 90.1 0 0 0 16.56.82l.94-.03c1.94-.04 4.6-.09 5.93-1.54.59-.65.84-1.5.73-2.5a5.67 5.67 0 0 0-4.52-4.91 12.28 12.28 0 0 0-3.64-.02c-.55.07-1.14.1-1.67.14-.77.03-1.55.06-2.32.24-.48.1-.98.18-1.46.29l-.35.07c-.93.17-1.86.35-2.78.54-.77.17-1.52.41-2.26.65-.8.26-1.63.52-2.44.67l-2.44.41c-1.6.28-3.28.55-4.9.87-.32.07-.66.12-1.02.18-.96.15-1.96.3-2.85.71-.16.07-.34.18-.5.26a22.32 22.32 0 0 1-5.64-2.16l-.52-.29c-2.9-1.64-5.9-3.35-7.94-5.94a27.42 27.42 0 0 1-3.44-6.24c-.3-.69-.63-1.35-.95-2.04-.7-1.49-1.44-3.01-1.85-4.59a167.8 167.8 0 0 1-1.64-7.19l-.03-.18c-.29-1.36-.6-2.7-.9-4.06l-.14-.65c-.76-3.34-1.7-7.5-3.8-10.34l-1.29-1.7a56.25 56.25 0 0 1-3.62-5.13c-1.42-2.38-2.63-5.58-.3-7.4 1.44-1.1 3.47-1.09 5.43-1.05h.7c.84 0 1.7.1 2.58.2.48.05.98.12 1.46.16 2 .17 3.28-.26 4.99-1.08a11.52 11.52 0 0 0 4.5-3.4c1.75-2.1 3.25-3.8 4.7-5.38 1.91-2.06 5.2-4.16 8.7-4.06 1.02.04 2.05.17 3.22.43.34.24.65.43.95.56 1.32.64 2.81.95 4.33 1.24.39.07.76.15 1.14.24a61 61 0 0 0 9.92 1.42l.2.01c.15 0 .28-.05.37-.17l.1-.15c1.04-1.32-.32-2.77-1.26-3.7 3.88-1 8.43-.92 14.23.22 3 .6 6.5 2.13 10.44 4.54 2.01 1.23 4.9 3.56 6.5 5.79a39.58 39.58 0 0 1 3.88 7.29c1.2 2.73 2.71 5.34 4.19 7.87l.48.82c2.32 4 5.04 8.76 7.62 13.76a21.5 21.5 0 0 0 4.69 6.04c.46.42.96.69 1.46.96.29.16.55.3.8.46.29.2.54.45.82.7.32.31.7.67 1.14.95l.27.17-1.32-.15c-3.33-.38-6.79-.8-10.05-1.87-1.63-.55-2.77-1.7-3.99-2.91l-.53-.53c-1.39-1.37-1.98-3.27-2.55-5.12l-.05-.15c-.36-1.17-.73-2.36-1.71-3.24a9.95 9.95 0 0 0-1-1.49c-.4-.5-.87-.99-1.33-1.47-.41-.44-.86-.8-1.34-1.21-.5-.43-.98-.83-1.39-1.3-.28-.33-.59-.64-.94-.98-.97-.92-1.71-1.66-1.54-2.82.08-.41.5-1.1.9-1.73.8-1.29 1.63-2.62.97-3.79l-.05-.12a.53.53 0 0 0-.23-.2l-.12-.05c-2.52-.96-6.76.1-8.6 1.62a29.6 29.6 0 0 0-6.14 7.35l-.96 1.57a36.92 36.92 0 0 1-3.7 5.38c-.54.6-1.1 1.18-1.71 1.81-1.57 1.6-3.17 3.23-4.12 5.4-.78 1.84-1.23 3.74-1.67 5.59l-.45 1.83c-.85 3.29-.28 6.66 1.68 10.03 1.69 2.93 3.42 4.69 5.98 6.1a89.9 89.9 0 0 0 6.24 3.16c1.64.75 2.85 1.47 3.72 2.76.66.95.98 2.17 1.3 3.35.12.5.27.98.41 1.45 1.35 4.27 4.68 6.77 9.89 7.47 2.13.29 3.68.24 5.71-.88a40.04 40.04 0 0 0 7.8-5.46l.11-.08c1.37-1.08 3.1-2.45 3.1-4.28 0-1.35-1.26-1.85-2.15-2.2l-.45-.18c-1.3-.6-2.72-.92-4.17-1.28-.44-.1-.89-.2-1.32-.33-.94-.24-1.83-.61-2.85-1.03-.4-.17-.81-.32-1.22-.5a20.1 20.1 0 0 1-8.59-6.05c-3.4-4-5.29-7.43-5.79-10.5-.32-2.01-.27-3.66.2-5.3.34-1.16 1.01-2.07 1.74-3.06.29-.38.57-.77.84-1.18.28-.43.66-.86 1.02-1.27.46-.53.94-1.08 1.3-1.71.42-.74.78-1.56 1.12-2.36l.32-.76c.12-.29.23-.58.32-.87.34-1.04.4-1.08.9-1 1.22.2 2.59.62 3.78 1.02l.45.13c.28.09.52.21.73.36.36.74.6 1.5.9 2.43l.33 1.01c.03.1.1.21.21.26.1.05.22.07.32.04.57 1.78 1.25 3.47 2.66 4.86l.53.53c1.35 1.35 2.62 2.62 4.61 3.28 3.42 1.15 6.97 1.56 10.39 1.95 2.12.24 4.5.52 6.75 1 .77.24 1.53.42 2.19.53.37.1.82.2 1.3.3 1.32.3 3.1.67 4.2 1.32.13.47.36 1.08.93 1.58a7.9 7.9 0 0 1-.94 2.84c-1.66 2.94-4.23 5.5-6.7 7.96l-.87.87c-.88.87-1.75 1.76-2.64 2.67-5.56 5.65-11.3 11.49-18.35 15.03a42.71 42.71 0 0 1-5.36 2.1c-4.36 1.51-8.89 3.07-11.38 7.42-1.44 2.51-1.42 6.17.04 8.9.2.37.57.78.94 1.2.46.5 1.09 1.23 1.1 1.62.02.5-1.03 1.76-1.39 2.17l-.2.24c-3.04 3.77-4.64 7.04-5.32 10.92-.12.74-.28 1.5-.44 2.26l-.32 1.61-.2-.05c-1.73-.48-2.97-.82-4.11-2.1-.27-.31-.56-.6-.84-.93-.9-.98-1.75-1.9-2.48-2.98-1.96-2.92-5.57-3.08-8.88-3.08h-.56c-1.32.04-2.56.05-3.63-.12Zm-9.07-40c-1.8-.24-3.76-.51-5.75-.89l.6-.1h.04c.38-.05.73-.12 1.09-.19 1.58-.32 3.22-.6 4.88-.87l.35-.05 2.07-.35c.96-.17 1.87-.46 2.7-.73.68-.22 1.38-.45 2.07-.58.9-.2 1.8-.36 2.8-.55l1.78-.34a13.2 13.2 0 0 1 2.1-.2c.6-.04 1.2-.08 1.8-.16a10.55 10.55 0 0 1 3.42.07c1.5.4 2.71 1.86 2.89 3.47.07.56-.04 1-.34 1.3-.86.94-3.2.98-4.76 1.01-.37 0-.7.02-1 .03a88.24 88.24 0 0 1-16.24-.8l-.5-.07ZM29.38 10.32l.8.04c1.53.05 2.96-.16 4.31-.36.68-.1 1.37-.21 2.08-.28.91-.08 1.84.07 2.84.24.44.09.9.16 1.35.2 1 .13 2.01.45 3.01.74.59.2 1.2.36 1.8.52 2.69.66 5.54-.4 8.09-1.34.92-.34 1.78-.65 2.6-.87 3.8-1.05 8.19-.65 11.2 1 1.75.95 3.22 2.47 4.67 3.94l1.17 1.19c.41.4.8.87 1.2 1.33.58.7 1.2 1.44 1.97 2.05 1.43 1.13 2.76 1.51 4.31 1.96.75.22 1.5.3 2.28.39l.6.07c-.1.25-.17.53-.24.8a13.77 13.77 0 0 0 1.14 8.73c.59 1.39 1.16 2.69 1.1 4.1a5.45 5.45 0 0 1-.5 1.8c-.14.35-.28.73-.39 1.12a35.09 35.09 0 0 0-1.74-1.5c-.41-.37-.84-.7-1.23-1.07-.45-.4-.87-.8-1.34-1.26-.8-.8-1.62-1.63-2.62-2.3a107.05 107.05 0 0 0-6.16-3.71c-1.07-.6-2.12-1.29-3.15-1.94-1.03-.65-2.2-1.4-3.35-2.05-1.37-.77-2.9-1.32-4.36-1.85a54.79 54.79 0 0 1-8.2-3.63 81.53 81.53 0 0 1-4.3-2.56 97.37 97.37 0 0 0-4.18-2.49c-.23-.13-.48-.25-.73-.37-.35-.2-.73-.36-1.06-.57-.17-.1-.33-.24-.5-.4-.38-.32-.8-.68-1.37-.85a.47.47 0 0 0-.34.04.4.4 0 0 0-.22.25l-.21.67c-.04.1-.02.22.03.33.06.1.15.17.27.2.23.07.5.3.79.53.2.19.44.38.69.53.4.24.8.45 1.28.69l.6.3a88.7 88.7 0 0 1 4.1 2.45l.13.07a59.64 59.64 0 0 0 12.7 6.25c1.4.5 2.87 1.03 4.11 1.73 1.13.63 2.23 1.33 3.34 2.03 1.03.65 2.08 1.34 3.18 1.96A89.98 89.98 0 0 1 77 32.8c.87.58 1.6 1.32 2.42 2.12.45.43.9.9 1.37 1.3l1.27 1.08c.7.58 1.46 1.25 2.17 1.92l.4.38v.78c0 .14.01.28.03.4a30.02 30.02 0 0 0-3.12-2.28c-4.11-2.52-7.82-4.12-10.99-4.74-3.2-.63-6.05-.96-8.64-.96-2.63 0-4.98.33-7.18 1-2.45-2.54-5.05-4.87-9.33-6.05l-6.2-1.68-2.37-.63-.64-.15c-.51-.12-1.03-.23-1.4-.46-.36-.23-.63-.59-.95-1a4.8 4.8 0 0 0-1.55-1.47.4.4 0 0 0-.21-.05c-.06-.19-.1-.38-.18-.58-.27-.91-.55-1.85-.94-2.74-.7-1.52-1.8-2.59-2.87-3.54-.91-.8-1.89-1.43-2.85-2.02-.5-.31-.98-.62-1.48-.96-.16-.12-.5-.3-.9-.5a19.36 19.36 0 0 1-2.06-1.18c.88-.4 2.07-.48 3.05-.53l.32-.02c1.67-.07 3.47 0 5.22.07Zm61.97 6.54.03-.02c1.12-.44 2.26-.89 3.35-1.49a9.92 9.92 0 0 0 3.9-4c.4-.76.86-1.3 1.37-1.9.43-.5.8-1.03 1.18-1.56.37-.53.71-1.04 1.12-1.49 2.51-2.75 8.05-6.3 12.18-4.12 1.06.54 1.55 1.04 1.87 1.9a16.1 16.1 0 0 0 2.93 5.32c1.74 1.98 4.25 2.65 6.71 3.3l.64.17c2.35.64 4.56 1.24 6.77 2.4 3.9 2.05 6.32 5.94 6.18 9.9-.03.87-.27 1.67-.52 2.56-.37 1.3-.78 2.67-.46 4.3.2 1 .64 1.7 1.09 2.38.16.25.34.53.5.82.1.2.18.44.25.7.07.26.16.51.26.77.24.5.54.94.82 1.35.2.3.4.58.56.87a23.73 23.73 0 0 1 2.19 5.87c.09.45.25.86.39 1.25.23.62.43 1.15.37 1.75-.03.53-.21 1.04-.39 1.6-.3 0-.62.08-.94.21-1.98.88-3.17 2.66-4.23 4.23l-.08.14c-.18.26-.34.51-.52.75-.32.45-.66.53-1.21.65-.64.14-1.43.31-2.12 1.13-.59.67-1.14 1.42-1.64 2.07l-.59.77c-.14.17-.27.36-.4.55-.28.38-.52.72-.81 1-.25.23-.46.3-.84.44-.2.07-.4.15-.64.27-1.17.57-1.92 1.63-2.58 2.59-.21.3-.43.61-.66.9-1.83 2.28-1.71 4.95-1.6 7.54.03.99.09 2 0 2.96-.22 2.48-.5 4.3-.91 5.75a8.84 8.84 0 0 0 0 5l-.46-.18a.44.44 0 0 0-.57.24c-.08.04-.27.05-.97-.06-.26-.06-.5-.1-.73-.1-.58 0-1.2-.08-2-.21l-.19-.05c-.62-.18-1.24-.33-1.83-.45a21.52 21.52 0 0 1-5.08-2.36c-.3-.19-.59-.46-.87-.74-.3-.27-.62-.6-1.02-.87-.3-.2-.62-.4-.96-.57a5.37 5.37 0 0 1-1.12-.71 19.68 19.68 0 0 1-4.35-5.62c-2.6-5.05-5.32-9.82-7.66-13.83l-.48-.84c-1.44-2.48-2.94-5.03-4.11-7.72a40 40 0 0 0-4.04-7.56c-.5-.69-1.14-1.42-1.9-2.17l.02-.07c.1-.41.04-.77-.07-1.08 1.64 1.54 3.21 3.17 4.17 5.05.25.48.48.97.71 1.45.47.94.93 1.92 1.48 2.86l.22.38c.39.72.83 1.52 1.6 2.02l.18.12c.14.08.3.1.46.03l.2-.1c1.12-.55 1.14-2.12 1.14-3.39 0-.3 0-.58.03-.77.1-.75.4-1.56.68-2.33.21-.58.43-1.2.59-1.81a8.8 8.8 0 0 0-.04-3.61l-.07-.47c-.09-.65-.12-1.31-.16-1.96-.05-1.07-.1-2.14-.41-3.22-.09-.31-.16-.62-.25-1.01-.16-.69-.32-1.39-.64-2.1l-.43-.91c-.32-.65-.64-1.32-.85-1.97-.64-1.83-1.18-3.25-2.44-4.83a17.26 17.26 0 0 0-6.54-4.83h-.02c1.16-1.62 3.15-2.4 5.26-3.23Zm59.2 21.19c-.14.53-.33 1.06-.53 1.64-.45 1.25-.9 2.53-.9 3.9.04 2.57 1.7 4.63 3.18 6.46l.27.32c.42.53.89 1 1.35 1.46.75.75 1.46 1.45 1.85 2.36.34.77.47 2.17.13 2.55-.02.03-.1.1-.41.03l-.27-.07c-.2-.03-.4.06-.5.23l-.28.51a.42.42 0 0 0-.04.33l.05.1c-5.71 3.22-10.45 8.71-12.48 14.44a6.73 6.73 0 0 1 .2-2.84c.62-2.29 1.22-4.52 2-6.55.26-.67.54-1.32.83-2.02 1.03-2.47 2.1-5.02 2.17-7.76.04-1-.25-2.4-1.07-3.14l.04-.09c.2-.62.4-1.27.46-1.97.07-.9-.21-1.68-.46-2.36-.13-.34-.25-.7-.34-1.04a25.02 25.02 0 0 0-2.32-6.25c-.2-.4-.44-.74-.67-1.08-.25-.36-.5-.72-.66-1.08-.1-.17-.15-.37-.2-.58-.09-.3-.2-.65-.37-.98l-.57-.94c-.4-.61-.72-1.1-.86-1.81-.25-1.27.1-2.4.43-3.6.27-.9.53-1.84.59-2.9.05-1.24-.13-2.49-.5-3.69a16 16 0 0 1 2.74 2.98 92.9 92.9 0 0 1 5.38 8.05c.6 1 2.2 3.78 1.76 5.39ZM138.41 104c-.04-.57-.08-.98.07-1.51l.18-.67c.42-1.59.8-2.98.48-4.88-.13-.7-.4-2.03-.84-3.1-.21-.49-.5-.92-.77-1.33.32-.07.63-.15.88-.24.32-.08.6-.19.9-.22.24-.04.45-.04.68-.04.6-.01 1.28 0 2-.44l.09-.07c.37.16.76.3 1.17.45.37.13.75.25 1.1.42.02 1.08 0 2.18-.07 3.27a66.18 66.18 0 0 1-1.94 11.44 65.37 65.37 0 0 0-1.57 9.62c-.03.56-.08 1.18-.1 1.81a26.96 26.96 0 0 1-1.44-3.05 20.4 20.4 0 0 1-1.07-7.63c.01-.45.07-.87.14-1.32a9.88 9.88 0 0 0 .1-2.51Zm-11.07-31.38c-.1-2.41-.2-4.69 1.27-6.5.27-.33.5-.67.75-1.03.57-.8 1.14-1.64 1.92-2.02l.55-.22c.43-.15.86-.3 1.36-.77a7.6 7.6 0 0 0 1.05-1.3c.1-.14.21-.3.32-.43l.64-.84c.5-.65 1.02-1.33 1.53-1.93.36-.41.71-.48 1.25-.6a3.2 3.2 0 0 0 2.19-1.29l.64-.92c.98-1.45 2-2.98 3.53-3.64.37-.18.51-.07.57-.04.39.24.67 1.18.66 2.07-.07 2.45-1.07 4.86-2.07 7.2l-.84 2.06a64.7 64.7 0 0 0-2.06 6.7c-.41 1.52-.41 2.99 0 4.51.14.52.32 1.01.48 1.5l.16.47c-.04 1.08.16 2.02.4 3.05a5.42 5.42 0 0 1-1.27 3c-.04-.06-.1-.11-.15-.16a2.4 2.4 0 0 0-1.72-.9c-.68 0-1.29.28-1.88.86-1.24 1.29-1.94 2.25-2.28 4l-.01.1-.07.01c.28-1.3.6-2.6.92-3.87l-.43-.1h.47c.48-1.93 1-3.95 1.33-5.97.47-2.66.79-6.15-.32-7.6a1.88 1.88 0 0 0-1.26-.75l-.1-.02a.46.46 0 0 0-.28.03l-.1.05c-1.32.65-1.71 2.43-2.02 3.9l-.2.9a85.82 85.82 0 0 0-1.86 7.75c-.04.17-.1.4-.14.67-.41 1.76-1.1 4.7.39 5.97.37.3.89.51 1.57.62-.57 2.4-.5 3.35.23 3.78l.05.02c-.52.01-1 .05-1.42-.02-.93-.12-2.37-.51-3.21-.92-.07-.36-.2-.69-.38-.96-.17-.24-.39-.48-.65-.7l-.08-.55c-.05-.4-.1-.84-.2-1.29-.47-1.81-.61-3.03-.13-4.67.44-1.54.74-3.46.96-6.04.03-1.06 0-2.12-.06-3.17Zm10.48 9.88c.23-.24.46-.38.7-.38h.03c.09.02.25.1.46.34a1 1 0 0 1 .2.26c-.77.65-1.9 1.61-3.07 2.2a6 6 0 0 1 1.68-2.42Zm2.26 7.63c.1.14.21.26.34.36H140c-.29 0-.59 0-.9.04a2.5 2.5 0 0 0-.53.1c.48-.19.97-.34 1.5-.5Zm-7.48-4.53c-.6-.05-.82-.2-.87-.26-.79-.67-.15-3.34.14-4.57l.14-.62a80.2 80.2 0 0 1 1.82-7.61c.09-.28.16-.65.25-1.05.18-.82.43-2.03.89-2.56.43.58.7 2.61.03 6.41-.33 1.96-.83 3.92-1.31 5.87-.32 1.29-.68 2.73-.98 4.15-.06.03-.08.12-.11.24Zm1.87 3.71c-.23-.02-.46-.03-.71-.02-.11 0-.2.04-.3.07.01-.36.12-1.03.4-2.2.11 0 .24-.02.36-.04-.02.68.07 1.4.25 2.2Zm-.66 1.56.04-.02c.33-.02.67.04 1.05.1-.36-.03-.7-.06-1.04-.06h-.07c0-.02.02-.02.02-.02Zm5.82-6.44-.01.7c-.02.36-.1.72-.18 1.15-.16.75-.34 1.6-.1 2.47-.47.13-.97.29-1.47.5l-.4.2c-.33.15-.47.22-.85.22-.14 0-.26-.02-.4-.03a9.05 9.05 0 0 1-.4-2.86c1.36-.46 2.66-1.4 3.81-2.35Zm4.12 6.06a6.87 6.87 0 0 1-2.03-.96 7.5 7.5 0 0 0 2.15-1.66l.11.04c.14.89.23 1.81.3 2.75-.17-.05-.35-.1-.53-.17Zm-.86-3.2-.33-.29-.27.26a5.7 5.7 0 0 1-1.4.96 4.2 4.2 0 0 1 .15-1.65 7.01 7.01 0 0 0 .07-3.4c.54-.52.98-1.08 1.32-1.66.1.3.18.63.27.95.35 1.27.73 2.59 1 3.9-.48.06-.82.35-1.13.64l.32.3ZM47.78 16.86Zm8.07 20.66a53.6 53.6 0 0 1-5.26-.64c.86-.25 1.68-.56 2.46-.83l1.1-.41.02.01.38.38.35-.27-.32.3c.34.31 1.05 1 1.27 1.46Zm20.71 50.4c.54 3.34 2.55 7 6.13 11.23a21.63 21.63 0 0 0 9.23 6.5l1 .4.24.1c.95.4 1.93.79 3.01 1.08l1.45.36c1.28.3 2.61.62 3.77 1.15l.6.25c.86.35 1.1.5 1.1.74 0 1.11-1.4 2.2-2.52 3.08-.3.24-.58.46-.82.67a39 39 0 0 1-6.85 4.7c-1.66.9-2.78.95-4.7.69-4.6-.62-7.4-2.69-8.57-6.37-.15-.44-.27-.89-.4-1.38-.33-1.3-.7-2.66-1.51-3.84-1.21-1.74-2.83-2.58-4.38-3.28a95.46 95.46 0 0 1-6.13-3.12c-2.28-1.27-3.85-2.86-5.38-5.51-1.74-3.01-2.26-6-1.51-8.88l.46-1.85a32.8 32.8 0 0 1 1.6-5.33c.82-1.91 2.27-3.38 3.8-4.92.59-.6 1.2-1.24 1.78-1.87a37.69 37.69 0 0 0 3.86-5.6l.95-1.55c1.92-3.09 3.77-5.31 5.79-6.97 1.05-.86 3.4-1.61 5.32-1.61.45 0 .88.03 1.27.14-.04.51-.6 1.4-1 2.03-.5.8-.98 1.56-1.09 2.3-.3 1.93.91 3.1 1.98 4.14.29.27.59.56.86.87a13 13 0 0 0 1.6 1.5c.4.37.8.7 1.17 1.07l.6.63c-1-.3-2.07-.6-3.05-.75-1.96-.3-2.43 1.18-2.73 2.12-.07.23-.14.45-.25.67-.1.26-.21.51-.34.79-.32.75-.66 1.52-1.03 2.19-.3.51-.71 1-1.18 1.5-.37.43-.76.9-1.1 1.37-.25.38-.52.72-.82 1.13-.8 1.08-1.57 2.1-1.98 3.53a13.24 13.24 0 0 0-.23 5.9Zm69.22 1.32a12 12 0 0 1 1.98 2.64c.18.3.37.63.57.94a25.94 25.94 0 0 1-2.39-1.37c-.04-.74-.09-1.49-.16-2.2Zm28.05 15.8.11-.43c-.66-.36-1.32-.72-2-1.06l-.6-.3.48.04c.64.07 1.3.12 1.9.26.93.19 1.86.53 2.75.86l.16.05.87.3a36.7 36.7 0 0 1 6.7 3.17c1.18.69 2.33 1.44 3.42 2.21l-.71-.27-.29-.1c-1.24-.49-2.54-.9-3.68-1.27a79.5 79.5 0 0 1-3.23-1.1c-1.97-.72-3.85-1.74-5.68-2.74l-.2.38ZM85.25 21.46l.22.07c1.94.7 4.45 2.57 5.84 4.31 1.1 1.4 1.6 2.7 2.2 4.37.24.72.58 1.44.92 2.12.14.3.28.58.4.87.27.59.42 1.19.56 1.84.07.36.16.7.27 1.06.25.9.3 1.86.34 2.87.03.65.07 1.4.17 2.13l.07.46c.17 1.04.33 2.03.08 3.01-.13.51-.34 1.08-.54 1.66-.3.84-.62 1.71-.75 2.62-.03.24-.03.58-.03.96 0 .32 0 .9-.07 1.37l-.48-.83c-.08-.11-.13-.23-.2-.34-.53-.92-1-1.9-1.43-2.77l-.73-1.49c-1.3-2.53-3.49-4.57-5.6-6.52l-.3-.26c0-.1.03-.19.03-.27.05-.51.26-1.05.48-1.61.28-.72.57-1.45.6-2.3.06-1.76-.58-3.28-1.23-4.75a12.08 12.08 0 0 1-1.05-7.79c.06-.26.15-.53.23-.79Zm-49.39 6.58c-.32-.33-.66-.62-1.01-.91-.34-.3-.66-.57-.95-.86.59.33 1.23.46 1.8.6l.57.14 2.37.63c2.07.55 4.13 1.11 6.2 1.68 3.33.9 5.61 2.64 8.1 5.12-.16.05-.32.12-.5.19-1.5.56-3.1 1.14-4.57 1.24a8.54 8.54 0 0 1-3.12-.56l-.9-.27-.28-.07c-.92-.26-1.83-.5-2.74-.72-1.1-.87-2-2.2-2.8-3.36l-.37.24.37-.24a16.6 16.6 0 0 0-2.17-2.85Zm132.68 165.39Z"/>
    <path d="M214.6 331.8c-.92-.5-1.31-1.4-1.76-2.42-.1-.26-.23-.52-.35-.79a38.37 38.37 0 0 1-2.94-8.16c-.43-1.92-.32-3.68-.22-5.57.07-1 .13-2.07.11-3.16-.04-1.87-.7-4.3-1.73-6.49a50.08 50.08 0 0 0-3.6-6.56 22.25 22.25 0 0 0-2.36-2.84c-.38-.4-.77-.82-1.16-1.26-.66-.77-1.28-1.6-1.9-2.42a34.23 34.23 0 0 0-2.66-3.25c-1.3-1.35-2.57-2.79-3.8-4.17l-.08-.1c-3.07-3.45-6.22-7-10.05-9.85a144.71 144.71 0 0 1-4.44-3.5 150.55 150.55 0 0 0-4.45-3.48 60.75 60.75 0 0 1-5.75-4.98c-1.98-1.92-3.69-3.67-4.67-5.7a32.93 32.93 0 0 1-1.85-5.63c-.25-.93-.48-1.82-.75-2.67a55.6 55.6 0 0 1-.94-3.48c-.66-2.58-1.36-5.27-2.7-7.77-1.58-2.94-3.68-5.25-5.71-7.5-.62-.68-1.25-1.38-1.89-2.12-4.13-4.69-8.82-10-15.26-11.24-2.85-.55-6.13-.55-10.32.01-1.92.26-4.38.31-6.05.28-.29 0-.57-.1-.91-.2-.45-.14-.95-.33-1.55-.3-.82.02-1.46.33-2.05.62-.36.17-.73.36-1.09.4-.94.16-1.88.16-2.7.16-1.34 0-2.71 0-4.28.5a54.72 54.72 0 0 0-14.62 7.12 77.33 77.33 0 0 0-7.22 5.96l-1.72 1.52c-5.88 5.17-7.86 11.91-9.94 19.05l-.11.4a391.5 391.5 0 0 1-2.1 6.87 284.5 284.5 0 0 0-3.7 12.69c-.6 2.29-.35 3.85 1 5.93.61.93 1.17 1.82 1.63 2.78.52 1.06.85 2.2 1.2 3.34.44 1.45.9 2.96 1.7 4.33.47.77 1.02 1.47 1.55 2.17.84 1.06 1.62 2.05 2.03 3.25a118.2 118.2 0 0 1 2.55 9.24l.36 1.54c.57 2.47 1.03 4.44 2.4 6.83.9 1.61 1.92 3.22 2.82 4.66 1.65 2.67 3.38 5.44 4.73 8.33a84.13 84.13 0 0 0 3.5 6.47c.94 1.63 1.9 3.32 2.77 5.02.23.46.5.92.77 1.4.55 1 1.12 2 1.44 3.03.18.58.34 1.18.48 1.76a17.1 17.1 0 0 0 1.02 3.22c.59 1.34 1.1 2.74 1.6 4.11.45 1.22.9 2.45 1.4 3.68.61 1.42 1.47 2.67 2.3 3.87.9 1.28 1.8 2.62 2.34 4.09.55 1.52.9 3.17 1.25 4.77.39 1.87.8 3.8 1.56 5.65.68 1.63 1.62 3.1 2.55 4.56.94 1.47 1.9 2.97 2.53 4.58.66 1.71.7 3.44.73 5.3l.02.49c.03 1.44.14 2.63.34 3.78.6 3.42 2 6.52 3.36 9.53.95 2.1 1.9 4.25 2.6 6.46.8 2.6 1.77 5.2 2.71 7.77l.09.24.73 1.97c.34.95.82 1.86 1.3 2.79.27.5.53 1.04.78 1.57.36.8.5 1.88.65 2.98.07.48.12.94.2 1.35.1.56.26 1.11.4 1.6.23.8.46 1.57.45 2.39 0 .58-.2.85-.88 1.49-.17.17-.37.34-.57.5-.7.03-1.5.18-2.17.34l-.46.08c-2.14.4-4.46 1.34-6.3 2.55-.28-.94-.36-1.88-.4-3.01-.07-1.8-.21-3.32-.48-4.91l-.29-2.1c-.23-1.93-.46-3.9-1.35-5.81a7.6 7.6 0 0 0-.34-.67c-.2-.4-.39-.75-.5-1.13-.26-1.02-.12-2.15.02-3.35.13-1 .25-2.02.14-3.03a82.9 82.9 0 0 0-.39-3.03l-.02-.12c-.12-.94-.26-1.9-.35-2.86a34 34 0 0 0-.75-4.06c-.25-1.07-.5-2.19-.64-3.32-.29-2.19-1.14-4.05-2.03-6.02l-.9-1.99-.99-2.44c-1.05-2.59-2.12-5.26-3.44-7.77-1.35-2.57-2.56-5.24-3.76-7.83-.98-2.15-2-4.38-3.1-6.55a139.5 139.5 0 0 0-4.04-7.34c-1.58-2.78-3.24-5.64-4.63-8.55-1.32-2.75-2.03-5.8-2.73-8.76a72.34 72.34 0 0 0-1.38-5.29 193.6 193.6 0 0 0-5.37-14.38l-.07-.18c-2.81-6.99-6.48-13.76-10-20.3l-.27-.48-2.59-4.8c-.53-1-1.12-2-1.64-2.89-.85-1.45-1.74-2.96-2.44-4.53-.35-.79-.67-1.6-1.01-2.42-.82-2-1.7-4.07-2.83-5.99-.97-1.59-2.3-2.8-3.62-4-1.28-1.17-2.5-2.26-3.3-3.65-1.4-2.46-1.6-6.28-1.76-9.45-.03-.58-.05-1.14-.09-1.67-.21-3.07.36-6.23.91-9.28.23-1.32.48-2.69.66-4.04.45-3.35.85-6.78 1.18-9.7.14-1.22.08-2.3.05-3.43v-.2c-.09-2 .66-4.11 1.39-6.15.28-.8.59-1.64.82-2.46.3-1.05.71-2.04 1.1-3.03.23-.6.48-1.2.71-1.82l.13-.32c.5-1.39.98-2.7 1.67-3.95.43-.76.98-1.5 1.55-2.23.34-.44.68-.89 1-1.35.6-.9 1.07-1.8 1.55-2.76.27-.53.55-1.1.86-1.62a71.16 71.16 0 0 1 3.99-6c.5-.68 1.03-1.36 1.58-2.08.87-1.13 1.78-2.3 2.6-3.54l.14-.23c1.05-1.59 2.03-3.1 3.21-4.55.84-1.03 1.6-2.12 2.35-3.18l.62-.9c.18-.25.36-.54.54-.85.32-.56.73-1.27 1.16-1.47.21-.1.3-.36.2-.58l-.33-.62a.52.52 0 0 0-.25-.22.46.46 0 0 0-.34.02c-.89.42-1.39 1.31-1.85 2.12l-.44.73-.65.91c-.73 1.03-1.47 2.09-2.28 3.08a58.78 58.78 0 0 0-3.29 4.67l-.14.23a51.42 51.42 0 0 1-2.53 3.44 67.68 67.68 0 0 0-5.7 8.25c-.34.58-.63 1.16-.93 1.74-.43.84-.85 1.71-1.4 2.52-.3.44-.65.87-.99 1.32-.57.73-1.15 1.5-1.63 2.38-.77 1.35-1.29 2.79-1.78 4.17l-.13.33c-.21.6-.44 1.18-.7 1.8a31.52 31.52 0 0 0-1.13 3.14c-.22.76-.5 1.53-.8 2.38-.77 2.18-1.57 4.42-1.48 6.71v.19c.05 1.13.08 2.09-.04 3.2-.34 2.91-.71 6.28-1.18 9.69-.17 1.32-.42 2.67-.65 3.97-.57 3.13-1.16 6.38-.93 9.64l.1 1.74c.17 3.24.38 7.24 1.95 10.03.9 1.61 2.28 2.86 3.61 4.06a16.58 16.58 0 0 1 3.3 3.63 43.9 43.9 0 0 1 2.74 5.82l1.02 2.4a44.37 44.37 0 0 0 2.53 4.72c.53.9 1.08 1.84 1.6 2.82.93 1.76 1.89 3.5 2.85 5.29 3.5 6.5 7.14 13.23 9.94 20.14l.07.2c1.87 4.63 3.81 9.42 5.33 14.25.53 1.71.96 3.5 1.35 5.2.71 3.02 1.44 6.13 2.83 9.04 1.4 2.94 3.07 5.84 4.69 8.64 1.35 2.37 2.76 4.8 4 7.28 1.09 2.15 2.1 4.36 3.09 6.52 1.19 2.6 2.42 5.27 3.77 7.87 1.28 2.45 2.35 5.1 3.4 7.69l.98 2.43c.29.68.6 1.35.91 2.03.86 1.87 1.66 3.63 1.93 5.6.16 1.2.4 2.36.67 3.5.29 1.24.57 2.53.7 3.83.1 1 .25 2.03.39 3.01s.27 1.99.37 2.98c.1.85-.03 1.8-.14 2.7-.16 1.29-.32 2.6.02 3.9.14.55.37 1.01.62 1.46l.29.58c.78 1.7 1 3.48 1.2 5.36.1.72.19 1.44.31 2.16.25 1.54.4 3 .46 4.72.04 1.08.13 2.24.47 3.39.05.15.09.37.1.65l-.42.4c-2.55 2.5-1.86 4.17-1.22 4.94l.15.17c.09.1.21.15.35.15h.1l.2-.03c.65-.12 1.2-.51 1.61-1.18.77-1.2.87-2.98.87-3.75a15.85 15.85 0 0 1 5.03-2.48c-1.2.7-2.4 1.49-3.37 2.6-.71.8-1.64 2-1.44 3.13.09.52.39.96.89 1.25 1.28.77 2.83-.03 3.74-.51l.25-.14c.57-.29 1.24-.43 1.9-.56 1.43-.3 3.05-.64 3.73-2.55l.08-.24c.47-1.29 1.32-3.7-.16-4.83l-.01-.02c.66-.65 1.14-1.28 1.15-2.38a8.97 8.97 0 0 0-.51-2.82 12.2 12.2 0 0 1-.38-1.44l-.2-1.32c-.14-1.16-.3-2.36-.76-3.37-.25-.56-.55-1.13-.84-1.68-.4-.78-.87-1.69-1.19-2.56l-.82-2.23c-.92-2.51-1.89-5.12-2.67-7.68-.71-2.3-1.7-4.5-2.67-6.66-1.32-2.93-2.67-5.94-3.24-9.16-.2-1.06-.29-2.19-.32-3.54v-.51c-.04-1.97-.08-3.84-.82-5.79-.68-1.76-1.7-3.34-2.68-4.88-.87-1.37-1.8-2.79-2.42-4.3-.71-1.72-1.1-3.59-1.5-5.38a34 34 0 0 0-1.3-4.97 20.09 20.09 0 0 0-2.52-4.45c-.79-1.15-1.6-2.33-2.14-3.6-.5-1.2-.96-2.42-1.4-3.62a71.15 71.15 0 0 0-1.61-4.16c-.43-.98-.66-1.93-.95-3.05-.14-.58-.28-1.16-.48-1.76a18.59 18.59 0 0 0-1.56-3.34c-.25-.44-.5-.89-.73-1.33-.88-1.73-1.86-3.43-2.84-5.14a90.01 90.01 0 0 1-3.4-6.3 81.69 81.69 0 0 0-4.86-8.55c-.93-1.5-1.87-3.02-2.76-4.56-1.27-2.2-1.68-3.97-2.25-6.42-.1-.5-.23-.99-.35-1.54-.82-3.37-1.59-6.4-2.59-9.38a12.59 12.59 0 0 0-2.28-3.73c-.5-.63-1.01-1.3-1.42-1.98-.71-1.22-1.12-2.57-1.57-4a25.72 25.72 0 0 0-1.28-3.55c-.5-1.04-1.1-1.99-1.76-3.01-1.07-1.68-1.27-2.8-.77-4.7 1.09-4.2 2.4-8.48 3.69-12.6.7-2.27 1.42-4.6 2.1-6.9l.1-.4c2.04-6.91 3.96-13.45 9.48-18.33l1.77-1.57c2.22-2 4.54-4.06 7.03-5.8 4.1-2.88 9.26-5.4 14.16-6.9 2.35-.72 4.3-.2 6.77-.6.59-.1 1.09-.34 1.53-.57.48-.24.9-.43 1.34-.44.32 0 .62.08 1.01.2.4.14.86.28 1.38.3 1.72.05 4.29 0 6.32-.28 3.99-.55 7.1-.55 9.76-.03 5.9 1.14 10.38 6.24 14.36 10.73l1.9 2.14c1.98 2.15 4.01 4.4 5.49 7.17 1.24 2.34 1.89 4.8 2.55 7.43.3 1.16.6 2.36.97 3.56.25.84.49 1.7.74 2.63.53 2 1.08 4.08 1.94 5.87 1.08 2.28 2.9 4.13 4.98 6.15a59.78 59.78 0 0 0 5.92 5.12c1.5 1.1 2.95 2.29 4.45 3.49 1.44 1.16 2.92 2.36 4.44 3.49 3.7 2.75 6.8 6.26 9.81 9.64l.07.08c1.25 1.4 2.53 2.84 3.85 4.21.93.98 1.74 2.06 2.56 3.15.61.82 1.25 1.66 1.95 2.47l1.19 1.31c.8.86 1.55 1.66 2.23 2.66a51.2 51.2 0 0 1 3.49 6.35 15.46 15.46 0 0 1 1.58 5.88c.02 1.05-.03 2.06-.1 3.05-.11 1.9-.24 3.85.24 5.97.61 2.67 1.57 5.38 3.05 8.5.12.23.21.49.34.75 0 .01.02.01.02.03a35.73 35.73 0 0 1-4.94-5.15l-.83-1.05c-2.05-2.55-3.82-4.74-7.27-6.09a23.25 23.25 0 0 0-10.03-1.57c-3.85.2-7.59.82-11.11 1.83-1.04.29-2.02.65-3 1l-.12.04c-2.6.93-5.06 1.78-7.8 1.56-5.53-.48-9.76-1.66-12.94-3.63-1.72-1.06-3.1-2.41-4.6-3.88-.49-.5-.99-.98-1.5-1.46-.84-.77-1.75-1.44-2.64-2.1-.84-.62-1.7-1.27-2.46-1.97a14.15 14.15 0 0 1-1.46-1.65c-.27-.32-.53-.65-.8-.95-.23-.26-.5-.47-.73-.64-.22-.15-.43-.3-.57-.48a6.42 6.42 0 0 1-.9-2.22c-.13-.48-.26-.93-.42-1.32-1.25-3.13-2.46-5.55-4.65-7.84a28.04 28.04 0 0 0-4.13-3.4c-2.09-1.51-4.04-2.93-5.4-5.14-2.24-3.63-3.52-7.46-4.63-11.07-.66-2.14-.1-3.9.54-5.94.2-.69.46-1.47.65-2.28 1.02-4.2-1.65-7.74-3.99-10.83l-.67-.91c-1.14-1.54-2.5-2.93-3.8-4.28a36.68 36.68 0 0 1-4.18-4.86c-1.05-1.57-.9-2.5-.64-4.06.09-.5.17-1.06.23-1.7.21-2.35.73-5 2.9-6.77.36-.29.73-.55 1.18-.85 1.2-.86 2.47-1.73 3.04-3.15.11-.3.18-.57.22-.8.09-.5.12-.5.21-.54.43-.17.64-.1.77-.03.8.4 1.2 2.46 1.46 3.7.14.68.26 1.28.42 1.67.97 2.28 2.05 4.84 3.9 6.98a37.13 37.13 0 0 0 4.44 4.15c.7.58 1.4 1.18 2.05 1.78 7.71 7.01 13.32 14.3 16.65 21.66l1 2.23a79.16 79.16 0 0 0 4.17 8.44c2.37 3.93 5.54 7.36 8.6 10.66l.43.46c1.94 2.1 3.78 4.08 6.4 5.45 3.29 1.72 8.63 1.7 12.96 1.64a58 58 0 0 1 3.03.02c.28 0 .44-.17.46-.41l.02-.7a.44.44 0 0 0-.43-.45c-.9-.04-2-.02-3.13-.02-4.1.04-9.2.07-12.13-1.45-2.37-1.25-4.12-3.14-5.97-5.12l-.43-.45c-3-3.25-6.12-6.6-8.4-10.4-1.59-2.64-2.85-5.51-4.1-8.3l-.1-.23-.9-1.98c-3.42-7.55-9.15-15.01-17.03-22.17-.66-.6-1.37-1.2-2.05-1.78l-.1-.08c-1.48-1.25-3-2.54-4.19-3.92-1.67-1.95-2.72-4.4-3.65-6.6-.1-.25-.21-.8-.34-1.38-.35-1.78-.8-3.99-2.28-4.76a2.45 2.45 0 0 0-2.14-.03c-.92.36-1.08 1.16-1.19 1.7a2.6 2.6 0 0 1-.14.53c-.4.99-1.46 1.72-2.5 2.44-.42.3-.87.6-1.26.93-2.64 2.14-3.22 5.15-3.47 7.82-.06.6-.15 1.11-.22 1.6-.26 1.65-.5 3.09.9 5.14 1.24 1.87 2.83 3.51 4.38 5.12a40.34 40.34 0 0 1 3.63 4.1l.7.93c2.24 2.98 4.55 6.06 3.72 9.59-.18.75-.41 1.49-.63 2.19-.67 2.17-1.33 4.24-.53 6.83 1.14 3.71 2.44 7.65 4.79 11.43 1.51 2.45 3.7 4.04 5.8 5.56 1.36.98 2.77 2 3.93 3.22 2 2.1 3.15 4.37 4.32 7.34.15.35.25.76.38 1.2.28 1 .57 2.02 1.17 2.76.27.32.57.55.86.77.18.12.37.27.48.4.27.28.52.6.77.9.48.6.98 1.21 1.62 1.8.83.77 1.72 1.43 2.61 2.1a29.98 29.98 0 0 1 4.03 3.46 27.87 27.87 0 0 0 4.81 4.04c3.4 2.1 7.87 3.37 13.66 3.87 3.12.27 5.74-.67 8.5-1.65.98-.34 1.98-.7 3-.99a48.13 48.13 0 0 1 10.75-1.76c3.37-.17 6.34.29 9.33 1.47 3.05 1.2 4.7 3.23 6.66 5.68l.8.98c1.84 2.22 5.26 6.38 8.8 7.4l3.07.86c.21.07.44-.03.53-.24.1-.2 0-.42-.2-.54l-2.75-1.61ZM126.2 435.28l-.1.26c-.37 1.04-1.11 1.25-2.52 1.54a8.4 8.4 0 0 0-2.3.7l-.28.14c-.57.29-1.66.84-2.14.56-.14-.08-.14-.13-.14-.17-.04-.17.01-.68 1.08-1.88 1.05-1.2 2.5-2.02 3.89-2.8.78-.45 1.69-.95 2.5-1.55.26.04.35.09.36.1.6.45-.12 2.45-.35 3.1Zm-11.53 2.91c.04-.32.2-.66.4-.99-.11.41-.24.74-.4 1Z"/>
  </g>
</svg>
