<svg xmlns="http://www.w3.org/2000/svg" xml:space="preserve" fill-rule="evenodd" stroke-linejoin="round" stroke-miterlimit="2" clip-rule="evenodd" viewBox="0 0 223 415">
  <g fill="#222" fill-rule="nonzero">
    <path d="M140.9 76.4c-.5-.07-.87-.59-.95-1.01-.05-.23-.01-.45.02-.65.02-.08.03-.18.03-.26.02-.54.07-1 .18-1.48.02-.07.04-.14.04-.2.03-.17.06-.36.14-.53.17-.35.47-.35.55-.35.51.05.7.84.7.84l.06.33c.01.32-.07.56-.13.81-.09.27 0 .5.13.86.08.2.16.43.21.7.05.27-.02.52-.2.68a.83.83 0 0 1-.59.23c-.07.04-.13.02-.18.02Z"/>
    <path d="m138.57 71.76-.23.23-.32-.26.28.31c-.11.15-.3.4-.57.41h-.04a.75.75 0 0 1-.37-.13c-.14-.13-.17-.3-.2-.45-.04-.11-.07-.23-.09-.34-.06-.41 0-.9.07-1.2.05-.2.15-.35.23-.47l.08-.1c0-.1-.01-.2-.03-.28a1.82 1.82 0 0 1-.03-.6c.01-.17.08-.62.64-.62h.02c.41.02.56.28.69.5.18.28.25.56.21.86-.01.18-.01.18.04.28.26.43.3.92.08 1.3-.12.21-.3.4-.46.56Z"/>
    <path d="M127.3 79.23c.03.03.06.08.1.1l.27.03c.18 0 .38.01.61.1.17.06.6.21.46.76-.1.4-.4.49-.64.57-.31.12-.6.13-.87.04-.18-.05-.17-.05-.28-.02-.17.06-.35.08-.51.08-.3 0-.58-.1-.8-.28-.2-.18-.34-.41-.47-.6a2.12 2.12 0 0 0-.22-.3c-.11-.14-.31-.37-.28-.66.02-.12.13-.3.22-.37.14-.1.3-.1.46-.1l.36-.01c.43.01.86.18 1.15.31.22.12.35.25.43.35Z"/>
    <path d="M134.78 71.41c-.04.02-.09.02-.12.02a.4.4 0 0 1-.26-.1.83.83 0 0 1-.25-.33.72.72 0 0 1-.1.12c-.1.06-.21.1-.31.06-1-.18-1.04-1.66-1.06-2.3l-.01-.25c-.05-.76-.05-1.19.1-1.45.08-.15.3-.51.67-.55.27-.01.48.1.7.37.08.1.13.23.16.4.06-.03.13-.04.21-.03.17.02.3.15.35.32.18.69.16 1.38.15 2.07 0 .32.01.63.05.98.01.08.03.23-.02.38a.38.38 0 0 1-.26.3Z"/>
    <path d="M133.72 81.09a.95.95 0 0 1-.4-.08.38.38 0 0 1-.22-.25c-.09-.25-.4-3.07.4-3.78.22-.2.52-.26.8-.13.11.05.2.13.23.25.07.18.1.38.1.58.34.13.6.3.7.56.16.34 0 .66-.17 1.02l-.22.46-.06.17c-.15.4-.37.97-.85 1.17-.06 0-.18.03-.3.03Z"/>
    <path d="M141.27 70.16c-.21.1-.48.23-.77.23-.1 0-.2-.02-.3-.05-.35-.11-.56-.43-.5-.76a.62.62 0 0 1 .42-.46l.21.35-.18-.36c.17-.09.4-.35.53-.6l.05-.1.16-.3c.23-.32.51-.6.8-.8.22-.17.44-.25.65-.27 0 0 .46-.03.66.19a.5.5 0 0 1 .13.34c-.06.9-.62 1.6-1.1 2.11-.21.23-.43.33-.66.45l-.1.03Z"/>
    <path d="M128.33 77.55a.96.96 0 0 1-.36.08c-.18 0-.36-.05-.53-.15-.38-.22-.7-.66-.74-1.09-.02-.06-.02-.15-.02-.21v-.13l-.05-.27-.1-.5c-.03-.22-.06-.49-.01-.75a.66.66 0 0 1 .46-.55c.26-.06.53.04.74.28.2.24.3.5.38.73.05.13.1.25.17.36.06.13.14.25.23.37.11.16.21.3.3.47.2.38.16.66.1.83-.07.15-.22.38-.57.53Z"/>
    <path d="m63.5 404.16.41.08-.41-.08c.2-.87.41-1.75.56-2.62a519.9 519.9 0 0 1 4.55-22.24l.51-2.34c1.15-5.24 3.02-10.32 4.83-15.23l1.52-4.15c.76-2.16 1.51-4.46 2.26-6.96.28-1.91.47-3.84.67-5.74l.07-.62c.2-1.9.38-3.81.56-5.76.33-3.42.69-7.32 1.15-11.04.13-1.12.23-2.26.31-3.36.1-1.17.2-2.5.38-3.81.17-1.2.5-2.3.83-3.38.25-.8.5-1.6.66-2.44.26-1.35.5-2.75.72-4.14.51-3.16 1.04-6.44 2.2-9.5a170.3 170.3 0 0 0 2.86-8.63l.04-.12c1.3-4.17 2.65-8.48 4.46-12.6 1.54-3.48 3.17-6.96 4.75-10.34 2.87-6.08 5.82-12.38 8.18-18.78 1.04-2.83 1.97-5.73 2.8-8.67 1.15-3.15 2.44-6.26 3.82-9.24a123.22 123.22 0 0 0 6.02-17.8c.63-2.86 1.3-5.74 2.04-8.6a54.65 54.65 0 0 1 2.36-6c1.27-3.28 1.91-6.66 2.5-10.13.63-3.6.96-7.1 1.33-10.85l.21-2.16c.25-2.5.61-5.03.97-7.5.32-2.16.65-4.4.9-6.6l.24-2.53c-.36-.1-.73-.18-1.09-.27l-1.4-.34c-1.12-.28-2.29-.6-3.44-.74-.38-.05-.76-.09-1.16-.12-.89-.08-1.81-.16-2.73-.43-2.36-.67-4.6-2.17-6.66-3.54-.76-.51-1.4-1.19-2.05-1.86-.67-.71-1.3-1.37-1.98-1.75-.64-.36-1.78-.18-2.7-.05-2.32.36-4.48.38-6.77.38h-.75c-2.58.01-6.24-.25-9.3-1.47-2.2-.89-3.39-2.5-3.75-5.1-.25-1.82-.53-3.87-.61-5.83-.2-5.03-.15-9.54 2.62-13.65.74-1.1 1.66-1.86 2.64-2.67l.5-.43c.65-.54 1.24-1.12 1.82-1.8 1.16-1.34 2.3-2.73 3.45-4.1 2.07-2.5 4.22-5.1 6.54-7.53 3.18-3.33 6.68-6.56 10.63-9.87a16.2 16.2 0 0 1-2.36.33c-.47.05-.92.08-1.36.14-.35.05-.61.17-1 .35-.57.28-1.11.58-1.7.9-1.2.62-2.43 1.28-3.78 1.79-4.34 1.63-9.22 1.46-14.9-.51a9.87 9.87 0 0 1-2.67-1.55c-.46-.33-.94-.68-1.45-.96-.65-.35-1.27-.7-1.9-1.09l-.16-.1c-.84-.5-1.72-1-2.6-1.45-1.31-.69-2.8-1.18-4.26-1.68-.9-.3-1.8-.6-2.69-.95a32.22 32.22 0 0 1-3.62-1.78 8.17 8.17 0 0 1 1.35 4.12c.08 2.12-1.04 4.32-2.03 6.24-.17.33-.33.66-.5.96-1.68 3.43-4.1 5.62-7.9 7.14-2.35.94-3.96.85-6.3.38a14.72 14.72 0 0 1-6.75-3.73c-.69-.67-1.23-1.43-1.78-2.2-.4-.55-.82-1.13-1.27-1.62a19.43 19.43 0 0 1-3.59-5.6c-1.68-4.06-.7-8.17.25-12.12l.4.1-.39-.2c.17-.66.32-1.32.47-1.96.77-3.51 2-6.93 3.21-10.3.46-1.3.96-2.64 1.4-3.96.56-1.67 1.4-3.22 2.21-4.72l.78-1.45c.3-.57.57-1.15.85-1.71a33.18 33.18 0 0 1 2.8-4.93 6.93 6.93 0 0 1-2.37-8.16l.68-1.76c.47-1.32.99-2.7 1.7-3.94l.74-1.34a29.97 29.97 0 0 1 2.45-3.95l.53-.71.08-.12c1.1-1.5 2.24-3.05 3.81-3.96 1.06-.6 2-1.3 2.98-2.04a7.59 7.59 0 0 1 3.22-1.27l.15-.03c.18-.03.36-.08.54-.13a18 18 0 0 1 7.15-.51c1.1.18 2.3.21 3.37.24 1.68.07 3.4.12 5.07.63A35.3 35.3 0 0 1 89 33.02a43.44 43.44 0 0 1 8.16 6.23c-.63-3.1-1.05-6.4-.6-9.76.27-1.9.86-3.72 1.46-5.48l.03-.12.35-1.07c.59-1.85 1.2-3.74 2.12-5.38 1.72-3.05 5.33-4.28 8.05-4.8 2.06-.37 3.89.02 5.65.42a18 18 0 0 0 3.73.54c2.65 0 4.81-1.4 7.13-2.9.71-.46 1.44-.92 2.16-1.33l.55-.32c1.2-.7 2.7-1.58 4.07-1.78 1.32-.2 3.18.19 4.83.56 1.48.35 2.83 1.1 4.2 1.82.9.5 1.85.99 2.77 1.33 1.17.43 1.98-.16 3.12-.99l.99-.69c.84-.53 1.64-1.07 2.42-1.61 2.2-1.49 4.25-2.9 6.92-3.84l.4-.14c3.6-1.28 8.57-3.06 12.25-.7a6.04 6.04 0 0 1 2.68 4.21 9.93 9.93 0 0 1-.26 4.14 13.8 13.8 0 0 0 1.48-1.45c.45-.5.9-1 1.32-1.5l.08-.08c2.53-2.89 4.9-5.6 8.64-7.27 3.31-1.47 6.7-.99 9.96-.53l.21.03c.61.09 6.03.91 8.06 3.12a21.35 21.35 0 0 1 3.02 4.6c1.63 3.21 4.32 6.25 8.49 9.54 1 .8 2.1 1.34 3.3 1.9.98.48 2.02.97 2.98 1.63 2.95 2.03 3.11 4.62 2.85 7.12-.05.51-.07 1.06-.08 1.63-.04 1.27-.07 2.6-.53 3.8a8 8 0 0 1-.96 1.64c-.16.25-.34.51-.49.78-.41.7-.73 1.5-1.04 2.27-.25.61-.53 1.32-.87 1.98-.18.36-.4.71-.61 1.09-.28.46-.56.94-.76 1.42-.64 1.53-.1 3.08.48 4.74.44 1.29.9 2.6.89 4.06-.07 3.66-1.9 6.23-3.84 8.93-.56.8-1.22 1.3-1.88 1.83a9.57 9.57 0 0 0-2.33 2.46c-.7.92-1.38 1.78-2.45 2.62a6.41 6.41 0 0 1-4.82 1.62l-.98.01c-.83.02-1.69.02-2.56-.13-1.37-.26-2.79-.48-4.14-.7h-.15l-3.95-.67c-.84-.15-1.68-.41-2.57-.67-.47-.14-.91-.28-1.36-.4a13.98 13.98 0 0 0-3.6-.35h-1.16a16.89 16.89 0 0 1-1.14 3.52c-.31.75-.56 1.58-.8 2.47-.66 2.3-1.34 4.7-3.55 6.1-.58.36-1.19.56-1.78.76-.34.11-.7.23-1 .36-1.2.54-2.08 1.52-3.02 2.55-1.12 1.24-2.28 2.5-4.02 3.14-3.37 1.2-7.32.95-10.75.57-1.86-.21-3.7-.6-5.54-1a55.37 55.37 0 0 0-4.32-.83l-.33-.05c-.89-.13-1.98-.3-3.08-.34-.8 1.94-1.8 3.6-3.02 4.94a9.83 9.83 0 0 1 3.5.98h3.11l2.76.01c1.66.02 3.38.03 5.07 0 .96-.01 1.88-.2 2.86-.38l1.26-.23c1.52-.25 3.04-.3 4.5-.33 1.75-.05 3.55-.11 5.26-.5 7.12-1.62 15.94.9 21.47 6.12.82.8 1.82 1.68 3 2.36.77.45 1.64.8 2.48 1.14.9.36 1.83.72 2.7 1.25a13.48 13.48 0 0 1 3.7 3.26c.46.58.92 1.17 1.48 1.39.8.3 1.75.08 2.7-.13a6.72 6.72 0 0 1 5.27.54c2.04.99 2.72 2.44 2.2 4.67-.3 1.3-1.23 2.12-2.06 2.86-.4.38-.85.76-1.18 1.17-2 2.58-2.34 7.1-2 10.47.07.64.22 1.29.35 1.93.13.6.26 1.25.34 1.93.61 5.14-1.2 9.44-5.53 13.15a18.22 18.22 0 0 1-4.04 2.56l-.28.13c-.37.17-.48.21-.63.43-.44.63-.72 1.83-.97 2.88-.15.65-.3 1.26-.48 1.75-.89 2.42-2.32 4.1-4.2 5.85-.56.53-1.12 1.1-1.72 1.73-1.51 1.59-3.06 3.2-4.96 4.16-1.93.95-4.25.57-6.35.24l-1.08-.16a16.95 16.95 0 0 1-4.34-1.14c-1.02-.41-2.5-1.2-3.53-2.03-.2-.16-.38-.34-.56-.52a2.2 2.2 0 0 0-.79-.63c-.79-.28-1.04-.06-1.75 1.4-.32.68-.65 1.39-1.22 1.88-.9.8-2 1.34-3.1 1.88-.46.23-.92.46-1.35.7-1.99 1.15-4.35 2.04-7.22 2.7-1.26.3-2.58.44-4.03.44-3.25 0-6.53-.74-9.8-1.47-1.96-.44-3.8-.85-5.63-1.08a50.57 50.57 0 0 1-5.57-1.2c-.07.78-.15 1.56-.24 2.32-.24 2.26-.59 4.6-.89 6.72-.34 2.43-.72 4.91-.95 7.39l-.22 2.16c-.34 3.57-.69 7.28-1.33 10.96-.61 3.54-1.27 7-2.6 10.47a54.62 54.62 0 0 0-2.3 5.82c-.72 2.81-1.4 5.68-2.02 8.52a125.62 125.62 0 0 1-6.12 18.06 121.9 121.9 0 0 0-3.78 9.12c-.82 2.93-1.78 5.87-2.81 8.72-2.4 6.46-5.36 12.8-8.25 18.9-1.58 3.35-3.2 6.83-4.73 10.3a119.07 119.07 0 0 0-4.4 12.44c-.9 2.88-1.83 5.88-2.93 8.8-1.09 2.93-1.62 6.13-2.11 9.26-.2 1.29-.45 2.74-.73 4.16-.18.9-.44 1.76-.7 2.6a18.32 18.32 0 0 0-.78 3.12c-.17 1.2-.26 2.44-.36 3.72a63.3 63.3 0 0 1-.33 3.43c-.45 3.65-.81 7.37-1.14 11.01-.08.96-.18 1.9-.28 2.86.31-1.17.6-2.35.92-3.53 1.7-6.53 3.45-13.27 5.76-19.73a170.7 170.7 0 0 1 2.37-6.17 158.34 158.34 0 0 0 3.7-9.99l.02-.1c.68-2 1.39-4.07 2.16-6.1.86-2.27 1.83-4.53 2.79-6.72.74-1.73 1.6-3.71 2.36-5.64a81.22 81.22 0 0 0 3.64-12.13c.48-2.1.87-4.27 1.27-6.41.77-4.2 1.58-8.56 3-12.7.5-1.45.97-2.9 1.47-4.41.87-2.64 1.76-5.36 2.75-8 .7-1.84 1.24-3.79 1.8-5.78.21-.78.42-1.54.65-2.3.19-.59.3-1.23.42-1.84.15-.78.28-1.57.54-2.33.3-.89.8-1.66 1.29-2.47.2-.31.38-.62.56-.94.79-1.43 1.25-3.08 1.7-4.76.23-.84.46-1.72.75-2.54 1.06-3.08 2.79-5.79 4.77-8.75a49.64 49.64 0 0 1 3.82-5.13 29.5 29.5 0 0 1 4.8-4.4c1.88-1.35 3.95-2.33 5.98-3.28.86-.4 1.73-.8 2.59-1.25a24.37 24.37 0 0 0 10.1-9.66c1.97-3.19 4.18-6.78 7.57-7.27l.74-.1c.17-.04.32.05.41.18.09.13.09.31 0 .44l-.4.63a42.43 42.43 0 0 0-2.03 3.58c-.63 1.18-1.27 2.4-2.03 3.57-1.16 1.8-2.26 3.75-3.25 5.48-1.12 1.96-2.27 4-3.54 5.91a18.9 18.9 0 0 1-1.32 1.69c-1.22 1.46-3.07 3.67-2.74 5 .12.5.56.9 1.34 1.23a6.38 6.38 0 0 0 3.7.2c1.54-.27 3.45-.6 4.26.44 1.18 1.5-.5 3.4-1.72 4.78-.42.48-.9 1.02-1.02 1.29-.31.75-.13.92.45 1.38.47.4 1.28 1.06.97 2.26-.21.87-1.07 1.48-1.88 2.08-.4.3-.86.62-1.14.94.53.01 1.42.16 1.49 1.55.06 1.35-1.27 2.12-2.25 2.72-.23.13-.42.26-.6.37a73 73 0 0 1-1.85 1.27c-.97.66-1.96 1.34-2.89 2.06-1 .81-1.78 1.73-2.62 2.72-.44.55-.92 1.1-1.43 1.64-.55.57-1.2 1-1.85 1.41-.69.45-1.35.88-1.76 1.42-1.16 1.55-.13 2.79 2.59 5.01.92.76 1.8 1.47 2.27 2.21.3.46.43.94.55 1.39.08.3.14.57.26.8.07.14.21.3.36.46.32.37.71.83.78 1.46.13 1.25-.76 2.09-1.47 2.78-.46.43-.92.9-.9 1.24 0 .23.12.36.62.66.4.24.9.54.99 1.17.1.6-.3 1.12-.64 1.5l-.12.1c-.99.6-2 1.18-3 1.73-.74.4-1.45.84-2.14 1.35.5-.03 1.02.02 1.56.16l.22.05c.15.05.26.17.3.33l.03.22c.21 1.07-.78 1.94-1.93 2.67.26.01.53.05.79.11l.23.07c.17.05.28.2.3.36l.01.23c.15 1.83-2.29 2.92-3.92 3.65-.31.13-.58.26-.77.36l-.86.38c-2.05.84-3.03 1.4-3.53 1.74 1.12.2 2.37.3 3.56.27.3-.02.66-.05 1.04-.1 1.5-.17 3.05-.33 3.68.7.52.83-.04 1.89-.5 2.6-2.03 3.13-5.88 5.96-9.4 8.32-1.63 1.1-3.4 1.93-5.15 2.75l-1.12.53c-6.1 2.9-11.16 7.09-16.88 12.46-.57.53-1.1 1.07-1.65 1.63.28-.11.5-.2.62-.23l1-.33c3.16-1.05 5.88-1.96 8.75-3.69.26-.16.6-.43.94-.7.52-.42 1.13-.9 1.76-1.23.41-.34.99-.46 1.66-.34a.4.4 0 0 1 .33.46l-.1.64c1.34.27 2.96.41 4.13.51l.4.04c1.84.16 4-.12 4.97-1.01-.12 0-.23 0-.36.02a4.5 4.5 0 0 1-1.78-.17l-.58-.2a.37.37 0 0 1-.26-.31.41.41 0 0 1 .14-.4l.48-.4c1.45-1.18 3.35-1.77 5.2-2.33 1.38-.43 2.81-.86 4-1.57a2.3 2.3 0 0 0-.66-.5l-.2-.1a.4.4 0 0 1-.21-.39l.02-.21c.04-.64 1.9-1.45 3.46-2a35.23 35.23 0 0 0 4.3-1.78 13.51 13.51 0 0 0 3.11-2.52c.7-.67 1.39-1.37 2.21-1.98 4.1-3.1 9.04-4.96 13.82-6.77 3.95-1.5 8.06-3.07 11.57-5.3 4.43-2.83 7.2-6.77 9.33-10.25l1-1.46c1.04-1.47 3.37-4.73 3.78-6.2-1.27-.2-3.03-.21-4-.03-.72.13-1.36.5-2.05.87-.87.48-1.8.99-2.92 1.06l-.21.01c-.15 0-.32-.06-.38-.21l-.1-.18c-.54-.98.15-2.5 1.29-4.7.36-.7.72-1.42.8-1.75.07-.28.17-.6.28-.94.37-1.14.84-2.7.17-3.2-.3-.21-.58-.18-1.1-.1-.68.12-1.82.32-2.63-1.03-.94-1.57-.24-4.26.32-6.42.2-.79.4-1.53.44-2 .13-1.13-.05-1.4-.54-2.18-.2-.33-.43-.7-.68-1.19a17.67 17.67 0 0 1-1.6-7.58c0-1.2.02-2.72-.85-3.35-.42-.3-1.34-.23-2.13-.16-.76.06-1.63.13-2.36-.09l-.43-.13a.36.36 0 0 1-.26-.25.4.4 0 0 1 .03-.36l.25-.38c.25-.38.56-.69.89-.99.64-.6.99-.97.9-1.58a2.6 2.6 0 0 0-1.2-.28c-.94-.1-2.37-.23-2.88-2.2-.51-1.89 1.27-4.6 2.83-7a17.8 17.8 0 0 0 1.73-2.96c.43-1.2.22-2.11-.06-3.27-.18-.72-.38-1.55-.41-2.52-.07-1.42-.04-2.87-.02-4.3.02-.74.02-1.49.02-2.21a.4.4 0 0 1 .4-.41h.68a.4.4 0 0 1 .42.4l-.02 2.25c-.02 1.39-.05 2.82.02 4.22.03.84.21 1.55.38 2.24.3 1.22.6 2.5.01 4.12-.31.88-1.04 2-1.88 3.28-1.25 1.92-2.96 4.55-2.63 5.8.24.96.67 1 1.58 1.1.69.06 1.55.14 2.32.9.05.05.12.22.13.28.37 1.37-.28 2.28-.9 2.92.11-.02.23-.02.36-.03 1.1-.1 2.26-.19 3.13.44 1.5 1.07 1.5 3.1 1.49 4.58v.84c.1 2.11.65 4.49 1.45 6.05.21.43.42.76.6 1.06.53.84.95 1.5.76 3.13-.06.6-.26 1.35-.5 2.24-.45 1.78-1.1 4.22-.47 5.24.28.48.43.45 1.07.33.6-.1 1.42-.24 2.26.37 1.55 1.13.84 3.38.36 4.88a11.39 11.39 0 0 1-1.19 2.92c-.34.67-.98 1.92-1.21 2.71.5-.16.99-.43 1.5-.7.72-.4 1.53-.86 2.49-1.03a15.3 15.3 0 0 1 5.25.18l.2.05c.15.04.27.15.3.3l.05.2c.33 1.33-1.17 3.79-4.06 7.86l-.06.1a31.4 31.4 0 0 0-.9 1.29c-2.22 3.62-5.12 7.74-9.8 10.73-3.66 2.32-7.83 3.9-11.87 5.45-4.66 1.78-9.48 3.61-13.42 6.56-.72.55-1.4 1.2-2.04 1.85-1.04 1.02-2.1 2.06-3.48 2.79-1.43.74-3 1.33-4.48 1.86-.15.05-1.04.44-1.8.79.26.3.51.68.6 1.14l.04.21a.4.4 0 0 1-.16.41l-.18.14c-1.47 1.03-3.25 1.58-4.96 2.1-.91.29-1.77.55-2.58.88.27.03.53.1.8.2l.28.11c.2.08.3.3.24.5l-.08.3c-.9 3.32-6.41 2.94-7.02 2.88l-.41-.04c-1.73-.14-4.34-.36-5.94-.97l-.79.61c-.36.3-.74.6-1.09.81-3.01 1.83-5.82 2.77-9.06 3.84l-1 .33c-.88.3-2.43.97-3.95 1.81a50.68 50.68 0 0 1-4.15 4.04l-.65.53a.4.4 0 0 1-.46.05.41.41 0 0 1-.21-.41l.03-.28-.31.9c-.48 1.39-.94 2.76-1.44 4.12a175.7 175.7 0 0 1-2.32 6.04c-.8 2-1.62 4.04-2.36 6.11-2.29 6.42-4.04 13.14-5.72 19.65-1.07 4.12-2.17 8.38-3.4 12.5l-.1.62c-.12.75-.2 1.52-.29 2.28-.2 1.91-.4 3.89-1.22 5.7-1.2 2.64-1.61 5.67-2 8.62-.1.56-.16 1.12-.24 1.68-.18 1.27-.54 2.18-.96 3.22l-.21.53c-.48 1.23-.76 2.73-1.04 4.2-.08.48-.18.94-.26 1.37-.17.84-.28 1.73-.38 2.52-.17 1.24-.32 2.52-.7 3.8-.4 1.4-.59 2.88-.77 4.31-.15 1.14-.28 2.3-.54 3.46-.55 2.44-.88 4.9-1.06 7.96-.13 2.1-.6 4.3-1.07 6.45l-.26 1.23a7.65 7.65 0 0 1-1.77 3.61c-.06.09-.13.19-.23.3-.4.51-.84 1.09-1.37 1.32l-.24.1a.43.43 0 0 1-.5-.13l-.16-.22c-1.19-1.58-1.2-3.94-1.14-4.9.21-1.89.6-3.49.94-5.02Zm8.2-26.7c.27-1.52.57-3.1 1.1-4.47l.21-.55c.38-.95.7-1.76.86-2.86l.2-1.44.03-.25c.16-1.26.35-2.55.6-3.84-1.57 4.3-3.12 8.72-4.11 13.22l-.51 2.34c-1.59 7.22-3.23 14.7-4.54 22.18-.16.9-.36 1.8-.57 2.68a26.7 26.7 0 0 0-.78 4.52c-.03.48-.05 1.98.43 3.16l.31-.4.23-.27a6.06 6.06 0 0 0 1.46-2.95l.26-1.26c.44-2.07.92-4.21 1.04-6.2.2-3.16.52-5.68 1.09-8.2.24-1.09.37-2.21.52-3.33.18-1.49.38-3.03.83-4.55.34-1.17.5-2.33.64-3.6.12-.84.21-1.7.4-2.6l.23-1.22.06-.11Zm114.18-219.2c1.66-.83 3.13-2.37 4.56-3.87.6-.62 1.17-1.22 1.75-1.76 1.76-1.65 3.03-3.12 3.8-5.27.16-.42.29-1.01.44-1.6.28-1.2.59-2.54 1.22-3.4.4-.54.84-.74 1.23-.92l.25-.12c1.5-.7 2.65-1.43 3.7-2.34 3.93-3.35 5.58-7.22 5.04-11.82-.07-.6-.2-1.2-.33-1.78-.15-.67-.3-1.37-.38-2.1-.38-3.67.03-8.61 2.3-11.53.42-.53.9-.96 1.37-1.39.76-.65 1.4-1.23 1.6-2.07.37-1.54 0-2.3-1.4-2.97a5.24 5.24 0 0 0-3.33-.63c-.31.05-.64.12-.97.2-1.09.25-2.34.51-3.54.07-.96-.36-1.59-1.16-2.16-1.88a12.74 12.74 0 0 0-3.25-2.87c-.78-.46-1.65-.8-2.52-1.15-.9-.37-1.82-.73-2.7-1.24a17.87 17.87 0 0 1-3.25-2.57c-5.18-4.9-13.44-7.27-20.1-5.75-1.84.42-3.7.47-5.59.54-1.41.05-2.86.1-4.28.31l-1.27.23c-.97.19-2 .38-3.07.4-1.73.05-3.46.03-5.12 0-.91-.02-1.83-.02-2.74-.02h-.84c.33.3.6.6.8.91.96 1.38.93 2.42.55 3.74l-.05.2a.44.44 0 0 1-.31.3l-.2.05-.1.01a11.27 11.27 0 0 1 .9.33c2.15.94 4.28 2.36 6.72 4.47 2.6 2.26 4.53 4.71 6.69 8.49 4.29 7.48 10.98 13.37 17.55 18.6l.45.37c.12.08.16.23.15.38a.43.43 0 0 1-.25.33l-.53.21c-7.53 3.17-16.08 2.92-24.36 2.7-3.36-.1-6.53-.17-9.61-.04-3.63.15-7.32.56-9.68 2.55-.13 2.66-.47 5.34-2.57 6.93a90.08 90.08 0 0 0-.82 4.63c-.51 3.4-.8 6.87-1.06 10.24-.06.9-.15 1.8-.23 2.73 1.83.48 3.73.96 5.64 1.2 1.9.25 3.87.7 5.84 1.14 4.36.97 8.88 2 13.07 1 2.7-.63 4.94-1.46 6.8-2.53.47-.26.96-.51 1.46-.76.98-.5 1.99-.99 2.75-1.65.33-.3.6-.85.86-1.4.46-.97 1.12-2.36 2.58-2.36.3 0 .63.07 1 .19.6.2 1.01.62 1.4 1 .13.15.27.28.42.41.9.73 2.23 1.44 3.15 1.8 1.3.53 2.49.84 3.99 1.04l1.15.18c1.87.31 3.94.64 5.43-.1Zm-18.81-74.47c1.4-.5 2.37-1.58 3.41-2.72 1-1.1 2.04-2.24 3.51-2.91.38-.17.78-.3 1.16-.43a5.94 5.94 0 0 0 1.43-.6c1.71-1.08 2.3-3.2 2.88-5.22.25-.9.52-1.82.86-2.64.33-.76.76-1.85 1-2.95-1.05-.02-2.1-.03-3.12 0-.71.02-1.46.1-2.25.2-1.93.21-3.9.44-5.91-.3-1.78-.66-1.9-1.76-1.8-2.37.33-2.13 4.32-4.29 5.98-4.37 2.28-.1 6.96.43 8.33 3.25.3.6.44 1.31.46 2.1h.74c1.4 0 2.72 0 4.25.4l1.47.41c.8.23 1.6.48 2.36.61 1.3.23 2.6.45 3.92.66 1.42.23 2.9.46 4.34.73.74.15 1.5.13 2.3.11h.98c1.74.02 2.5-.23 3.85-1.28.93-.73 1.54-1.52 2.2-2.36.34-.44.69-.89 1.1-1.37.48-.54 1.02-.97 1.5-1.35.58-.46 1.14-.89 1.57-1.52 1.81-2.52 3.5-4.9 3.56-8.07.01-1.17-.4-2.38-.81-3.53-.61-1.76-1.32-3.76-.45-5.82.25-.6.58-1.14.86-1.63.2-.33.38-.64.55-.97.3-.6.56-1.24.82-1.87.33-.8.68-1.64 1.14-2.45.18-.32.38-.6.57-.9.3-.44.6-.85.78-1.31.38-.96.4-2.13.43-3.28.01-.55.03-1.17.08-1.77.26-2.48-.02-4.22-2.2-5.72-.88-.59-1.84-1.05-2.81-1.51a18.72 18.72 0 0 1-3.58-2.06c-4.33-3.43-7.17-6.63-8.9-10.04a19.79 19.79 0 0 0-2.79-4.25c-1.26-1.37-4.97-2.34-7.17-2.64l-.21-.03c-3.2-.45-6.21-.88-9.13.4-3.45 1.54-5.72 4.13-8.13 6.88l-.07.08c-.44.51-.89 1-1.33 1.52a23.66 23.66 0 0 1-3.86 3.31c-.18.28-.36.55-.56.8-1.45 1.82-3.28 3.13-5.04 4.41-.88.63-1.77 1.27-2.6 1.96-.35.28-.67.6-.96.88a33.73 33.73 0 0 1-3.23 3.3c-.81.69-1.64 1.56-2.56 2.75-1.45 1.84-2.7 3.9-3.92 5.9l-.36.6c-1 1.6-1.88 3.03-2.7 4.28l-1.67 3.4-.53 1.05a29.13 29.13 0 0 1-2.26 3.7c-.34.5-.77 1.01-1.2 1.52-.68.8-1.39 1.62-1.75 2.43-.13.28-.16.48-.23.82l-.07.33c-.11.6-.47 2-1.27 2.44-.3.17-.62.2-.93.08-.47-.16-.81-.52-.94-1-.37-1.27.69-3.56 3.18-6.84 0-.02.01-.02.03-.04a94.4 94.4 0 0 0 6.31-8.58c.66-1.4 1.2-2.66 1.65-3.8l.48-1.35c.63-1.8 1.27-3.64 2.64-5.12.8-.88 1.78-1.5 2.72-2.1a17.95 17.95 0 0 0 3.43-2.67c.38-.36.72-.74 1.08-1.1l1-1.02.6-.68c.88-.99 1.77-2.01 2.74-2.97 1.43-1.4 3.05-2.5 4.61-3.57l1.22-.84a9.05 9.05 0 0 0 1.16-5.7 4.53 4.53 0 0 0-2.01-3.2c-3.07-1.95-7.62-.32-10.95.87l-.38.13c-2.49.89-4.48 2.24-6.6 3.68-.78.54-1.6 1.08-2.46 1.63-.32.2-.61.4-.91.62-1.22.9-2.59 1.88-4.52 1.19-1.04-.38-2.04-.92-3.03-1.45a15.66 15.66 0 0 0-3.76-1.63c-.84-.2-3.05-.73-4.27-.55-1.07.17-2.44.96-3.52 1.6l-.55.32c-.7.4-1.43.87-2.13 1.31-2.37 1.54-4.83 3.12-7.94 3.12-1.43 0-2.75-.3-4.04-.58-1.7-.38-3.3-.72-5.04-.4-2.41.45-5.57 1.52-7 4.06-.87 1.5-1.44 3.33-2.02 5.11l-.4 1.2c-.56 1.72-1.15 3.47-1.38 5.23-.53 3.9.21 7.77 1.04 11.42l1.93 1.9c1.3 1.29 2.63 2.62 4 3.9.45.42.88.85 1.29 1.3l-.05-.1c-.46-.93-1.09-2.18-1.86-2.4a.42.42 0 0 1-.25-.2.42.42 0 0 1-.03-.3l.18-.67c.06-.21.3-.34.5-.28 1.4.4 2.18 1.93 2.81 3.17.13.26.26.53.4.74.9 1.58 1.71 3.21 2.5 4.78l.36.74c.37.45.73.9 1.1 1.32.62.71 1.2 1.48 1.76 2.24.72 1 1.48 2.03 2.34 2.87l.34-.35c.74-.69 1.75-.85 2.62-1 .32-.05.63-.1.91-.18l.35-.1c1.38-.36 2.58-.68 4.08-.73l.85-.03c2.98-.11 6.36-.26 9.3.53.52.15 1.1.26 1.69.4 2.08.46 4.42.98 6.02 2.29 2.17 1.78 4.53 5.27 4.56 8.24.04 1.88-.46 3.6-.92 5.27-.2.7-.41 1.45-.58 2.23 1.72-1.09 2.67-2.16 4.16-4.16 1.93-2.6 2.86-6.01 3.76-9.31.79-2.92 1.61-5.92 3.11-8.47.66-1.14 1.52-2.1 2.32-3.02.76-.86 1.47-1.66 2.03-2.57.68-1.1 1-2.34 1.34-3.68.21-.85.44-1.73.77-2.6.08-.22.32-.33.53-.23l.64.25c.1.03.18.11.23.21.05.1.05.21 0 .31-.31.8-.5 1.63-.72 2.44-.35 1.37-.71 2.79-1.52 4.09-.62 1.02-1.42 1.91-2.17 2.79-.78.87-1.57 1.78-2.16 2.78-1.4 2.4-2.2 5.3-2.97 8.11-.94 3.45-1.91 7-4 9.83-1.01 1.35-1.82 2.39-2.96 3.36l.37-.15.11-.05c1.63-.67 2.94-1.2 4.37-2.72a75.3 75.3 0 0 0 6.51-8.24 78.37 78.37 0 0 1 6.54-8.28c.7-.72 1.46-1.3 2.25-1.87.8-.6 1.56-1.16 2.19-1.9 3.38-3.9 6.35-6.6 9.92-8.98a42.6 42.6 0 0 1 9.37-4.87c4.08-1.45 8.68-1.78 13.13-2.1l.17-.02c1.74-.14 3.4-.25 5-.45.1 0 .22.02.3.08.09.07.15.17.15.28l.09.68c.03.23-.14.43-.37.46-1.71.2-3.5.33-5.24.46-4.35.32-8.85.66-12.76 2.03a41.45 41.45 0 0 0-9.03 4.7 46.06 46.06 0 0 0-9.63 8.7c-.76.88-1.61 1.52-2.47 2.15-.7.5-1.42 1.03-2.01 1.68a76.52 76.52 0 0 0-6.41 8.14c-2.06 2.85-4.19 5.8-6.65 8.39-1.66 1.75-3.16 2.36-4.92 3.08-.52.22-1.06.43-1.65.71-.83.38-1.57.9-2.33 1.44l-.15.1c-.16.64-.34 1.26-.54 1.89.99.08 1.96.21 2.75.33l.33.05c1.54.21 3.12.56 4.52.87 1.73.38 3.53.76 5.3.96 3.3.23 7.06.46 10.13-.63Zm11.1-19c.47-.02.95-.02 1.43-.02l1.9.02a3.7 3.7 0 0 0-.3-1.44c-.94-1.94-4.74-2.5-6.9-2.4-1.31.06-4.4 2-4.56 3.08-.03.26.25.5.84.72 1.68.63 3.4.43 5.24.22.76-.07 1.55-.15 2.34-.18Zm-24.78-35.5c-.38.45-.7.95-.98 1.49.32-.5.63-.99.98-1.48Zm-65.13 5A34.23 34.23 0 0 0 81 31.34a17.93 17.93 0 0 0-4.75-.56 28.17 28.17 0 0 1-3.5-.26 16.8 16.8 0 0 0-6.57.5l-.73.16c-1 .21-1.78.37-2.67 1.03-.97.71-1.98 1.45-3.1 2.11-1.3.76-2.36 2.2-3.36 3.56l-.13.19c-.17.23-.33.46-.5.67a29.2 29.2 0 0 0-2.34 3.78l-.76 1.35a24.84 24.84 0 0 0-1.58 3.7c-.23.62-.44 1.23-.7 1.82a5.43 5.43 0 0 0 1.92 6.4c1.98-2.38 3.97-3.38 6.07-3.09 2.1.32 2.87 1.78 2.88 2.95a3.73 3.73 0 0 1-3.25 3.58c-1.63.27-3.57-.23-5.4-1.37l-.71 1.04c-.76 1.17-1.35 2.4-1.98 3.68l-.06.13-.81 1.62-.68 1.26-.11.2c-.78 1.44-1.59 2.92-2.11 4.47-.47 1.37-.96 2.74-1.44 4.07-1.17 3.25-2.39 6.61-3.13 10.02-.13.63-.3 1.27-.44 1.92l-.05.2c-.9 3.73-1.82 7.6-.33 11.2a17.78 17.78 0 0 0 3.33 5.16c.5.56.94 1.17 1.36 1.77.5.69 1.03 1.41 1.62 1.97a13.1 13.1 0 0 0 6 3.33c2.14.45 3.44.5 5.46-.31 3.4-1.35 5.6-3.33 7.1-6.4l.5-.98c.9-1.77 1.92-3.76 1.86-5.51a6.52 6.52 0 0 0-1.1-3.35l-.35-.46c-.48-.6-1.1-1.35-1.17-2.27l-.05-.63a.4.4 0 0 1 .18-.38.38.38 0 0 1 .23-.06c.07 0 .13.01.2.05l.56.3c.54.27 1.05.57 1.58.85l.21.11c1.36.76 2.64 1.47 4.1 2.05.85.34 1.74.64 2.61.94 1.49.5 3.04 1 4.47 1.76.86.45 1.7.94 2.52 1.42l.12.07c.67.4 1.33.77 2 1.15.6.33 1.13.7 1.64 1.09.73.52 1.42 1.04 2.26 1.32 5.4 1.87 9.82 2.04 13.88.5 1.27-.47 2.4-1.06 3.66-1.72.56-.3 1.12-.6 1.71-.88.48-.23.88-.4 1.4-.48.5-.08 1-.13 1.52-.16.53-.05 1.09-.1 1.62-.2 1.25-.25 2.44-.53 3.5-.84.91-.76 1.8-1.55 2.7-2.34l.17-.16c2.28-2.02 4.62-4.1 7.2-5.8a22.32 22.32 0 0 1-5.48-3.14l-.94-.72c-.94-.71-1.76-1.3-2.42-2.66l-.68-1.33-.08-.17c-.28-.53-.55-1.07-.81-1.6-.87-1.78-1.88-4.18-1.85-6.9.02-2 .33-3.68.68-5.48l.03-.2.22-1.18c.18-1.07.56-2.57 1.27-3.86a15.9 15.9 0 0 1-1.5-1.66c.4 1.41.54 2.88.05 4.33l-.1.28a.4.4 0 0 1-.46.28l-.28-.05c-.61-.1-1.22-.64-1.82-1.17l-.56-.48-.67-.47c-.3-.2-.56-.38-.56-.78l-.02-.16c0-.12.03-.23.11-.32a1.97 1.97 0 0 0-.1-.28c-.7-.33-1.3-1.12-1.84-1.84-.2-.27-.38-.51-.53-.65a21.9 21.9 0 0 1-4.25-6.03c-.48-.9-1-1.81-1.55-2.72-1.27-2.1-2.57-4.3-3.15-6.84l-.21-.94c-3.22-3.08-6.05-5.55-9.53-7.55ZM53.48 56.63a6.7 6.7 0 0 0 4.23 1.08c1.3-.2 2-1.21 1.98-2.07 0-.8-.6-1.34-1.6-1.49-.16-.01-.33-.03-.5-.03-1.34 0-2.7.83-4.11 2.5Zm83 34.07-.29.05c-.3.06-.64.11-.97.2-.1.03-.21 0-.31-.05a.35.35 0 0 1-.18-.25l-.07-.26c-.46.64-.95 1.46-.89 1.88.07.4.61.75 1.58 1.05l.45-1.12c.16-.45.4-.97.67-1.5Zm-1.6-3.31c.77-1.24 1.63-2.64 2.83-3.71.03-.48.03-1 0-1.59l-.02-.59-.01-.26c-.07 0-.13 0-.2-.04-.7-.3-.77-1.18-.74-2.04-1-1.55-2.28-3.05-3.8-4.47-.2.37-.4.7-.64 1-.24.37-.5.73-.7 1.15-.07.14-.24.21-.4.23a.73.73 0 0 1-.64-.48c-.3-.74.2-2.28.85-3.22-.52-.42-1.05-.82-1.58-1.2-.06.15-.15.3-.26.45-.1.14-.27.34-.53.47-.02 0-.41.19-.68.07a.44.44 0 0 1-.23-.28 3.05 3.05 0 0 1 .1-1.78l-.94-.58a24.71 24.71 0 0 1-2.75-1.98 23.38 23.38 0 0 0-2.69-1.9l-.43-.25c-.87-.5-1.51-.85-2.25-1.93a5.85 5.85 0 0 0-2.25-1.87l-.11-.06-.4-.25a11.73 11.73 0 0 0-.97 3.15c-.08.48-.16.94-.26 1.42-.33 1.8-.63 3.34-.65 5.19-.01 1.88.52 3.8 1.7 6.23l.8 1.58.77 1.54c.5 1.02 1.05 1.43 2 2.14.3.21.62.44.97.72a21.14 21.14 0 0 0 6.16 3.32c.36-.22.74-.41 1.19-.65 2.39-1.22 3.94-1.61 4.88-1.25.4.15.7.45.85.84.3.76.15 1.44-.43 2.03.04 0 .07 0 .1-.02.23-.01.5-.1.78-.23l.06-.1.52-.8Zm-5.89.79c.54.11 1.06.21 1.58.28l.15-.07c1.37-.58 1.85-.92 1.72-1.32-.09-.03-.75-.24-3.45 1.1Zm-1.91 1.05c-2.79 1.7-5.34 3.94-7.83 6.15l.33-.16c1.76-.88 3.43-2.03 5.08-3.17 1.2-.82 2.42-1.68 3.72-2.45l-1.3-.37Zm10.43 6.12c-.24-.07-.52-.12-.84-.18l-.33-.07a34.3 34.3 0 0 0-1.38 6.92l.48-.46.13-.11c2.16-2.08 4.35-4.2 6.84-5.11-1.62-.2-3.22-.56-4.9-1Zm-2.78 30.53c.4 2.49.46 4.94.4 6.79 2.68-1.65 6.3-2.01 9.54-2.15 1.08-.04 2.22-.06 3.48-.06 2.02 0 4.05.05 6.26.11 7.66.22 15.58.43 22.53-2.1-6.31-5.1-12.67-10.84-16.91-18.24-2.08-3.62-3.92-5.96-6.38-8.1a24.87 24.87 0 0 0-6.31-4.23c-4.1-1.76-7.47 1.49-10.78 4.68-.46.45-.91.88-1.37 1.3l-.41.37c-.23 3.6-.12 7.25-.02 10.78.08 3.38.2 7.2-.03 10.85Zm-1.55-20.18c-3.02 2.75-6.51 6.05-8.3 9.68a4.11 4.11 0 0 1 2.03-.33c2.56.26 4.12 2.14 5.44 4.13.38.56.71 1.2 1 1.88 0-2-.06-4.02-.1-6-.1-3.05-.2-6.21-.07-9.36Zm-22.85-49.86c-.21-.42-.43-.8-.6-1.17l-.06-.14c-.43-.52-.86-1.05-1.27-1.58-1.35-1.7-2.73-3.46-4.37-4.96-1.4-1.3-2.73-2.64-4.05-3.94l-.1-.1a28.4 28.4 0 0 0 2.54 4.91c.54.91 1.09 1.83 1.6 2.79a20.43 20.43 0 0 0 3.97 5.65c.21.22.43.5.7.84.3.43.98 1.3 1.31 1.37l.18.03c.13.02.25.12.3.24l.07.16c.26.58.4 1 .4 1.35l.47.33c.2.13.41.33.7.58.12.11.27.25.42.36.2-2.2-1.1-4.66-2.2-6.72Zm28.81 28.61-.03.02-.01.06a8.47 8.47 0 0 1-3.58 4.8l.48-.08c1.1-.2 1.97-.36 2.7-1.04a13.84 13.84 0 0 0 3.2-4.66c-1.17.11-2.08.4-2.76.9Zm3.05-2.8-.42.2a.44.44 0 0 1-.38-.02.43.43 0 0 1-.22-.31l-.05-.46c-.11-1 .68-2.1 2.46-3.33l.05-.32c.18-1.18.5-2.32.79-3.43.46-1.63.89-3.18.86-4.84-.04-2.5-2.1-5.52-4-7.09-1.33-1.07-3.49-1.57-5.45-2-.6-.13-1.17-.26-1.71-.4-2.7-.73-5.97-.6-8.84-.48l-.84.03c-1.35.05-2.47.34-3.77.7l-.35.07c-.35.09-.7.15-1.07.22-.73.11-1.4.23-1.81.62l-.22.22c.12.06.22.15.33.21l.13.08c1.07.65 1.91 1.14 2.7 2.31.55.8.95 1 1.75 1.45l.45.25c1.04.6 1.98 1.34 2.9 2.06.82.64 1.66 1.3 2.55 1.83.32.18.63.38.96.58.21-.22.5-.53.94-.55.38 0 .68.22.73.55.05.31-.15.5-.27.6a.93.93 0 0 0-.15.24c.83.56 1.62 1.17 2.4 1.8a1 1 0 0 1 .49.01c.2.05.33.23.31.43l-.02.21a26.06 26.06 0 0 1 3.47 3.7c.05-.33.11-.66.2-1.03a.43.43 0 0 1 .26-.3.42.42 0 0 1 .4.06c.29.21.49.53.6.85.1-.14.3-.2.48-.14s.3.23.28.43c-.03.46-.16.92-.3 1.36-.08.28-.14.55-.2.83 0 .11-.03.21-.04.34.43.73.62 1.29.66 2.28l.01.58.02.59c.9-.41 1.98-.61 3.28-.64.08-.22.15-.43.21-.65-.2.13-.37.22-.56.3Zm1.1 9.31c-.8.02-1.47-.11-2.12-.23l-.13-.01c-.54-.1-1.1-.2-1.68-.23a.4.4 0 0 1-.4-.35h-.01c-.83.33-1.42 1.76-1.82 2.69-.11.26-.21.54-.3.8l.12.04c.35.06.66.13.93.2 3.01.75 5.75 1.35 8.47.88.15-.7.1-1.23-.45-2.02a6.08 6.08 0 0 0-2.2-1.77h-.42Zm-11.2 44.86c.35-2.08.56-4.12.77-6.1l.2-1.83c.07-.65.12-1.29.17-1.85a15.85 15.85 0 0 0-2.13-6.03c-1.04-1.57-2.3-3.27-4.33-3.48-.61-.08-1.1.13-1.72.4a7 7 0 0 1-1.37.46l-.6.11a.4.4 0 0 1-.39-.13.42.42 0 0 1-.08-.41l.2-.56c1.65-4.82 6.23-8.99 9.9-12.35l.58-.53c.25-3.3.76-6.2 1.57-8.8-1.09-.33-2.34-.92-2.57-2.2-.15-.8.23-1.64.76-2.46-.73.03-1.47.01-2.25-.07-1.86.9-3.6 2.1-5.29 3.28a40.04 40.04 0 0 1-5.24 3.26c-1.32.66-2.75 1.2-4.3 1.69l-.61.5c-4.67 3.8-8.7 7.5-12.33 11.27-2.3 2.39-4.42 4.96-6.48 7.46-1.12 1.35-2.27 2.76-3.46 4.12-.63.73-1.27 1.37-1.98 1.97l-.51.42c-.87.73-1.71 1.42-2.34 2.34-2.5 3.75-2.56 7.82-2.36 12.75.08 1.9.36 3.92.6 5.68.28 2.06 1.13 3.22 2.83 3.91 2.2.9 5.18 1.35 8.62 1.35h.84c2.23-.01 4.34-.01 6.61-.38 1.12-.18 2.5-.4 3.61.23.88.5 1.62 1.27 2.34 2.03.58.61 1.17 1.22 1.78 1.63l.09.07c1.87 1.25 4 2.69 6.14 3.3.8.23 1.65.3 2.48.38a30.45 30.45 0 0 1 4.85.9c.44.12.88.23 1.34.33l.88.22.2-2.5c.26-3.37.54-6.85 1.07-10.35.26-1.8.6-3.52.87-4.87-.77-1.16-.44-2.87 1.04-5.16Zm-32.82 160.6.76-.8a86.04 86.04 0 0 1 3.62-3.73c5.82-5.48 11-9.73 17.26-12.73l1.12-.53c1.67-.79 3.4-1.6 4.95-2.63 3.38-2.28 7.09-4.98 8.97-7.88.44-.7.46-.98.47-.98-.28-.2-1.7-.05-2.24.02-.4.05-.82.08-1.13.1-1.69.05-3.55-.15-5.02-.54l-.2-.05a.39.39 0 0 1-.29-.32l-.05-.2c-.33-1.5 2.01-2.6 4.9-3.8.34-.15.59-.25.7-.32.2-.11.48-.23.8-.37l.1-.05c.72-.33 2.07-.94 2.7-1.54l-.38.02c-.63.03-1.32.08-2-.18l-.57-.23a.4.4 0 0 1-.25-.33.41.41 0 0 1 .17-.38l.49-.36c.23-.17.6-.37 1.02-.61.48-.27 1.54-.86 2.1-1.36-.8.02-1.64.2-2.44.42-.38.1-.76.2-1.14.26l-1.73.35c-.2.03-.4-.07-.46-.25a.39.39 0 0 1 .14-.5l1.47-.97c.3-.2.6-.36.96-.58.34-.2.69-.4.97-.59 1.02-.9 2.16-1.68 3.38-2.32.94-.51 1.9-1.06 2.82-1.62l.08-.11a1.5 1.5 0 0 0-.21-.14c-.5-.3-1.3-.79-1.37-1.87-.05-1.04.7-1.77 1.37-2.41.57-.55 1.05-1.02 1-1.53-.01-.15-.23-.4-.41-.61a3.48 3.48 0 0 1-.94-1.87c-.1-.34-.18-.69-.35-.94a11.07 11.07 0 0 0-1.97-1.88c-2.13-1.73-5.03-4.12-2.82-7.07a7.69 7.69 0 0 1 2.17-1.8c.58-.37 1.14-.74 1.55-1.16.48-.5.9-1.03 1.37-1.57.84-1 1.7-2.04 2.84-2.93.97-.78 2-1.47 2.98-2.13l1.8-1.24c.2-.13.44-.3.7-.44.62-.37 1.54-.9 1.52-1.35v-.1c-.26-.02-.7.01-1.17-.13l-.18-.07a.42.42 0 0 1-.28-.31l-.03-.2c-.28-1.34.95-2.24 1.96-2.97.54-.4 1.22-.89 1.3-1.24.05-.21.05-.28-.46-.7-.61-.5-1.63-1.34-.87-3.14.2-.5.7-1.05 1.26-1.7.68-.75 2.07-2.33 1.67-2.83-.18-.21-1.12-.18-2.82.1-.48.08-.9.15-1.22.16-1.02.04-2.2 0-3.33-.47-1.24-.51-1.98-1.27-2.2-2.25-.52-2.07 1.46-4.43 3.04-6.33.46-.54.94-1.12 1.2-1.53 1.26-1.9 2.4-3.9 3.52-5.87 1.03-1.83 2.1-3.72 3.28-5.52.72-1.12 1.35-2.3 1.96-3.46l.94-1.76c-1.8 1.22-3.28 3.62-4.62 5.8-.66 1.07-1.28 2.1-1.91 2.88a26.09 26.09 0 0 1-8.8 7.32c-.88.45-1.77.88-2.66 1.29-1.94.92-3.95 1.86-5.73 3.13a26.5 26.5 0 0 0-4.55 4.17 46.16 46.16 0 0 0-3.71 4.96c-1.91 2.89-3.6 5.5-4.58 8.4-.28.83-.51 1.69-.75 2.53-.46 1.68-.92 3.43-1.8 5.01l-.64 1.06c-.42.67-.85 1.38-1.1 2.09-.23.66-.36 1.4-.5 2.14-.1.65-.24 1.32-.44 1.98l-.67 2.34c-.55 1.93-1.1 3.93-1.82 5.84-.99 2.65-1.9 5.37-2.75 8l-1.45 4.38c-1.37 4-2.16 8.29-2.95 12.5-.4 2.12-.8 4.3-1.27 6.44a84.35 84.35 0 0 1-3.71 12.36c-.78 1.96-1.62 3.94-2.37 5.67-.94 2.18-1.9 4.42-2.76 6.68-.36.97-.72 1.96-1.07 2.96.71-.97 1.98-1.96 3.76-2.98Z"/>
    <path d="M.6 127.38c.69-1.19 2.54-2.05 4.28-2.44-.4-.27-.72-.51-.95-.75l-.15-.14c-.28-.25-.7-.63-.74-1.32-.07-1.14 1.27-2.62 1.84-3.04 1.04-.75 2.26-.87 3.33-.97a6.2 6.2 0 0 0 2.16-.44l.15-.07c.13-.06.25-.13.25-.11l.05-.12.15-.38c.06-.16.1-.3.14-.46.12-.38.25-.8.65-1.27.97-1.09 3.66-2.14 5.14-1.38.51.26.76.72.96 1.1l.13.25.52-.43a8.61 8.61 0 0 1 1.45-.58l.27-.11c.33-.15.72-.35 1.32-.27.6.1 1.32.45 1.53 1.17.17.55.03.94-.18 1.2.44.2.89.5 1.25 1.06.56.83.81 1.8.7 2.64-.15.99-.7 1.71-1.69 2.2l.05.14c.07.02.13.07.18.13l.14.17c.5.59 1.08 1.08 1.68 1.61.54.46 1.1.96 1.6 1.52.46.53.87 1.14 1.23 1.68l.38.58a10.95 10.95 0 0 1 1.85 5.02c.05 1.24-.45 2.28-.93 3.28-.14.3-.3.61-.4.91-.67 1.6-1.44 2.16-2.71 3.07-.73.5-1.43 1.05-2.16 1.6l-.15.11c-.7.55-1.45 1.09-2.17 1.62.23 1.45.21 2.96.18 4.41-.02 1.47-.05 2.99.2 4.37.18 1.06.46 2.1.72 3.1.28 1.07.56 2.18.76 3.33l.05.33c.28 1.62.56 3.3 1.07 4.85.54 1.65 1.5 2.96 2.52 4.37.5.69 1 1.4 1.48 2.16.53.85.83 1.78 1.1 2.67.3.9.57 1.78 1.1 2.53 2.16 3.2 4.09 6.6 5.93 9.88.56.99 1.12 1.98 1.7 2.97a68.48 68.48 0 0 1 5.13 10.68c1.9 5.2 4.18 10.43 6.42 15.5.86 1.92 1.7 3.87 2.54 5.8a38.82 38.82 0 0 0 4.06 7.23 35.3 35.3 0 0 1 2.67 4.39c2.03 4.2 3.15 8.85 3.63 15.05.11 1.46.56 3.03.98 4.55.3 1.07.61 2.15.83 3.24.31 1.72.58 3.43.79 5.23a14.97 14.97 0 0 1 1.42 3.62c.13.58.1 1.1.05 1.55-.04.33-.05.63 0 .91.08.58.38 1.1.7 1.67.2.34.42.72.6 1.13.16.4.3.8.44 1.2.22.63.42 1.24.76 1.79 1.39 2.2 2.1 4.9 2.79 7.5.33 1.22.62 2.37.99 3.47 3.33 9.91 5.17 21.58 5.65 35.63.03.2.03.4.02.59a.41.41 0 0 1-.41.38h-.02l-.68-.02a.4.4 0 0 1-.4-.4v-.37c-.04-.27-.16-.51-.29-.81-.13-.3-.28-.63-.38-1.02a6.9 6.9 0 0 1-.16-1.4 5.81 5.81 0 0 0-.22-1.45c-.31-.94-.6-1.9-.89-2.89-.3-1-.6-2.06-.95-3.06l-.53-1.55c-1.52-4.44-3.08-9.02-3.86-13.69-.53-3.18-1.4-6.59-2.67-10.43a41.33 41.33 0 0 0-1.7-4.53c-.92-2.03-.94-3.45-.99-5.6l-.01-.73c-.08-4.1-.32-7.7-.7-11.03a43.57 43.57 0 0 0-3.98-5.65 46.64 46.64 0 0 1-3.45-4.78c-1.83-3.04-3.06-6.37-4.27-9.6-1.15-3.06-2.34-6.23-4-9.1a28.06 28.06 0 0 1-3.05-7.76c-1.06-4.42-3.05-8.64-4.96-12.7-.53-1.13-1.08-2.25-1.59-3.39-.4-.89-.79-1.85-1.2-2.84-.61-1.46-1.24-2.98-1.93-4.33-1.25-2.44-3.11-4.8-4.9-7.07l-2.04-2.64-.25.02c-.31 0-.64.01-.85.06-.58.12-1 .3-1.44.5-.3.13-.6.26-.95.38-1.26.42-2.25.99-3.32 1.58-.59.33-1.2.67-1.88 1l-.92.56c-3 1.87-5.8 3.43-7.07 2.23-1.19-1.12 0-2.4.7-3.16l.57-.65a11.8 11.8 0 0 0-.88-.16c-1.9-.35-4.5-.83-4.45-3.71.02-.7.2-1.35.6-2.03.21-.38.5-.72.77-1.02.38-.45.73-.86.81-1.29.03-.16-.31-.7-.48-.97-.4-.63-.89-1.4-.4-2.13.5-.7 1.52-.62 2.38-.54-.13-.28-.33-.53-.6-.6-.17-.04-.4-.06-.7-.1-.12 0-.23 0-.35-.02l-.25-.02a3.84 3.84 0 0 1-.9-.15 2.1 2.1 0 0 1-.36-.15l-.24-.08-.18-.03a.43.43 0 0 1-.3-.27l-.06-.16c-.13-.36-.1-.74.1-1.04.43-.63 1.47-.73 2.49-.73.5 0 1.04.04 1.58.09.33.03.6.11.84.2.15.04.25.06.51.08.9.06 1.83.15 2.76.4 1.13.32 2.24.77 3.3 1.21l1.3.51c3.75 1.44 5.8 4.35 7.97 7.44l.83 1.17c.05-.02.1-.02.13-.04-.08-.26-.18-.56-.28-.82a4.68 4.68 0 0 0-1.06-1.4c-1.5-1.55-2.8-3-3.43-4.91-.1-.33-.21-.66-.3-1-.55-1.69-1.1-3.44-1.99-4.85l-.33-.56c-.4-.66-.85-1.47-1.31-1.93l.01.66c.07 1.46.13 2.73-.76 3.08-.75.3-1.38-.43-1.58-.66-.1-.12-.2-.25-.28-.4l-.1-.15c-.01.12-.03.33-.01.7v.16a.4.4 0 0 1-.12.3.41.41 0 0 1-.3.13l-.67.02c-.22.01-.41-.17-.43-.4v-.15c-.03-.59-.08-1.97 1.1-2.3.9-.24 1.39.3 1.68.7l-.03-.97c-.01-.54-.05-.95 0-1.25.03-.25.17-.99.8-1.24.67-.24 1.28.27 1.48.43.7.58 1.32 1.63 1.83 2.49l.3.53a23.21 23.21 0 0 1 2.14 5.2l.3.98c.54 1.61 1.72 2.92 3.1 4.33.49.5 1.03 1.06 1.38 1.87.13.31.23.64.33.97l.08.21c.41.93-.32 1.3-.7 1.5l-.01.02 1.58 2.04c1.83 2.33 3.73 4.74 5.05 7.3.72 1.4 1.36 2.96 1.99 4.5a107.54 107.54 0 0 0 2.75 6.16c1.95 4.13 3.98 8.4 5.06 12.97.68 2.8 1.59 5.14 2.89 7.35 1.73 2.97 2.95 6.2 4.12 9.35 1.19 3.15 2.4 6.4 4.15 9.34.91 1.52 2.1 3.04 3.35 4.64.77.98 1.57 1.99 2.3 3.03a37.53 37.53 0 0 0-1.12-5c-.44-1.58-.9-3.21-1.03-4.84-.46-6-1.53-10.49-3.48-14.5a31.15 31.15 0 0 0-2.57-4.21 39.75 39.75 0 0 1-4.19-7.48c-.82-1.93-1.68-3.86-2.52-5.8-2.23-5.07-4.55-10.31-6.46-15.59a66.39 66.39 0 0 0-5.03-10.45l-1.7-2.98a148.78 148.78 0 0 0-5.88-9.76c-.65-.94-.96-1.96-1.27-2.95a10.4 10.4 0 0 0-.94-2.32c-.46-.75-.97-1.45-1.44-2.08-1.02-1.43-2.09-2.9-2.72-4.76-.56-1.65-.84-3.38-1.13-5.06l-.05-.33c-.18-1.1-.46-2.16-.74-3.24-.27-1.02-.55-2.09-.73-3.18a24.4 24.4 0 0 1-.21-4.65c.01-1.13.03-2.3-.07-3.42l-.48.3c-.97.62-2.88 1.54-4.6.8a5.02 5.02 0 0 1-.79-.43c-.24-.15-.48-.3-.74-.38-.86-.26-1.42-.72-2.03-1.22l-.33-.26c-.62-.5-1.12-1.07-1.6-1.63-.33-.38-.64-.76-.98-1.1a12.74 12.74 0 0 1-1.9-2.07l-.45-.6a7.21 7.21 0 0 1-1.45-2.69c-.1-.3-.21-.61-.36-.93-.56-1.2-1.43-3.13-1.05-4.78-.53.2-1.12.28-1.69.15a2.06 2.06 0 0 1-1.4-1.2 1.67 1.67 0 0 1 .04-1.73Zm5.39 6.99c.16.34.28.7.4 1.07.16.48.3.94.54 1.3.21.35.47.68.7.99.15.2.3.38.43.58a11.5 11.5 0 0 0 1.73 1.86c.42.38.78.8 1.1 1.18.45.53.88 1.03 1.4 1.42l.34.28c.54.45.96.78 1.53.96.45.15.8.34 1.1.54.19.12.37.23.57.32 1.1.46 2.49-.23 3.21-.68.33-.21.68-.43 1-.66-.04-.18-.1-.36-.16-.54a7.72 7.72 0 0 1-.31-2.43 6.8 6.8 0 0 0-.21-1.86c-.25-.8-.45-.96-1.16-1.53-.36-.28-.66-.6-.97-.9-.35-.37-.7-.7-1.09-.98a12.17 12.17 0 0 1-3.3-3.27l-.28-.37c-.47-.7-.98-1.4-1.55-2.02-.69.2-1.25.12-2.06-.67-.3-.28-.49-.68-.67-1.04-.18-.03-.28.05-.74.4l-.3.23c-.21.15-.46.31-.74.47-.53.33-1.19.75-1.39 1.14-.52 1.14.35 3.07.88 4.2Zm15.38 8.24 1.68-1.26c.76-.57 1.53-1.15 2.3-1.71 1.2-.86 1.7-1.2 2.2-2.4.13-.34.3-.67.44-1 .42-.89.83-1.71.8-2.57a9.6 9.6 0 0 0-1.59-4.23l-.4-.61c-.34-.53-.7-1.07-1.08-1.5-.46-.51-1-1-1.5-1.4-.38-.33-.76-.66-1.12-1.01.08.74-.41 1.15-1.02 1.55l-.48.33c-1.93 1.4-3.96 1.66-6.1 1.93-.55.06-1.1.15-1.68.23l-.45.06-.74.14c.43.5.8 1.07 1.2 1.63l.27.38a11.03 11.03 0 0 0 2.91 2.88c.53.37.93.76 1.34 1.19.26.26.51.53.8.76a3.97 3.97 0 0 1 1.67 2.27c.23.78.27 1.54.28 2.28a6.45 6.45 0 0 0 .27 2.06Zm1.53-23.84c-.26-.4-.6-.5-1.14-.72-.2-.09-.4-.15-.6-.25l-.35-.18a.38.38 0 0 1-.22-.27.38.38 0 0 1 .07-.34l.23-.33c.21-.31.5-.5.67-.63a.95.95 0 0 0-.23-.08c-.13-.02-.2.02-.5.15-.09.05-.2.1-.39.16-.38.1-.75.25-1.03.37l-.75.6a1.1 1.1 0 0 1-.24.1c-1.16.3-1.65-.62-1.88-1.07-.1-.18-.22-.4-.33-.46-.68-.35-2.64.26-3.33 1.04-.18.2-.23.38-.33.7a4.8 4.8 0 0 1-.2.59l-.13.33c-.23.64-.43.75-1.04 1.05l-.15.07c-.86.42-1.78.5-2.69.59-.97.08-1.87.18-2.57.7-.54.4-1.25 1.43-1.23 1.72 0 .07.01.1.26.32.07.06.13.11.2.2.48.47 1.55 1.06 3.2 1.77.2.09.3.32.23.53l-.12.33c.1.03.2.08.3.13.31.18.54.48.7.76.75.25 1.44.66 2.12 1.25.6-.2 1.08-.28 1.68-.38l.44-.06c.58-.1 1.16-.18 1.73-.25 1.95-.25 3.8-.5 5.41-1.66.2-.15.4-.27.56-.38l.33-.23-.13-.27a6.13 6.13 0 0 0-.76-1.05l-.08-.12c-.35.05-.78.1-1.27 0-.64-.11-1.24-.3-1.78-.44-.76-.22-1.47-.43-2.23-.48-.13.11-.28.23-.4.36-1.01.9-2.07 1.5-3.24 1.83-.86.25-1.43.18-1.78-.2-.13-.13-.4-.5-.16-1.1.24-.66.9-1.02 1.4-1.3l.23-.13c.89-.55 1.9-.86 3.06-.96.14-.02.27-.02.4-.02a3.99 3.99 0 0 1 1.66-.7 5.22 5.22 0 0 1 4.08.8c.23.18.44.4.64.64 1.23-.32 2-.59 2.14-1.5a2.56 2.56 0 0 0-.46-1.53Zm-14.24 8.97-.12.02-.01.06.13-.08Zm-3.94-.08c.2-.15.36-.3.53-.42l.46-.37c.24-.2.5-.43.77-.63-1.68.08-4 .89-4.6 1.9a.46.46 0 0 0-.03.4c.07.16.21.29.4.32.7.18 1.76-.64 2.47-1.2Zm61.5 141.31c.05 1.1.08 2.21.1 3.37l.01.72c.04 2.1.05 3.27.85 5 .67 1.48 1.18 3 1.74 4.7 1.3 3.9 2.2 7.4 2.72 10.64.76 4.54 2.3 9.07 3.8 13.45l.52 1.57c.35 1.02.66 2.08 1 3.17l.07.28c-.79-10.62-2.5-19.72-5.17-27.66a56.6 56.6 0 0 1-1.02-3.58c-.66-2.5-1.34-5.06-2.6-7.07-.45-.71-.69-1.42-.92-2.11-.11-.37-.24-.73-.4-1.1-.12-.32-.3-.63-.5-.98a1.48 1.48 0 0 0-.2-.4Zm-52.91-86-.02.25a.4.4 0 0 1-.33.37l-.25.05c-.31.06-.69.03-1.15-.02-.38-.03-.66-.05-.84-.05.08.15.2.33.25.4.37.57.84 1.3.67 2.07a4.5 4.5 0 0 1-1.15 1.98c-.23.26-.45.53-.6.78a2.7 2.7 0 0 0-.4 1.28c0 1.37.83 1.77 3.26 2.21.69.13 1.35.25 1.92.46l.27.1c.18.07.3.26.26.46l-.05.28c-.15.76-.72 1.4-1.3 2.01-.53.56-.8.91-.77 1.04.1.08.77.36 5.29-2.44.46-.28.8-.5 1-.6.66-.32 1.24-.65 1.85-.98a21.2 21.2 0 0 1 3.53-1.68c.28-.1.52-.2.84-.35.47-.21 1-.44 1.74-.6.12 0 .23-.02.35-.04l-.3-.41c-2.02-2.89-3.95-5.62-7.28-6.9-.4-.14-.8-.3-1.19-.45l-.13-.05c-1.04-.42-2.11-.84-3.17-1.14a11.7 11.7 0 0 0-2.45-.36c-.3-.02-.56-.05-.88-.15l-.05-.02c.78.6 1.14 1.63 1.08 2.5Z"/>
  </g>
</svg>
