<svg xmlns="http://www.w3.org/2000/svg" xml:space="preserve" fill-rule="evenodd" stroke-linejoin="round" stroke-miterlimit="2" clip-rule="evenodd" viewBox="0 0 142 260">
  <g fill="#d19389" fill-rule="nonzero">
    <path d="M140.6 38.87c-.7-1.12-1.74-1.37-2.86-1.64a6 6 0 0 0-2.8.18c-.96.21-1.87.42-2.7.04a7 7 0 0 1-1.64-1.18l-.6-.5c-.6-.47-1.17-1.01-1.73-1.54l-.12-.1c-.57-.53-1.1-1.12-1.64-1.72-1.11-1.21-2.26-2.48-3.79-3.33-1.41-.78-3.3-1.1-4.6-1.14-1-.03-1.86.16-2.78.36l-1.11.23a3.83 3.83 0 0 1-3.14-.64l-.61-.43c-.46-.32-.97-.69-1.54-.97-1-.5-2.17-.7-3.57-.65-1.76.07-3.6.77-5.44 2.1a13.54 13.54 0 0 0-2.55 2.57 5.24 5.24 0 0 1-1.95 1.56c-.97.5-2.11.72-3.24.95-.66.13-1.35.26-2 .46-.35.1-.71.23-1.09.38a3.6 3.6 0 0 0-.23-1.64c-.29-.7-.77-1.19-1.24-1.68-.24-.24-.49-.5-.69-.76l-.15-.2c-.77-1-1.58-2.05-1.6-3.24a6.1 6.1 0 0 1 .47-2.01c.1-.34.23-.68.32-1.02.29-1.15-.39-2.58-1.08-3.85a57.57 57.57 0 0 0-3.09-4.8 11.14 11.14 0 0 0-3.08-3 7.83 7.83 0 0 0-2.89-2.72 18.27 18.27 0 0 0-4.01-1.48l-.38-.1c-1.24-.34-2.53-.7-3.33-1.65a8.88 8.88 0 0 1-1.5-2.84 2.92 2.92 0 0 0-1.46-1.61c-2.8-1.53-6.4.8-8 2.61-.28.31-.5.65-.72.98-.18.28-.37.57-.6.83-.33.4-.63.77-.89 1.3a4.76 4.76 0 0 1-1.83 1.97c-.56.32-1.19.57-1.8.83-1.37.57-2.78 1.15-3.6 2.5l-.61-.07c-.38-.05-.77-.1-1.14-.2-.84-.25-1.46-.43-2.11-.97-.36-.3-.67-.67-1-1.07-.23-.29-.46-.58-.72-.85l-.65-.68a12.67 12.67 0 0 0-2.85-2.49 9.58 9.58 0 0 0-7.03-.66c-.5.14-1.02.34-1.56.55-1.36.53-2.77 1.06-4 .75-.3-.08-.62-.18-.96-.3-.56-.18-1.2-.39-1.86-.47a8.13 8.13 0 0 1-.71-.12c-.57-.1-1.2-.22-1.86-.15-.4.04-.79.1-1.22.16-.76.11-1.49.22-2.27.2l-.47-.02c-1-.04-2.04-.08-3.07 0h-.18c-.84.05-1.88.12-2.6.76l-.07.06a.29.29 0 0 0-.09.17v.09c-.05.6.71 1.06 1.81 1.66l.4.23c.29.2.58.4.87.58.53.34 1.02.68 1.49 1.1.53.5 1.07 1.03 1.4 1.77.2.46.35.98.49 1.5.27.95.55 1.94 1.21 2.77.25.3.53.56.82.8l.5.48c.4.42.76.97 1.14 1.54.25.38.52.8.83 1.2-.23-.03-.45-.04-.67-.05h-.2c-1.86 0-3.92 1.01-5.42 2.7-.83.92-1.68 1.93-2.69 3.18a5.65 5.65 0 0 1-2.24 1.76 3.8 3.8 0 0 1-2.32.54c-.28-.02-.54-.05-.82-.09-.5-.06-1.01-.12-1.55-.12h-.39c-1.2-.02-2.57-.04-3.65.83-1 .81-1.83 2.42-.05 5.5.62 1.08 1.38 2.12 2.1 3.11l.7.98c1.08 1.5 1.6 3.85 2 5.74l.09.38.52 2.49c.3 1.4.58 2.84.94 4.25.25 1 .68 1.95 1.1 2.86.17.38.34.77.5 1.17a17.12 17.12 0 0 0 2.07 3.86c1.25 1.67 3.03 2.71 4.74 3.73l.3.17c.77.46 1.68.84 2.71 1.17-.71.6-1.42 1.42-1.89 2.17-.67 1.08-1.84 1.86-2.98 2.61-1.67 1.12-3.4 2.27-3.87 4.47-.19.88-.47 2.22.2 3.14.2.28.47.49.75.7l.32.27c.23.21.48.41.73.6.5.4 1.04.82 1.33 1.3.62.98 1.3 1.9 1.88 2.68a13.1 13.1 0 0 0 3.03 2.74l.07.05.6.46c.6.46 1.22.94 1.96 1.3.94.46 1.85.73 2.88 1.02 1.56.44 3.13.68 4.64.91l.08.01 1.12.17c.69.12 1.42.1 2.21.1 1.8 0 3.65 0 4.55 1.4.44.68.97 1.27 1.48 1.85l.07.08c.13.16.27.3.4.47.83.96 1.76 1.23 2.77 1.53l.2.06c-.25 1.77-.25 3.54.77 5.18a7.3 7.3 0 0 0 1.81 1.79l.45.36.03.02c-.45 1.08-.93 2.96.18 4.45a12.45 12.45 0 0 0 3.44 3.12c1.37.88 2.91 1.35 4.42 1.82.9.28 1.81.56 2.68.94l.24.1c.94.4 2.12.9 3.33 1.25 1.44.42 2.6.5 3.5.26 1.2-.33 2.46-.44 3.69-.55 1.31-.1 2.68-.23 4.02-.61a16.1 16.1 0 0 0 3.74-1.75c.28-.17.53-.37.77-.56.26-.2.49-.4.74-.54.17-.1.38-.17.61-.25.3-.1.6-.2.9-.4a3.99 3.99 0 0 0 1.4-1.8 24.36 24.36 0 0 1 1.83-3.07c.4-.61.82-1.26 1.21-1.92l.6-1.02c.34.57.55 1.22.75 1.88.17.55.35 1.12.62 1.65.55 1.1 1.31 2.1 2.26 2.98.6.56 1.27 1.02 1.92 1.45.42.28.86.57 1.27.9.99.77 2.08 1.46 3.03 2.09.51.33 1.03.66 1.53 1l1.35.95.07.05c.85.61 1.75 1.25 2.71 1.8.8.47 1.43 1.21 2.05 1.94l.35.4.29.36c.34.44.72.94 1.38 1.12.17.05.36.07.55.07h.02c.53 0 .93-.14 1.2-.43l.08-.1c0 .02.03.03.04.04.29.22.64.3 1 .25 1.12-.18 2.18-1.74 2.68-2.49l.08-.12a18.7 18.7 0 0 0 2.2-5.05c.21-.69.36-1.37.52-2.04l.2-.84.16-.6c.19-.72.39-1.46.4-2.27.02-1.58-.15-3.19-.32-4.57l-.08-.9c-.08-.96-.16-1.96-.52-2.84a8.37 8.37 0 0 0-2.57-3.31 2.65 2.65 0 0 1-.83-.82 1.77 1.77 0 0 0-.24-.3l-.03-.04c.37.1.7.2 1.02.32 1.35.52 2.28 1.7 3.18 2.86 1.24 1.6 2.54 3.26 4.97 3.38l.46.03c.38.02.77.05 1.17.03h.35c.95.02 1.78 0 2.15-.48.43-.56.07-1.32-.2-1.86l-.1-.22c-.2-.5-.49-.97-.76-1.43-.29-.49-.57-.94-.74-1.43-.85-2.35-1.23-4.44-1.1-6.05.12-1.52.16-2.86.12-4.14-.03-1.06-.29-1.52-.87-2.34a8.19 8.19 0 0 1-1.34-2.6 8.71 8.71 0 0 1-.18-1.75c-.03-.58-.05-1.17-.18-1.77A20.3 20.3 0 0 0 112 70.1a16.9 16.9 0 0 0-2.83-3.18l.2-.01.72-.07.36-.04c.8-.08 1.51.13 2.32.37.46.14.93.28 1.46.36.58.1 1.16.16 1.7.2 1.22.1 2.17-.85 2.8-1.49.32-.32.54-.66.72-.97.1-.17.2-.35.33-.51.09-.13.2-.24.31-.35.15-.15.31-.3.45-.52.41-.62.88-1.23 1.48-1.45.24-.09.56-.1.9-.14.25-.02.5-.04.76-.09a12.47 12.47 0 0 1 2.64-.3c.83 0 1.7-.01 2.47-.36 2.18-1 2.9-3.68 3.47-5.84l.22-.81c.2-.66.37-1.37.55-2.08.5-1.97 1.02-4 1.93-5.72.64-1.18 1.75-1.9 2.93-2.65a9.72 9.72 0 0 0 2.95-2.5c.75-1.18.07-2.54-.25-3.07Zm-24.63 27.92a20.3 20.3 0 0 1-1.62-.2c-.47-.07-.93-.22-1.37-.35-.7-.2-1.4-.42-2.2-.42l-.46.02-.36.04-.68.07c-.43.03-.8.03-1.14.01a26.3 26.3 0 0 0-3.57-2.61c-1.45-.89-2.7-1.5-3.95-1.94l-.57-.21a14.77 14.77 0 0 0-1.67-.54c-.4-.09-.8-.12-1.2-.16-.31-.03-.65-.06-.99-.12-.4-.08-.8-.19-1.27-.33-.5-.14-1-.3-1.51-.37-.66-.35-1.37-.57-2-.78-.4-.12-.79-.25-1.18-.41-1.12-.44-2.13-1-3.22-1.6l-.2-.11c-.36-.2-.71-.37-1.02-.51l-.22-.2a7.24 7.24 0 0 1-1.3-1.83l-.25-.45a7.02 7.02 0 0 0-1.83-1.99l-.07-.41c-.17-.84-.39-1.67-.6-2.47-.15-.52-.29-1.03-.41-1.55l-.12-.52a4.56 4.56 0 0 0-.23-1.85c.02-.24.06-.48.13-.73 1.17-4.46 5.2-8.63 9.56-9.93.62-.18 1.28-.3 1.94-.44 1.17-.23 2.38-.46 3.46-1.02.92-.48 1.54-.91 2.26-1.8.54-.7 1.37-1.7 2.35-2.4a9.24 9.24 0 0 1 4.95-1.93 6.1 6.1 0 0 1 3.12.56c.52.26.96.58 1.46.93l.6.42a4.73 4.73 0 0 0 3.8.78c.38-.06.74-.16 1.15-.25.86-.19 1.66-.37 2.56-.34 1.2.04 2.93.32 4.2 1.04 1.38.76 2.48 1.97 3.54 3.15.54.59 1.09 1.2 1.7 1.77l.11.1c.58.54 1.16 1.1 1.8 1.6l.58.48c.56.48 1.14.97 1.86 1.3 1.1.5 2.24.26 3.26.03.8-.19 1.62-.37 2.4-.19 1 .25 1.8.44 2.3 1.23.22.38.72 1.34.22 2.05-.65.95-1.68 1.6-2.68 2.25-1.23.78-2.5 1.6-3.25 2.98-.98 1.82-1.5 3.92-2.01 5.94-.18.71-.35 1.38-.55 2.05l-.23.83c-.52 1.96-1.17 4.4-2.96 5.23-.6.28-1.37.28-2.1.3-.34 0-.68 0-1.01.02-.55.05-1.1.14-1.8.29-.2.04-.4.05-.65.07a3.8 3.8 0 0 0-1.14.19c-.85.3-1.42 1.04-1.92 1.8-.1.14-.22.26-.34.39a4.4 4.4 0 0 0-.79 1.04c-.18.29-.34.56-.58.8-.66.62-1.34 1.24-2.1 1.2Zm-2.53 9.8c.11.53.13 1.09.16 1.64.03.63.06 1.28.21 1.9.28 1.1.94 2.13 1.48 2.92.52.72.69 1.02.7 1.85.05 1.25 0 2.56-.1 4.04-.14 1.76.24 3.92 1.14 6.43.21.58.53 1.1.84 1.6.25.42.52.85.7 1.3.02.09.07.19.13.3.23.5.33.8.28.87-.06.06-.3.16-1.4.13h-.4a13.06 13.06 0 0 1-1.55-.06c-2.02-.1-3.12-1.52-4.3-3.02-.98-1.26-2-2.56-3.58-3.15-.28-.1-.55-.2-.83-.27-.83-.24-1.65-.38-2.47-.52l-.17-.03-.58-.1a7.13 7.13 0 0 0-1.52-.09c-.45.01-.9.06-1.33.1l-.07.01c-.46.04-.93.1-1.4.1-.25.01-.49.05-.72.1-.28.03-.54.08-.78.05l-.49-.07c-.34-.05-.7-.1-1.07-.13a7.79 7.79 0 0 1-1.88-.4l-.4-.12-.51-.14a7.18 7.18 0 0 1-4.15-2.78l-.2-.3c-.49-.72-.95-1.4-1.22-2.2-.53-1.52-1.46-2.86-2.36-4.16l-.05-.08a14.1 14.1 0 0 0-.65-2.4c-.41-1.1-.96-2.6-1.75-3.6-.46-.61-.86-1.29-1.25-1.93l-.32-.52c-.2-.32-.39-.65-.62-1l-.31-.5c-.32-.94-.26-1.98-.2-2.98.14-1.69.43-3.6.87-5.5.57-2.5.98-4.63 1.12-6.88.03-.47.05-.95.05-1.43.74.46 1.52.85 2.3 1.23l.45.21c.8.69 1.78 1.3 2.67 1.85 1.06.67 2.36 1.2 3.65 1.5.36.08.7.12 1.04.16l.5.06 1.46.72a72.8 72.8 0 0 1 3.3 1.74c1.07.6 2.17 1.22 3.35 1.68.62.23 1.24.44 1.86.65.68.22 1.37.46 2.04.72l.16.06a10.1 10.1 0 0 0 2.48.74l.2.19c1.14 1.04 2.42 2.22 3.24 3.5 1.2 1.85 1.88 4.3 2.25 6.01Zm-3.37 30.03a8.38 8.38 0 0 1-.38 2.08l-.15.58-.18.77-.02.1c-.15.64-.3 1.31-.5 1.96-.5 1.66-1.11 3.4-2.09 4.81l-.09.13c-.33.5-1.33 1.97-2.06 2.1a.36.36 0 0 1-.3-.09c-.17-.13-.17-.46-.18-.8a4 4 0 0 0-1-2.54l-.33-.44-.04-.05c-.47-.62-.92-1.2-1.25-1.95-.29-.68-.6-1.37-.92-2.04l-.06-.12-.38-.82a32.6 32.6 0 0 0-1.94-3.49 65.26 65.26 0 0 1-1.99-3.49l-.66-1.22a57.3 57.3 0 0 0-2.33-3.81l-.24-.4c-.3-.51-.62-1.1-1.07-1.36-.55-.35-.94-.26-1.18-.13-.35.2-.53.62-.53 1.17.02 1.83.42 3.84 1.18 5.81a23.9 23.9 0 0 0 3.84 6.78c.88 1.05 1.97 1.82 3.03 2.58.59.42 1.25.9 1.85 1.4l.38.33c1.28 1.08 2.6 2.2 2.63 3.86.01.47-.04.75-.17.88-.1.1-.28.15-.55.15h-.01c-.54 0-.8-.3-1.22-.84-.1-.13-.2-.27-.32-.4l-.34-.4a9.19 9.19 0 0 0-2.27-2.14 31.57 31.57 0 0 1-2.67-1.79l-.08-.06c-.43-.3-.87-.62-1.32-.92-.51-.34-1.02-.69-1.55-1.02-.98-.64-2-1.3-2.95-2.04-.44-.34-.89-.64-1.34-.95-.61-.4-1.25-.83-1.8-1.34a9.58 9.58 0 0 1-2.05-2.72c-.24-.48-.4-1.01-.57-1.54a7.55 7.55 0 0 0-1.12-2.46 23.1 23.1 0 0 0 2.03-4.37 22.73 22.73 0 0 0 1.24-8.88l-.1-1.26c-.03-.66-.07-1.29-.13-1.91.54.85.96 1.65 1.25 2.48.31.9.83 1.65 1.32 2.4l.2.3A7.94 7.94 0 0 0 91.51 92c.56.33 1.17.48 1.77.64l.47.13.42.12c.63.2 1.34.4 2.09.45.33.02.64.07.97.12h.07l.44.08c.38.04.74-.01 1.06-.07.21-.03.4-.07.58-.07.49-.01.97-.06 1.43-.1l.07-.01c.43-.04.88-.1 1.3-.1.51-.02.93 0 1.33.08l.68.12h.08l1.06.2c0 .4.24.67.4.87.07.06.12.13.17.2.33.5.63.77 1.06 1.07.85.6 1.85 1.87 2.24 2.89.3.76.37 1.69.45 2.6.03.31.05.63.1.92.17 1.39.34 2.96.32 4.47Zm-9.55 6.67a31.4 31.4 0 0 0-1.74-1.3 15 15 0 0 1-2.85-2.42c-1.8-2.11-3-4.7-3.68-6.5a16.2 16.2 0 0 1-1.11-5.5.8.8 0 0 1 .06-.35h.07l.19.1c.25.15.53.65.75 1.05l.26.44a58.16 58.16 0 0 1 2.96 4.98c.63 1.16 1.29 2.38 2 3.53a30.83 30.83 0 0 1 2.33 4.33c.26.52.52 1.08.76 1.64Zm-19.3-11.65-.31.54c-.38.65-.8 1.27-1.2 1.88-.66 1-1.35 2.04-1.88 3.18a3.22 3.22 0 0 1-1.08 1.42c-.2.13-.44.22-.7.3-.25.09-.5.18-.75.32-.33.18-.6.41-.87.61-.22.18-.45.36-.68.5-1 .6-2.21 1.28-3.52 1.66-1.26.37-2.58.48-3.85.59-1.26.1-2.57.22-3.85.57-1.73.47-4.44-.68-6.23-1.46l-.24-.1c-.92-.4-1.86-.68-2.79-.97-1.43-.45-2.9-.91-4.18-1.71-1.3-.83-2.39-1.8-3.2-2.9-.58-.77-.64-1.95-.18-3.26.37.32.75.64 1.19.9.53.33 1.1.48 1.6.61.29.08.6.16.91.27 1.18.45 2.24 1.2 3.3 1.95.4.27.78.56 1.19.8 1.74 1.15 3.54 1.84 5.44 2.56l.2.08.6.23.1.04c1.38.56 3.09 1.26 4.43 1.03.72-.12 2.08-.63 2.08-1.67 0-.44-.33-.96-.63-1.4a3.37 3.37 0 0 1-.28-.48 23.51 23.51 0 0 1-1.3-3.88c-.5-1.84-.8-3.56-.9-5.12l-.01-.25c-.03-.6-.07-1.35-.62-1.91l-.2-.2c-.05-.07-.13-.1-.2-.08a.28.28 0 0 0-.2.12l-.23.43c-.25.45-.47.84-.8 1.28l-.1.16c-.5.68-.75 1.01-1.5 1.37-1.07.52-2.48.4-3.72.31l-.32-.02c-1.02-.08-2.04-.38-3.02-.67-1.03-.31-2.1-.63-3.2-.7a3.33 3.33 0 0 0-2.95 1.15c-.42.45-.83 1-1.16 1.6l-.35-.28a6.26 6.26 0 0 1-1.56-1.53c-1.2-1.9-.75-4.17-.32-6.37.1-.47.19-.9.26-1.35.35-2.12 1.2-3.91 2.82-6l.11-.14c.5-.63 1-1.3.98-1.87-.01-.55-.45-1.06-.86-1.53-.16-.19-.33-.39-.4-.52a4.9 4.9 0 0 1-.03-4.36c1.24-2.26 3.52-3.07 5.93-3.94 1.06-.38 2.15-.76 3.14-1.28 4.13-2.15 7.41-5.64 10.6-9.01l1.48-1.56.5-.52c1.43-1.48 2.93-3.03 3.93-4.87.17-.31.45-.96.58-1.61.58.24 1.28.4 1.72.46.35.05.7.03 1.05.01.23 0 .43-.03.63-.02l.65.05.4.04.25.4c.16.22.3.46.4.7.23.53.36 1.24.43 1.62.15.92-.02 1.58-.26 2.5l-.1.4c-.11.45-.1.79-.07 1.16a5.7 5.7 0 0 1-.06 1.3 13.2 13.2 0 0 0 .58 5.7 21.45 21.45 0 0 0 1.97 3.79l.06.16c.26.68.63 1.33.99 1.97.27.49.55.98.76 1.47.23.52.42 1.08.62 1.62.25.73.5 1.49.88 2.21.44.87 1 1.7 1.58 2.55.2 1.18.28 2.4.37 3.68l.1 1.25c.2 2.66-.17 5.3-1.2 8.53-.63 1.9-1.7 3.73-2.75 5.51Zm-35.13.28c.31-.6.7-1.15 1.1-1.58.7-.72 1.26-.94 2.23-.88 1 .06 1.97.35 3 .67 1.03.3 2.09.63 3.22.71l.32.02c1.35.1 2.9.22 4.2-.4.94-.44 1.29-.93 1.82-1.65l.11-.15c.21-.28.37-.55.53-.82.05.21.06.44.07.68v.26c.12 1.62.43 3.4.93 5.29.35 1.3.75 2.7 1.37 4.02.07.16.19.34.35.6.15.24.48.74.48.9 0 .28-.65.66-1.32.77-1.1.18-2.73-.48-3.95-.97l-.7-.28-.2-.08a26.23 26.23 0 0 1-5.27-2.47l-1.18-.81a16.46 16.46 0 0 0-3.48-2.04c-.2-.08-.41-.14-.61-.2a5.35 5.35 0 0 0-.38-.1c-.5-.14-.96-.27-1.38-.5-.44-.27-.86-.64-1.26-1ZM30.4 88.44l-1.12-.17-.07-.01a37.13 37.13 0 0 1-4.53-.9c-.99-.28-1.86-.54-2.73-.96-.66-.32-1.21-.76-1.86-1.25-.19-.14-.37-.3-.56-.43l-.07-.05c-1.1-.8-2.04-1.5-2.84-2.57a36.74 36.74 0 0 1-1.83-2.62 6.5 6.5 0 0 0-1.53-1.52c-.25-.2-.48-.37-.69-.56-.1-.1-.23-.2-.38-.32-.21-.18-.43-.34-.56-.52-.44-.58-.2-1.68-.04-2.4.39-1.84 1.9-2.84 3.49-3.9 1.2-.8 2.46-1.64 3.23-2.89a8.63 8.63 0 0 1 2.22-2.35c1.58.39 3.2.62 4.63.82l.28.04c3.35.47 6.5.64 9.35.48.15 0 .33 0 .53-.02 1.1-.02 2.6-.05 3.35-.9.33-.38.47-.88.41-1.47a3.28 3.28 0 0 0-2.55-2.89 6.67 6.67 0 0 0-2.05 0l-.95.08c-.43.02-.87.04-1.3.14-.28.06-.56.1-.83.17l-.2.04c-.53.1-1.05.2-1.57.32-.43.1-.86.24-1.28.38-.45.15-.91.3-1.38.4l-1.37.23c-.91.17-1.86.33-2.77.52l-.57.1c-.55.09-1.11.18-1.61.42-.1.04-.2.1-.28.15a12.3 12.3 0 0 1-3.2-1.27l-.28-.17c-1.64-.96-3.33-1.97-4.49-3.49a16.32 16.32 0 0 1-1.94-3.67l-.53-1.2c-.4-.87-.82-1.76-1.05-2.69-.34-1.39-.64-2.83-.92-4.22l-.02-.11-.5-2.39-.09-.38c-.43-1.96-.96-4.4-2.15-6.07-.23-.34-.47-.66-.72-1a33.1 33.1 0 0 1-2.05-3.02c-.8-1.4-1.48-3.28-.17-4.34.82-.65 1.96-.64 3.07-.62h.4c.47 0 .96.06 1.45.12.27.03.55.07.83.09a4.7 4.7 0 0 0 2.81-.64 6.53 6.53 0 0 0 2.55-2A79.64 79.64 0 0 1 16 23.8c1.08-1.2 2.94-2.44 4.9-2.38.58.02 1.17.1 1.83.25.19.14.36.25.53.33a9.7 9.7 0 0 0 2.45.73l.64.14c2.01.46 3.9.74 5.6.83l.11.01c.1 0 .16-.03.21-.1l.06-.09c.59-.77-.18-1.63-.71-2.17 2.2-.6 4.76-.54 8.03.13 1.7.35 3.68 1.25 5.9 2.67 1.13.72 2.76 2.09 3.67 3.4a23.59 23.59 0 0 1 2.2 4.28c.67 1.6 1.52 3.14 2.35 4.63l.28.48c1.3 2.35 2.84 5.15 4.3 8.08a12.58 12.58 0 0 0 2.65 3.55c.26.25.54.4.82.57.16.09.31.17.45.27.16.1.3.26.47.41.18.18.39.4.64.55l.15.1-.74-.09a27.05 27.05 0 0 1-5.68-1.1c-.92-.31-1.57-.99-2.25-1.7l-.3-.31c-.79-.8-1.12-1.92-1.44-3.01l-.03-.1a3.95 3.95 0 0 0-.96-1.9c-.17-.3-.35-.59-.57-.87-.23-.29-.5-.58-.75-.86-.23-.26-.48-.47-.76-.72s-.55-.48-.78-.76c-.16-.2-.33-.37-.53-.57-.55-.55-.97-.98-.87-1.66.04-.24.28-.65.5-1.02.46-.75.93-1.54.56-2.22l-.03-.07a.3.3 0 0 0-.13-.12l-.07-.03c-1.42-.57-3.82.06-4.86.95a17.24 17.24 0 0 0-3.46 4.32l-.54.92a21.74 21.74 0 0 1-2.1 3.16c-.3.35-.62.7-.96 1.07-.89.93-1.8 1.9-2.32 3.17-.45 1.08-.7 2.2-.95 3.28l-.25 1.08a7.89 7.89 0 0 0 .94 5.9 8.47 8.47 0 0 0 3.38 3.57c1.32.76 2.44 1.35 3.52 1.86.93.45 1.61.87 2.1 1.62.38.57.56 1.28.74 1.97l.23.86c.76 2.5 2.65 3.97 5.58 4.38 1.2.17 2.08.14 3.23-.5a22.6 22.6 0 0 0 4.03-2.9l.38-.32.06-.05c.77-.63 1.75-1.44 1.75-2.51 0-.8-.72-1.09-1.22-1.29l-.25-.11c-.74-.35-1.54-.54-2.36-.75-.25-.06-.5-.12-.74-.2-.53-.14-1.04-.36-1.6-.6l-.7-.29c-2-.8-3.5-1.9-4.85-3.56-1.92-2.35-2.99-4.37-3.27-6.17a7.27 7.27 0 0 1 .11-3.11c.2-.69.57-1.22.99-1.8.16-.22.32-.46.47-.7.16-.25.37-.5.57-.74.26-.31.54-.63.74-1a12.43 12.43 0 0 0 .81-1.84l.18-.51c.2-.61.23-.63.52-.58.68.1 1.45.36 2.13.59l.25.08c.16.05.3.12.41.21a21.85 21.85 0 0 1 .7 2.02c.02.06.06.12.12.15s.12.04.18.02a6.7 6.7 0 0 0 1.5 2.86l.3.31c.76.8 1.48 1.54 2.6 1.93 1.93.68 3.93.92 5.87 1.15 1.2.14 2.54.3 3.8.58.44.14.87.25 1.24.31l.74.19c.74.17 1.75.39 2.37.77.07.27.2.63.52.92-.04.53-.29 1.23-.53 1.67-.93 1.73-2.38 3.23-3.78 4.68l-.5.51-1.48 1.57c-3.14 3.32-6.38 6.75-10.36 8.83-.95.5-2 .88-3.03 1.24-2.46.88-5.02 1.8-6.42 4.35a5.87 5.87 0 0 0 .02 5.23c.12.23.32.47.53.7.26.31.61.73.62.96.01.3-.58 1.04-.78 1.28l-.11.14a13.68 13.68 0 0 0-3 6.42l-.26 1.33-.18.94-.11-.03c-.98-.28-1.68-.48-2.33-1.24l-.47-.54c-.5-.57-.98-1.12-1.4-1.75-1.1-1.72-3.14-1.81-5.01-1.81h-.32c-.74.02-1.44.03-2.05-.07Zm-5.12-23.5c-1.01-.14-2.12-.3-3.24-.53l.34-.06h.02l.61-.1c.9-.2 1.82-.36 2.76-.52l.2-.03 1.16-.2c.55-.1 1.06-.27 1.53-.43.38-.13.78-.27 1.17-.35l1.58-.32 1-.2c.38-.08.76-.1 1.2-.12.32-.02.66-.04 1-.09.6-.1 1.26-.1 1.77 0l.17.04c.84.24 1.53 1.1 1.63 2.04.04.33-.02.59-.2.77-.48.55-1.8.57-2.68.59-.21 0-.4 0-.56.02a47.9 47.9 0 0 1-9.17-.47l-.29-.04ZM16.65 6.78l.46.02c.86.03 1.67-.1 2.43-.21a5.91 5.91 0 0 1 2.78-.02c.25.05.51.09.76.12.56.07 1.14.26 1.7.43.33.11.67.21 1.02.3 1.52.4 3.12-.23 4.56-.78.53-.2 1-.39 1.47-.52a8.63 8.63 0 0 1 6.33.59c.98.56 1.82 1.46 2.63 2.32l.67.7c.23.24.45.5.67.78.33.41.68.84 1.12 1.2.8.67 1.55.89 2.43 1.15.42.13.84.18 1.29.23l.33.04a8.4 8.4 0 0 0 .51 5.6c.33.82.65 1.58.62 2.42 0 .34-.14.7-.28 1.05-.08.2-.16.43-.22.66-.32-.31-.65-.6-.98-.89a17.34 17.34 0 0 1-1.45-1.37c-.45-.46-.92-.95-1.48-1.34a60.02 60.02 0 0 0-3.48-2.18c-.6-.36-1.2-.76-1.78-1.14-.58-.38-1.24-.83-1.9-1.2-.77-.46-1.63-.78-2.45-1.1-.33-.11-.65-.24-.95-.36a30.38 30.38 0 0 1-6.11-3.27c-.77-.5-1.55-1-2.36-1.46l-.41-.22c-.2-.11-.41-.22-.6-.34-.1-.06-.18-.14-.29-.23-.2-.19-.45-.4-.77-.5a.26.26 0 0 0-.2.02.23.23 0 0 0-.11.15l-.12.4a.26.26 0 0 0 .02.18c.03.06.08.1.15.13.13.04.28.17.44.3.12.12.25.23.4.32.21.14.45.26.72.4l.33.18c.78.45 1.57.95 2.32 1.44l.07.04c.78.5 1.58 1.02 2.4 1.48a33.07 33.07 0 0 0 4.77 2.2 14.62 14.62 0 0 1 4.2 2.2c.6.39 1.18.79 1.8 1.15 1.1.64 2.34 1.38 3.43 2.14.49.34.9.78 1.36 1.25.26.25.5.52.78.76l.71.64c.4.34.83.73 1.23 1.12l.22.22v.47l.02.23a17 17 0 0 0-1.76-1.34c-2.32-1.48-4.41-2.42-6.2-2.78a24.38 24.38 0 0 0-4.88-.57c-1.49 0-2.82.2-4.05.59-1.4-1.5-2.86-2.86-5.27-3.55l-3.5-.99-1.34-.37-.36-.1c-.3-.06-.59-.12-.8-.26-.2-.14-.35-.35-.53-.59-.22-.3-.47-.64-.88-.86-.04-.02-.06-.03-.12-.03a13.7 13.7 0 0 0-.63-1.95 6.32 6.32 0 0 0-1.62-2.09 11.6 11.6 0 0 0-1.6-1.18c-.29-.18-.56-.36-.84-.57-.1-.07-.28-.17-.52-.29-.63-.34-.97-.56-1.15-.7.49-.22 1.16-.27 1.72-.3l.18-.01c.94-.04 1.96 0 2.94.04Zm35 3.84.01-.01c.64-.26 1.28-.52 1.9-.88a5.73 5.73 0 0 0 2.2-2.35c.22-.44.48-.76.77-1.12.24-.29.45-.6.66-.91.22-.31.4-.61.64-.88 1.42-1.61 4.54-3.7 6.88-2.42.59.32.87.61 1.05 1.12.4 1.08.82 2.14 1.65 3.12.99 1.17 2.4 1.56 3.8 1.95l.36.1c1.32.37 2.57.72 3.82 1.4a6.52 6.52 0 0 1 3.49 5.82c-.02.51-.15.98-.3 1.5-.2.77-.44 1.57-.26 2.53.11.6.37 1 .62 1.4l.28.48c.06.12.1.26.14.41l.15.46c.13.29.3.55.46.79.11.17.22.34.31.51.6 1.22 1 2.32 1.24 3.45.05.26.14.5.22.74.13.36.24.67.21 1.02-.02.31-.12.62-.22.94-.17 0-.35.05-.53.13-1.12.51-1.79 1.56-2.38 2.48l-.05.08-.3.45c-.18.26-.37.3-.68.38-.36.08-.8.18-1.2.66-.33.4-.64.84-.92 1.22l-.33.45-.23.32c-.16.22-.3.42-.46.59-.14.14-.26.18-.47.26-.11.04-.23.09-.36.16-.67.33-1.09.95-1.46 1.52l-.37.53c-1.04 1.34-.97 2.9-.9 4.42.01.59.04 1.18 0 1.74a19.05 19.05 0 0 1-.52 3.38 5.4 5.4 0 0 0 0 2.94l-.26-.1a.24.24 0 0 0-.32.14c-.04.02-.15.03-.55-.04a2.1 2.1 0 0 0-.4-.05 7.73 7.73 0 0 1-1.15-.13l-.1-.03c-.35-.1-.7-.2-1.03-.26-.98-.31-1.94-.79-2.87-1.39a3.23 3.23 0 0 1-.5-.43c-.16-.16-.34-.35-.56-.52a4.89 4.89 0 0 0-.55-.33 3.02 3.02 0 0 1-.63-.42c-1.05-1-1.85-2.07-2.45-3.3-1.47-2.97-3.01-5.77-4.33-8.12l-.27-.5c-.82-1.46-1.66-2.95-2.32-4.53a23.84 23.84 0 0 0-2.29-4.45c-.28-.4-.64-.83-1.06-1.28v-.04a1.2 1.2 0 0 0-.03-.63c.92.9 1.8 1.86 2.35 2.97l.4.85c.26.56.53 1.13.84 1.68l.12.22c.22.43.47.9.9 1.19l.1.07c.08.05.17.06.27.02l.1-.06c.64-.32.65-1.25.65-2 0-.17 0-.33.02-.44.06-.45.22-.92.38-1.37a5.37 5.37 0 0 0 .31-3.19l-.04-.27c-.05-.38-.07-.78-.09-1.16-.03-.62-.06-1.25-.23-1.89l-.14-.6c-.09-.4-.18-.8-.36-1.23l-.24-.53a9.41 9.41 0 0 1-.49-1.16 8.73 8.73 0 0 0-1.37-2.83 9.78 9.78 0 0 0-3.7-2.84c.65-.96 1.78-1.42 2.96-1.9Zm33.42 12.45c-.08.31-.19.62-.3.97-.25.73-.51 1.48-.5 2.29.02 1.5.95 2.71 1.79 3.79l.15.2c.24.3.5.57.76.85.42.44.83.85 1.05 1.38.19.46.26 1.28.07 1.5-.01.02-.05.06-.23.02l-.15-.04a.26.26 0 0 0-.28.13l-.17.3a.26.26 0 0 0-.02.2l.03.06a16.41 16.41 0 0 0-7.05 8.48 4.1 4.1 0 0 1 .11-1.67c.36-1.34.7-2.65 1.14-3.85.14-.39.3-.77.46-1.18.59-1.45 1.2-2.95 1.23-4.56.02-.6-.14-1.4-.6-1.85l.02-.05c.1-.36.23-.75.26-1.16.04-.53-.12-.98-.26-1.39l-.2-.6a15.09 15.09 0 0 0-1.3-3.68c-.11-.23-.25-.43-.38-.63a4.16 4.16 0 0 1-.38-.64c-.05-.1-.08-.22-.1-.34a2.85 2.85 0 0 0-.22-.57c-.1-.2-.22-.38-.32-.56-.22-.36-.4-.64-.48-1.06-.14-.75.05-1.4.24-2.11.15-.54.3-1.09.33-1.71a6.6 6.6 0 0 0-.28-2.16c.6.52 1.08 1.06 1.55 1.74a54.8 54.8 0 0 1 3.04 4.73c.34.6 1.23 2.22 1 3.17Zm-6.86 38.75c-.02-.33-.04-.57.04-.89l.1-.39c.25-.93.46-1.75.28-2.86a9.58 9.58 0 0 0-.48-1.82c-.12-.3-.28-.55-.43-.79.18-.04.35-.09.5-.14.17-.05.33-.11.5-.13.14-.02.26-.02.39-.02.34-.01.72 0 1.12-.26l.05-.04.67.26c.21.08.42.15.62.25.01.63 0 1.28-.04 1.92a40.33 40.33 0 0 1-1.1 6.72 39.85 39.85 0 0 0-.88 5.65c-.02.33-.05.7-.06 1.07-.33-.64-.6-1.21-.81-1.8a12.43 12.43 0 0 1-.53-5.25 6.04 6.04 0 0 0 .06-1.48Zm-6.24-18.44c-.06-1.41-.11-2.75.71-3.82.15-.19.28-.39.42-.6.33-.47.65-.97 1.09-1.19l.31-.13c.24-.09.48-.18.77-.45.23-.22.4-.5.59-.76l.18-.26.36-.49c.28-.38.58-.78.87-1.14.2-.24.4-.28.7-.35.36-.08.86-.19 1.24-.75l.36-.54c.55-.86 1.13-1.75 2-2.15.2-.1.28-.04.31-.02.23.14.39.7.38 1.22-.04 1.44-.6 2.86-1.17 4.23l-.47 1.21a39.16 39.16 0 0 0-1.17 3.93c-.23.9-.23 1.76 0 2.66.08.3.18.6.27.88l.1.27c-.03.64.08 1.2.22 1.8-.08.69-.3 1.25-.72 1.75l-.08-.09c-.3-.34-.62-.52-.98-.53-.38.01-.72.17-1.05.51a4.2 4.2 0 0 0-1.29 2.36l-.01.05h-.04c.16-.76.34-1.52.52-2.27l-.24-.06h.26c.27-1.13.57-2.32.76-3.5.26-1.56.44-3.62-.18-4.47-.18-.25-.44-.4-.72-.44l-.06-.01a.25.25 0 0 0-.15.02l-.06.03c-.74.38-.96 1.43-1.14 2.29l-.12.52c-.45 1.57-.76 3.11-1.04 4.56l-.08.4c-.23 1.03-.63 2.76.22 3.5.2.18.5.3.88.36-.32 1.41-.28 1.97.13 2.23h.03c-.29.02-.56.04-.8 0a6.71 6.71 0 0 1-1.81-.55c-.04-.2-.11-.4-.21-.56-.1-.14-.22-.28-.37-.41l-.04-.32c-.03-.24-.06-.5-.12-.76a4.84 4.84 0 0 1-.08-2.74c.26-.91.43-2.04.55-3.55.02-.63 0-1.25-.03-1.87Zm5.91 5.8c.13-.13.26-.21.4-.21h.01c.05 0 .14.06.26.2.05.04.09.09.12.15-.44.38-1.08.94-1.73 1.3.17-.55.45-.91.94-1.43Zm1.28 4.5.19.2h-.23c-.16 0-.33 0-.51.02l-.3.06c.28-.1.55-.2.85-.29ZM74.93 51c-.34-.03-.46-.12-.49-.15-.44-.4-.08-1.96.08-2.69l.08-.36c.27-1.43.59-2.95 1.03-4.48.05-.16.09-.38.14-.6.1-.5.24-1.2.5-1.52.24.34.4 1.54.02 3.77-.19 1.15-.47 2.3-.74 3.45-.18.76-.38 1.6-.56 2.44-.03.02-.04.07-.06.14ZM76 53.19c-.13-.01-.26-.02-.4-.01-.06 0-.11.02-.17.04 0-.21.07-.6.23-1.3.06 0 .13 0 .2-.02-.01.4.04.83.14 1.29Zm-.37.92.02-.01c.19-.01.38.02.6.06-.2-.02-.4-.04-.6-.04h-.03v-.01Zm3.29-3.79-.01.42c-.01.2-.05.42-.1.67-.1.44-.2.94-.06 1.45-.27.08-.55.17-.83.3l-.23.11c-.18.1-.26.13-.47.13-.08 0-.15 0-.23-.02a5.52 5.52 0 0 1-.23-1.68c.77-.27 1.5-.82 2.16-1.38Zm2.32 3.56a3.81 3.81 0 0 1-1.15-.56 4.23 4.23 0 0 0 1.22-.97.2.2 0 0 1 .06.02c.08.52.13 1.06.17 1.61l-.3-.1ZM80.75 52l-.2-.17-.14.15c-.28.25-.53.44-.8.57-.05-.29.01-.6.1-.97.04-.24.1-.52.11-.8.02-.32.02-.76-.08-1.2.3-.3.55-.63.75-.98l.15.57c.2.74.4 1.52.56 2.29-.27.03-.46.2-.63.37l.18.17Zm-53.7-41.38Zm4.55 12.14c-.92-.06-1.91-.2-2.97-.37.49-.16.95-.34 1.39-.5l.62-.24.01.01.22.22.2-.16-.18.18c.19.18.59.59.7.86Zm11.7 29.62c.3 1.96 1.43 4.1 3.45 6.6a12.23 12.23 0 0 0 5.21 3.81l.57.24.14.06c.53.23 1.08.46 1.7.63l.81.21c.73.18 1.48.36 2.13.67.1.06.22.1.35.16.48.2.61.29.61.43 0 .65-.78 1.3-1.42 1.8l-.46.4a22.02 22.02 0 0 1-3.87 2.77c-.94.52-1.57.55-2.66.4-2.6-.36-4.17-1.58-4.83-3.74-.09-.26-.16-.53-.23-.82a7 7 0 0 0-.85-2.25 5.56 5.56 0 0 0-2.47-1.93 53.12 53.12 0 0 1-3.46-1.83 7.74 7.74 0 0 1-3.04-3.24 7.02 7.02 0 0 1-.86-5.22c.1-.36.17-.72.27-1.09.24-1.04.49-2.13.9-3.12a9.6 9.6 0 0 1 2.14-2.9c.33-.35.69-.72 1-1.1a22.2 22.2 0 0 0 2.19-3.28l.53-.92a16.3 16.3 0 0 1 3.27-4.1c.6-.5 1.92-.94 3-.94.26 0 .5.02.72.08-.02.3-.34.83-.56 1.2-.28.47-.55.91-.61 1.35-.17 1.13.5 1.82 1.11 2.43l.49.51c.28.35.6.63.9.89.23.21.45.4.66.62l.34.37c-.57-.18-1.17-.35-1.72-.44-1.11-.17-1.37.7-1.54 1.25-.04.13-.08.26-.14.4-.06.14-.12.3-.2.45-.18.45-.37.9-.58 1.3-.17.3-.4.57-.66.88-.21.25-.43.52-.62.8l-.47.66c-.45.64-.88 1.24-1.11 2.08a8.09 8.09 0 0 0-.13 3.47Zm39.08.77a7 7 0 0 1 1.11 1.55l.32.55a14.5 14.5 0 0 1-1.26-.75l-.08-.05c-.02-.44-.05-.88-.1-1.3Zm15.84 9.28.06-.25-1.13-.62a10.6 10.6 0 0 0-.34-.18l.27.03c.36.04.73.07 1.08.15.52.1 1.04.3 1.54.5l.1.03.49.18c1.18.42 2.4 1.02 3.78 1.86.66.4 1.32.85 1.93 1.3l-.4-.16-.16-.06c-.7-.28-1.44-.52-2.08-.75-.6-.2-1.22-.4-1.83-.64-1.11-.42-2.17-1.03-3.2-1.6l-.11.21ZM48.2 13.33l.12.03c1.1.42 2.52 1.51 3.3 2.54.63.81.9 1.58 1.24 2.56.14.43.33.85.52 1.25l.23.51c.15.35.24.7.32 1.08a7.63 7.63 0 0 1 .34 2.31c.02.38.04.83.1 1.25l.04.27c.09.61.18 1.2.04 1.77-.07.3-.2.63-.3.98-.17.49-.36 1-.43 1.54-.02.14-.02.34-.02.56 0 .19 0 .53-.04.8l-.27-.48-.1-.2c-.31-.54-.57-1.12-.81-1.63l-.41-.87c-.74-1.5-1.98-2.69-3.17-3.84l-.16-.15v-.16c.04-.3.16-.61.28-.94.16-.43.32-.86.34-1.35a6.63 6.63 0 0 0-.7-2.8c-.12-.3-.26-.64-.37-.96a7.37 7.37 0 0 1-.22-3.61c.03-.15.08-.31.13-.47Zm-27.88 3.86c-.19-.2-.38-.37-.58-.54-.19-.17-.37-.33-.53-.5.33.2.7.27 1.01.35l.33.08 1.33.38 3.5.98c1.88.53 3.17 1.55 4.58 3l-.28.12c-.86.33-1.75.67-2.59.73a4.66 4.66 0 0 1-1.76-.33l-.5-.16-.16-.04c-.52-.15-1.04-.3-1.55-.42-.62-.52-1.13-1.29-1.58-1.97l-.2.14.2-.14a9.73 9.73 0 0 0-1.22-1.68Zm74.9 97.18ZM121.24 195.68c-.53-.3-.75-.83-1-1.43l-.2-.46a23.15 23.15 0 0 1-1.66-4.8c-.24-1.13-.18-2.16-.12-3.27.04-.6.07-1.22.06-1.86-.02-1.1-.4-2.52-.98-3.81a29.8 29.8 0 0 0-2.03-3.85c-.4-.64-.85-1.14-1.33-1.67l-.66-.75c-.37-.45-.72-.93-1.07-1.42-.44-.6-.93-1.28-1.5-1.9-.74-.8-1.45-1.65-2.15-2.46l-.05-.06c-1.73-2.02-3.5-4.1-5.67-5.78-.85-.67-1.68-1.36-2.5-2.05a85.58 85.58 0 0 0-2.52-2.06 34.73 34.73 0 0 1-3.24-2.92 12.5 12.5 0 0 1-2.64-3.35 19.9 19.9 0 0 1-1.05-3.31c-.14-.54-.27-1.07-.42-1.57-.2-.66-.37-1.36-.53-2.04-.37-1.52-.76-3.1-1.52-4.57-.9-1.73-2.08-3.08-3.23-4.4a75 75 0 0 1-1.06-1.25c-2.34-2.75-4.98-5.87-8.62-6.6-1.61-.33-3.46-.33-5.83 0a23.8 23.8 0 0 1-3.41.16c-.17 0-.33-.06-.52-.12-.25-.08-.53-.19-.87-.17-.46.01-.83.2-1.16.37-.2.1-.41.2-.61.24-.54.09-1.07.09-1.53.09-.76 0-1.53 0-2.41.29a30.4 30.4 0 0 0-8.26 4.18 44.1 44.1 0 0 0-4.07 3.5l-.98.9c-3.32 3.03-4.43 7-5.61 11.2l-.06.22c-.38 1.35-.79 2.72-1.19 4.04a172.4 172.4 0 0 0-2.09 7.46 4 4 0 0 0 .57 3.49c.34.54.66 1.06.92 1.63.29.62.48 1.3.67 1.96.25.85.51 1.74.97 2.54.26.45.57.87.87 1.28.47.62.92 1.2 1.15 1.9.55 1.73.97 3.49 1.44 5.44l.2.9c.32 1.45.58 2.61 1.36 4.02.5.94 1.08 1.89 1.58 2.73.94 1.57 1.92 3.2 2.68 4.9.6 1.32 1.29 2.58 1.97 3.8.53.96 1.08 1.95 1.57 2.95.13.27.28.54.43.82.31.59.64 1.18.82 1.78l.27 1.04c.14.61.29 1.25.57 1.9.33.78.63 1.6.9 2.4.26.72.51 1.44.8 2.17.34.83.83 1.57 1.3 2.27.5.75 1.01 1.54 1.32 2.4.3.9.5 1.86.7 2.8.22 1.1.45 2.24.89 3.33.38.95.91 1.82 1.43 2.67.54.87 1.08 1.75 1.43 2.7.37 1 .4 2.02.41 3.1l.01.3c.02.84.08 1.55.2 2.22.34 2.01 1.13 3.83 1.9 5.6.53 1.23 1.07 2.5 1.46 3.8.46 1.52 1 3.05 1.53 4.56l.05.14.42 1.16c.19.56.46 1.1.73 1.64.15.3.3.6.44.92.2.47.28 1.1.36 1.75l.11.8c.06.33.16.65.24.93.13.47.26.93.25 1.4 0 .35-.11.51-.5.88l-.32.3c-.4.02-.84.1-1.22.2l-.27.05a9.9 9.9 0 0 0-3.56 1.5 7.4 7.4 0 0 1-.22-1.77 23.07 23.07 0 0 0-.27-2.9l-.16-1.23c-.13-1.12-.26-2.28-.76-3.4a4.54 4.54 0 0 0-.2-.4c-.1-.23-.22-.44-.28-.66-.15-.6-.07-1.27.01-1.97a8.1 8.1 0 0 0 .08-1.78c-.06-.6-.14-1.2-.22-1.78v-.08c-.08-.55-.16-1.11-.2-1.67-.09-.82-.26-1.6-.43-2.39-.14-.63-.28-1.29-.36-1.95-.16-1.29-.65-2.38-1.15-3.54a40.7 40.7 0 0 1-.5-1.17c-.2-.47-.37-.94-.57-1.43-.59-1.52-1.2-3.1-1.94-4.57-.76-1.5-1.44-3.08-2.12-4.6a83.03 83.03 0 0 0-4.03-8.17c-.9-1.62-1.83-3.3-2.62-5.01-.74-1.62-1.14-3.41-1.53-5.15a43.9 43.9 0 0 0-.79-3.1c-.86-2.87-1.96-5.71-3.03-8.46l-.04-.1c-1.59-4.1-3.66-8.1-5.65-11.93l-.15-.28-1.46-2.82c-.3-.6-.63-1.18-.92-1.7-.49-.86-.99-1.74-1.38-2.67-.2-.46-.38-.93-.57-1.41-.47-1.18-.96-2.4-1.6-3.52-.55-.94-1.3-1.65-2.04-2.36-.73-.68-1.41-1.32-1.87-2.14-.79-1.45-.9-3.69-1-5.55l-.04-.99c-.12-1.8.2-3.66.51-5.45.13-.77.27-1.58.37-2.37.26-1.97.49-3.98.67-5.7.08-.72.05-1.35.03-2.01v-.12c-.05-1.18.37-2.42.78-3.62.16-.47.33-.96.46-1.44.18-.62.4-1.2.63-1.78l.4-1.07.07-.19c.28-.82.55-1.59.95-2.32.24-.45.55-.88.87-1.31a13.94 13.94 0 0 0 1.44-2.41c.15-.32.31-.65.48-.96.7-1.27 1.54-2.5 2.25-3.52l.9-1.23c.5-.66 1-1.34 1.47-2.08l.08-.13c.6-.93 1.15-1.82 1.8-2.67.48-.6.91-1.25 1.34-1.88l.35-.52.3-.5c.18-.33.41-.75.65-.87a.26.26 0 0 0 .11-.34l-.18-.36a.3.3 0 0 0-.14-.13.25.25 0 0 0-.19 0c-.5.26-.78.78-1.04 1.26l-.26.43-.36.53c-.41.6-.83 1.23-1.29 1.81-.68.89-1.25 1.8-1.86 2.75l-.08.13c-.44.7-.94 1.38-1.42 2.02a39.93 39.93 0 0 0-3.22 4.85c-.2.34-.35.68-.53 1.02-.24.5-.48 1-.79 1.48-.17.26-.36.51-.55.78-.32.43-.66.88-.93 1.4-.43.79-.72 1.63-1 2.45l-.07.19c-.12.35-.26.7-.4 1.05-.23.6-.46 1.2-.64 1.86-.12.44-.28.89-.45 1.4-.44 1.27-.89 2.59-.84 3.94v.1c.03.67.05 1.23-.02 1.89-.19 1.7-.4 3.69-.66 5.69-.1.77-.24 1.57-.37 2.33a23.66 23.66 0 0 0-.47 6.69c.1 1.9.22 4.25 1.1 5.9a9.71 9.71 0 0 0 2.04 2.38c.69.64 1.4 1.31 1.86 2.13a26.29 26.29 0 0 1 1.55 3.42c.2.47.38.94.57 1.42.43.98.93 1.89 1.43 2.76.3.54.62 1.09.9 1.66.53 1.04 1.07 2.06 1.62 3.1 1.98 3.83 4.03 7.78 5.6 11.85l.05.1c1.05 2.73 2.15 5.55 3 8.38.3 1.01.55 2.06.77 3.06.4 1.77.81 3.6 1.6 5.31.8 1.73 1.73 3.43 2.64 5.08.77 1.39 1.56 2.82 2.27 4.27.61 1.27 1.18 2.57 1.74 3.84.67 1.52 1.36 3.1 2.13 4.62.72 1.44 1.33 3 1.92 4.52l.55 1.43c.16.4.33.79.52 1.2.48 1.09.93 2.12 1.08 3.28.1.7.23 1.39.38 2.05.16.74.33 1.5.4 2.26.06.59.14 1.2.22 1.77.08.57.15 1.16.2 1.75.06.5-.01 1.05-.07 1.58-.1.76-.18 1.53 0 2.3.09.32.22.6.36.85l.16.34c.44 1 .56 2.05.68 3.15.06.42.1.85.18 1.27.14.9.22 1.76.26 2.78.02.63.07 1.31.26 1.99.03.09.05.22.06.38l-.24.23c-1.44 1.47-1.05 2.45-.69 2.9l.08.1c.05.07.13.1.2.1h.06l.12-.02c.36-.07.67-.3.9-.7.43-.7.5-1.75.5-2.2a8.82 8.82 0 0 1 2.83-1.46c-.67.41-1.35.88-1.9 1.53-.4.47-.93 1.18-.81 1.84.05.3.22.56.5.74.72.45 1.6-.02 2.11-.3l.14-.09c.32-.17.7-.25 1.08-.33.8-.17 1.72-.37 2.1-1.5l.05-.14c.26-.75.74-2.17-.1-2.83v-.01c.37-.39.64-.76.65-1.4.01-.6-.14-1.15-.29-1.66a7.4 7.4 0 0 1-.21-.85l-.11-.77a7.02 7.02 0 0 0-.43-1.98c-.14-.33-.32-.67-.48-.99-.23-.46-.49-1-.67-1.5l-.46-1.31c-.53-1.48-1.07-3.01-1.51-4.52-.4-1.35-.96-2.64-1.51-3.91a23.75 23.75 0 0 1-1.83-5.38c-.11-.62-.16-1.29-.18-2.08v-.3a9.88 9.88 0 0 0-.46-3.4c-.39-1.04-.96-1.96-1.51-2.87-.5-.8-1.02-1.64-1.37-2.52-.4-1.02-.62-2.12-.85-3.17-.19-.97-.39-1.95-.73-2.92-.34-.96-.88-1.8-1.43-2.61-.44-.68-.9-1.37-1.2-2.12-.29-.7-.55-1.42-.79-2.13-.28-.8-.57-1.63-.91-2.44-.25-.57-.38-1.14-.54-1.8-.08-.33-.16-.68-.27-1.03-.2-.7-.55-1.33-.88-1.96l-.42-.78c-.49-1.02-1.04-2.01-1.6-3.02a53.62 53.62 0 0 1-1.92-3.7 48.55 48.55 0 0 0-2.74-5.03 98.12 98.12 0 0 1-1.56-2.67c-.71-1.3-.95-2.34-1.27-3.78l-.2-.9c-.46-1.98-.9-3.76-1.46-5.51a7.45 7.45 0 0 0-1.28-2.2c-.29-.37-.58-.76-.8-1.16-.41-.72-.64-1.51-.9-2.35-.2-.69-.4-1.4-.72-2.09-.28-.61-.62-1.16-1-1.77a3.07 3.07 0 0 1-.43-2.75c.62-2.48 1.36-4.99 2.09-7.41.39-1.33.8-2.7 1.18-4.06l.06-.23c1.15-4.06 2.24-7.9 5.35-10.77l1-.92a42.98 42.98 0 0 1 3.97-3.41 29.21 29.21 0 0 1 8-4.06c1.32-.42 2.42-.1 3.82-.35.33-.06.61-.2.86-.33.28-.14.5-.25.76-.26.18 0 .35.05.57.12.22.08.48.16.78.17.97.03 2.42 0 3.57-.16 2.25-.32 4-.32 5.5-.02 3.34.67 5.87 3.67 8.11 6.3.36.44.73.86 1.08 1.26a20.73 20.73 0 0 1 3.1 4.22c.7 1.37 1.06 2.82 1.43 4.36.18.68.35 1.39.56 2.1.14.48.27 1 .41 1.54.3 1.18.61 2.4 1.1 3.45.61 1.34 1.64 2.42 2.81 3.61a34.17 34.17 0 0 0 3.34 3c.85.66 1.67 1.36 2.52 2.06.81.68 1.64 1.39 2.5 2.05 2.1 1.62 3.84 3.68 5.54 5.66l.04.05c.7.83 1.43 1.67 2.17 2.48.53.57.99 1.2 1.45 1.85.34.48.7.97 1.1 1.45.2.25.43.49.67.77.45.5.88.98 1.26 1.56.61.95 1.26 2.17 1.97 3.73a9.38 9.38 0 0 1 .83 5.25c-.06 1.12-.13 2.26.15 3.51.34 1.57.88 3.16 1.71 4.99.08.14.13.29.2.44v.02a20.67 20.67 0 0 1-2.78-3.03l-.47-.61c-1.16-1.5-2.15-2.79-4.1-3.58a12.66 12.66 0 0 0-5.67-.93 27.3 27.3 0 0 0-6.27 1.08c-.59.17-1.14.38-1.7.58l-.06.03c-1.47.55-2.86 1.05-4.4.92-3.13-.28-5.52-.98-7.3-2.13-.98-.63-1.76-1.42-2.6-2.29l-.86-.85c-.47-.45-.98-.85-1.49-1.24-.47-.36-.95-.74-1.39-1.15-.3-.3-.57-.64-.82-.97l-.45-.56a2.76 2.76 0 0 0-.41-.37 1.8 1.8 0 0 1-.33-.29c-.23-.29-.37-.8-.5-1.3-.08-.29-.15-.55-.24-.78a13.38 13.38 0 0 0-2.63-4.6c-.71-.79-1.53-1.41-2.33-2-1.18-.9-2.28-1.73-3.05-3.02-1.26-2.13-1.99-4.39-2.61-6.51-.37-1.26-.06-2.3.3-3.49.12-.4.26-.86.37-1.34.58-2.47-.93-4.54-2.25-6.36l-.38-.54c-.65-.9-1.41-1.72-2.14-2.51-.84-.9-1.7-1.83-2.37-2.86-.6-.92-.5-1.46-.36-2.38.05-.3.1-.62.13-1 .12-1.38.41-2.94 1.64-3.98.2-.17.41-.32.66-.5.69-.5 1.4-1.02 1.72-1.85.06-.17.1-.33.12-.47.05-.3.08-.3.13-.32.24-.1.36-.06.43-.02.45.25.68 1.45.82 2.18.08.4.15.75.24.98a15.1 15.1 0 0 0 2.2 4.1c.72.87 1.6 1.65 2.51 2.44.4.34.8.7 1.16 1.04 4.35 4.13 7.52 8.41 9.4 12.74.2.43.37.85.56 1.3.7 1.65 1.44 3.36 2.36 4.96 1.33 2.32 3.12 4.33 4.85 6.27l.25.27c1.1 1.23 2.13 2.4 3.6 3.2 1.87 1.01 4.88 1 7.33.96l1.7.01c.17 0 .26-.1.27-.24v-.41c0-.14-.1-.25-.23-.26-.52-.02-1.13-.01-1.77-.01-2.32.02-5.2.04-6.85-.86-1.34-.73-2.32-1.84-3.37-3l-.24-.27c-1.7-1.9-3.46-3.88-4.75-6.11-.9-1.55-1.6-3.24-2.31-4.88l-.06-.13-.5-1.17c-1.94-4.43-5.17-8.81-9.62-13.02-.37-.35-.77-.7-1.16-1.04l-.06-.05a21.39 21.39 0 0 1-2.36-2.3 14.69 14.69 0 0 1-2.06-3.88c-.06-.15-.12-.47-.2-.81-.2-1.05-.45-2.35-1.28-2.8-.36-.2-.76-.2-1.2-.02-.53.21-.62.68-.68 1-.02.1-.04.2-.08.3-.22.59-.83 1.02-1.4 1.45-.25.17-.5.35-.72.54-1.5 1.26-1.82 3.03-1.96 4.6-.03.35-.08.65-.12.94-.16.96-.29 1.81.5 3.02.7 1.1 1.6 2.06 2.47 3 .72.77 1.45 1.56 2.05 2.42l.4.54c1.26 1.75 2.57 3.56 2.1 5.63-.1.44-.23.88-.35 1.29-.39 1.28-.76 2.5-.3 4.01.64 2.18 1.37 4.5 2.7 6.72.85 1.44 2.1 2.37 3.28 3.27.76.57 1.56 1.18 2.21 1.89a12.45 12.45 0 0 1 2.44 4.31c.08.2.15.45.22.7.16.6.32 1.2.66 1.63.15.19.32.32.48.45.1.07.21.16.27.23l.44.53c.27.36.55.72.91 1.06.47.45.98.84 1.48 1.24a17.05 17.05 0 0 1 2.27 2.03c.82.83 1.67 1.7 2.72 2.37 1.92 1.24 4.44 1.98 7.71 2.27 1.76.17 3.24-.39 4.8-.96.55-.2 1.11-.41 1.7-.58a26.2 26.2 0 0 1 6.06-1.04c1.9-.1 3.58.17 5.27.86 1.72.7 2.66 1.9 3.76 3.34l.46.58c1.03 1.3 2.96 3.75 4.96 4.34l1.73.51c.12.04.26-.02.3-.14.06-.12 0-.25-.1-.32l-1.56-.94Zm-49.93 60.8-.05.14c-.2.62-.63.74-1.42.9-.4.09-.87.19-1.3.42l-.16.08c-.32.17-.94.5-1.2.33-.09-.05-.09-.08-.09-.1-.02-.1.01-.4.61-1.1.6-.7 1.41-1.2 2.2-1.65.44-.27.95-.56 1.41-.91.14.02.2.05.2.06.35.26-.07 1.44-.2 1.82Zm-6.5 1.7c.02-.2.1-.4.22-.58-.06.24-.13.43-.22.58Z"/>
  </g>
</svg>
