<svg xmlns="http://www.w3.org/2000/svg" xml:space="preserve" fill-rule="evenodd" stroke-linejoin="round" stroke-miterlimit="2" clip-rule="evenodd" viewBox="0 0 45 34">
  <path fill="#a297b3" d="M8.82 30.81c0-1.76 1.4-3.19 3.15-3.19a3.17 3.17 0 0 1 3.15 3.2A3.17 3.17 0 0 1 11.97 34a3.17 3.17 0 0 1-3.15-3.19Zm14.7-7.37c0-5.83 4.69-10.57 10.45-10.57a10.5 10.5 0 0 1 10.45 10.57A10.5 10.5 0 0 1 33.97 34a10.51 10.51 0 0 1-10.45-10.56Zm-11.55 9.5c1.16 0 2.1-.95 2.1-2.13 0-1.17-.94-2.12-2.1-2.12-1.16 0-2.1.95-2.1 2.12 0 1.18.94 2.13 2.1 2.13Zm22-.11c5.13 0 9.28-4.2 9.28-9.4a9.33 9.33 0 0 0-9.28-9.38 9.34 9.34 0 0 0-9.28 9.39 9.34 9.34 0 0 0 9.28 9.39ZM4.62 0c.24 0 .45.16.5.4l.45 1.72H36c1.33 0 2.4 1.35 2.02 2.7l-2.3 7.25-1.03-.2L37 4.55a1.06 1.06 0 0 0-1-1.35H5.83l3.84 14.87H23.3c-.22.35-.43.7-.61 1.06H9.96l1.36 5.32h10.04c0 .36.08.7.11 1.06H10.86c-.17 0-.38-.17-.44-.4L4.2 1.06H.94A.53.53 0 0 1 .94 0h3.68Z"/>
</svg>
