<svg xmlns="http://www.w3.org/2000/svg" xml:space="preserve" fill-rule="evenodd" stroke-linejoin="round" stroke-miterlimit="2" clip-rule="evenodd" viewBox="0 0 35 35">
  <path fill="#a297b3" fill-rule="nonzero" d="M17.7 9a5.31 5.31 0 1 0 0 10.62A5.31 5.31 0 0 0 17.7 9Zm0 9.56a4.25 4.25 0 1 1 .01-8.5 4.25 4.25 0 0 1 0 8.5ZM17.7.5a17 17 0 1 0 0 34 17 17 0 0 0 0-34Zm0 32.94c-3.59 0-6.9-1.2-9.5-3.22a7.36 7.36 0 0 1 7.38-7.4h4.25c4.09 0 7.41 3.31 7.37 7.4-2.6 2-5.91 3.22-9.5 3.22Zm10.54-4.02c-.42-4.3-4-7.67-8.41-7.67h-4.25c-4.41 0-8 3.37-8.42 7.67a15.88 15.88 0 0 1-5.4-11.92c0-8.79 7.16-15.94 15.94-15.94 8.79 0 15.94 7.15 15.94 15.94 0 4.74-2.1 9-5.4 11.92Z"/>
</svg>
