<svg xmlns="http://www.w3.org/2000/svg" xml:space="preserve" fill-rule="evenodd" stroke-linejoin="round" stroke-miterlimit="2" clip-rule="evenodd" viewBox="0 0 145 30">
  <path fill="#555" d="M15.2.17C7.15.17.5 6.8.5 14.87c0 8.07 6.64 14.7 14.71 14.7s14.71-6.63 14.71-14.7S23.28.17 15.22.17h-.01Zm0 .88A13.92 13.92 0 0 1 27.97 9.5a13.78 13.78 0 0 1-1.28 13.1A13.8 13.8 0 0 1 7.5 26.34 13.8 13.8 0 0 1 3.76 7.15 13.91 13.91 0 0 1 15.2 1.04Zm.22 14.88-3.68 10.69c2.47.72 5.1.66 7.53-.2l-.1-.15-3.75-10.34ZM2.96 14.87c0 4.7 2.7 8.99 6.91 11.03L4.01 9.88a12.17 12.17 0 0 0-1.06 5Zm23-5.88c.06.41.09.84.09 1.26 0 1.25-.24 2.65-.93 4.38l-3.76 10.83A12.31 12.31 0 0 0 25.96 9Zm20.26 8.63 2.25-6.66c.65-1.93.36-2.48-1.73-2.48V7.8h6.14v.65c-2.05 0-2.54.49-3.36 2.88L45.8 22.52h-.43l-3.34-10.24-3.4 10.24h-.42l-3.63-11.18c-.78-2.38-1.31-2.88-3.21-2.88v-.65h7.25v.65c-1.93 0-2.45.45-1.77 2.48l2.2 6.67 3.32-9.8h.61l3.24 9.81Zm84.62 4.76a4.83 4.83 0 0 1-2.93-1.12c-.28.33-.46.71-.52 1.12h-.63v-4.51h.65c.26 2.17 1.76 3.43 3.69 3.43 1.05 0 1.9-.6 1.9-1.57 0-1-.75-1.51-2.1-2.12l-1.86-.88c-1.3-.62-2.29-1.72-2.29-3.14 0-1.42 1.47-2.92 3.5-2.92.92 0 1.83.3 2.54.86.17-.13.33-.48.43-.88h.61v3.85h-.68c-.24-1.53-1.07-2.8-2.81-2.8-.91 0-1.77.52-1.77 1.33s.7 1.31 2.25 2.03l1.8.88c1.57.75 2.19 1.96 2.19 2.94 0 2.06-1.78 3.5-3.97 3.5h.01-.03.02Zm-73.51 0c-3.6 0-6.53-2.64-6.53-5.88 0-3.23 2.94-5.85 6.53-5.85 3.59 0 6.52 2.65 6.52 5.85 0 3.21-2.93 5.88-6.52 5.88Zm83.4 0a4.82 4.82 0 0 1-2.94-1.12c-.28.33-.45.71-.52 1.12h-.63v-4.51h.65c.27 2.17 1.77 3.43 3.7 3.43 1.04 0 1.9-.6 1.9-1.57 0-1-.76-1.51-2.1-2.12l-1.87-.88c-1.3-.62-2.3-1.72-2.3-3.14 0-1.42 1.48-2.92 3.51-2.92.92 0 1.82.3 2.54.86.17-.13.33-.48.43-.88h.62v3.85h-.7c-.23-1.53-1.07-2.8-2.8-2.8-.92 0-1.77.52-1.77 1.33s.69 1.31 2.26 2.03l1.8.88c1.56.75 2.18 1.96 2.18 2.94 0 2.06-1.8 3.5-3.97 3.5h.02-.03.01ZM23.48 14.25c0-1.51-.54-2.55-1.01-3.38C22 10.04 21.27 9 21.27 8s.85-2.18 2.06-2.18h.16A12.24 12.24 0 0 0 4.98 8.14h.79c1.27 0 3.26-.16 3.26-.16.67-.05.74.92.07 1.01 0 0-.66.08-1.4.11l4.47 13.28 2.68-8.04-1.9-5.23c-.68-.05-1.29-.12-1.29-.12-.67-.04-.6-1.04.08-1.01 0 0 2.02.15 3.21.15 1.2 0 3.27-.15 3.27-.15.66-.05.73.92.07 1.01 0 0-.67.08-1.4.11l4.43 13.18 1.27-4c.55-1.75.9-2.99.9-4.04v.01Zm73.78 7.06v.65h-7.49v-.65c2.2 0 2.59-.56 2.59-3.82v-5.23c0-3.27-.4-3.8-2.59-3.8v-.65h6.76c3.38 0 5.23 1.73 5.23 4.06 0 2.32-1.85 4.01-5.23 4.01h-1.86v1.6c0 3.27.4 3.83 2.6 3.83ZM70.21 11.05c2.86.01 4.38 1.4 4.38 3.18 0 1.44-1.07 2.72-3.1 3.07l1.49 1.64c1.31 1.44 2.26 2.19 3.67 2.38 1.83 0 2.12-.43 2.12-2.75V14.4c0-2.3-.3-2.7-2.12-2.7v-.62h5.86c4.68 0 6.7 2.46 6.7 5.42 0 2.98-2.01 5.46-6.7 5.46H73l-3.63-4.54h-.56v1.18c0 2.31.3 2.74 2.12 2.74v.6h-6.5v-.62c1.82 0 2.11-.44 2.11-2.75v-4.19c0-2.3-.3-2.7-2.11-2.7v-.62h5.78Zm54 7.83-.14.59c-.3 1.07-.66 1.46-2.98 1.46h-.45c-1.71 0-2.01-.4-2.01-2.7v-1.5c2.54 0 2.75.23 2.75 1.92h.62V13.8h-.62c0 1.7-.19 1.93-2.75 1.93v-3.66h1.8c2.32 0 2.67.4 2.97 1.47l.15.61h.54l-.24-3.07h-9.6v.62c1.82 0 2.11.4 2.11 2.7v4.18c0 2.12-.24 2.66-1.69 2.74-1.36-.21-2.3-.96-3.6-2.37l-1.5-1.64c2.03-.35 3.1-1.63 3.1-3.06 0-1.8-1.52-3.19-4.4-3.19h-5.74v.62c1.82 0 2.12.4 2.12 2.7v4.19c0 2.31-.3 2.75-2.12 2.75v.6h6.5v-.58c-1.82 0-2.12-.43-2.12-2.74V17.4h.56l3.62 4.54h13.43l.19-3.07h-.5Zm-66.89-7.23c-3 0-4.06 2.71-4.06 4.84s1.07 4.84 4.07 4.84 4.09-2.68 4.09-4.84c0-2.16-1.05-4.83-4.09-4.83Zm25.3 9.28h-.23c-1.19 0-1.34-.29-1.34-1.8v-7.07h1.57c3.4 0 4.01 2.48 4.01 4.4 0 1.93-.61 4.47-4.01 4.47Zm24.28-4.54v-4.33h1.33c1.48 0 2.12 1.01 2.12 2.18 0 1.18-.64 2.17-2.12 2.17l-1.33-.02Zm-38.08 0v-4.33h1.35c1.46 0 2.11 1.01 2.11 2.18 0 1.18-.65 2.17-2.12 2.17l-1.34-.02Zm27.73-7.4h-1.87v5.68h1.87c1.82 0 2.67-1.28 2.67-2.8 0-1.54-.85-2.89-2.68-2.89Z"/>
</svg>
