<svg xmlns="http://www.w3.org/2000/svg" xml:space="preserve" fill-rule="evenodd" stroke-linejoin="round" stroke-miterlimit="2" clip-rule="evenodd" viewBox="0 0 147 30">
  <path fill="#555" fill-rule="nonzero" d="M45.23.32H4.67A4.6 4.6 0 0 0 .1 4.84v15.44c0 2.56 2.14 4.27 4.7 4.27h19.15l8.77 4.88-2-4.88h14.52c2.56 0 5.12-1.71 5.12-4.27V4.84c0-2.56-2.56-4.52-5.12-4.52ZM20.5 20.54c.03.51-.04.96-.25 1.34-.24.45-.6.7-1.07.73-.53.05-1.08-.2-1.61-.75-1.9-1.93-3.4-4.82-4.5-8.65-1.31 2.6-2.29 4.55-2.92 5.85-1.2 2.3-2.22 3.48-3.06 3.53-.55.05-1.02-.42-1.43-1.4-1.04-2.65-2.15-7.8-3.35-15.41-.07-.54.04-1 .32-1.36.29-.39.72-.6 1.28-.63 1.04-.09 1.63.4 1.77 1.45C6.31 9.5 7 13.1 7.73 16.04l4.46-8.49c.4-.77.9-1.18 1.52-1.22.9-.06 1.44.5 1.66 1.7.42 2.38 1.07 4.7 1.94 6.96.52-5.16 1.42-8.88 2.68-11.18.24-.52.76-.87 1.34-.9.47-.03.9.11 1.28.41.39.31.59.7.63 1.16.02.37-.04.67-.2.98-.8 1.46-1.45 3.92-1.97 7.33-.52 3.31-.7 5.9-.57 7.75Zm25.22-3.19c-1.22 2.04-2.8 3.05-4.78 3.05-.35 0-.72-.04-1.1-.12a4.67 4.67 0 0 1-3.25-2.36 7.86 7.86 0 0 1-.98-4.03c0-2.09.53-4 1.6-5.72 1.23-2.03 2.81-3.05 4.76-3.05.35 0 .72.04 1.1.12a4.68 4.68 0 0 1 3.26 2.36c.64 1.1.97 2.42.97 4 0 2.1-.53 4-1.58 5.75Zm-12.75 0c-1.22 2.04-2.8 3.05-4.77 3.05-.37 0-.74-.04-1.1-.12a4.69 4.69 0 0 1-3.26-2.36 7.92 7.92 0 0 1-.97-4.03c0-2.09.53-4 1.58-5.72 1.25-2.03 2.83-3.05 4.78-3.05.35 0 .72.04 1.1.12a4.73 4.73 0 0 1 3.25 2.36c.65 1.1.98 2.42.98 4 0 2.1-.53 4-1.59 5.75Zm97.93-9.94a6.9 6.9 0 0 0-2.03 5.12c0 2.22.67 4.03 2.01 5.4a7.05 7.05 0 0 0 5.26 2.05c.63 0 1.34-.1 2.11-.33v-3.3c-.7.22-1.31.32-1.84.32a3.33 3.33 0 0 1-2.58-1.08 4.26 4.26 0 0 1-.98-2.95c0-1.16.33-2.11.96-2.85a3.05 3.05 0 0 1 2.42-1.11c.63 0 1.3.1 2.03.3v-3.3a8.58 8.58 0 0 0-2.22-.25 6.95 6.95 0 0 0-5.14 1.98Zm-61.8-2c-1.87 0-3.34.63-4.4 1.86-1.04 1.24-1.56 3-1.56 5.23 0 2.41.53 4.26 1.57 5.54 1.04 1.28 2.56 1.94 4.55 1.94 1.93 0 3.41-.66 4.45-1.93 1.04-1.29 1.56-3.09 1.56-5.41 0-2.32-.52-4.1-1.58-5.37-1.08-1.24-2.6-1.86-4.6-1.86ZM55 7.4a6.9 6.9 0 0 0-2.04 5.12c0 2.22.67 4.03 2.01 5.4a7.07 7.07 0 0 0 5.26 2.05c.63 0 1.35-.1 2.12-.33v-3.3c-.7.22-1.32.32-1.85.32a3.33 3.33 0 0 1-2.58-1.08 4.27 4.27 0 0 1-.97-2.95c-.04-1.04.3-2.05.95-2.85a3.04 3.04 0 0 1 2.42-1.11c.63 0 1.3.1 2.03.3v-3.3a8.5 8.5 0 0 0-2.22-.25A6.93 6.93 0 0 0 55 7.4Zm58.74 6.75h3.31V11.3h-3.3V8.76h3.81V5.8H110v13.84h7.58V16.7h-3.84v-2.54Zm29.29 2.53v-2.55h3.31v-2.86h-3.31V8.74h3.84V5.79h-7.56v13.83h7.58v-2.95h-3.86v.02Zm-14.92-4.72a3.7 3.7 0 0 0 .59-1.95c0-1.3-.51-2.34-1.52-3.1A6.91 6.91 0 0 0 123 5.8h-4.35v13.83h3.74v-6.3h.06l3.03 6.3h3.94l-2.99-6.24a3.7 3.7 0 0 0 1.67-1.42Zm-25.87-6.18-.73 3.11c-.19.81-.37 1.62-.53 2.44l-.4 2.15c-.39-2.15-.92-4.7-1.59-7.7h-4.71L92.5 19.63h3.53L97 10.1l2.42 9.53h2.52l2.3-9.51.99 9.5h3.7L107.06 5.8h-4.83Zm-16.93 0-.73 3.11c-.19.81-.36 1.62-.52 2.44l-.41 2.15c-.39-2.15-.91-4.7-1.59-7.7h-4.71l-1.77 13.84h3.54l.95-9.53 2.42 9.53h2.52l2.31-9.51 1 9.5h3.7L90.16 5.8h-4.84ZM42.34 8.56c-.74-.14-1.45.26-2.12 1.26a6.57 6.57 0 0 0-1.22 3.9c0 .58.12 1.21.36 1.84.31.8.72 1.22 1.2 1.32.51.1 1.06-.12 1.65-.64a5.33 5.33 0 0 0 1.54-3.02c.09-.46.14-.97.14-1.5 0-.63-.12-1.26-.35-1.85-.31-.79-.72-1.22-1.2-1.31Zm-12.75 0c-.73-.14-1.45.26-2.11 1.26a6.57 6.57 0 0 0-1.22 3.9c0 .58.12 1.21.37 1.84.3.8.7 1.22 1.2 1.32.5.1 1.05-.12 1.64-.64a5.38 5.38 0 0 0 1.54-3.02c.1-.46.14-.97.14-1.5 0-.63-.13-1.26-.36-1.85-.3-.79-.7-1.22-1.2-1.31Zm41.12 7.41a1.8 1.8 0 0 1-1.6.86c-.66 0-1.15-.28-1.5-.86-.34-.57-.5-1.7-.5-3.44 0-2.66.67-3.97 2.04-3.97 1.42 0 2.15 1.33 2.15 4.04-.02 1.67-.23 2.8-.59 3.36v.01Zm51.68-4.23V8.45c.89.02 1.52.16 1.9.45.4.28.57.73.57 1.38 0 .96-.83 1.45-2.47 1.46Z"/>
</svg>
