<svg xmlns="http://www.w3.org/2000/svg" xml:space="preserve" fill-rule="evenodd" stroke-linejoin="round" stroke-miterlimit="2" clip-rule="evenodd" viewBox="0 0 118 30">
  <path fill="#555" fill-rule="nonzero" d="M38.67 12.5c0-2.15-2.07-4.4-5.66-4.4-4.03 0-8.45 2.96-9.13 8.88-.7 5.97 3.01 8.63 6.74 8.63 3.74 0 5.7-1.46 7.7-3.4a3.4 3.4 0 0 0-4.37-.95c-.7.39-1.5.58-2.31.56-1.44 0-2.91-.65-2.91-3.35 9.23-.92 9.93-3.83 9.93-5.97Zm-4.58.36c-.06.66-.32 1.8-5 2.43.99-3.5 2.87-3.77 3.74-3.77h.05a1.23 1.23 0 0 1 1.22 1.34Zm-15.63.57-2.15 6.78L14.8 8.45c-3.38 0-5.2 2.42-6.15 4.97l-2.61 6.8-.37-6.73C5.47 10.36 2.6 8.46.3 8.46l2.8 17.02c3.54-.02 5.45-2.42 6.45-4.98l2.21-5.78c.02.23 1.53 10.76 1.53 10.76 3.56 0 5.47-2.26 6.5-4.73l4.98-12.29c-3.51 0-5.36 2.4-6.31 4.97Zm33.26-5.38c-2.2 0-3.86 1.2-5.28 2.95v-.01L47.7.76c-2.9 0-5.27 2.54-5.73 6.32l-2.19 18.26c1.68 0 3.46-.48 4.41-1.72.86 1.1 2.13 1.99 4.03 1.99 4.91 0 8.28-5.73 8.28-11.1-.03-4.9-2.4-6.45-4.77-6.45l-.01-.01Zm-.46 8.78c-.51 3-2.17 5.03-3.78 5.03-1.6 0-2.3-.72-2.3-.72.3-2.63.5-4.24 1.09-5.62.58-1.4 1.98-3.6 3.43-3.6 1.43 0 2.08 1.9 1.56 4.9v.01Zm17.48-8.38H65.3l.02-.18c.23-2.24.76-3.42 2.5-3.62 1.2-.11 1.73-.73 1.86-1.41l.43-2.38c-6.87-.04-9.04 2.94-9.6 7.48l-.01.1h-.07c-1.12 0-2.35 1.28-2.56 2.89l-.08.59h2.3l-1.93 15.96-.59 2.87h.24c3.22-.11 5.27-2.66 5.73-6.37l1.5-12.47h1.08c1.06 0 2.3-1.06 2.5-2.83l.1-.63Zm17.81-.3c-3.95 0-7.69 2.92-8.83 7.51-1.14 4.6.59 10.02 6.4 10.02 5.83 0 9.16-5.65 9.16-10.36 0-4.68-3.15-7.17-6.73-7.17Zm1.6 8.53c-.2 2.08-1.11 5.24-3.61 5.24s-2.16-3.69-1.92-5.44c.26-1.88 1.3-4.55 3.56-4.55 2.02 0 2.2 2.4 1.98 4.75Zm24.67-3.26-2.15 6.77-1.51-11.76c-3.38 0-5.19 2.42-6.14 4.97l-2.61 6.8-.37-6.72c-.22-3.13-3.07-5.04-5.39-5.04l2.78 17.02c3.54-.01 5.45-2.42 6.45-4.97l2.2-5.79c.02.24 1.54 10.76 1.54 10.76 3.55 0 5.46-2.25 6.49-4.72l4.99-12.3c-3.5 0-5.35 2.41-6.3 4.98h.02ZM71.97.86 69.1 24.19l-.59 2.88.24.01c3.1-.04 5.3-2.77 5.71-6.21l1.66-13.39C76.61 3.4 74.2.86 71.97.86Z"/>
</svg>
