<svg xmlns="http://www.w3.org/2000/svg" fill-rule="evenodd" stroke-linejoin="round" stroke-miterlimit="2" clip-rule="evenodd" viewBox="0 0 83 20">
  <path fill="#2790c3" d="M64.0048 8.7171c-.2478 1.6272-1.4904 1.6272-2.6924 1.6272h-.6836l.4796-3.0379a.3776.3776 0 01.3731-.3186h.3136c.8178 0 1.5909 0 1.9892.4658.2383.279.3105.6924.2205 1.2635zm-.5234-4.2445h-4.5326a.6294.6294 0 00-.6218.5314l-1.8329 11.6224a.3776.3776 0 00.3731.4366h2.3256a.4405.4405 0 00.4353-.3721l.52-3.295a.6296.6296 0 01.6218-.5317h1.4343c2.9857 0 4.7087-1.4447 5.159-4.3084.2028-1.2524.0081-2.2366-.5784-2.9256-.6443-.7573-1.7868-1.1576-3.3034-1.1576z"/>
  <path fill="#27346a" d="M31.6766 8.7171c-.2477 1.6272-1.4903 1.6272-2.692 1.6272h-.684l.4797-3.0379a.3778.3778 0 01.373-.3186h.3137c.8181 0 1.5908 0 1.9891.4658.2387.279.3106.6924.2205 1.2635zm-.523-4.2445H26.621a.63.63 0 00-.6221.5314L24.166 16.6264a.378.378 0 00.3731.4366h2.1643a.63.63 0 00.6222-.5314l.4944-3.1357a.63.63 0 01.6221-.5317h1.4343c2.9854 0 4.7087-1.4447 5.1591-4.3084.2027-1.2524.008-2.2366-.5785-2.9256-.6446-.7573-1.7871-1.1576-3.3034-1.1576zM41.6762 12.8894c-.2097 1.2403-1.1942 2.0728-2.4496 2.0728-.6296 0-1.1334-.2023-1.4574-.5858-.321-.3802-.442-.9217-.3402-1.5247.1956-1.2288 1.1956-2.0883 2.4322-2.0883.6164 0 1.117.2044 1.4473.5912.3324.39.4629.9351.3677 1.5348zm3.0248-4.224h-2.1703a.3773.3773 0 00-.3731.319l-.0958.6066-.1516-.2198c-.47-.6823-1.5176-.9102-2.5636-.9102-2.3979 0-4.4462 1.817-4.8449 4.3655-.2073 1.2716.087 2.4863.808 3.3343.6622.7792 1.6074 1.1035 2.7337 1.1035 1.9327 0 3.0046-1.2416 3.0046-1.2416l-.0968.6033a.3779.3779 0 00.3731.437h1.9546a.629.629 0 00.6218-.5314l1.1734-7.43a.3773.3773 0 00-.3731-.4363z"/>
  <path fill="#2790c3" d="M74.0044 12.8894c-.2098 1.2403-1.1943 2.0728-2.4497 2.0728-.6299 0-1.1334-.2023-1.4577-.5858-.321-.3802-.4417-.9217-.3399-1.5247.1953-1.2288 1.1956-2.0883 2.4322-2.0883.6161 0 1.117.2044 1.447.5912.3324.39.4632.9351.368 1.5348zm3.0244-4.224h-2.1704a.3773.3773 0 00-.373.319l-.0955.6066-.1516-.2198c-.4702-.6823-1.5176-.9102-2.5636-.9102-2.3979 0-4.4462 1.817-4.8448 4.3655-.2074 1.2716.087 2.4863.8077 3.3343.6624.7792 1.6076 1.1035 2.7336 1.1035 1.9327 0 3.0046-1.2416 3.0046-1.2416l-.0965.6033a.3775.3775 0 00.3731.437h1.9542a.6297.6297 0 00.6222-.5314l1.1734-7.43a.3777.3777 0 00-.3734-.4363z"/>
  <path fill="#27346a" d="M56.2605 8.6653h-2.1814a.629.629 0 00-.521.276l-3.0093 4.432-1.2752-4.2589a.6295.6295 0 00-.6034-.449h-2.1444c-.2588 0-.4413.2544-.3576.4994l2.4019 7.0508-2.259 3.1881c-.1776.2501.0013.5963.3081.5963h2.1794c.2064 0 .4-.1012.5177-.2712L56.571 9.2583c.1734-.2505-.0057-.593-.3106-.593"/>
  <path fill="#2790c3" d="M79.587 4.7915l-1.8601 11.8349a.3778.3778 0 00.373.4366h1.8713a.63.63 0 00.6218-.5314l1.8342-11.6224a.3776.3776 0 00-.373-.4366h-2.0938a.378.378 0 00-.3734.319"/>
  <path fill="#27346a" d="M8.5868 19.1758l.609-3.8633.0394-.2141a.7923.7923 0 01.2685-.479.7943.7943 0 01.5153-.1906h.484c.8064 0 1.5475-.086 2.2023-.2558.6988-.1811 1.3203-.4635 1.847-.838.5586-.3972 1.0278-.9108 1.3945-1.526.3873-.649.6713-1.4304.845-2.3222.1533-.7875.1819-1.4927.0858-2.0957-.1022-.6373-.3476-1.1811-.7298-1.6164-.2315-.2639-.5277-.4924-.8806-.6796l-.0084-.0044-.0003-.01c.1233-.7863.1186-1.442-.0138-2.0064-.1334-.5657-.403-1.075-.8255-1.5559C13.5442.5211 11.953.0156 9.6896.0156H3.4734a.8753.8753 0 00-.5677.2094.8757.8757 0 00-.2951.528L.022 17.1666a.5166.5166 0 00.118.4168.5163.5163 0 00.3936.1818H4.39l-.0034.0182-.2648 1.6796a.4504.4504 0 00.1028.363.45.45 0 00.3425.1583H7.802a.7616.7616 0 00.495-.1828.7633.7633 0 00.2579-.4605l.032-.165"/>
  <path fill="#27346a" d="M6.3708 5.1018a.778.778 0 01.4325-.5808.7782.7782 0 01.3358-.076h4.8724c.5775 0 1.1156.038 1.6077.117.1408.0228.2773.0487.4104.0783.1331.0296.2619.0622.3869.0991.0625.0182.1237.037.1842.0572.2417.0803.4665.1748.6736.2847.244-1.556-.0017-2.6147-.843-3.5733C13.5046.4522 11.831 0 9.6896 0H3.4734a.889.889 0 00-.8783.7506L.0066 17.1642a.5336.5336 0 00.527.6167h3.8376L6.3708 5.1018"/>
  <path fill="#2790c3" d="M15.2743 5.0813a9.2502 9.2502 0 01-.0636.364c-.8194 4.2086-3.624 5.6636-7.206 5.6636H6.1804c-.4376 0-.807.3187-.8752.751l-1.199 7.6006A.4668.4668 0 004.5671 20H7.802a.7775.7775 0 00.7683-.6568l.032-.1643.609-3.864.0393-.2135a.7784.7784 0 01.7684-.6568h.484c3.1337 0 5.5874-1.2732 6.3043-4.955.2995-1.5385.1449-2.8225-.6473-3.7253-.2397-.273-.5378-.4992-.8857-.683"/>
  <path fill="#1f264f" d="M14.4165 4.7394a5.8016 5.8016 0 00-.3869-.0991 7.2268 7.2268 0 00-.4104-.0783c-.492-.079-1.0302-.117-1.6077-.117H7.1391a.7782.7782 0 00-.3358.076.778.778 0 00-.4325.5808l-1.0356 6.5664-.03.1916c.0683-.4322.4377-.7509.8753-.7509h1.8241c3.582 0 6.3867-1.455 7.2061-5.6636a9.2502 9.2502 0 00.0636-.364c-.207-.11-.432-.2044-.6736-.2847a4.9128 4.9128 0 00-.1842-.0572"/>
</svg>