<svg xmlns="http://www.w3.org/2000/svg" fill-rule="evenodd" stroke-linejoin="round" stroke-miterlimit="2" clip-rule="evenodd" viewBox="0 0 21 21">
  <path fill="#36aea5" fill-rule="nonzero" d="M16.2231 16.1175a2.9235 2.9235 0 01-2.0786-.8607l-3.0018-3.0013c-.2193-.2098-.5692-.2098-.7884 0l-3.0127 3.0122a2.9226 2.9226 0 01-2.0792.8607H4.671L8.4725 19.93c1.1794 1.1794 3.1206 1.1794 4.3 0l3.8125-3.8125h-.3619zm3.5152-7.4527l-2.304-2.3041a.441.441 0 01-.1636.0333h-1.047c-.5416 0-1.0722.2192-1.455.602l-3.0012 3.0018a1.4361 1.4361 0 01-1.019.4217A1.4374 1.4374 0 019.73 9.9978L6.7173 6.9855a2.0706 2.0706 0 00-1.4549-.603H3.9747a.438.438 0 01-.1546-.0312l-2.314 2.3135c-1.1788 1.1793-1.1788 3.12 0 4.2994l2.313 2.3129a.4409.4409 0 01.1551-.0312H5.262c.5415 0 1.0716-.2198 1.4548-.6025l3.0123-3.0127c.5446-.5442 1.4938-.5442 2.038 0l3.0013 3.0018a2.0723 2.0723 0 001.4548.6024h1.0471c.0583 0 .113.013.1635.0333l2.3041-2.304c1.1789-1.1794 1.1789-3.12 0-4.2994h.0005zM5.263 5.5c.7847 0 1.5236.3061 2.0787.8612l3.0127 3.0128c.2166.216.5717.216.7884 0l3.0018-3.0024a2.9217 2.9217 0 012.0791-.8607h.3614l-3.8126-3.812c-1.1793-1.1794-3.1205-1.1794-4.2999 0l-3.801 3.801h.5914z"/>
</svg>