<svg xmlns="http://www.w3.org/2000/svg" xml:space="preserve" fill-rule="evenodd" stroke-linejoin="round" stroke-miterlimit="2" clip-rule="evenodd" viewBox="0 0 185 32">
  <path fill="#e5beb8" fill-rule="nonzero" d="M10.52 17.2H9.7c-3.7 0-5.55.82-5.55 2.42 0 .64.24 1.13.75 1.4.5.27 1.1.43 1.8.43 1.24 0 2.18-.34 2.85-1 .64-.64.97-1.55.97-2.74v-.51Zm3.46 5c0 .7-.18 1.22-.55 1.5a1.9 1.9 0 0 1-1.85.3c-.27-.13-.5-.33-.66-.58-.21-.3-.34-.7-.34-1.21V22h-.1a4.08 4.08 0 0 1-1.75 1.57c-.82.43-1.76.64-2.76.64-1.4 0-2.67-.37-3.77-1.13-1.15-.72-1.7-1.84-1.7-3.4 0-1.5.85-2.9 2.18-3.6a9.69 9.69 0 0 1 2.37-.85c.94-.21 1.82-.34 2.68-.4.93-.07 1.86-.1 2.79-.09v-.37c0-.84-.31-1.52-.95-1.97a3.99 3.99 0 0 0-2.4-.7c-.94 0-1.96.36-3.16 1.1-.33.2-.66.3-.96.3-.4 0-.7-.16-.97-.42s-.41-.6-.4-.98c0-.54.27-1 .85-1.4a8.56 8.56 0 0 1 4.95-1.45c1.24 0 2.33.18 3.21.52.8.3 1.49.8 2.01 1.45.43.6.77 1.25 1 1.94.18.7.28 1.43.28 2.22v7.23Zm3.3-10H15.9c-.6 0-1.03-.16-1.27-.5a1.55 1.55 0 0 1-.36-.97c0-.2.03-.4.08-.6.1-.21.25-.4.52-.58.28-.18.6-.28 1.03-.28h1.4V7.12c0-1.95.45-3.52 1.33-4.77.89-1.21 2.28-1.82 4.25-1.82 1.55 0 2.31.54 2.31 1.6 0 .43-.15.8-.42 1.07-.3.28-.73.42-1.27.42-.95 0-1.59.29-1.98.83-.4.54-.57 1.37-.57 2.46v2.36h2c.6 0 1.02.15 1.26.46.37.45.47 1.06.29 1.6-.1.22-.25.4-.53.59-.26.18-.6.27-1.02.27h-2v9.9c0 .75-.19 1.3-.58 1.57a1.97 1.97 0 0 1-1.8.4c-.2-.08-.4-.18-.57-.3a1.2 1.2 0 0 1-.5-.64 2.3 2.3 0 0 1-.2-1.04V12.2Zm16.86 8.4a2.2 2.2 0 0 1 1.18-.46 1.4 1.4 0 0 1 1.49 1.45c0 .62-.33 1.16-.98 1.62a6.68 6.68 0 0 1-3.88 1.06c-2.25 0-4.1-.7-5.56-2.1-1.48-1.36-2.2-3.24-2.2-5.61 0-2.3.75-4.16 2.23-5.59A7.7 7.7 0 0 1 32 8.85c1.54 0 2.82.33 3.82 1.03.7.46 1.03 1 1.03 1.58 0 .42-.15.79-.42 1.09-.31.34-.7.5-1.16.5-.36 0-.76-.16-1.21-.5a3.24 3.24 0 0 0-2.07-.67c-1.25 0-2.25.46-2.94 1.4-.7.95-1.08 2.1-1.06 3.28a5.21 5.21 0 0 0 1.06 3.25c.68.93 1.79 1.45 2.94 1.4a3.9 3.9 0 0 0 2.16-.62v.01Z"/>
  <path fill="#dddabd" fill-rule="nonzero" d="M58.34 22.54c-.36 1.03-1 1.55-1.9 1.55-.95 0-1.59-.52-1.92-1.55L51.3 13h-.07l-3.15 9.53c-.33 1.03-.97 1.55-1.88 1.55-.94 0-1.57-.52-1.94-1.55l-3.85-11.3a1.83 1.83 0 0 1-.13-.66c0-.42.13-.76.42-1 .29-.25.66-.38 1.04-.37.7 0 1.15.4 1.4 1.22l3.1 10.02h.06l3.24-9.75c.33-1 .91-1.48 1.8-1.48.87 0 1.45.48 1.78 1.48l3.25 9.75h.06l3.1-10.06c.24-.78.7-1.18 1.36-1.18.4 0 .76.13 1.04.37.25.26.39.6.4.97 0 .21-.04.46-.14.7l-3.85 11.29Zm17.49-5.04h-9.9a4.15 4.15 0 0 0 1.43 3.1 4.62 4.62 0 0 0 3.25 1.27c1.36 0 2.57-.51 3.7-1.55.33-.3.67-.45 1-.45.33 0 .64.1.88.3.21.21.33.52.33.88 0 .37-.14.7-.45 1.03a7.32 7.32 0 0 1-5.46 2.16c-2.22 0-4.04-.7-5.44-2.1a7.3 7.3 0 0 1-2.15-5.46c0-2.21.7-4.07 2.12-5.5a7.31 7.31 0 0 1 5.32-2.12c1.84 0 3.36.52 4.61 1.55a6.98 6.98 0 0 1 2.21 4.49c.03.28.07.6.07.94 0 .98-.52 1.46-1.52 1.46Zm-9.9-2.12h8.56a4.4 4.4 0 0 0-1.09-2.95c-.7-.76-1.67-1.13-2.94-1.13-1.22 0-2.26.4-3.1 1.2a4.32 4.32 0 0 0-1.43 2.88ZM94.2 20.6a6.79 6.79 0 0 1-6.3 3.63 6.59 6.59 0 0 1-2.95-.7 5.48 5.48 0 0 1-2.24-1.97h-.05v1c0 .4-.1.73-.28.97-.18.25-.36.4-.55.46-.36.12-.75.12-1.12 0a1.22 1.22 0 0 1-.55-.46 1.6 1.6 0 0 1-.26-.97V2.23c0-.58.15-1 .45-1.23.3-.23.63-.35.97-.35.35 0 .67.12.97.35.3.24.46.64.46 1.23v9.38h.1a6.28 6.28 0 0 1 5.12-2.55 6.75 6.75 0 0 1 5.18 2.17v.02a4.36 4.36 0 0 0-1.82 2.22 4.37 4.37 0 0 0-3.9-2.04c-1.42 0-2.59.51-3.5 1.55-.9 1-1.39 2.32-1.36 3.67 0 1.42.45 2.63 1.36 3.66.88 1 2.16 1.57 3.5 1.53 1.5 0 2.67-.5 3.51-1.52.51-.6.88-1.32 1.08-2.08.47.7.93 1.16 1.02 1.24v.02l-.08-.09 1.24 1.2Z"/>
  <path fill="#d7d2e1" fill-rule="nonzero" d="M102.76 10.99a6.84 6.84 0 0 1 4.98-1.93 6.2 6.2 0 0 1 5.13 2.55h.05V2.23c0-.58.16-1 .46-1.23.3-.23.63-.35.97-.35.35 0 .67.12.97.35.3.24.46.64.46 1.23v20.34c0 .41-.09.74-.28.98-.18.24-.36.4-.54.45-.37.13-.76.13-1.13 0a1.25 1.25 0 0 1-.54-.45 1.56 1.56 0 0 1-.28-.98v-1h-.05a5.27 5.27 0 0 1-2.2 1.98c-.95.46-1.95.7-3 .7a6.78 6.78 0 0 1-6.02-3.18l1.7-1.64.03-.04c.03-.02.2-.2.43-.49.2.51.5.98.84 1.41a4.3 4.3 0 0 0 3.51 1.54c1.42 0 2.58-.52 3.49-1.54.9-1 1.39-2.3 1.36-3.65 0-1.42-.45-2.64-1.36-3.67a4.45 4.45 0 0 0-3.49-1.55 4.37 4.37 0 0 0-3.46 1.44 4.39 4.39 0 0 0-2.04-1.89Zm-2.1 3.94c.11 0 .2-.01.25.06.07.09.06.22.06.34 0 .2-.14.36-.24.48l-.2.28c.01-.4.06-.78.13-1.15Zm30.45 2.57h-9.9c.01 1.2.53 2.32 1.43 3.1a4.62 4.62 0 0 0 3.24 1.27c1.37 0 2.59-.51 3.7-1.55.35-.3.68-.45 1-.45.35 0 .64.1.89.3.21.21.34.52.34.88 0 .37-.16.7-.46 1.03a7.3 7.3 0 0 1-5.47 2.16c-2.2 0-4.03-.7-5.42-2.1a7.31 7.31 0 0 1-2.16-5.46c0-2.21.7-4.07 2.12-5.5a7.3 7.3 0 0 1 5.32-2.12c1.85 0 3.36.52 4.6 1.55a6.94 6.94 0 0 1 2.22 4.49c.04.28.07.6.07.94 0 .98-.52 1.46-1.52 1.46Zm-9.9-2.12h8.56a4.4 4.4 0 0 0-1.09-2.95c-.7-.76-1.67-1.13-2.94-1.13a4.4 4.4 0 0 0-3.1 1.2 4.32 4.32 0 0 0-1.43 2.88Zm21.1-2.98a3.93 3.93 0 0 0-2.76-1.09 3.7 3.7 0 0 0-1.89.45c-.5.3-.8.85-.79 1.43-.02.55.28 1.05.76 1.3.52.3 1.34.58 2.53.85 1.51.34 2.7.85 3.55 1.5a3.27 3.27 0 0 1 1.26 2.75c0 1.58-.54 2.77-1.63 3.5a6.93 6.93 0 0 1-4.1 1.15 7.04 7.04 0 0 1-4.73-1.6c-.4-.38-.61-.77-.61-1.16 0-.37.12-.67.37-.92.2-.24.51-.35.88-.35.33 0 .7.14 1.05.45.84.8 1.95 1.24 3.1 1.27.82 0 1.49-.18 2.04-.51.54-.34.82-.85.82-1.59 0-.63-.28-1.09-.85-1.42-.58-.33-1.55-.63-2.92-.97-.57-.15-1.09-.3-1.48-.46a6.5 6.5 0 0 1-1.28-.66 2.8 2.8 0 0 1-1.06-1.16 3.78 3.78 0 0 1-.37-1.7c0-1.45.55-2.54 1.62-3.3a6.53 6.53 0 0 1 3.81-1.1c1.7 0 3.1.45 4.16 1.37.46.36.68.75.68 1.15 0 .34-.13.63-.34.88-.24.25-.54.36-.92.36-.3 0-.6-.14-.9-.42Zm8.14-8.14c0 .52-.19.94-.55 1.28-.75.72-1.96.72-2.7 0-.37-.32-.56-.79-.55-1.27 0-.52.18-.95.54-1.3.35-.37.84-.57 1.34-.56.52 0 .97.19 1.37.52.36.36.55.82.55 1.34v-.01Zm-.5 6.53V22.5c0 .58-.14 1-.45 1.21-.3.25-.63.37-.97.37-.36 0-.7-.14-.97-.37-.3-.2-.45-.63-.45-1.2V10.78c0-.58.15-1 .45-1.24.3-.21.63-.34.97-.34.33 0 .67.13.97.34.3.24.46.66.46 1.24Zm3.77 18.34c-.48-.4-.73-.8-.73-1.25 0-.36.13-.66.37-.94.24-.27.57-.4.97-.4.33 0 .7.16 1.09.43a7 7 0 0 0 4.37 1.67c3.37 0 5.07-1.76 5.07-5.31v-1.85h-.06a5.07 5.07 0 0 1-2.15 1.82c-.9.45-1.9.68-2.92.67-2.15 0-3.92-.7-5.25-2.13a7.44 7.44 0 0 1-2-5.28 7.5 7.5 0 0 1 2-5.34 6.83 6.83 0 0 1 5.22-2.16c1.07 0 2.07.24 3 .7a5 5 0 0 1 2.19 2h.07v-1.02c0-.4.08-.73.27-.97.18-.25.36-.4.55-.46.36-.12.75-.12 1.12 0 .18.06.36.21.55.46.17.24.26.58.26.97v12.38c0 1.1-.12 2.1-.4 3.03a7.82 7.82 0 0 1-1.3 2.52 6.26 6.26 0 0 1-2.48 1.83c-1.07.42-2.34.63-3.77.63a9.32 9.32 0 0 1-6.04-2Zm1.7-12.63c0 1.4.42 2.58 1.3 3.58.87 1 2.15 1.54 3.47 1.49a4.65 4.65 0 0 0 3.55-1.46 5.11 5.11 0 0 0 1.34-3.61c0-1.4-.46-2.58-1.37-3.58a4.59 4.59 0 0 0-3.52-1.49 4.37 4.37 0 0 0-3.47 1.46 5.19 5.19 0 0 0-1.3 3.6Zm18.37-5.77v1.1h.09a4.43 4.43 0 0 1 1.85-1.98 5.51 5.51 0 0 1 2.82-.79c1.76 0 3.1.55 4.01 1.64.91 1.1 1.36 2.5 1.36 4.22v7.58c0 .58-.15 1-.45 1.22-.3.24-.63.36-.97.36-.36 0-.7-.13-.97-.36-.3-.22-.46-.64-.46-1.22v-6.65c0-2.94-1.1-4.4-3.28-4.4-1.12 0-2.06.42-2.76 1.3a5.17 5.17 0 0 0-1.09 3.44v6.31c0 .58-.15 1-.46 1.22-.3.24-.63.36-.97.36-.36 0-.7-.13-.97-.36-.3-.22-.45-.64-.45-1.22V10.73c0-.4.09-.73.26-.97.16-.25.34-.4.53-.46.36-.12.76-.12 1.12 0 .18.07.36.21.55.46.14.24.24.58.24.97Z"/>
  <path fill="#eed7c4" fill-rule="nonzero" d="m97.96 21.17-3.47-3.35c-.04-.04-1.26-1.16-1.26-2.49 0-1.62.99-2.6 2.65-2.6.97 0 1.88.78 2.33 1.2.43-.42 1.33-1.2 2.31-1.2 1.66 0 2.65.98 2.65 2.61 0 1.32-1.22 2.44-1.27 2.5l-3.45 3.33a.33.33 0 0 1-.25.1.34.34 0 0 1-.24-.1"/>
  <path fill="#d7d2e1" fill-rule="nonzero" d="M181.74 1.37c.46 0 .92.12 1.36.36.43.23.8.59 1.03 1.02a2.81 2.81 0 0 1 0 2.76 2.8 2.8 0 0 1-3.77 1.02 2.79 2.79 0 0 1-1.02-3.78 2.83 2.83 0 0 1 2.4-1.38Zm0 .46c-.4 0-.79.1-1.13.3-.37.2-.66.48-.87.85a2.33 2.33 0 0 0 0 2.3 2.32 2.32 0 0 0 3.15.85 2.33 2.33 0 0 0 .85-3.15 2.35 2.35 0 0 0-2-1.15Zm-1.21 3.83V2.7h1.02c.35 0 .6.03.76.08.15.06.28.15.37.29.1.13.14.28.14.43 0 .22-.08.41-.23.57a.92.92 0 0 1-.62.27c.1.05.19.1.25.16.12.12.27.31.44.59l.36.58h-.58l-.26-.47a2.4 2.4 0 0 0-.5-.69.62.62 0 0 0-.39-.1h-.28v1.26h-.48ZM181 4h.58c.28 0 .47-.04.57-.13a.4.4 0 0 0 .15-.33.4.4 0 0 0-.07-.23.43.43 0 0 0-.2-.16 1.51 1.51 0 0 0-.49-.05h-.54V4Z"/>
</svg>
