<svg xmlns="http://www.w3.org/2000/svg" xml:space="preserve" fill-rule="evenodd" stroke-linejoin="round" stroke-miterlimit="2" clip-rule="evenodd" viewBox="0 0 780 227">
  <path fill="#f7f9fb" fill-rule="nonzero" d="M348.2 3.48c41.6-1.83 83.13-2.34 124.17-2.84C559.47-.4 650.75 8 717.89 41.57c41.38 20.68 66.12 59.02 61.32 94.48-4.56 33.93-37.7 63.83-88.5 77.3-111.79 29.66-198.98-31-306.76-17.96-18.7 2.27-36.72 7.24-54.37 12.43-67.67 19.8-145.43 24.97-210.97 9.35C58.15 202.75-19.85 158 5.37 109.29c23-44.4 101.4-73.54 165.75-86.37C229.2 11.35 288.72 6.07 348.21 3.48Z"/>
</svg>
