<svg xmlns="http://www.w3.org/2000/svg" xml:space="preserve" fill-rule="evenodd" stroke-linejoin="round" stroke-miterlimit="2" clip-rule="evenodd" viewBox="0 0 295 171">
  <path fill="#f8f8f4" fill-rule="nonzero" d="M110.56 7.13c15.2-2.5 30.56-4.07 45.78-5.6 32.27-3.23 67.67.14 98.29 22.24 18.87 13.61 34.48 40.31 38.6 65.83 3.97 24.42-3.39 46.73-20.05 57.82-36.68 24.41-79.28-16.45-117.26-4.05-6.6 2.16-12.46 6.23-18.19 10.46-21.89 16.1-50 22.05-77.02 12.75C35.79 158-.74 128.23.53 92.68c1.15-32.43 25.49-55.53 47.3-66.55 19.71-9.96 41-15.42 62.73-19Z"/>
</svg>
