<svg xmlns="http://www.w3.org/2000/svg" xml:space="preserve" fill-rule="evenodd" stroke-linejoin="round" stroke-miterlimit="2" clip-rule="evenodd" viewBox="0 0 868 427">
  <path fill="#fdf9f6" fill-rule="nonzero" d="M26.82 145.57C-1.3 196.85-9.88 259.23 15.43 314.2c28.72 62.52 94.56 97.43 157.46 108.67 70.62 12.66 129.3-12.58 194.11-38.75 65.89-26.62 106.77-15.56 171.67 3.83 75.02 22.43 159.76 43.08 238.1 28.32 32.87-6.2 65.77-24 81.21-54.94 23.86-47.75-2.56-103.18-20.4-147.95-18.09-45.4-49.88-84.37-87.47-113.48C652.05 23.92 509.78-4.66 390.05 1.36 297.87 6 183.22 15.14 102.27 64.81c-30.77 18.86-57.23 47.45-75.45 80.76Z"/>
</svg>
