<svg xmlns="http://www.w3.org/2000/svg" xml:space="preserve" fill-rule="evenodd" stroke-linejoin="round" stroke-miterlimit="2" clip-rule="evenodd" viewBox="0 0 97 139">
  <path fill="#fbf2ec" fill-rule="nonzero" d="M11.87 82.41c-4.56-4.54-9.1-9.09-10.6-15.73-2-8.8 1.28-17.36 6.2-24.57C18.02 26.7 35.52 15.5 51.98 7.36 62.5 2.16 78.25-4.58 88.2 5.26c24.43 24.16-14.43 73.14-12.6 101.13.52 7.99 2.82 16.75-1.52 23.46-2.53 3.9-6.9 6.27-11.38 7.52-10.17 2.83-21.47.04-29.68-6.43-11.76-9.29-7.63-19.23-10.31-32.22-1.43-6.95-6.15-11.63-10.84-16.3Z"/>
</svg>
