<svg xmlns="http://www.w3.org/2000/svg" xml:space="preserve" fill-rule="evenodd" stroke-linejoin="round" stroke-miterlimit="2" clip-rule="evenodd" viewBox="0 0 161 231">
  <path fill="#f5e6dc" fill-rule="nonzero" d="M144.41 82.09c-8.6-11.28-18.27-21.88-19.42-35.8-.49-5.84.99-11.7.52-17.53C123.9 8.89 101.98 1.78 85.18.26 62.68-1.8 38.89 11.19 23.99 27.43 14.8 37.45 7.5 50.45 3.33 63.37-.4 74.96-.07 86.63 5.49 97.77c5.43 10.88 14.85 19.12 23.17 28.01 13.4 14.33 17.1 30.38 21.22 49.03 2.6 11.82 5.55 23.8 11.88 34.12 10.22 16.68 29.38 24.2 48.46 20.03 24.31-5.32 36.85-29.4 43.1-51.7 8.89-31.73 12.26-67.42-8.9-95.17Z"/>
</svg>
