<svg xmlns="http://www.w3.org/2000/svg" xml:space="preserve" fill-rule="evenodd" stroke-linejoin="round" stroke-miterlimit="2" clip-rule="evenodd" viewBox="0 0 859 600">
  <path fill="#f7f5fa" fill-rule="nonzero" d="M658.82 8.53c27.66 9.9 53.1 24.34 76.44 41.85 51.27 38.52 145.19 121.1 118.28 192-25.93 68.28-54.2 138.57-103.29 193.89-70.95 80-157.21 81.92-254.85 96.46-105.15 15.66-179.03 97.07-291.34 54.9-29.47-11.05-52-32.2-76.45-51.1-26.87-20.8-58.2-35.17-83.78-57.59-53.66-47-55.17-120.92-14.25-177.33 53.2-73.3 140.27-70.41 221.72-66.08 40.57 2.15 82.84 3.1 121.4-11.55 26.42-10.02 50.56-27.6 65.07-51.88 12.3-20.6 17.18-44.95 29.24-65.72 18.95-32.66 52.76-66.13 84.3-86.37C584.6-1.31 621.79-4.74 658.8 8.53Z"/>
</svg>
