<?xml version="1.0" encoding="UTF-8" standalone="no"?>
<!DOCTYPE svg PUBLIC "-//W3C//DTD SVG 1.1//EN" "http://www.w3.org/Graphics/SVG/1.1/DTD/svg11.dtd">
<svg width="100%" height="100%" viewBox="0 0 868 427" version="1.1" xmlns="http://www.w3.org/2000/svg" xmlns:xlink="http://www.w3.org/1999/xlink" xml:space="preserve" xmlns:serif="http://www.serif.com/" style="fill-rule:evenodd;clip-rule:evenodd;stroke-linejoin:round;stroke-miterlimit:2;">
    <g transform="matrix(1,0,0,1,-7686,-7527)">
        <g transform="matrix(1,0,0,0.832402,2405.5,5835.85)">
            <g transform="matrix(2.73041e-16,-5.35691,4.26717,3.13898e-16,1897.6,5494.28)">
                <path d="M613.67,799.13C602.17,792.54 588.18,790.53 575.85,796.46C561.83,803.19 554,818.62 551.48,833.36C548.64,849.91 554.3,863.66 560.17,878.85C566.14,894.29 563.66,903.87 559.31,919.08C554.28,936.66 549.65,956.52 552.96,974.88C554.35,982.58 558.34,990.29 565.28,993.91C575.99,999.5 588.42,993.31 598.46,989.13C608.64,984.89 617.38,977.44 623.91,968.63C640.95,945.65 647.36,912.31 646.01,884.25C644.97,862.65 642.92,835.78 631.78,816.81C627.55,809.6 621.14,803.4 613.67,799.13Z" style="fill:rgb(248,248,244);fill-rule:nonzero;"/>
            </g>
        </g>
    </g>
</svg>
