<svg xmlns="http://www.w3.org/2000/svg" xml:space="preserve" fill-rule="evenodd" stroke-linejoin="round" stroke-miterlimit="2" clip-rule="evenodd" viewBox="0 0 790 466">
  <path fill="#f6ebea" fill-rule="nonzero" d="M652.47 447.76c22.4-14.09 41.98-31.72 59.14-51.64 37.68-43.82 104.43-134.63 67.34-191.7-35.72-54.94-73.86-111.2-127.45-150.26-77.46-56.49-153.53-41.4-241.97-35.2-95.26 6.7-175.55-50.47-266.12 8.41-23.76 15.45-39.51 38.4-57.38 59.78-19.64 23.49-44.4 42.21-62.6 66.88C-14.74 205.75-2.03 271 44.6 312.61c60.6 54.07 136.47 34.59 207.13 14.94 35.19-9.78 72.1-18.83 108.73-13.46 25.09 3.67 49.62 14.43 66.96 32.93 14.7 15.72 23.61 36.16 38.14 52.06 22.83 25 58.85 47.84 90.38 59.5 33.28 12.25 66.55 8.03 96.53-10.82Z"/>
</svg>
