<svg xmlns="http://www.w3.org/2000/svg" xml:space="preserve" fill-rule="evenodd" stroke-linejoin="round" stroke-miterlimit="2" clip-rule="evenodd" viewBox="0 0 97 97">
  <path fill="#d19389" fill-rule="nonzero" d="m46.74 95.42 2.45.05-.01.97-5.95-.11.02-.97 2.45.04.12-6.65h1.03l-.11 6.67Zm-8.39.17-.92-.18-1.73-8.11 1.18.23.39 2 3.56.7 1.11-1.71 1.18.23-4.77 6.84Zm-.88-5.1.72 3.7h.02l2.09-3.14-2.83-.56Zm-6.78 3.05-2.46-1.07c-.45-.2-.79-.42-1.03-.67a2.2 2.2 0 0 1-.48-.76 1.78 1.78 0 0 1-.08-.8c.04-.25.11-.5.2-.71.1-.21.23-.42.4-.63a1.75 1.75 0 0 1 1.51-.64c.35 0 .74.1 1.19.3l1.51.66 1.35-3.08.94.4-3.05 7Zm.4-3.5-1.25-.54a3.47 3.47 0 0 0-.57-.2 1.5 1.5 0 0 0-.55-.04.99.99 0 0 0-.49.19c-.15.1-.28.29-.38.52-.1.24-.15.45-.12.64.02.18.08.35.19.49.1.14.24.26.41.37.17.1.34.2.53.28l1.24.55.99-2.25Zm34.1-4.32a2.04 2.04 0 0 1 1.66-.07c.57.2.99.58 1.25 1.12.26.55.29 1.1.09 1.69a2.2 2.2 0 0 1-2.82 1.34c-.58-.2-1-.58-1.26-1.14a2.2 2.2 0 0 1 1.08-2.94Zm-47.07-.62 1.87 1.59-.62.74-4.55-3.84.63-.74 1.88 1.59 4.29-5.1.79.68-4.29 5.08Zm65.34-5.08-.63.69L75 77.97l.81-.9 1.91.7 2.45-2.67-.88-1.82.82-.9 3.35 7.64Zm-67.21-6.73a4.1 4.1 0 0 1 .79 2.98 4.22 4.22 0 0 1-3.06 3.32 3.89 3.89 0 0 1-4.15-1.49 4 4 0 0 1-.79-2.98 3.97 3.97 0 0 1 1.61-2.6c.46-.35.94-.58 1.45-.72a3.8 3.8 0 0 1 2.94.39c.45.27.86.63 1.21 1.1Zm62.39 4.83 3.55 1.3h.01l-1.61-3.43-1.95 2.13Zm-63.17-4.25a2.89 2.89 0 0 0-.9-.8 2.88 2.88 0 0 0-2.19-.22 3.43 3.43 0 0 0-1.89 1.41 2.82 2.82 0 0 0 1.02 4.05 2.87 2.87 0 0 0 2.19.22 3.37 3.37 0 0 0 2.31-2.45 2.8 2.8 0 0 0-.54-2.2Zm66.15-7.25a2.16 2.16 0 0 0-.66.83.87.87 0 0 0-.06.22c0 .08.01.15.03.21.03.07.08.13.16.18.12.07.23.09.32.06a.44.44 0 0 0 .23-.15.84.84 0 0 0 .17-.28c.05-.11.08-.22.11-.32l.28-.1.4.89a3.7 3.7 0 0 1 2.18-1.3 4.05 4.05 0 0 1 2.85.49c.5.31.92.67 1.25 1.1a3.65 3.65 0 0 1 .76 2.87 4.27 4.27 0 0 1-1.59 2.66c-.41.32-.87.5-1.38.56l-.11-1.07c.35-.04.67-.17.97-.37.3-.2.54-.46.72-.76a2.64 2.64 0 0 0 .29-2.24 3.47 3.47 0 0 0-2.56-2.22 2.66 2.66 0 0 0-2.93 1.33c-.23.37-.35.75-.37 1.12-.02.38.06.75.21 1.11l-1.01.4a3.06 3.06 0 0 1-.13-.42c-.06-.2-.08-.44-.09-.72a3.66 3.66 0 0 1 .57-2.01l.07-.13-.22-.53-.16.27c-.07.1-.14.2-.23.29a.89.89 0 0 1-.28.2.74.74 0 0 1-.32.07.68.68 0 0 1-.35-.11.94.94 0 0 1-.35-.36 1.26 1.26 0 0 1-.03-.9 2.43 2.43 0 0 1 .55-.9c.13-.13.28-.25.44-.36l.27.4ZM9.34 64.44c.21-.26.33-.55.37-.87.03-.32 0-.63-.1-.92a1.64 1.64 0 0 0-.24-.48 1.4 1.4 0 0 0-.87-.6 1.08 1.08 0 0 0-.57.04c-.28.09-.46.25-.55.47-.09.23-.14.49-.15.78-.02.3-.02.62-.01.96.01.34-.02.67-.1.98-.07.32-.22.61-.44.88a2.17 2.17 0 0 1-1.75.72 1.96 1.96 0 0 1-.8-.22 2.64 2.64 0 0 1-1.32-1.65c-.13-.4-.2-.8-.21-1.2-.01-.39.11-.78.35-1.16l.99.56c-.15.18-.24.4-.29.67-.04.26-.01.54.08.83.09.27.2.48.34.64.13.16.27.27.42.34.14.08.29.11.43.11.15 0 .27-.01.38-.05.31-.1.52-.26.62-.5.11-.23.17-.5.18-.79.02-.3.02-.61 0-.95-.02-.34 0-.66.06-.97.06-.31.18-.6.37-.86s.51-.46.94-.6a2.18 2.18 0 0 1 1.89.2c.27.16.5.37.71.65a3.56 3.56 0 0 1 .66 2.33c-.02.47-.17.88-.43 1.24l-.96-.58Zm84.82-3.13-1.68 4.62-.91-.33 1.33-3.66-2.14-.77-1.24 3.4-.91-.33 1.24-3.4-2.3-.84-1.4 3.83-.91-.33L87 58.7l7.16 2.6Zm-92.77-3-.62-4.88.97-.12.48 3.86 2.26-.29-.45-3.59.96-.12.45 3.6 2.43-.31-.51-4.05.96-.12.64 5.07-7.57.95Zm94.8-7.45-.15 1.03-3.14-.45-.55 3.91 3.13.45-.14 1.03-7.56-1.08.15-1.03 3.45.5.56-3.92-3.45-.5.14-1.02 7.56 1.08ZM.63 49.26l.31-4.92.97.06-.25 3.88 2.27.15.23-3.62.97.07-.23 3.6 2.44.16.26-4.07.97.06-.33 5.1-7.61-.48Zm95.16-9.77.11 1.35-5.88 4.73v.02l6.25-.54.09 1.03-7.6.66-.12-1.31 5.89-4.77-.01-.03-6.24.55-.09-1.04 7.6-.65Zm-9.54-5.6a3.95 3.95 0 0 1 .15-3.08 4.1 4.1 0 0 1 2.34-1.99 4.13 4.13 0 0 1 3.06.12 3.85 3.85 0 0 1 2.02 2.33 3.95 3.95 0 0 1-.15 3.08 4.07 4.07 0 0 1-2.33 1.99c-.54.18-1.07.26-1.6.23a3.85 3.85 0 0 1-3.49-2.68Zm.91-.32a2.88 2.88 0 0 0 1.53 1.69c.34.14.71.22 1.11.23a3.42 3.42 0 0 0 2.95-1.64c.17-.32.28-.68.32-1.07a2.99 2.99 0 0 0-.78-2.24 2.85 2.85 0 0 0-2.01-.87 3.41 3.41 0 0 0-2.23.77 2.73 2.73 0 0 0-1.04 1.93c-.04.39.01.79.15 1.2ZM13.1 28.22c-.3.5-.75.84-1.34.99-.59.15-1.15.07-1.66-.23a2.1 2.1 0 0 1-1.02-1.35 2.1 2.1 0 0 1 .23-1.68c.31-.53.76-.86 1.35-1.02a2.17 2.17 0 0 1 1.69.25c.52.3.85.75 1 1.35.15.59.06 1.15-.25 1.69Zm75.62-3.92a2.41 2.41 0 0 0-.26-2.02 2.7 2.7 0 0 0-1.88-1.24 3.02 3.02 0 0 0-1.14.04 3.52 3.52 0 0 0-1.99 1.27c-.23.3-.39.63-.49.99-.1.35-.12.72-.06 1.1.06.38.21.76.45 1.13.24.37.52.64.85.82.33.18.69.28 1.09.3l-.08 1.1a3.5 3.5 0 0 1-1.13-.32 3.94 3.94 0 0 1-2.15-2.95 3.92 3.92 0 0 1 .73-2.87c.29-.41.65-.74 1.05-1 .5-.32 1.01-.54 1.53-.64a3.62 3.62 0 0 1 2.92.58 4.27 4.27 0 0 1 1.69 2.6c.1.5.06 1-.11 1.48l-1.02-.37ZM77.19 9.03l3.82 3.11-.61.75-3.02-2.45-1.44 1.76 2.82 2.29-.62.75-2.81-2.28-1.54 1.9 3.17 2.57-.61.75-3.97-3.23 4.81-5.92ZM26.91 7.96a2.15 2.15 0 0 0-1.04-.11c-.36.05-.69.17-.99.35a2.66 2.66 0 0 0-1.26 1.86 3.15 3.15 0 0 0 .5 2.28c.22.35.48.63.78.87a2.8 2.8 0 0 0 2.08.58c.38-.06.76-.2 1.14-.44.37-.23.64-.51.83-.84.18-.33.29-.7.31-1.09l1.09.1a3.15 3.15 0 0 1-.33 1.12 3.86 3.86 0 0 1-1.41 1.54 3.75 3.75 0 0 1-3.09.47 3.93 3.93 0 0 1-2.33-1.72 4.5 4.5 0 0 1-.62-1.54 3.57 3.57 0 0 1 .62-2.91 4.2 4.2 0 0 1 2.61-1.66c.52-.1 1.01-.05 1.49.13l-.38 1.01Zm37.78-5.33 4.58 1.8-.36.9-3.61-1.42-.84 2.11 3.37 1.33-.36.9-3.36-1.32-.9 2.27 3.8 1.5-.36.9-4.76-1.88 2.8-7.1ZM30.34 4.42l.97-.38 2.4 6.21L36.97 9l.35.9-4.23 1.64-2.75-7.11Zm7.17-2.46 1-.26 1.88 7.4-1 .25-1.88-7.4ZM55.48.62l-.74 4.61c-.04.24-.04.49-.02.75.03.26.09.5.21.75a1.7 1.7 0 0 0 1.36.95c.36.06.67.04.93-.05.26-.1.48-.24.67-.43.18-.2.32-.4.43-.65.1-.24.17-.48.21-.71l.74-4.62 1.02.16-.76 4.78a3.06 3.06 0 0 1-1.18 2 3.08 3.08 0 0 1-2.21.49c-.41-.07-.78-.2-1.11-.4a2.87 2.87 0 0 1-1.3-1.78c-.09-.39-.11-.8-.04-1.24l.77-4.78 1.02.17ZM51.2 7.76l-4.38.32a4.07 4.07 0 0 1-2.86-.9 3.8 3.8 0 0 1-1.36-2.71 3.91 3.91 0 0 1 .93-2.88A3.9 3.9 0 0 1 46.25.28a3.9 3.9 0 0 1 3.74 2.03c.24.45.37.95.41 1.5a3.85 3.85 0 0 1-.31 1.85A2.96 2.96 0 0 1 48.88 7v.02l2.26-.16.06.9Zm-4.49-.65a2.75 2.75 0 0 0 2.48-2 3.33 3.33 0 0 0-.17-2.3 2.77 2.77 0 0 0-2.73-1.56 2.75 2.75 0 0 0-2.47 1.93 3.18 3.18 0 0 0 .8 3.2 2.68 2.68 0 0 0 2.09.73Z"/>
</svg>
